<?xml version="1.0" encoding="UTF-8"?><svg id="_" xmlns="http://www.w3.org/2000/svg" viewBox="0 0 186.02 80"><defs><style>.cls-1{fill:#fff;}.cls-2{fill:#ffa800;}</style></defs><g><polygon class="cls-2" points="151.61 80 0 80 34.41 40 0 0 151.61 0 186.02 40 151.61 80"/><path class="cls-1" d="M150.69,77.99H4.86L37.25,40,4.86,2.01H150.69l32.68,37.99-32.68,37.99Zm-144.45-.57H150.43l32.19-37.42L150.43,2.58H6.25l31.82,37.42L6.25,77.42Z"/></g><g><path class="cls-1" d="M71.3,47.41h-8.02v-13.92h8.02v2.42h-5.06v3.06h4.71v2.42h-4.71v3.59h5.06v2.44Z"/><path class="cls-1" d="M78.46,45.29c.51,0,1.12-.11,1.83-.33v2.16c-.72,.32-1.61,.49-2.67,.49-1.16,0-2.01-.29-2.54-.88-.53-.59-.79-1.47-.79-2.64v-5.13h-1.39v-1.23l1.6-.97,.84-2.25h1.86v2.27h2.98v2.18h-2.98v5.13c0,.41,.12,.72,.35,.91,.23,.2,.54,.3,.92,.3Z"/><path class="cls-1" d="M89.2,47.41l-.56-1.45h-.08c-.49,.62-.99,1.04-1.51,1.28-.52,.24-1.19,.36-2.02,.36-1.02,0-1.83-.29-2.41-.88-.59-.58-.88-1.42-.88-2.49s.4-1.96,1.19-2.5c.79-.54,1.98-.83,3.58-.89l1.85-.06v-.47c0-1.08-.55-1.62-1.66-1.62-.85,0-1.85,.26-3,.77l-.96-1.96c1.22-.64,2.58-.96,4.07-.96s2.52,.31,3.28,.93c.76,.62,1.14,1.57,1.14,2.84v7.09h-2.03Zm-.86-4.93l-1.12,.04c-.84,.03-1.47,.18-1.89,.46s-.62,.7-.62,1.28c0,.82,.47,1.23,1.41,1.23,.67,0,1.21-.19,1.61-.58,.4-.39,.6-.9,.6-1.54v-.88Z"/><path class="cls-1" d="M100.06,47.6c-1.25,0-2.23-.45-2.94-1.36h-.15c.1,.89,.15,1.4,.15,1.54v4.31h-2.9v-15.33h2.36l.41,1.38h.13c.68-1.05,1.69-1.58,3.02-1.58,1.26,0,2.24,.49,2.95,1.46s1.07,2.32,1.07,4.05c0,1.14-.17,2.12-.5,2.96-.33,.84-.81,1.48-1.42,1.91s-1.34,.66-2.17,.66Zm-.86-8.71c-.72,0-1.24,.22-1.57,.66-.33,.44-.5,1.17-.51,2.19v.31c0,1.14,.17,1.96,.51,2.46,.34,.5,.88,.74,1.61,.74,1.3,0,1.95-1.07,1.95-3.22,0-1.05-.16-1.83-.48-2.36-.32-.52-.82-.79-1.51-.79Z"/><path class="cls-1" d="M113.31,47.41l-.56-1.45h-.08c-.49,.62-.99,1.04-1.51,1.28-.52,.24-1.19,.36-2.02,.36-1.02,0-1.83-.29-2.41-.88s-.88-1.42-.88-2.49,.4-1.96,1.19-2.5c.79-.54,1.98-.83,3.58-.89l1.85-.06v-.47c0-1.08-.55-1.62-1.66-1.62-.85,0-1.85,.26-3,.77l-.96-1.96c1.22-.64,2.58-.96,4.08-.96s2.52,.31,3.28,.93c.76,.62,1.14,1.57,1.14,2.84v7.09h-2.03Zm-.86-4.93l-1.12,.04c-.84,.03-1.47,.18-1.89,.46-.41,.28-.62,.7-.62,1.28,0,.82,.47,1.23,1.41,1.23,.67,0,1.21-.19,1.61-.58,.4-.39,.6-.9,.6-1.54v-.88Z"/><path class="cls-1" d="M131.84,36.6c0,.87-.26,1.61-.79,2.22-.53,.61-1.27,1.03-2.22,1.26v.06c1.12,.14,1.97,.48,2.55,1.02,.58,.54,.87,1.27,.87,2.19,0,1.34-.49,2.38-1.46,3.13-.97,.75-2.36,1.12-4.16,1.12-1.51,0-2.85-.25-4.02-.75v-2.5c.54,.27,1.13,.49,1.78,.67s1.29,.26,1.92,.26c.97,0,1.69-.17,2.15-.5,.46-.33,.7-.86,.7-1.59,0-.65-.27-1.12-.8-1.39s-1.38-.41-2.55-.41h-1.06v-2.26h1.08c1.08,0,1.87-.14,2.37-.42s.75-.77,.75-1.45c0-1.05-.66-1.58-1.98-1.58-.46,0-.92,.08-1.4,.23s-1,.42-1.58,.79l-1.36-2.03c1.27-.91,2.78-1.37,4.54-1.37,1.44,0,2.58,.29,3.41,.88s1.25,1.4,1.25,2.44Z"/></g></svg>