<?xml version="1.0" encoding="UTF-8"?><svg xmlns="http://www.w3.org/2000/svg" viewBox="0 0 250.25 464"><defs><style>.g{opacity:.7;}.h{fill:#fff;}.i{fill:#dbdbdb;}.j{opacity:.5;}.k{fill:#a6a6a6;}.l{opacity:.2;}.m{fill:#c7c7c7;}.n{opacity:.1;}.o{fill:#ebebeb;}.p{fill:#ffc727;}.q{fill:#263238;}</style></defs><g id="a"/><g id="b"/><g id="c"/><g id="d"/><g id="e"/><g id="f"><g><g><g><rect class="h" x="52.92" y="123.73" width="53.08" height="53.08"/><path class="i" d="M108.77,120.97H50.16v58.6h58.6v-58.6Zm-55.84,55.84v-53.08h53.08v53.08H52.92Z"/><rect class="o" x="63.2" y="131.62" width="18.35" height="41.37" transform="translate(144.76 304.61) rotate(180)"/><rect class="m" x="68.87" y="139.67" width="21.2" height="21.2" transform="translate(158.93 300.54) rotate(180)"/><rect class="m" x="78.33" y="151.4" width="2.26" height="58.61" transform="translate(260.17 101.24) rotate(90)"/></g><g><rect class="h" x="52.92" y="49.01" width="53.08" height="53.08"/><rect class="m" x="57.47" y="58.14" width="40.04" height="13.86"/><path class="i" d="M108.77,46.25H50.16v58.61h58.6V46.25Zm-55.84,55.84V49.01h53.08v53.08H52.92Z"/><rect class="o" x="68.87" y="64.96" width="21.2" height="21.2"/><rect class="m" x="78.33" y="76.69" width="2.26" height="58.61" transform="translate(185.46 26.53) rotate(90)"/></g><g><rect class="h" x="52.92" y="199.97" width="53.08" height="53.08"/><rect class="o" x="81.36" y="205.86" width="17.41" height="29.13"/><path class="i" d="M108.77,197.21H50.16v58.6h58.6v-58.6Zm-55.84,55.84v-53.08h53.08v53.08H52.92Z"/><rect class="m" x="68.87" y="215.91" width="21.2" height="21.2"/><rect class="m" x="78.33" y="227.64" width="2.26" height="58.61" transform="translate(336.41 177.48) rotate(90)"/></g></g><g><path class="o" d="M164.55,375.45c-8.72,.31-18.63-2.4-23.78-9.96-4.28-6.28-3.95-14.53-.79-21.21,1.66-3.51,4.07-6.57,7.07-9.04,3.67-3.02,7.96-5.16,12.17-7.31,7.94-4.06,17.08-9.11,19.76-18.32,2.35-8.1-2.22-16.44-8.89-20.96-4.66-3.16-10.4-4.63-16.03-4.33-.13-.45-.27-.9-.43-1.34-2.59-6.84-9.05-11.66-15.86-13.8-7.8-2.46-16.44-2.04-24.01,1.02-1.87,.76-3.67,1.68-5.38,2.75-.56,.35-.06,1.25,.5,.89,6.76-4.25,14.97-5.98,22.88-4.95,7.26,.94,14.4,4.29,18.72,10.38,1.1,1.56,1.98,3.28,2.52,5.1-1.98,.19-3.93,.59-5.81,1.23-3.38,1.15-8.53,3.43-8.16,7.75,.27,3.13,3.25,5.72,6.33,5.88,3.76,.19,6.91-2.87,8.28-6.12,1.04-2.46,1.19-5.2,.66-7.8,5.33-.25,10.75,1.17,15.19,4.15,6.64,4.46,11,12.84,8.21,20.76-1.5,4.25-4.7,7.7-8.21,10.42-3.6,2.8-7.72,4.81-11.76,6.88-4.03,2.06-8.07,4.2-11.56,7.1-2.83,2.35-5.15,5.27-6.8,8.56-3.1,6.19-3.94,13.73-.99,20.14,3.56,7.72,11.84,11.76,19.92,12.84,2.07,.27,4.16,.37,6.25,.29,.66-.02,.66-1.05,0-1.02Zm-10.98-86.83c-.12,3.57-1.91,7.31-5.23,8.94-1.53,.75-3.3,.9-4.87,.19-1.36-.62-2.54-1.75-3.11-3.14-1.73-4.24,3.61-6.78,6.82-7.91,1.96-.69,4.01-1.12,6.08-1.3,.23,1.05,.35,2.12,.31,3.22Z"/><path class="o" d="M246.14,285.76c-6.76,.62-13.44,2.21-19.75,4.71-6.11,2.42-12.03,5.66-17.12,9.83-4.86,3.98-8.92,9.01-10.85,15.06-.02,.07-.04,.14-.06,.21-2.82,.89-5.54,2.26-8,3.63-4.79,2.65-9.16,6.05-12.98,9.97-7.59,7.8-13.01,17.78-15.15,28.47-.26,1.29-.47,2.6-.63,3.91-.08,.66,.94,.85,1.02,.19,1.26-10.23,5.57-19.95,12.04-27.95,3.24-4,7-7.56,11.2-10.53,3.69-2.62,7.82-4.97,12.15-6.43-.63,2.5-.89,5.09-.64,7.66,.29,2.97,1.25,6.13,3.65,8.08,1.03,.84,2.31,1.45,3.64,1.58,1.56,.15,3.06-.35,4.38-1.16,2.39-1.47,4.2-3.88,4.92-6.59,.72-2.69,.21-5.66-1.38-7.95-1.55-2.22-4.05-3.5-6.71-3.79-2.11-.23-4.23,.03-6.3,.57,1.59-4.65,4.52-8.76,8.1-12.14,4.52-4.27,10-7.57,15.63-10.16,5.8-2.67,11.97-4.55,18.27-5.55,1.55-.25,3.11-.44,4.67-.58,.66-.06,.57-1.09-.09-1.03Zm-46.52,30.56c2.47-.69,5.16-1.03,7.68-.35,2.62,.7,4.64,2.65,5.5,5.21,.89,2.65,.38,5.57-1.17,7.87-1.54,2.29-4.34,4.54-7.26,4.01-2.97-.55-4.76-3.27-5.5-5.99-.79-2.89-.71-6.03-.11-8.95,.12-.56,.27-1.11,.42-1.66,.15-.04,.3-.1,.45-.14Z"/><path class="o" d="M84.25,429.29c-2.46-12.4-3.69-25.49-.32-37.85,2.67-9.81,8.64-19.01,17.35-24.48,4.34-2.73,9.19-4.27,14.31-4.65,5.4-.39,10.81,.19,16.21-.26,5.09-.43,9.96-1.96,13.81-5.41,3.6-3.22,6.04-7.69,7.03-12.39,2.11-9.96-2.83-20.13-10.74-26.15-7.7-5.86-19.05-8.12-27.74-3.02-.95,.56-1.84,1.22-2.66,1.96-3.9-2.27-8.32-3.62-12.83-3.93-10.17-.7-20.02,4.65-25.55,13.11-1.32,2.02-2.36,4.22-3.12,6.51-.25,.76,.96,1.04,1.21,.29,3.04-9.19,11.24-16.39,20.73-18.26,6.31-1.24,13.02,.03,18.63,3.19-4.78,5.02-6.65,12.96-3.47,19.29,2.11,4.2,7.02,7.75,11.69,5.29,2-1.05,3.5-2.97,4.26-5.07,.86-2.38,.63-5.06-.16-7.43-1.65-4.92-5.47-9.06-9.71-11.93-.2-.13-.4-.25-.6-.38,.44-.37,.89-.73,1.37-1.05,8.13-5.39,19.3-3.43,26.81,2.12,7.72,5.71,12.71,15.51,10.66,25.17-.97,4.58-3.35,8.88-6.89,11.97-3.84,3.36-8.76,4.64-13.76,4.95-5.12,.32-10.25-.19-15.36,.2-4.75,.36-9.3,1.68-13.45,4.02-8.22,4.64-14.34,12.61-17.71,21.34-4.24,10.98-4.24,23.15-2.65,34.66,.4,2.87,.89,5.72,1.46,8.55,.16,.78,1.34,.42,1.19-.36Zm34.39-104.44c2.94,3.82,5.26,9.35,2.42,13.86-1.17,1.86-3.17,3.36-5.43,3.41-2.66,.06-5.03-1.86-6.5-3.93-4.22-5.94-2.46-14.61,2.52-19.63,2.68,1.67,5.07,3.79,6.99,6.29Z"/></g><path class="q" d="M0,456.92c78.95-.61,167.51-.62,246.46,0-78.95,.62-167.51,.61-246.46,0H0Z"/><g><g><path class="q" d="M127.63,99.43c-.79-5.59-.9-11.19-.31-16.8,.79,5.58,.89,11.19,.31,16.8h0Z"/><path class="q" d="M89.26,110.13c-3.47-4.44-6.37-9.25-8.67-14.4,3.48,4.44,6.37,9.25,8.67,14.4h0Z"/><path class="q" d="M61.38,138.59c-5.23-2.11-10.14-4.82-14.71-8.13,5.23,2.11,10.14,4.83,14.71,8.13h0Z"/><path class="q" d="M51.47,177.17c-5.59,.79-11.19,.9-16.8,.31,5.58-.79,11.19-.89,16.8-.31h0Z"/><path class="q" d="M62.18,215.54c-4.44,3.47-9.25,6.37-14.4,8.67,4.44-3.48,9.25-6.37,14.4-8.67h0Z"/><path class="q" d="M195.46,214.16c5.23,2.11,10.14,4.82,14.71,8.13-5.23-2.11-10.14-4.83-14.71-8.13h0Z"/><path class="q" d="M205.37,175.58c5.59-.79,11.19-.9,16.8-.31-5.58,.79-11.19,.89-16.8,.31h0Z"/><path class="q" d="M194.66,137.21c4.44-3.47,9.25-6.37,14.4-8.67-4.44,3.48-9.25,6.37-14.4,8.67h0Z"/><path class="q" d="M166.21,109.34c2.11-5.23,4.82-10.14,8.13-14.71-2.11,5.23-4.83,10.14-8.13,14.71h0Z"/></g><g><g class="j"><path class="p" d="M193.72,180.29c-3.24,40.56-37.03,52.78-37.03,52.78-2.48,6.16-5.72,21.85-5.72,21.85h-45.1s-3.24-15.68-5.72-21.85c0,0-33.79-12.23-37.03-52.78-2.25-28.18,17.82-69.84,65.06-69.85h.49c47.24,0,67.31,41.67,65.06,69.85Z"/></g><g class="g"><path class="p" d="M188.15,180.5c-2.96,37.09-33.87,48.28-33.87,48.28-2.27,5.64-5.23,26.15-5.23,26.15h-41.25s-2.96-20.51-5.23-26.15c0,0-30.9-11.18-33.87-48.28-2.06-25.77,16.3-63.87,59.5-63.88h.45c43.21,0,61.56,38.11,59.5,63.88Z"/></g><g><rect class="q" x="109.33" y="187.13" width="3" height="72.24" transform="translate(-39.09 24.13) rotate(-10.58)"/><rect class="q" x="109.9" y="221.74" width="72.24" height="3" transform="translate(-100.2 325.88) rotate(-79.44)"/><path class="q" d="M128.42,211.28c-4.03,0-7.74-3.75-10.34-8.56-1.23,1.39-2.55,2.13-3.83,2.13-6.63,0-9.3-13.73-9.41-14.31l.98-.19c.03,.13,2.62,13.5,8.43,13.5h0c1.06,0,2.22-.74,3.33-2.09-2.06-4.13-3.32-8.87-3.32-12.63,0-3.82,1.43-6.01,3.92-6.01h0c1.59,0,2.84,.71,3.62,2.06,2,3.47,.54,10.67-2.09,15.22-.31,.53-.62,1.02-.95,1.46,2.45,4.69,5.93,8.41,9.65,8.41h0c3.4,0,6.37-3.11,8.5-7.24-2.62-2.85-4.12-7.51-4.12-11.94,0-4.92,1.84-7.97,4.8-7.97,2.38,0,3.74,2.39,3.74,6.56,0,3.68-1.14,8.84-3.23,13.19,1.24,1.16,2.76,1.89,4.56,1.89h0c4.13,0,7.76-9.8,8.81-13.58l.96,.27c-.16,.58-4.04,14.31-9.77,14.31h0c-1.91,0-3.6-.75-5.01-2-2.22,4.24-5.37,7.51-9.25,7.51Zm9.18-27.16c-2.8,0-3.8,3.76-3.8,6.97,0,3.53,1.16,8.15,3.58,11.01,1.86-3.96,2.96-8.66,2.96-12.42,0-1.67-.27-5.56-2.74-5.56Zm-19.41,0h0c-2.54,0-2.92,3.14-2.92,5.01,0,3.43,1.14,7.82,3,11.71,.2-.29,.4-.61,.59-.94,2.44-4.22,3.89-11.1,2.09-14.22-.61-1.05-1.51-1.56-2.75-1.56Z"/></g><g><rect class="m" x="100.17" y="254.98" width="56.5" height="31.1"/><g><path class="m" d="M150.27,286.07c-3.32,5.89-9.69,11.16-21.85,11.16s-18.52-5.27-21.85-11.16h43.69Z"/><path class="k" d="M150.27,286.07c-.95,1.68-2.15,3.31-3.66,4.78l-38.9-2.98c-.41-.59-.79-1.19-1.13-1.8h43.69Z"/></g><g><polygon class="k" points="158.32 260.91 98.52 266.44 98.52 263.72 158.32 258.19 158.32 260.91"/><polygon class="k" points="158.32 269.12 98.52 274.65 98.52 271.93 158.32 266.4 158.32 269.12"/><polygon class="k" points="158.32 277.32 98.52 282.85 98.52 280.14 158.32 274.61 158.32 277.32"/></g></g><g class="j"><path class="h" d="M77.35,170.82c2.07,.35,4.75-10.34,16.25-22.72,5.11-5.5,24.48-12.37,23.08-18.72s-18.68,.18-27.37,10.25c-13.99,16.21-13.87,30.87-11.96,31.18Z"/><path class="h" d="M179.28,173.04c3.81,0,3.82-5.92,0-5.92s-3.82,5.92,0,5.92Z"/><path class="h" d="M160.64,217.58c2.08,1.59,12.19-7.74,16.75-18.87,3.78-9.24,4.44-20.92,1.89-21.6-2.54-.68-4.19,15.35-7.25,21.25-3.86,7.45-13.62,17.52-11.39,19.22Z"/></g></g></g><g><polygon class="p" points="49.38 92.72 56.65 91.38 58.27 83.72 59.89 91.38 67.16 92.73 59.93 94.49 58.27 101.73 56.62 94.49 49.38 92.72"/><polygon class="p" points="166.47 220.09 173.74 218.75 175.37 211.09 176.99 218.75 184.26 220.09 177.02 221.86 175.37 229.1 173.71 221.86 166.47 220.09"/><polygon class="p" points="70.22 204.02 74.28 203.27 75.18 198.99 76.09 203.27 80.15 204.02 76.11 205.01 75.18 209.05 74.26 205.01 70.22 204.02"/><polygon class="p" points="92.32 72.94 96.38 72.19 97.29 67.9 98.19 72.19 102.26 72.94 98.21 73.93 97.29 77.97 96.36 73.93 92.32 72.94"/><path class="p" d="M75.18,224.04c1.52,0,1.52-2.35,0-2.35s-1.52,2.35,0,2.35Z"/><path class="p" d="M189.78,209.05c1.07,0,1.07-1.67,0-1.67s-1.07,1.67,0,1.67Z"/><path class="p" d="M70.77,100.3c1.07,0,1.07-1.67,0-1.67s-1.07,1.67,0,1.67Z"/><path class="p" d="M206.66,112.97c1.07,0,1.07-1.67,0-1.67s-1.07,1.67,0,1.67Z"/><path class="p" d="M195.99,120.63c2.91,0,2.91-4.52,0-4.52s-2.91,4.52,0,4.52Z"/></g><g><rect class="p" x="32.04" y="353.62" width="192.75" height="103.29"/><rect class="l" x="32.04" y="353.62" width="192.75" height="103.29"/><rect class="l" x="32.05" y="353.62" width="72.96" height="103.3" transform="translate(137.07 810.54) rotate(180)"/><g><path class="p" d="M37.08,451.1c5.4-7.46,10.76-14.94,16.06-22.45l15.83-22.57,15.63-22.66c5.18-7.57,10.31-15.16,15.39-22.78-5.4,7.46-10.76,14.94-16.06,22.45l-15.83,22.57-15.63,22.67c-5.18,7.57-10.31,15.16-15.39,22.78Z"/><path class="p" d="M37.08,360.64c5.08,7.62,10.21,15.21,15.39,22.78l15.63,22.67,15.83,22.57c5.3,7.51,10.66,14.99,16.06,22.45-5.08-7.62-10.21-15.21-15.39-22.78l-15.63-22.66-15.83-22.57c-5.3-7.51-10.66-14.99-16.06-22.45Z"/></g><rect class="o" x="57.31" y="353.62" width="22.16" height="24.19"/><g><g><rect class="q" x="190.07" y="430.2" width="1.19" height="16.79"/><rect class="q" x="192.93" y="430.2" width="1.19" height="16.79"/><rect class="q" x="195.78" y="430.2" width="1.19" height="16.79"/><rect class="q" x="198.64" y="430.2" width="1.19" height="16.79"/><rect class="q" x="201.49" y="430.2" width="1.19" height="16.79"/><rect class="q" x="204.35" y="430.2" width="1.19" height="16.79"/><rect class="q" x="207.21" y="430.2" width="1.19" height="16.79"/><rect class="q" x="210.06" y="430.2" width="1.19" height="16.79"/><rect class="q" x="212.92" y="430.2" width="1.19" height="16.79"/></g><path class="q" d="M178.39,445.71l4.58,1.27h-10.75l4.58-1.29v-6.17c-3.28-.43-4.58-3.66-4.58-9.32h10.75c0,5.64-1.3,8.89-4.58,9.32v6.18Z"/><polygon class="q" points="169.71 438.76 166.91 438.76 166.91 446.98 159.72 446.98 159.72 438.76 156.9 438.76 163.31 430.2 169.71 438.76"/></g><polygon class="n" points="224.8 456.92 224.8 446.44 105.02 427.03 105.02 456.91 224.8 456.92"/><g><polygon class="p" points="10.38 327.79 83.35 327.79 105.02 353.62 32.04 353.62 10.38 327.79"/><polygon class="l" points="10.38 327.79 83.35 327.79 105.02 353.62 32.04 353.62 10.38 327.79"/></g><polygon class="p" points="246.46 327.79 173.49 327.79 151.83 353.62 224.8 353.62 246.46 327.79"/><polygon class="n" points="246.46 327.79 173.49 327.79 151.83 353.62 224.8 353.62 246.46 327.79"/></g></g></g></svg>