<?xml version="1.0" encoding="UTF-8"?><svg id="a" xmlns="http://www.w3.org/2000/svg" viewBox="0 0 322 259.7"><defs><style>.b{fill:#0070c0;}.c{fill:#fff;}.d{fill:#ffa800;}.e{fill:#506d8f;}</style></defs><polygon class="b" points="297.56 234.52 12.21 234.52 154.88 16.47 297.56 234.52"/><g><path class="c" d="M88.78,141.04h12.59v3.18h-4.31v13.1h-3.96v-13.1h-4.31v-3.18Z"/><path class="c" d="M110.01,141.04c3.99,0,5.98,2.3,5.98,5.12,0,2.04-1.11,3.96-3.62,4.71l3.76,6.44h-4.47l-3.39-6.14h-.95v6.14h-3.97v-16.28h6.65Zm-.23,3.29h-2.46v4.04h2.46c1.48,0,2.18-.77,2.18-2.04,0-1.21-.7-2-2.18-2Z"/><path class="c" d="M118.47,141.04h3.96v16.28h-3.96v-16.28Z"/><path class="c" d="M135.44,154.44h-6.07l-.97,2.87h-4.15l5.89-16.28h4.59l5.89,16.28h-4.2l-.97-2.87Zm.58-14.33l-3.59-1.9-3.59,1.9v-2.73l3.59-1.83,3.59,1.83v2.73Zm-3.62,5.31l-1.99,5.96h4.01l-2.02-5.96Z"/><path class="c" d="M156.95,141.04v16.28h-3.96l-6.63-10.04v10.04h-3.96v-16.28h3.96l6.63,10.09v-10.09h3.96Z"/><path class="c" d="M175,146.19h-4.38c-.6-1.09-1.72-1.67-3.2-1.67-2.55,0-4.24,1.81-4.24,4.64,0,3.01,1.72,4.77,4.57,4.77,1.97,0,3.34-1.04,3.94-2.88h-5.03v-2.92h8.63v3.69c-.84,2.8-3.55,5.61-7.84,5.61-4.87,0-8.3-3.41-8.3-8.28s3.41-8.3,8.28-8.3c3.89,0,6.72,1.99,7.58,5.33Z"/><path class="c" d="M177.41,141.04h3.97v9.74c0,1.92,.95,3.04,2.83,3.04s2.87-1.11,2.87-3.04v-9.74h3.96v9.72c0,4.5-3.15,6.72-6.91,6.72s-6.72-2.23-6.72-6.72v-9.72Z"/><path class="c" d="M197.78,141.04v13.22h5.19v3.06h-9.16v-16.28h3.96Z"/><path class="c" d="M212.57,157.48c-4.61,0-8.37-3.46-8.37-8.35s3.76-8.32,8.37-8.32,8.32,3.43,8.32,8.32-3.71,8.35-8.32,8.35Zm0-3.62c2.6,0,4.29-1.88,4.29-4.73s-1.69-4.73-4.29-4.73-4.31,1.83-4.31,4.73,1.67,4.73,4.31,4.73Z"/><path class="c" d="M95.81,176.99c0,4.82-3.34,8.14-8.53,8.14h-6.1v-16.28h6.1c5.19,0,8.53,3.29,8.53,8.14Zm-8.79,4.71c2.99,0,4.75-1.72,4.75-4.71s-1.76-4.75-4.75-4.75h-1.88v9.46h1.88Z"/><path class="c" d="M108,172.03h-6v3.29h5.31v3.06h-5.31v3.57h6v3.18h-9.97v-16.28h9.97v3.18Z"/><path class="c" d="M130.66,174h-4.38c-.6-1.09-1.72-1.67-3.2-1.67-2.55,0-4.24,1.81-4.24,4.64,0,3.01,1.72,4.77,4.57,4.77,1.97,0,3.34-1.04,3.94-2.88h-5.03v-2.92h8.63v3.69c-.83,2.8-3.55,5.61-7.84,5.61-4.87,0-8.3-3.41-8.3-8.28s3.41-8.3,8.28-8.3c3.89,0,6.72,1.99,7.58,5.33Z"/><path class="c" d="M140.84,185.29c-4.61,0-8.37-3.46-8.37-8.35s3.76-8.32,8.37-8.32,8.32,3.43,8.32,8.32-3.71,8.35-8.32,8.35Zm0-3.62c2.6,0,4.29-1.88,4.29-4.73s-1.69-4.73-4.29-4.73-4.31,1.83-4.31,4.73,1.67,4.73,4.31,4.73Z"/><path class="c" d="M162.44,168.85h4.2l-5.77,16.28h-4.96l-5.77-16.28h4.22l4.03,12.29,4.06-12.29Z"/><path class="c" d="M178.24,172.03h-6v3.29h5.31v3.06h-5.31v3.57h6v3.18h-9.97v-16.28h9.97v3.18Z"/><path class="c" d="M187.47,168.85c3.99,0,5.98,2.3,5.98,5.12,0,2.04-1.11,3.96-3.62,4.71l3.76,6.44h-4.47l-3.38-6.14h-.95v6.14h-3.96v-16.28h6.65Zm-.23,3.29h-2.46v4.04h2.46c1.48,0,2.18-.77,2.18-2.04,0-1.21-.7-2-2.18-2Z"/><path class="c" d="M210.48,168.85v16.28h-3.96l-6.63-10.04v10.04h-3.96v-16.28h3.96l6.63,10.09v-10.09h3.96Z"/><path class="c" d="M221.05,185.29c-4.61,0-8.37-3.46-8.37-8.35s3.76-8.32,8.37-8.32,8.32,3.43,8.32,8.32-3.71,8.35-8.32,8.35Zm0-3.62c2.6,0,4.29-1.88,4.29-4.73s-1.69-4.73-4.29-4.73-4.31,1.83-4.31,4.73,1.67,4.73,4.31,4.73Z"/></g><circle class="e" cx="154.7" cy="24.12" r="24.12"/><circle class="e" cx="297.88" cy="234.72" r="24.12"/><circle class="e" cx="24.12" cy="235.58" r="24.12"/><circle class="c" cx="154.7" cy="24.12" r="19.04"/><circle class="c" cx="297.88" cy="234.72" r="19.04"/><circle class="c" cx="24.12" cy="235.58" r="19.04"/><path class="d" d="M157.21,26.41h-4.32l-.69,2.05h-2.95l4.19-11.58h3.27l4.19,11.58h-2.99l-.69-2.05Zm-2.16-6.42l-1.42,4.24h2.85l-1.44-4.24Z"/><path class="d" d="M25.29,241.71h-5.4v-11.59h5.21c2.36,0,3.76,1.17,3.76,3,0,1.4-.84,2.31-1.96,2.64,1.35,.28,2.23,1.47,2.23,2.79,0,1.91-1.4,3.15-3.84,3.15Zm-.73-9.32h-1.85v2.43h1.85c.92,0,1.44-.41,1.44-1.2s-.51-1.22-1.44-1.22Zm.2,4.49h-2.05v2.56h2.08c.94,0,1.49-.43,1.49-1.25s-.58-1.3-1.52-1.3Z"/><path class="d" d="M297.3,229.99c2.76,0,4.83,1.55,5.5,4.06h-3.1c-.48-.99-1.35-1.49-2.43-1.49-1.73,0-2.92,1.29-2.92,3.33s1.19,3.33,2.92,3.33c1.07,0,1.95-.49,2.43-1.49h3.1c-.66,2.51-2.74,4.04-5.5,4.04-3.42,0-5.83-2.42-5.83-5.89s2.41-5.91,5.83-5.91Z"/></svg>