<?xml version="1.0" encoding="UTF-8"?><svg xmlns="http://www.w3.org/2000/svg" viewBox="0 0 250 258.83"><defs><style>.f{fill:#fff;}.g{fill:#dbdbdb;}.h{fill:#37474f;}.i{fill:#455a64;}.j{opacity:.06;}.k{fill:#e9a527;}.l{opacity:.2;}.m{fill:#c7c7c7;}.n{fill:#eb9481;}.o{opacity:.1;}.p{fill:#ebebeb;}.q{fill:#ffc727;}.r{fill:#f7a9a0;}.s{fill:#263238;}.t{fill:#3f5677;}</style></defs><g id="a"><g><path class="p" d="M35.44,213.85c-3.43,.06-12.06,.2-15.37,.24l-5.19,.02h-.27v-.27l-.03-6.54v-.29h.29l10.28,.04c2.56,.02,7.72,.08,10.28,.11h.14v.14l-.14,6.54h0Zm0,0l-.14-6.54,.14,.14c-2.57,.04-7.72,.09-10.28,.11l-10.28,.04,.29-.29-.03,6.54-.27-.27,5.09,.02c3.26,.04,12.1,.18,15.47,.24h0Z"/><path class="p" d="M68.59,144c-3.43,.06-12.06,.2-15.37,.24l-5.19,.02h-.27v-.27l-.03-6.54v-.29h.29l10.28,.04c2.56,.02,7.72,.08,10.28,.11h.14v.14l-.14,6.54h0Zm0,0l-.14-6.54,.14,.14c-2.57,.04-7.72,.09-10.28,.11l-10.28,.04,.29-.29-.03,6.54-.27-.27,5.09,.02c3.26,.04,12.1,.18,15.47,.24h0Z"/><path class="p" d="M23.97,222.1c-3.43,.06-12.06,.2-15.37,.24l-5.19,.02h-.27v-.27l-.03-6.54v-.29h.29l10.28,.04c2.56,.02,7.72,.08,10.28,.11h.14v.14l-.14,6.54h0Zm0,0l-.14-6.54,.14,.14c-2.57,.04-7.72,.09-10.28,.11l-10.28,.04,.29-.29-.03,6.54-.27-.27,5.09,.02c3.26,.04,12.1,.18,15.47,.24h0Z"/><path class="p" d="M172.76,75.01c-3.43,.06-12.06,.2-15.37,.24l-5.19,.02h-.27v-.27l-.03-6.54v-.29h.29l10.28,.04c2.56,.02,7.72,.08,10.28,.11h.14v.14l-.14,6.54h0Zm0,0l-.14-6.54,.14,.14c-2.57,.04-7.72,.09-10.28,.11l-10.28,.04,.29-.29-.03,6.54-.27-.27,5.09,.02c3.26,.04,12.1,.18,15.47,.24h0Z"/><path class="p" d="M161.29,83.26c-3.43,.06-12.06,.2-15.37,.24l-5.19,.02h-.27v-.27l-.03-6.54v-.29h.29l10.28,.04c2.56,.02,7.72,.08,10.28,.11h.14v.14l-.14,6.54h0Zm0,0l-.14-6.54,.14,.14c-2.57,.04-7.72,.09-10.28,.11l-10.28,.04,.29-.29-.03,6.54-.27-.27,5.09,.02c3.26,.04,12.1,.18,15.47,.24h0Z"/><path class="p" d="M149.86,75.01c-3.43,.06-12.06,.2-15.37,.24l-5.19,.02h-.27v-.27l-.03-6.54v-.29h.29l10.28,.04c2.56,.02,7.72,.08,10.28,.11h.14v.14l-.14,6.54h0Zm0,0l-.14-6.54,.14,.14c-2.57,.04-7.72,.09-10.28,.11l-10.28,.04,.29-.29-.03,6.54-.27-.27,5.09,.02c3.26,.04,12.1,.18,15.47,.24h0Z"/><path class="p" d="M233.65,222.1c-3.43,.06-12.06,.2-15.37,.24l-5.19,.02h-.27v-.27l-.03-6.54v-.29h.29l10.28,.04c2.56,.02,7.72,.08,10.28,.11h.14v.14l-.14,6.54h0Zm0,0l-.14-6.54,.14,.14c-2.57,.04-7.72,.09-10.28,.11l-10.28,.04,.29-.29-.03,6.54-.27-.27,5.09,.02c3.26,.04,12.1,.18,15.47,.24h0Z"/><path class="p" d="M222.18,20.01c-3.43,.06-12.06,.2-15.37,.24l-5.19,.02h-.27v-.27l-.03-6.54v-.29h.29l10.28,.04c2.56,.02,7.72,.08,10.28,.11h.14v.14l-.14,6.54h0Zm0,0l-.14-6.54,.14,.14-5.14,.06c-3.26,.05-12.05,.08-15.42,.09l.29-.29-.03,6.54-.27-.27,5.09,.02c3.26,.04,12.1,.18,15.47,.24h0Z"/><path class="p" d="M233.65,28.26c-3.43,.06-12.06,.2-15.37,.24l-5.19,.02h-.27v-.27l-.03-6.54v-.29h.29l10.28,.04c2.56,.02,7.72,.08,10.28,.11h.14v.14l-.14,6.54h0Zm0,0l-.14-6.54,.14,.14c-2.57,.04-7.72,.09-10.28,.11l-10.28,.04,.29-.29-.03,6.54-.27-.27,5.09,.02c3.26,.04,12.1,.18,15.47,.24h0Z"/><path class="p" d="M35.44,20.01c-3.43,.06-12.06,.2-15.37,.24l-5.19,.02h-.27v-.27l-.03-6.54v-.29h.29l10.28,.04c2.56,.02,7.72,.08,10.28,.11h.14v.14l-.14,6.54h0Zm0,0l-.14-6.54,.14,.14c-2.57,.04-7.72,.09-10.28,.11l-10.28,.04,.29-.29-.03,6.54-.27-.27,5.09,.02c3.26,.04,12.1,.18,15.47,.24h0Z"/></g><g><g><rect class="f" x="189.33" y="26.09" width="38.79" height="38.79"/><path class="g" d="M187.32,24.08v42.83h42.83V24.08h-42.83Zm2.02,2.02h38.79v38.79h-38.79V26.09Z"/><rect class="p" x="200.54" y="35.55" width="13.41" height="30.24" transform="translate(257.91 -156.57) rotate(90)"/><rect class="m" x="200.98" y="37.74" width="15.49" height="15.49" transform="translate(254.22 -163.24) rotate(90)"/><rect class="m" x="185.66" y="24.07" width="1.65" height="42.83" transform="translate(372.97 90.98) rotate(180)"/></g><g><rect class="f" x="189.33" y="81.18" width="38.79" height="38.79"/><rect class="m" x="211.33" y="87.38" width="10.13" height="29.26"/><path class="g" d="M187.32,79.16v42.83h42.83v-42.83h-42.83Zm2.02,2.02h38.79v38.79h-38.79v-38.79Z"/><rect class="p" x="200.98" y="92.83" width="15.49" height="15.49"/><rect class="m" x="185.66" y="79.16" width="1.65" height="42.83" transform="translate(372.97 201.15) rotate(180)"/></g><g><rect class="f" x="189.33" y="136.26" width="38.79" height="38.79"/><rect class="p" x="202.54" y="141.55" width="21.29" height="12.73"/><path class="g" d="M187.32,134.24v42.83h42.83v-42.83h-42.83Zm2.02,2.02h38.79v38.79h-38.79v-38.79Z"/><rect class="m" x="200.98" y="147.91" width="15.49" height="15.49"/><rect class="m" x="185.66" y="134.24" width="1.65" height="42.83" transform="translate(372.97 311.31) rotate(180)"/></g></g><g><g><path class="p" d="M9.48,19.45V163.15H102.89V19.45H9.48Zm3.45,3.45H99.44V159.71H12.93V22.9Z"/><rect class="f" x="12.93" y="22.9" width="86.51" height="136.81"/><rect class="p" x="12.93" y="89.58" width="86.51" height="3.45"/></g><rect class="g" x="3.14" y="163.15" width="106.09" height="9.89"/><g><path class="g" d="M99.44,111.41H12.93V22.9H99.44V111.41Zm-83.32-3.19H96.25V26.09H16.13V108.22Z"/><rect class="g" x="40.54" y="22.9" width="1.72" height="85.32"/><rect class="g" x="70.11" y="22.9" width="1.72" height="85.32"/></g></g></g><g id="b"><g><g><g><path class="q" d="M209.07,179.35s-5.64-4.26-3.12-6.18c.87-.67,2.83,1.45,3.12,3.81,.29-2.36,2.25-4.48,3.12-3.81,2.52,1.92-3.12,6.18-3.12,6.18Z"/><path class="l" d="M209.07,179.35s-5.64-4.26-3.12-6.18c.87-.67,2.83,1.45,3.12,3.81,.29-2.36,2.25-4.48,3.12-3.81,2.52,1.92-3.12,6.18-3.12,6.18Z"/><path class="q" d="M209.07,179.35c-3.4,0-5.93-3.1-5.16-4.45,.88-1.54,3.94,2.08,3.94,2.08,0,0-1.14-5.12,1.22-5.12s1.22,5.12,1.22,5.12c0,0,3.06-3.62,3.94-2.08,.77,1.35-1.76,4.45-5.16,4.45Z"/></g><g><g><path class="i" d="M199.45,215.9l-.55,12.41c-2.02,.18-8.92-1.75-12.22-5.06-2.49-2.49-1.84-10.2-.46-19.76,1.38-9.56,4.14-10.66,6.43-10.11,.57,.14,1.04,.39,1.45,.73,1.22,1.06,1.75,3.05,1.95,5.61,.28,3.4-1.1,12.32-.73,14.43,.11,.61,.44,1.02,.87,1.28,1.06,.65,2.73,.46,3.27,.46Z"/><path class="i" d="M218.47,233.1s-9.79,3.58-19.99,0c0,0,.96-39.42,2.21-46.04,1.24-6.62,4.04-9.79,8.55-9.79,.3,0,.59,.01,.87,.05,3.58,.38,6.08,3.13,6.85,8.36,.59,4.01,1.1,26.19,1.35,38.75,.1,5.14,.16,8.67,.16,8.67Z"/><path class="i" d="M230.27,210.68c-3.31,3.31-10.2,5.24-12.22,5.05l-.55-12.41c.76,0,3.77,.37,4.14-1.75,.37-2.11-1.01-11.03-.74-14.43,.28-3.4,1.1-5.79,3.4-6.34,.19-.05,.39-.08,.58-.1,2.16-.21,4.58,1.45,5.85,10.21,.61,4.21,1.08,8.07,1.19,11.28,.15,4.07-.26,7.09-1.65,8.48Z"/></g><g><g><g><path class="h" d="M209.07,177.25c.15-.02,.3,.05,.43,.13,.13,.08,.24,.19,.34,.31,.2,.23,.36,.49,.5,.76,.28,.54,.49,1.11,.67,1.69,.36,1.16,.61,2.35,.82,3.54,.4,2.39,.62,4.8,.79,7.21,.17,2.41,.24,4.83,.28,7.25l.14,7.24c.05,4.83,.13,9.66,.16,14.49l.03,7.24c0,2.42,0,4.83-.02,7.25-.1-2.41-.16-4.83-.25-7.24l-.19-7.24c-.12-4.83-.19-9.66-.28-14.49-.07-4.83-.05-9.66-.29-14.47-.12-2.41-.3-4.81-.63-7.2-.17-1.19-.38-2.38-.69-3.54-.16-.58-.35-1.15-.61-1.69-.13-.27-.27-.53-.46-.77-.09-.12-.2-.23-.32-.31-.12-.09-.26-.16-.41-.15Z"/><path class="h" d="M216.17,233.73c-.06-2.42-.1-4.83-.15-7.25l-.11-7.25-.15-14.49c-.02-2.41-.06-4.83-.12-7.24l-.04-1.81-.07-1.81c-.06-1.2-.15-2.41-.25-3.61-.1-1.2-.24-2.4-.41-3.59-.17-1.19-.38-2.38-.69-3.54-.31-1.16-.71-2.31-1.34-3.33-.31-.51-.69-.99-1.12-1.4-.44-.41-.94-.75-1.49-1.01,.55,.24,1.07,.57,1.53,.97,.45,.4,.84,.88,1.17,1.39,.66,1.02,1.09,2.18,1.43,3.34,.67,2.34,.99,4.75,1.24,7.15,.24,2.41,.41,4.82,.5,7.24,.08,2.42,.13,4.83,.18,7.25,.05,2.42,.07,4.83,.08,7.25v7.25l-.05,7.25c-.04,2.42-.08,4.83-.15,7.25Z"/></g><g><path class="h" d="M209.07,177.25c-.15-.01-.29,.06-.41,.15-.12,.09-.22,.2-.32,.31-.19,.23-.33,.5-.46,.77-.26,.54-.44,1.12-.61,1.69-.31,1.16-.53,2.35-.69,3.54-.34,2.38-.52,4.79-.63,7.2-.23,4.81-.21,9.64-.29,14.47-.09,4.83-.17,9.66-.28,14.49l-.19,7.24c-.08,2.41-.15,4.83-.25,7.24-.03-2.42-.02-4.83-.02-7.25l.03-7.24c.03-4.83,.11-9.66,.16-14.49l.14-7.24c.04-2.42,.11-4.84,.28-7.25,.17-2.41,.4-4.82,.79-7.21,.21-1.19,.46-2.38,.82-3.54,.18-.58,.39-1.15,.67-1.69,.15-.27,.3-.53,.5-.76,.1-.11,.21-.22,.34-.31,.13-.08,.27-.15,.43-.13Z"/><path class="h" d="M201.97,233.73c-.07-2.42-.11-4.83-.15-7.25l-.07-7.25v-7.25c.02-2.42,.04-4.83,.09-7.25,.04-2.42,.1-4.83,.18-7.25,.09-2.42,.26-4.84,.5-7.24,.25-2.4,.57-4.82,1.24-7.15,.34-1.16,.77-2.31,1.43-3.34,.33-.51,.72-.98,1.17-1.39,.46-.4,.97-.73,1.53-.97-.54,.26-1.05,.6-1.49,1.01-.43,.42-.81,.89-1.12,1.4-.63,1.03-1.03,2.17-1.34,3.33-.31,1.16-.52,2.35-.69,3.54-.17,1.19-.3,2.39-.41,3.59-.1,1.2-.19,2.4-.25,3.61l-.07,1.81-.04,1.81c-.06,2.41-.1,4.83-.12,7.24l-.15,14.49-.11,7.25c-.04,2.42-.08,4.83-.15,7.25Z"/></g><path class="h" d="M209.07,234.67c-.06-2.39-.09-4.79-.13-7.18l-.08-7.18c-.05-4.79-.04-9.57-.06-14.36,.02-4.79,.02-9.57,.06-14.36l.08-7.18c.05-2.39,.07-4.79,.14-7.18,.06,2.39,.09,4.79,.14,7.18l.08,7.18c.04,4.79,.04,9.57,.06,14.36-.02,4.79-.02,9.57-.06,14.36l-.08,7.18c-.05,2.39-.07,4.79-.13,7.18Z"/></g><g><path class="h" d="M192.65,193.38c.24,.2,.47,.43,.66,.68,.19,.26,.34,.54,.46,.84,.25,.59,.39,1.22,.49,1.85,.18,1.26,.2,2.54,.17,3.8-.07,2.54-.36,5.05-.7,7.55-.18,1.25-.34,2.49-.4,3.73-.05,1.24-.02,2.5,.28,3.69,.15,.59,.38,1.16,.73,1.66,.17,.25,.37,.48,.6,.68,.22,.2,.48,.37,.75,.52,.54,.3,1.14,.48,1.75,.61,.61,.12,1.24,.2,1.87,.26-.63,0-1.26-.03-1.89-.11-.63-.09-1.26-.23-1.85-.51-.29-.14-.58-.31-.83-.52-.26-.2-.49-.44-.69-.7-.4-.52-.67-1.13-.85-1.76-.37-1.25-.41-2.55-.38-3.82,.04-1.27,.2-2.54,.37-3.79,.18-1.25,.34-2.49,.48-3.74,.15-1.25,.26-2.5,.34-3.75,.07-1.25,.11-2.51,0-3.75-.06-.62-.16-1.24-.36-1.83-.2-.59-.53-1.14-.98-1.57Z"/><path class="h" d="M192.22,193.26c-.21,.04-.38,.16-.54,.29-.16,.13-.3,.29-.42,.45-.26,.32-.46,.68-.64,1.05-.36,.74-.62,1.53-.84,2.33-.44,1.6-.71,3.24-.92,4.88-.4,3.3-.78,6.61-.89,9.92-.05,1.65-.03,3.31,.21,4.94,.12,.81,.3,1.61,.62,2.35,.31,.73,.82,1.38,1.39,1.95,1.17,1.14,2.6,2.01,4.1,2.69,1.5,.7,3.1,1.19,4.73,1.54-1.65-.23-3.28-.67-4.83-1.29-1.55-.64-3.05-1.46-4.29-2.63-.62-.58-1.18-1.26-1.53-2.06-.36-.79-.55-1.63-.69-2.46-.26-1.67-.29-3.36-.24-5.03,.12-3.35,.53-6.67,1.02-9.96,.25-1.65,.58-3.3,1.08-4.9,.26-.8,.56-1.58,.97-2.32,.2-.37,.43-.72,.71-1.04,.14-.16,.29-.3,.46-.43,.17-.12,.36-.23,.57-.26Z"/></g><g><path class="h" d="M224.37,180.81c-.46,.44-.78,.99-.98,1.57-.2,.59-.3,1.21-.36,1.83-.11,1.24-.08,2.5,0,3.75,.08,1.25,.19,2.5,.34,3.75,.14,1.25,.3,2.5,.48,3.74,.17,1.25,.33,2.52,.37,3.79,.02,1.27-.02,2.57-.38,3.82-.18,.62-.45,1.23-.85,1.76-.2,.26-.43,.5-.69,.7-.25,.21-.54,.38-.83,.52-.59,.28-1.22,.42-1.85,.51-.63,.09-1.26,.11-1.89,.11,.63-.06,1.25-.14,1.87-.26,.61-.13,1.21-.31,1.75-.61,.27-.15,.52-.31,.75-.52,.23-.2,.43-.43,.6-.68,.34-.5,.58-1.06,.73-1.66,.3-1.19,.33-2.45,.28-3.69-.05-1.25-.21-2.48-.4-3.73-.34-2.5-.63-5.02-.7-7.55-.04-1.27-.01-2.54,.17-3.8,.1-.63,.24-1.26,.49-1.85,.12-.29,.28-.58,.46-.84,.19-.26,.41-.48,.66-.68Z"/><path class="h" d="M224.8,180.7c.21,.03,.4,.14,.57,.26,.17,.12,.32,.27,.46,.43,.28,.32,.5,.67,.71,1.04,.4,.74,.71,1.52,.97,2.32,.51,1.6,.83,3.25,1.08,4.9,.49,3.3,.9,6.62,1.02,9.96,.04,1.67,.02,3.36-.24,5.03-.14,.83-.34,1.67-.69,2.46-.35,.8-.91,1.48-1.53,2.06-1.25,1.17-2.75,1.99-4.29,2.63-1.56,.62-3.18,1.06-4.83,1.29,1.63-.35,3.22-.84,4.73-1.54,1.5-.69,2.94-1.55,4.1-2.69,.57-.57,1.08-1.22,1.39-1.95,.32-.73,.5-1.54,.62-2.35,.24-1.62,.26-3.28,.21-4.94-.1-3.31-.49-6.62-.89-9.92-.21-1.64-.48-3.28-.92-4.88-.22-.8-.48-1.59-.84-2.33-.18-.37-.39-.73-.64-1.05-.13-.16-.27-.32-.42-.45-.16-.13-.33-.25-.54-.29Z"/></g></g><g><g><path class="h" d="M201.97,184.19c.3,.35,.54,.73,.77,1.11,.12,.19,.22,.39,.33,.58,.11,.2,.21,.4,.3,.6l-.46-.06c.14-.17,.29-.34,.44-.51,.15-.16,.3-.33,.46-.49,.32-.32,.65-.62,1.02-.89-.2,.42-.44,.8-.69,1.17-.12,.19-.26,.36-.39,.54-.13,.18-.27,.35-.42,.52l-.27,.33-.19-.39c-.1-.2-.19-.4-.28-.61-.08-.21-.18-.41-.25-.62-.16-.42-.3-.85-.39-1.3Z"/><path class="h" d="M203.51,183.55c.08,.27,.11,.53,.12,.79,0,.26,0,.52-.03,.77-.03,.25-.08,.51-.15,.76-.07,.25-.16,.5-.31,.74-.08-.27-.11-.53-.12-.79,0-.26,0-.52,.04-.77,.03-.25,.08-.51,.15-.76,.07-.25,.16-.5,.31-.74Z"/></g><g><path class="h" d="M211.66,222.17c.34,.32,.63,.66,.9,1.01,.14,.17,.27,.36,.4,.54,.13,.18,.25,.37,.37,.56h-.46c.12-.19,.25-.37,.38-.56,.13-.18,.26-.36,.4-.54,.28-.35,.57-.69,.91-1-.15,.44-.34,.84-.55,1.24-.1,.2-.22,.39-.33,.59-.11,.19-.23,.38-.35,.57l-.23,.36-.23-.37c-.12-.19-.24-.38-.35-.57-.11-.2-.22-.39-.32-.59-.21-.4-.39-.81-.54-1.24Z"/><path class="h" d="M213.12,221.35c.11,.26,.17,.51,.21,.77,.04,.26,.06,.51,.06,.77,0,.26-.02,.51-.06,.77-.05,.26-.1,.51-.22,.77-.11-.26-.17-.51-.21-.77-.04-.26-.06-.51-.05-.77,0-.26,.02-.51,.06-.77,.05-.26,.1-.51,.22-.77Z"/></g><g><path class="h" d="M212.28,175.44c.16,.43,.27,.87,.36,1.31,.05,.22,.08,.44,.12,.66,.04,.22,.06,.44,.09,.66l-.42-.21c.19-.11,.39-.22,.58-.33,.2-.1,.39-.21,.6-.3,.4-.19,.82-.37,1.26-.5-.32,.33-.68,.61-1.04,.87-.18,.14-.37,.25-.55,.38-.19,.12-.38,.24-.57,.35l-.37,.22-.04-.43c-.02-.22-.04-.44-.06-.67,0-.22-.03-.45-.03-.67,0-.45,0-.9,.07-1.35Z"/><path class="h" d="M213.94,175.35c-.01,.28-.07,.54-.15,.78-.08,.25-.18,.49-.29,.71-.11,.23-.24,.45-.4,.66-.15,.21-.32,.41-.54,.59,.01-.28,.07-.54,.15-.78,.08-.25,.18-.49,.29-.71,.11-.23,.25-.45,.4-.66,.15-.21,.32-.41,.54-.59Z"/></g><g><path class="h" d="M232.55,198.68c0,.46-.05,.91-.13,1.35-.03,.22-.08,.44-.12,.66-.05,.22-.1,.44-.15,.65l-.31-.34c.22-.04,.44-.07,.66-.1,.22-.02,.44-.06,.67-.07,.45-.04,.9-.06,1.35-.02-.42,.19-.85,.33-1.28,.44-.22,.06-.43,.11-.65,.16-.22,.05-.44,.09-.66,.13l-.43,.08,.11-.42c.06-.22,.12-.43,.18-.64,.07-.21,.13-.43,.21-.64,.15-.42,.32-.84,.54-1.24Z"/><path class="h" d="M234.14,199.18c-.11,.26-.26,.47-.42,.68-.16,.2-.34,.39-.52,.57s-.39,.33-.6,.48c-.22,.14-.45,.27-.71,.36,.11-.26,.26-.48,.42-.68,.16-.2,.34-.39,.52-.57,.19-.17,.39-.33,.61-.48,.22-.14,.45-.27,.71-.36Z"/></g><g><path class="h" d="M221.72,194.07c.4,.22,.77,.49,1.12,.77,.18,.14,.34,.28,.52,.43,.17,.15,.33,.3,.5,.45l-.45,.11c.07-.21,.15-.42,.23-.63,.09-.21,.17-.41,.26-.62,.18-.41,.39-.81,.64-1.19-.04,.46-.13,.9-.23,1.33-.05,.22-.12,.43-.18,.65-.06,.21-.13,.43-.21,.64l-.14,.41-.31-.3c-.16-.15-.32-.31-.47-.47-.15-.16-.31-.32-.45-.49-.3-.34-.58-.69-.82-1.08Z"/><path class="h" d="M222.94,192.92c.17,.22,.29,.46,.39,.7,.1,.24,.18,.48,.24,.73,.06,.25,.1,.5,.12,.76,.02,.26,.02,.52-.03,.8-.17-.22-.29-.46-.39-.7-.1-.24-.18-.48-.24-.73-.06-.25-.1-.5-.12-.76-.02-.26-.02-.52,.03-.8Z"/></g><g><path class="h" d="M222.74,178.85c.4,.22,.77,.49,1.12,.77,.18,.14,.34,.28,.52,.43,.17,.15,.33,.3,.5,.45l-.45,.11c.07-.21,.15-.42,.23-.63,.09-.21,.16-.41,.26-.62,.18-.41,.39-.81,.64-1.19-.04,.46-.13,.9-.23,1.33-.05,.22-.12,.43-.18,.65-.06,.21-.13,.43-.21,.64l-.14,.41-.31-.3c-.16-.15-.32-.31-.47-.47-.15-.16-.31-.32-.45-.49-.29-.34-.58-.69-.82-1.08Z"/><path class="h" d="M223.95,177.71c.17,.22,.29,.46,.39,.7,.1,.24,.18,.48,.24,.73,.06,.25,.1,.5,.12,.76,.02,.26,.02,.52-.03,.8-.17-.22-.29-.46-.39-.7-.1-.24-.18-.48-.24-.73-.06-.25-.1-.5-.12-.76-.02-.26-.02-.52,.03-.8Z"/></g><g><path class="h" d="M214.07,189.97c.36,.29,.67,.61,.97,.95,.15,.16,.29,.34,.43,.51,.14,.17,.28,.35,.41,.53l-.46,.03c.11-.19,.22-.39,.34-.58,.12-.19,.23-.38,.36-.56,.25-.37,.52-.73,.84-1.07-.12,.45-.28,.86-.46,1.27-.09,.21-.19,.4-.28,.61-.1,.2-.2,.4-.31,.59l-.21,.38-.25-.35c-.13-.18-.26-.36-.39-.55-.12-.19-.25-.37-.36-.57-.23-.38-.45-.78-.62-1.2Z"/><path class="h" d="M215.46,189.05c.13,.25,.21,.5,.27,.75,.06,.25,.09,.51,.11,.76,.02,.26,.01,.51,0,.77-.03,.26-.07,.52-.17,.78-.13-.25-.21-.5-.27-.75-.06-.25-.09-.51-.11-.76-.02-.26-.01-.51,0-.77,.03-.26,.07-.52,.17-.78Z"/></g><g><path class="h" d="M197.42,195.12c.46,.03,.9,.12,1.34,.22,.22,.05,.43,.11,.65,.17,.21,.06,.43,.13,.64,.2l-.36,.29c-.02-.22-.04-.44-.05-.67,0-.22-.03-.45-.02-.67,0-.45,0-.9,.08-1.35,.16,.43,.27,.87,.35,1.31,.05,.22,.08,.44,.11,.66,.03,.22,.06,.44,.08,.66l.05,.43-.41-.14c-.21-.07-.42-.15-.63-.23-.21-.09-.42-.16-.62-.26-.41-.18-.81-.38-1.2-.63Z"/><path class="h" d="M198.04,193.58c.25,.13,.45,.29,.65,.47,.19,.17,.37,.36,.53,.56,.16,.2,.31,.41,.43,.64,.13,.23,.24,.46,.31,.74-.25-.13-.46-.29-.65-.47-.19-.17-.37-.36-.53-.56-.16-.2-.31-.41-.43-.64-.13-.23-.24-.46-.31-.74Z"/></g><g><path class="h" d="M183.73,204.95c.46,.03,.9,.12,1.34,.22,.22,.05,.43,.11,.65,.17,.21,.06,.43,.13,.64,.2l-.36,.29c-.02-.22-.04-.44-.05-.67,0-.22-.03-.45-.02-.67,0-.45,0-.9,.08-1.35,.16,.43,.27,.87,.35,1.31,.05,.22,.08,.44,.11,.66,.03,.22,.06,.44,.08,.66l.05,.43-.41-.14c-.21-.07-.42-.15-.63-.23-.21-.09-.42-.16-.62-.26-.41-.18-.81-.38-1.2-.63Z"/><path class="h" d="M184.34,203.4c.25,.13,.45,.29,.65,.47,.19,.17,.37,.36,.53,.56,.16,.2,.31,.41,.43,.64,.13,.23,.24,.46,.31,.74-.25-.13-.46-.29-.65-.47-.19-.17-.37-.36-.53-.56-.16-.2-.31-.41-.43-.64-.13-.23-.24-.46-.31-.74Z"/></g><g><path class="h" d="M207.62,199.05c.34,.31,.63,.66,.9,1.01,.14,.17,.27,.36,.4,.54,.13,.18,.25,.37,.37,.55h-.46c.12-.19,.24-.37,.37-.55,.13-.18,.26-.36,.4-.54,.28-.35,.57-.7,.9-1.01-.14,.44-.34,.84-.54,1.24-.1,.2-.22,.39-.32,.59-.11,.19-.23,.38-.35,.57l-.23,.36-.23-.36c-.12-.19-.24-.38-.35-.57-.11-.2-.22-.39-.32-.59-.21-.4-.4-.8-.54-1.24Z"/><path class="h" d="M209.07,198.22c.11,.26,.17,.51,.22,.77,.04,.26,.06,.51,.06,.77,0,.26-.02,.51-.06,.77-.04,.26-.1,.51-.22,.77-.12-.26-.17-.51-.22-.77-.04-.26-.06-.51-.06-.77,0-.26,.02-.51,.06-.77,.04-.26,.1-.51,.22-.77Z"/></g><g><path class="h" d="M192.48,224.64c.45-.1,.9-.15,1.34-.18,.22-.02,.45-.02,.67-.03,.22,0,.45,0,.67,0l-.26,.38c-.09-.21-.17-.41-.25-.62-.07-.21-.16-.42-.22-.63-.14-.43-.26-.86-.33-1.31,.28,.37,.51,.75,.72,1.15,.11,.2,.2,.4,.3,.6,.1,.2,.19,.4,.28,.61l.17,.4h-.43c-.22-.02-.45-.03-.67-.04-.22-.02-.45-.03-.67-.06-.44-.05-.89-.12-1.33-.25Z"/><path class="h" d="M192.61,222.98c.28,.05,.52,.15,.76,.25,.23,.11,.46,.24,.67,.38,.21,.14,.41,.3,.6,.48,.19,.18,.37,.37,.51,.61-.28-.05-.52-.14-.76-.25-.23-.11-.46-.24-.67-.38-.21-.14-.41-.3-.6-.48-.19-.18-.37-.37-.52-.61Z"/></g><g><path class="h" d="M192.65,201.05c.34,.31,.63,.66,.9,1.01,.14,.17,.27,.36,.4,.54,.13,.18,.25,.37,.37,.55h-.46c.12-.19,.24-.37,.37-.55,.13-.18,.26-.36,.4-.54,.28-.35,.57-.7,.9-1.01-.14,.44-.34,.84-.54,1.24-.1,.2-.22,.39-.32,.59-.11,.19-.23,.38-.35,.57l-.23,.36-.23-.36c-.12-.19-.24-.38-.35-.57-.11-.2-.22-.39-.32-.59-.21-.4-.4-.8-.54-1.24Z"/><path class="h" d="M194.1,200.23c.11,.26,.17,.51,.22,.77,.04,.26,.06,.51,.06,.77,0,.26-.02,.51-.06,.77-.04,.26-.1,.51-.22,.77-.12-.26-.17-.51-.22-.77-.04-.26-.06-.51-.06-.77,0-.26,.02-.51,.06-.77,.04-.26,.1-.51,.22-.77Z"/></g><g><path class="h" d="M225.18,208.13c.05,.46,.05,.91,.03,1.35,0,.22-.03,.45-.04,.67-.02,.22-.05,.44-.07,.66l-.35-.3c.21-.06,.43-.13,.64-.18,.22-.05,.43-.11,.65-.15,.44-.09,.88-.16,1.34-.18-.39,.24-.8,.43-1.22,.59-.21,.09-.42,.16-.63,.24-.21,.07-.42,.14-.64,.21l-.41,.13,.06-.43c.03-.22,.06-.44,.1-.66,.04-.22,.08-.44,.13-.66,.1-.44,.22-.87,.39-1.3Z"/><path class="h" d="M226.81,208.44c-.08,.27-.2,.5-.33,.73-.14,.22-.29,.43-.45,.62-.17,.2-.35,.38-.54,.55-.2,.17-.41,.32-.66,.45,.08-.27,.2-.5,.33-.73,.14-.22,.29-.43,.45-.62,.17-.19,.35-.38,.54-.55,.2-.17,.41-.32,.66-.45Z"/></g><g><path class="h" d="M203.62,215.03c.34,.31,.63,.66,.9,1.01,.14,.17,.27,.36,.4,.54,.13,.18,.25,.37,.37,.55h-.46c.12-.19,.24-.37,.37-.55,.13-.18,.26-.36,.4-.54,.28-.35,.57-.7,.9-1.01-.14,.44-.34,.84-.54,1.24-.1,.2-.22,.39-.32,.59-.11,.19-.23,.38-.35,.57l-.23,.36-.23-.36c-.12-.19-.24-.38-.35-.57-.11-.2-.22-.39-.32-.59-.21-.4-.4-.8-.54-1.24Z"/><path class="h" d="M205.07,214.21c.11,.26,.17,.51,.22,.77,.04,.26,.06,.51,.06,.77,0,.26-.02,.51-.06,.77-.04,.26-.1,.51-.22,.77-.12-.26-.17-.51-.22-.77-.04-.26-.06-.51-.06-.77,0-.26,.02-.51,.06-.77,.04-.26,.1-.51,.22-.77Z"/></g><g><path class="h" d="M186.23,213.49c.34,.31,.63,.66,.9,1.01,.14,.17,.27,.36,.4,.54,.13,.18,.25,.37,.37,.55h-.46c.12-.19,.24-.37,.37-.55,.13-.18,.26-.36,.4-.54,.28-.35,.57-.7,.9-1.01-.14,.44-.34,.84-.54,1.24-.1,.2-.22,.39-.32,.59-.11,.19-.23,.38-.35,.57l-.23,.36-.23-.36c-.12-.19-.24-.38-.35-.57-.11-.2-.22-.39-.32-.59-.21-.4-.4-.8-.54-1.24Z"/><path class="h" d="M187.68,212.67c.12,.26,.17,.51,.22,.77,.04,.26,.06,.51,.06,.77,0,.26-.02,.51-.06,.77-.04,.26-.1,.51-.22,.77-.12-.26-.17-.51-.22-.77-.04-.26-.06-.51-.06-.77,0-.26,.02-.51,.06-.77,.04-.26,.1-.51,.22-.77Z"/></g></g></g><g><path class="q" d="M188.26,198s-5.24,0-4.61-2.26c.22-.79,2.32-.41,3.55,.86-.88-1.53-.67-3.65,.14-3.65,2.35,.01,.91,5.05,.91,5.05Z"/><path class="l" d="M188.26,198s-5.24,0-4.61-2.26c.22-.79,2.32-.41,3.55,.86-.88-1.53-.67-3.65,.14-3.65,2.35,.01,.91,5.05,.91,5.05Z"/><path class="q" d="M188.26,198c-2.01,1.52-4.89,.81-5.04-.33-.17-1.3,3.26-.52,3.26-.52,0,0-2.96-2.52-1.56-3.57,1.4-1.06,3.01,2.48,3.01,2.48,0,0,.19-3.51,1.4-2.99,1.06,.46,.95,3.42-1.06,4.94Z"/></g><g><path class="q" d="M228.21,184.39s-2.76-4.45-.51-5.11c.78-.23,1.57,1.76,1.14,3.47,.83-1.56,2.75-2.5,3.18-1.8,1.23,2-3.81,3.44-3.81,3.44Z"/><path class="l" d="M228.21,184.39s-2.76-4.45-.51-5.11c.78-.23,1.57,1.76,1.14,3.47,.83-1.56,2.75-2.5,3.18-1.8,1.23,2-3.81,3.44-3.81,3.44Z"/><path class="q" d="M228.21,184.39c-2.35-.91-3.27-3.73-2.38-4.46,1.02-.83,2.16,2.49,2.16,2.49,0,0,.58-3.84,2.21-3.21,1.64,.63-.52,3.87-.52,3.87,0,0,3.08-1.69,3.28-.39,.17,1.14-2.4,2.61-4.76,1.7Z"/></g></g><g><g><polygon class="q" points="193.42 233.67 221.83 233.67 218.97 257.42 196.28 257.42 193.42 233.67"/><polygon class="o" points="193.42 233.67 194.06 239.02 221.34 237.71 221.83 233.67 193.42 233.67"/></g><rect class="q" x="191.63" y="230.66" width="31.98" height="4.25"/></g></g></g><g id="c"><g><g><g><path class="s" d="M149.02,106.16c.05,.32-.12,.67-.44,.76-.75,.15-1.65,.32-2.66,.51-3.19-5.95-6.4-10.6-5.48-8.75,1.34,2.69,2.57,6.64,2.86,9.24-1.17,.22-3.9,.69-5.26,.93-3.47-10.75-7.17-18.59-6.68-16.09,1.95,10.08,1.76,13.43,1.49,17.01-12.71,2.2-29.39,4.9-41.5,6.6-2.17-5.91-4.22-12.35-4.37-11.86-1.22,3.65-1.04,8.7-.6,12.55-3.86,.51-6.95,.85-8.85,.96,0,0-1.54-5.01-1.89-6.68-.89-4.24-.97-8.7-.26-13,.75-4.43,2.49-8.48,4.11-12.61,.01-.03,.02-.07,.04-.09,0-.01,0-.02,.01-.03,1.1-2.85,1.85-5.55,2.23-8.35,0-.02,.01-.03,.01-.06,.26-1.99,.34-4.02,.23-6.23-.38-7.59,3.04-14.63,9.86-17.51,11.77-14.25,25.81-10.65,31.06-1.52,.51,.89,1.02,1.92,1.53,3.05v.04c1.93,4.17,3.86,9.66,5.54,13.88,0,.02,0,.02,0,.02,0,.02,0,.03,.02,.05h0c.82,2.02,1.56,3.72,2.22,4.85,4.36,7.42,12.62,10.91,16.76,32.34Z"/><path class="s" d="M89.06,55.92c-4.33,3-6.74,6.89-6.76,12.48-.02,3.25,.16,6.4-.69,9.58-.88,3.28-2.56,6.09-4.31,8.9-2.77,4.47-4.55,8.8-4.38,14.25,.17,5.54,1.24,11.96,3.73,16.83,.01,.03,.06,0,.04-.02-2.15-4.99-3.09-12.15-2.84-17.69,.27-6.08,3.17-10.26,6.05-15.22,2.29-3.94,3.54-8.14,3.54-12.8,0-2.76-.39-5.57,.38-8.27,.92-3.22,3.27-5.48,5.64-7.53,.32-.28-.07-.74-.4-.51Z"/><path class="s" d="M141.09,81.25c-3.81-3.85-7.67-7.05-10.25-12.1-2.35-4.6-3.99-9.57-6.37-14.16-.04-.07-.15-.03-.11,.05,3.81,8.2,5.43,16.76,11.85,23.26,3.49,3.53,6.94,6.77,9.51,11.21,2.7,4.66,4.23,9.67,5.05,15.07,.03,.19,.27,.15,.26-.04-.28-8.87-3.96-17.24-9.94-23.29Z"/></g><g><path class="s" d="M91.78,52.76c1.78-.93,2.25-11.6-5.24-15.72-7.38-4.06-15.58,2.67-10.82,10.77,3.01,5.12,12.29,6.92,16.06,4.95Z"/><path class="s" d="M76.86,37.62c-1.88,1.98-2.93,4.58-3.13,7.12-.21,2.57,.86,5.03,2.93,6.47,2.02,1.54,4.64,2.21,7.24,2.48,1.32,.12,2.65,.12,3.98-.01,1.33-.11,2.67-.34,3.9-.93-1.07,.89-2.45,1.3-3.78,1.66-1.36,.31-2.75,.47-4.16,.45-2.79-.05-5.71-.69-8.08-2.45-1.17-.88-2.18-2.07-2.73-3.47-.55-1.39-.69-2.91-.46-4.34,.43-2.84,2.02-5.45,4.29-7Z"/></g></g><g><path class="n" d="M123.97,113.77c24.24,18.07,57.49,58.8,53.95,68.62-3.94,10.94-37.73-14.42-37.88-16.18-.12-1.33-14.55-26.95-25.37-45.53-10.81-18.57,3.31-11.38,9.3-6.92Z"/><g><path class="k" d="M139.85,166.28c-1.34-2.77-20.81-36.48-26.54-47.21-5.73-10.73-2.56-14.8,10.45-6.16,13.01,8.64,43.34,39.5,51.87,57.04,8.21,16.89-.92,18.29-14.21,11.95-10.89-5.19-21.57-15.62-21.57-15.62Z"/><path class="f" d="M122.41,113.37c0,1.47-1.2,2.67-2.68,2.67s-2.67-1.2-2.67-2.67,1.2-2.68,2.67-2.68c.18,0,.35,.02,.51,.05,0,0,.01,0,.01,0,.49,.26,.99,.56,1.51,.89,0,0,.01,0,.01,.01,.4,.47,.63,1.07,.63,1.73Zm16.51,27.66c-1.48,0-2.68,1.2-2.68,2.68s1.2,2.68,2.68,2.68,2.68-1.2,2.68-2.68-1.2-2.68-2.68-2.68Zm16.7,1.7c-.12,.3-.19,.63-.19,.98,0,1.48,1.2,2.68,2.67,2.68,.22,0,.44-.03,.65-.08-1.02-1.19-2.07-2.39-3.13-3.57Zm-26.3-16.48c-1.48,0-2.68,1.2-2.68,2.68s1.2,2.68,2.68,2.68,2.68-1.2,2.68-2.68-1.2-2.68-2.68-2.68Zm28.78,45.12c-1.48,0-2.68,1.2-2.68,2.68s1.2,2.68,2.68,2.68,2.68-1.2,2.68-2.68-1.2-2.68-2.68-2.68Zm18.27,.17c-1.02,.37-1.75,1.35-1.75,2.5,0,1.48,1.2,2.68,2.67,2.68,.32,0,.63-.06,.91-.16-.39-1.47-.99-3.13-1.83-5.02Zm-27.86-14.95c-1.48,0-2.68,1.2-2.68,2.68s1.2,2.68,2.68,2.68,2.68-1.2,2.68-2.68-1.2-2.68-2.68-2.68Zm18.62,.06c-1.2,.26-2.11,1.33-2.11,2.62,0,1.48,1.2,2.68,2.68,2.68,.98,0,1.84-.53,2.3-1.32-.9-1.3-1.87-2.63-2.88-3.98Z"/></g><path class="o" d="M178.34,182.62c-1.7,4.21-8.47,3.31-16.92-.72-10.89-5.19-21.58-15.62-21.58-15.62-1.34-2.77-20.8-36.49-26.54-47.21-4.1-7.66-3.65-11.93,1.69-10.59l63.34,74.15Z"/></g><g><path class="t" d="M161.96,257.42h-56.05c-2.43-9.57-6.19-24.29-9.46-37.12,0,0,0-.02,0-.03-.2-.79-.4-1.57-.59-2.34-.12-.48-.24-.95-.36-1.42-3.14-12.33-5.62-22.08-5.68-22.3-.03-.14-.07-.24-.09-.33-.03-.12-.05-.18-.05-.18h54.12l18.16,63.72Z"/><g><g><path class="t" d="M142.04,193.68v.03s0,.1,0,.18c0,.64,0,1.27-.02,1.91-.03,1.62-.1,3.24-.2,4.86-.41,6.52-1.35,12.98-2.48,18.87-2.24,11.7-5.24,21.15-6.28,24.29-.23,.69-.37,1.08-.38,1.12,0,0-1.88,.93-4.32,2.13-.11,.06-.23,.12-.35,.18-2.81,1.39-6.28,3.12-8.54,4.25-1.2,.6-2.07,1.03-2.31,1.16-.03,.01-.06,.03-.07,.03-.01,0-.1,1.92-.22,4.74H58.42c1.17-9.92,1.33-11.22,1.33-11.22-.34-1.91-1.87-6.84-1.33-12.57,1.2-12.59,8.92-37.86,9.62-39.37,.16-.37,.26-.56,.26-.56h14.78l35.03-.02h23.92Z"/><path class="t" d="M117.16,252.52v.13c.02,1.59-.05,3.18-.07,4.77h-.59c.13-1.59,.24-3.2,.43-4.8,.01-.14,.03-.28,.05-.43,.01-.11,.17-.11,.18,0,0,.1,0,.21,0,.31Z"/></g><g><path class="s" d="M110.15,255.59c2.48-1.72,5.17-3.17,7.8-4.66,2.69-1.52,5.42-2.98,8.22-4.28,5.47-2.55,11.25-4.39,17-6.17,.15-.05,.24,.19,.1,.25-5.54,2.38-10.92,5.11-16.43,7.56-2.77,1.23-5.57,2.41-8.35,3.63-2.78,1.22-5.48,2.61-8.28,3.78-.07,.03-.13-.06-.06-.11Z"/><path class="s" d="M125.31,228.45c.07-2.72,.26-5.44,.4-8.15,.32-6.41,.57-12.86,1.16-19.25,.02-.25,.39-.25,.4,0,.08,4.96-.11,9.93-.21,14.89-.05,2.48-.12,4.96-.19,7.44-.06,2.36-.22,4.75-.05,7.11,.13,1.79,.53,5.26,2.86,5.48,2.2,.2,3.4-2.17,3.95-3.91,1.39-4.42,1.89-9.18,2.34-13.78,.27-2.72,.54-5.43,.7-8.16,.16-2.75,.38-6.81,.23-9.56,0-.18,.24-.17,.27,0,.43,2.36,.45,7.14,.39,9.96-.53,25.3-4.52,26.74-6.63,27.15-.27,.05-.53,.08-.78,.08-.03,.58-.1,1.15-.14,1.72-.06,.9-.17,1.79-.29,2.69-.12,.87-.32,1.75-.55,2.6-.23,.84-.46,1.73-.91,2.48-.08,.13-.24,.05-.25-.08-.07-.85,.1-1.72,.21-2.56,.12-.87,.24-1.76,.42-2.62,.18-.85,.33-1.7,.51-2.55,.12-.57,.2-1.16,.3-1.73-1.35-.21-2.48-1.1-3.11-2.45-.99-2.09-1.07-4.56-1.01-6.83Z"/><path class="s" d="M74.22,223.65c3.53,.25,7.02,.7,10.56,.28,3.33-.4,6.53-1.54,9.2-3.6,5.82-4.52,8.38-11.91,9.95-18.84,.04-.16,.26-.13,.25,.04-.66,6.01-1.95,12.23-5.84,17.07-1.69,2.11-3.77,3.89-6.19,5.1-2.52,1.26-5.39,1.69-8.19,1.69-3.28,0-6.63-.5-9.8-1.32-.25-.07-.21-.43,.06-.41Z"/><path class="s" d="M151.29,222.25c-.98-.11-1.95-.03-2.94-.75-.94-.68-1.85-2.03-2.63-4.18-1.7-4.69-2.54-11.69-3.09-18.18-.01-.15-.08-.14-.07,0,.28,5.56,.75,11.37,1.91,16.16,.51,2.09,1.12,3.92,1.81,5.26,.73,1.39,1.53,2.06,2.31,2.32,.91,.31,1.84,.18,2.71-.27,.07-.04,.05-.37-.02-.38Z"/><path class="s" d="M73.6,195.43c-1.9,10.39-4.14,20.94-6.22,31.3-.53,3.1-1.45,6.16-1.27,9.32,.22,3.18,.81,6.34,1.5,9.45-.34,2-.66,4-1.02,6-.35,1.98-.69,3.95-1.07,5.93,.18-2,.41-3.99,.62-5.99,.21-2,.45-3.99,.68-5.98-.72-2.32-1.53-6.35-1.78-9.33-.09-1.08-.09-2.22,.08-3.3,.63-4.25,1.52-8.41,2.41-12.58,1.82-8.32,3.81-16.6,6.06-24.82h0Z"/></g></g></g><g><path class="k" d="M144.64,194.5l-4-25.18s7.85-9.87,2.7-20.68c-2.6-5.48-18.2-32.63-27.66-39.34-8.87-6.29-23.16-1.75-27.1,5.06-9.94,17.19-15.63,37.63-21.37,80.15l77.43-.02Z"/><path class="f" d="M103.23,113.37c0,1.48-1.2,2.68-2.68,2.68s-2.68-1.2-2.68-2.68,1.2-2.68,2.68-2.68,2.68,1.2,2.68,2.68Zm14.83-2.08c-.61,.49-.99,1.24-.99,2.08,0,1.47,1.2,2.67,2.67,2.67,.78,0,1.49-.33,1.97-.87-1.26-1.47-2.48-2.8-3.65-3.89Zm-36.7,29.74c-1.48,0-2.68,1.2-2.68,2.68s1.2,2.68,2.68,2.68,2.68-1.2,2.68-2.68-1.2-2.68-2.68-2.68Zm19.19,0c-1.48,0-2.68,1.2-2.68,2.68s1.2,2.68,2.68,2.68,2.68-1.2,2.68-2.68-1.2-2.68-2.68-2.68Zm19.19,0c-1.48,0-2.68,1.2-2.68,2.68s1.2,2.68,2.68,2.68,2.68-1.2,2.68-2.68-1.2-2.68-2.68-2.68Zm19.46,.01c-.09,0-.18-.01-.27-.01-1.47,0-2.67,1.2-2.67,2.67s1.2,2.68,2.67,2.68c1.07,0,1.99-.63,2.42-1.54-.61-1.12-1.33-2.4-2.15-3.8Zm-48.24-14.79c-1.48,0-2.68,1.2-2.68,2.68s1.2,2.68,2.68,2.68,2.68-1.2,2.68-2.68-1.2-2.68-2.68-2.68Zm19.19,0c-1.48,0-2.68,1.2-2.68,2.68s1.2,2.68,2.68,2.68,2.68-1.2,2.68-2.68-1.2-2.68-2.68-2.68Zm19.89,.09c-.22-.06-.46-.09-.7-.09-1.48,0-2.68,1.2-2.68,2.68s1.2,2.68,2.68,2.68c1.36,0,2.47-1.01,2.66-2.32-.64-.98-1.3-1.97-1.96-2.95Zm-48.67,45.03c-1.48,0-2.68,1.2-2.68,2.68s1.2,2.68,2.68,2.68,2.68-1.2,2.68-2.68-1.2-2.68-2.68-2.68Zm19.19,0c-1.48,0-2.68,1.2-2.68,2.68s1.2,2.68,2.68,2.68,2.68-1.2,2.68-2.68-1.2-2.68-2.68-2.68Zm19.19,0c-1.48,0-2.68,1.2-2.68,2.68s1.2,2.68,2.68,2.68,2.68-1.2,2.68-2.68-1.2-2.68-2.68-2.68Zm19.19,0c-1.48,0-2.68,1.2-2.68,2.68s1.2,2.68,2.68,2.68,2.68-1.2,2.68-2.68-1.2-2.68-2.68-2.68Zm-65.51-14.21c-.33,1.52-.64,3.08-.96,4.69,1.14-.3,1.98-1.35,1.98-2.58,0-.85-.4-1.61-1.02-2.11Zm17.54-.57c-1.48,0-2.68,1.2-2.68,2.68s1.2,2.68,2.68,2.68,2.68-1.2,2.68-2.68-1.2-2.68-2.68-2.68Zm19.19,0c-1.48,0-2.68,1.2-2.68,2.68s1.2,2.68,2.68,2.68,2.68-1.2,2.68-2.68-1.2-2.68-2.68-2.68Zm19.19,0c-1.48,0-2.68,1.2-2.68,2.68s1.2,2.68,2.68,2.68,2.68-1.2,2.68-2.68-1.2-2.68-2.68-2.68Zm-57.57,30.34c-1.48,0-2.68,1.2-2.68,2.68s1.2,2.68,2.68,2.68,2.68-1.2,2.68-2.68-1.2-2.68-2.68-2.68Zm19.19,0c-1.48,0-2.68,1.2-2.68,2.68s1.2,2.68,2.68,2.68,2.68-1.2,2.68-2.68-1.2-2.68-2.68-2.68Zm19.19,0c-1.48,0-2.68,1.2-2.68,2.68s1.2,2.68,2.68,2.68,2.68-1.2,2.68-2.68-1.2-2.68-2.68-2.68Zm19.19,0c-1.48,0-2.68,1.2-2.68,2.68s1.2,2.68,2.68,2.68,2.68-1.2,2.68-2.68-1.2-2.68-2.68-2.68Z"/><g><path class="s" d="M127.6,162.98c-4.01,.49-8.03,1.12-11.93,2.21-1.94,.54-3.84,1.16-5.74,1.83-.95,.33-1.9,.63-2.85,.93-.98,.3-2.04,.59-3.07,.64-.09,0-.09,.14,0,.14,1.01,0,1.97,.01,2.97-.11,.95-.12,1.89-.34,2.82-.59,1.97-.53,3.92-1.15,5.88-1.69,3.97-1.1,7.93-2.21,11.97-3.02,.19-.04,.13-.35-.06-.33Z"/><path class="s" d="M137.63,166.35c-3.31-.27-6.68-.39-10.01-.28-1.67,.05-3.33,.2-4.99,.4-.79,.09-1.58,.2-2.37,.32-.87,.13-1.72,.37-2.59,.49-.09,.01-.09,.15,0,.14,.82-.08,1.66-.03,2.49-.07,.83-.04,1.66-.08,2.49-.12,1.66-.07,3.33-.13,4.99-.22,3.33-.18,6.65-.32,9.98-.39,.18,0,.16-.26-.01-.27Z"/></g></g><g><g><path class="n" d="M96.3,109.74c.47,1.53,8.9,13.64,17.07,11.52,3.43-.89-.01-14.17-.01-14.17l2.17-14.25-18.39-9.96s-1.03,26.21-.84,26.86Z"/><path class="s" d="M115.52,92.83l-2.1,13.84c-4.08-1.31-11.95-4.91-16.66-13.93,.2-5.33,.37-9.86,.37-9.86l18.38,9.96Z"/></g><g><path class="n" d="M131.15,68.49c7.21,22.49-5.45,29.34-10.3,30.89-4.4,1.41-19.58,5.63-29.07-15.99-9.49-21.62-1.32-32.08,8.59-35.83,9.9-3.75,23.57-1.56,30.78,20.93Z"/><g><path class="s" d="M125.98,65.51c-.55,.07-1.08,.04-1.63,.05-.63,.01-1.12,.09-1.67-.26-.3-.19-.4-.69-.24-1,.36-.71,1.13-.91,1.88-.96,.82-.05,1.46,.12,2.12,.59,.64,.46,.27,1.48-.46,1.57Z"/><path class="s" d="M110.14,71.6c.48-.29,.97-.47,1.47-.71,.57-.27,.99-.54,1.64-.44,.35,.05,.65,.47,.63,.81-.05,.79-.66,1.29-1.33,1.64-.73,.38-1.38,.48-2.18,.32-.77-.16-.85-1.24-.22-1.62Z"/><g><g><path class="s" d="M115.23,75.63c-.03-.06-.1,.11-.08,.17,.47,1.54,.75,3.38-.52,4.27-.04,.03-.01,.1,.04,.08,1.65-.7,1.26-3.14,.57-4.53Z"/><path class="s" d="M113.41,74.39c-2.55,.48-1.39,5.54,.97,5.1,2.32-.44,1.17-5.5-.97-5.1Z"/></g><path class="s" d="M112.48,74.88c-.38,.39-.69,.99-1.21,1.17-.6,.2-1.19-.22-1.71-.64-.05-.04-.09,.01-.07,.08,.21,.97,.81,1.88,1.88,1.79,.98-.08,1.46-1.1,1.48-2.13,0-.19-.21-.42-.37-.27Z"/></g><g><g><path class="s" d="M124.28,72.86c0-.06,.14,.05,.15,.11,.3,1.58,.9,3.34,2.44,3.55,.05,0,.06,.09,0,.09-1.79,.14-2.57-2.21-2.59-3.75Z"/><path class="s" d="M125.32,70.91c2.48-.75,3.8,4.27,1.5,4.97-2.26,.68-3.58-4.34-1.5-4.97Z"/></g><path class="s" d="M126.46,70.96c.47,.16,.99,.54,1.47,.45,.56-.11,.82-.76,1.04-1.37,.02-.06,.07-.03,.09,.03,.28,.95,.22,2.04-.65,2.46-.8,.39-1.63-.27-2.11-1.17-.09-.17-.02-.47,.16-.41Z"/></g><path class="s" d="M117.64,87.86c.45,.3,.92,.74,1.5,.69,.56-.05,1.16-.42,1.63-.71,.05-.03,.11,.02,.08,.07-.3,.68-1.1,1.22-1.85,1.22-.74,0-1.21-.55-1.5-1.17-.04-.09,.07-.14,.14-.1Z"/><path class="s" d="M118.59,85.75c2.44-1.42,3.8-1.35,5.42-1.65,.17-.08,.52-.33,.5-.5h0c-.02-.07-1.11-3.17-1.11-3.17,.49,.08,2.93,.36,2.71-.23-1.88-4.88-3.97-10.3-6.88-14.75-.09-.15-.33-.03-.26,.13,1.62,4.76,4.07,9.2,5.78,13.95-.77-.04-2.03-.17-2.63,.04-.15,.1,1.35,3.29,1.46,3.82,0,0-2.56-.22-5.26,2.16-.6,.53-.61,.74,.28,.22Z"/></g><g><path class="s" d="M94.83,85.36c4.42-.65,2.79-10.73,2.79-10.73,0,0,17.32-8.14,14.74-23.37,0,0,5.74,8.57,16.45,10.19,0,0-5.15-16.05-18.89-15.62,0,0-17.58-1.37-23.03,13.8-5.45,15.17,4.98,26.17,7.94,25.73Z"/><path class="s" d="M112.12,50.15c.87,2.19,1.19,4.6,1.07,6.98-.12,2.38-.69,4.78-1.77,6.93-.23,.56-.59,1.04-.89,1.57l-.46,.77c-.18,.24-.36,.48-.55,.71-.38,.46-.74,.95-1.13,1.39-.42,.42-.86,.84-1.29,1.24-.22,.2-.43,.41-.65,.61l-.72,.53-1.43,1.06c-1.01,.61-2.06,1.17-3.09,1.71,.92-.75,1.89-1.39,2.78-2.13l1.3-1.15,.65-.57c.2-.2,.39-.43,.58-.64,.38-.43,.77-.86,1.16-1.27,.36-.45,.68-.92,1.02-1.38l.51-.69,.43-.74c.27-.5,.61-.96,.82-1.5,1.05-2.03,1.61-4.27,1.91-6.53,.15-1.14,.18-2.29,.14-3.45-.02-1.16-.17-2.31-.39-3.47Z"/></g><g><path class="n" d="M97.82,82.37s-6.66-6.04-9.51-3.51c-2.85,2.53,3.29,12.09,7.45,12.65,4.15,.55,4.74-3.28,4.74-3.28l-2.68-5.86Z"/><path class="s" d="M90.14,81.56c-.06,0-.06,.1,0,.11,2.93,.48,4.91,2.64,6.49,5-1.02-.81-2.24-1.11-3.35,.14-.06,.07,.03,.16,.11,.13,1.05-.49,1.88-.48,2.83,.24,.67,.5,1.21,1.21,1.75,1.85,.18,.21,.58-.02,.43-.27-.01-.02-.02-.04-.04-.06-.71-3.44-4.46-7.62-8.21-7.13Z"/></g></g><path class="n" d="M94.17,108.98s6.8,14.92,8.84,16.56c2.04,1.64,18.43-.37,18.7-1.78,.28-1.41-7.87-14.87-7.87-14.87,0,0-6.33-2.67-11.62-2.54-5.46,.14-8.04,2.62-8.04,2.62Z"/></g><g><g><path class="n" d="M176.65,182.16c-4.6,6.96-13.65,9.8-45.93,16.98-4.47,.99-23.02-26.78-18.77-29.2,5.66-3.23,30.23-8.34,31.99-8.49,14.83-1.32,35.83,15.99,32.71,20.71Z"/><g><path class="n" d="M115.81,168.4s-13.58,5.1-19.89,9.99c-8.44,6.55-13.04,15.68-14.73,19.62-3.54,8.23-6.4,30.57-.11,32.52,5.7,1.76,7.47-21.22,7.47-21.22,0,0-5.68,23.14,1.57,24,7.25,.86,7.79-25.94,7.79-25.94,0,0-5.3,23.9,2.32,23.61,5.75-.22,7.61-24.47,7.61-24.47,0,0-4.41,20.58,1.52,20.61,6.55,.03,9.67-22.24,9.67-22.24,15.08-2.47,21.25-9.81,25.02-15.56,.91-1.39-28.22-20.92-28.22-20.92Z"/><g><path class="s" d="M90,201.18c-.76,2.69-1.56,5.42-2.08,8.17-.52,2.75-.95,5.53-1.21,8.31-.65,6.84,.02,11.23,0,10.95-.27-6.51,1.45-16.39,1.97-19.15,.52-2.75,.91-5.52,1.43-8.27,.01-.07-.09-.08-.11-.02Z"/><path class="s" d="M99.97,202.89c-.83,3.48-1.78,6.91-2.45,10.43-.67,3.5-1,6.88-1.43,10.42-.03,.27,.12,.2,.17-.07,.57-3.52,1.37-6.73,1.98-10.24,.61-3.5,1.08-7.05,1.82-10.53,.01-.05-.07-.07-.08-.01Z"/><path class="s" d="M108.79,202.81c-1.54,5.26-2.1,10.79-2.53,16.23-.02,.27,.17,.16,.21-.12,.74-5.41,1.28-9.66,2.5-16.06,.02-.1-.15-.16-.18-.05Z"/></g></g></g><g><path class="k" d="M116.08,166.43l29.56,31.28s28.57-7.33,32.62-14.81c2.66-4.92-19.49-23.96-35.77-21.25l-26.41,4.78Z"/><path class="f" d="M122.09,172.77l-.95-.99c.4,.24,.73,.58,.95,.99Zm16.83-1.4c-1.48,0-2.68,1.2-2.68,2.68s1.2,2.68,2.68,2.68,2.68-1.2,2.68-2.68-1.2-2.68-2.68-2.68Zm19.19,0c-1.48,0-2.68,1.2-2.68,2.68s1.2,2.68,2.68,2.68,2.68-1.2,2.68-2.68-1.2-2.68-2.68-2.68Zm-11.18-9.95c.44,.33,1,.53,1.59,.53,.39,0,.77-.09,1.11-.24-.91-.15-1.81-.24-2.7-.29Zm1.59,25.51c-1.48,0-2.68,1.2-2.68,2.68s1.2,2.68,2.68,2.68,2.68-1.2,2.68-2.68-1.2-2.68-2.68-2.68Zm19.19,0c-1.48,0-2.68,1.2-2.68,2.68,0,.57,.18,1.11,.49,1.54,1.67-.69,3.29-1.42,4.79-2.18-.28-1.18-1.34-2.04-2.6-2.04Z"/><path class="s" d="M153.28,192.21c-3.03-3.57-6.25-6.98-9.48-10.38-3.23-3.4-6.46-6.81-9.77-10.13-1.87-1.88-3.74-3.76-5.68-5.57-.05-.05-.14,.03-.1,.08,3.03,3.57,6.23,6.99,9.44,10.41,3.21,3.42,6.46,6.81,9.73,10.17,1.85,1.9,3.74,3.76,5.68,5.57,.1,.09,.27-.05,.18-.15Z"/><path class="s" d="M116.93,167.32l-1.22-.91-.14-.11c3.7-1.05,7.42-2,11.18-2.82,6.48-1.33,13.06-2.75,19.71-2.71,4.74,.32,9.47,1.82,13.52,4.26-4.28-1.93-8.89-3.08-13.55-3.25-2.79,.01-5.58,.4-8.36,.8-6.48,.93-15.75,2.69-22.29,3.84l.04-.16,1.1,1.04h0Z"/></g></g><g><path class="n" d="M85.93,131.68c2.16,35.09,11.07,61.95,25.83,61.75,9.8-.14,2.99-29.05,2.87-29.67-.4-2.13-4.19-19.83-13.92-38.24-10.7-20.25-15.74-9.52-14.78,6.16Z"/><g><g><path class="k" d="M85.93,131.68c2.16,35.09,11.07,61.95,25.83,61.75,9.8-.14,7.43-25.03,7.31-25.65-.4-2.13-8.63-23.85-18.36-42.26-10.7-20.25-15.74-9.52-14.78,6.16Z"/><path class="f" d="M103.23,143.71c0,1.48-1.2,2.68-2.68,2.68s-2.68-1.2-2.68-2.68,1.2-2.68,2.68-2.68,2.68,1.2,2.68,2.68Zm-12.27-17.46c-1.48,0-2.68,1.2-2.68,2.68s1.2,2.68,2.68,2.68,2.68-1.2,2.68-2.68-1.2-2.68-2.68-2.68Zm9.59,45.12c-1.48,0-2.68,1.2-2.68,2.68s1.2,2.68,2.68,2.68,2.68-1.2,2.68-2.68-1.2-2.68-2.68-2.68Zm18.78,.04c-1.28,.19-2.26,1.3-2.26,2.64s1.01,2.48,2.32,2.66c.05-1.97,.02-3.81-.05-5.29Zm-28.37-14.82c-.75,0-1.43,.31-1.92,.81,.29,1.49,.59,2.94,.91,4.35,.31,.13,.66,.2,1.01,.2,1.47,0,2.67-1.2,2.67-2.68s-1.2-2.68-2.67-2.68Zm19.19,0c-1.48,0-2.68,1.2-2.68,2.68s1.2,2.68,2.68,2.68,2.68-1.2,2.68-2.68-1.2-2.68-2.68-2.68Zm0,30.34c-1.48,0-2.68,1.2-2.68,2.68s1.2,2.68,2.68,2.68,2.68-1.2,2.68-2.68-1.2-2.68-2.68-2.68Z"/></g><g><path class="s" d="M101.92,127.86c3.16,6.17,6.07,12.46,8.93,18.77,2.76,6.35,5.63,12.69,7.68,19.32-5.02-12.66-11.29-25.54-16.61-38.09h0Z"/><path class="s" d="M103.94,129.21c.86,1.75,1.53,3.74,1.26,5.7-.34-1.9-.98-3.78-1.26-5.7h0Z"/></g></g><g><g><path class="n" d="M117.04,191.33c9.04-2.31,22.08-24.46,29.31-49.05,1.38-4.68-35.35-19.47-36.24-14.33-2.87,16.49-9.51,38.35-7.97,51.28,1.2,10.06,8.64,13.7,14.9,12.11Z"/><g><g><path class="r" d="M125.55,109.25c-2.5-2.51-3.58-10.11-6.01-14.41-2.44-4.3-8.49-5.85-9.37-4.09-.89,1.76,.82,3.27,2.02,10.61,.77,4.72-1.94,14.57,.45,23.04,1.2,4.26,15.41-12.64,12.91-15.16Z"/><path class="n" d="M125.55,109.25c-2.5-2.51-3.58-10.11-6.01-14.41-2.44-4.3-8.49-5.85-9.37-4.09-.89,1.76,.82,3.27,2.02,10.61,.77,4.72-1.94,14.57,.45,23.04,1.2,4.26,15.41-12.64,12.91-15.16Z"/><path class="j" d="M125.55,109.25c-2.5-2.51-3.58-10.11-6.01-14.41-2.44-4.3-8.49-5.85-9.37-4.09-.89,1.76,.82,3.27,2.02,10.61,.77,4.72-1.94,14.57,.45,23.04,1.2,4.26,15.41-12.64,12.91-15.16Z"/></g><path class="n" d="M140.66,84.35c3.4,2.61-3.74,10.45-3.74,10.45,0,0,2.77-1.04,5.38,.09,2.99,1.3,2.25,6.56,2.25,6.56,0,0,3.02-.48,5.66,1,2.73,1.54,2.75,6.94,2.75,6.94,0,0,3.06,1.1,4.42,4.02,2.32,4.98-2.77,11.72-5.1,16.52-2.49,5.14-5.63,11.52-7.47,14.71l-35.08-13.75s3.24-26.12,7.35-30.94c3.46-4.06,18.4-19.58,23.6-15.6Z"/><g><path class="s" d="M136.78,94.8c-4.72,3.43-8.6,7.98-12.31,12.42-.08,.1,.07,.23,.15,.13,3.63-4.45,8.54-8.04,12.34-12.34,.11-.12-.06-.3-.19-.2Z"/><path class="s" d="M144.12,101.31c-1.04,.81-1.82,1.96-2.61,3-.85,1.13-1.68,2.27-2.49,3.42-1.62,2.31-3.19,4.65-4.69,7.04-.07,.11,.08,.23,.15,.13,1.62-2.3,3.28-4.57,4.99-6.8,.86-1.11,1.73-2.22,2.6-3.32,.81-1.02,1.76-2.04,2.33-3.23,.08-.18-.14-.37-.3-.25Z"/><path class="s" d="M152.89,109.49c-.94,.67-1.57,1.89-2.2,2.83-.72,1.07-1.44,2.13-2.17,3.19-1.46,2.12-2.92,4.23-4.45,6.3-.08,.1,.08,.23,.15,.13,1.57-2.09,3.16-4.16,4.71-6.26,.76-1.03,1.51-2.07,2.26-3.11,.64-.89,1.53-1.92,1.8-3,.02-.06-.06-.1-.11-.07Z"/></g><path class="s" d="M132.83,85.83c-4.1,2.99-7.75,6.58-11.43,10.06-1.36,1.32-2.71,2.66-3.92,4.1-1.19,1.45-1.89,3.23-2.57,4.98-.46,1.18-.84,2.4-1.2,3.62,.57-3.11,1.29-6.42,3.2-9.04,1.18-1.53,2.54-2.9,3.91-4.25,3.72-3.48,7.53-7,12-9.48h0Z"/></g></g><g><path class="k" d="M103.82,137.99l35.91,25.84s-14.57,29.64-22.69,29.88c-8.12,.24-17.38-4.13-18.63-23.58-.31-4.87,5.41-32.13,5.41-32.13Z"/><path class="f" d="M103.23,143.71c0,.84-.38,1.58-.98,2.08,.24-1.22,.47-2.35,.67-3.34,.2,.38,.32,.81,.32,1.26Zm-2.68,27.67c-.77,0-1.47,.33-1.95,.85,.14,1.46,.34,2.83,.58,4.11,.4,.25,.87,.39,1.37,.39,1.48,0,2.68-1.2,2.68-2.68s-1.2-2.67-2.68-2.67Zm19.19,0c-1.48,0-2.68,1.2-2.68,2.68s1.2,2.68,2.68,2.68,2.68-1.2,2.68-2.68-1.2-2.68-2.68-2.68Zm-9.59-14.78c-1.48,0-2.68,1.2-2.68,2.68s1.2,2.68,2.68,2.68,2.68-1.2,2.68-2.68-1.2-2.68-2.68-2.68Zm21.58,1.47l-2-1.44c-.13-.02-.26-.03-.39-.03-1.48,0-2.68,1.2-2.68,2.68s1.2,2.68,2.68,2.68,2.68-1.2,2.68-2.68c0-.43-.11-.85-.29-1.21Zm-21.58,28.87c-1.48,0-2.68,1.2-2.68,2.68s1.2,2.68,2.68,2.68,2.68-1.2,2.68-2.68-1.2-2.68-2.68-2.68Z"/><path class="s" d="M104.63,150.04c1.75,1.19,3.41,2.54,5.08,3.83,1.68,1.3,3.35,2.61,4.99,3.94,3.3,2.67,6.58,5.35,9.83,8.07,.89,.75,1.78,1.49,2.65,2.26,.94,.82,1.77,1.75,2.71,2.55,.07,.06-.02,.17-.1,.12-.82-.64-1.73-1.16-2.57-1.79-.87-.65-1.72-1.31-2.56-1.98-1.66-1.32-3.32-2.64-4.97-3.97-3.3-2.66-6.59-5.34-9.8-8.11-1.81-1.56-3.69-3.09-5.41-4.76-.1-.1,.02-.25,.14-.17Z"/></g><path class="s" d="M107.89,140.92l-4.13-2.83,.18-.07c-1.15,7.03-2.5,14.03-3.71,21.05-.51,3.05-1.08,6.1-1.28,9.19-.12,3.97,.28,7.95,1.12,11.87-1.33-3.79-2.03-7.84-2.08-11.89,.29-6.71,1.79-13.32,3.15-19.87,.79-3.54,1.65-7.06,2.61-10.56l.13,.1,4,3.02h0Z"/><path class="s" d="M138.66,163.03l1.1,.77,.02,.02c-1.97,4.24-4.15,8.39-6.49,12.45-3.67,5.95-7.28,12.29-13.01,16.55-1.96,1.47-4.55,1.73-6.95,1.8-2.39,.06-4.84-.36-7.05-1.38-6.63-3.17-9.93-10.34-12.28-16.89-3.03-8.88-4.85-18.07-6.56-27.26-.79-4.6-1.55-9.21-2.15-13.84,.85,4.59,1.73,9.17,2.71,13.73,1.92,9.1,3.98,18.23,7.01,27.01,2.3,6.27,5.51,13.13,11.76,16.23,2.03,.95,4.29,1.37,6.56,1.33,2.22-.08,4.52-.21,6.4-1.58,5.59-4.13,9.33-10.23,13.06-16.02,2.46-3.89,4.8-8.18,6.95-12.1l-1.06-.82h0Z"/><path class="s" d="M84.41,138.44s-.35,1.66,2,4.57"/></g></g></g></g><g id="d"><path class="s" d="M2.55,257.42c74.3-.36,157.66-.36,231.96,0-74.3,.36-157.66,.36-231.96,0h0Z"/></g><g id="e"><g><g><path class="f" d="M132.64,52.53c0,1.46,1.18,2.64,2.64,2.64s2.64-1.18,2.64-2.64-1.18-2.64-2.64-2.64-2.64,1.18-2.64,2.64Z"/><path class="s" d="M132.64,52.53c.12,3.34,4.91,3.26,4.98,0-.08-3.26-4.86-3.34-4.98,0h0Zm0,0c.11-3.67,5.45-3.7,5.57,0-.12,3.7-5.46,3.67-5.57,0h0Z"/></g><g><circle class="f" cx="144.7" cy="50.36" r="3.8"/><path class="s" d="M140.9,50.36c-.05,3.26,4.13,4.9,6.31,2.51,1.32-1.35,1.32-3.66,0-5.02-2.18-2.39-6.35-.76-6.31,2.51h0Zm0,0c-.06-3.39,4.21-5.25,6.66-2.86,1.62,1.47,1.62,4.26,0,5.73-2.46,2.39-6.72,.53-6.66-2.86h0Z"/></g><g><ellipse class="f" cx="178.83" cy="36.71" rx="30.33" ry="22.58"/><path class="s" d="M149.33,31.47c-3.5,10.84,4.5,20.66,14.18,24.64,9.57,4.05,20.84,4.03,30.37-.07,6.27-2.68,12.04-7.53,14.17-14.17,4.5-14.99-10.6-25.66-23.92-27.24-13.25-1.87-29.95,3.18-34.8,16.84h0Zm0,0c4.82-13.7,21.52-18.83,34.84-17.13,6.91,.9,13.78,3.55,18.87,8.43,5.18,4.78,7.89,12.43,5.57,19.28-6.12,17.08-30.16,21.05-45.17,14.22-9.64-4.09-17.66-13.95-14.1-24.8h0Z"/></g><path class="k" d="M180.02,38.52v2.23c0,.96-.72,1.68-1.68,1.68-.89,0-1.68-.72-1.68-1.68v-3.57s.03-.03,.03-.07t-.03-.07c0-.89,.79-1.68,1.68-1.68,2.16,0,3.91-1.72,3.91-3.84s-1.75-3.84-3.91-3.84c-1.41,0-2.64,.76-3.29,1.89-.48,.82-1.51,1.1-2.33,.62-.79-.48-1.06-1.47-.58-2.3,1.23-2.13,3.57-3.57,6.21-3.57,3.98,0,7.24,3.23,7.24,7.2,0,3.4-2.37,6.24-5.56,7Zm0,7.51v.62c0,.96-.72,1.68-1.68,1.68-.89,0-1.68-.72-1.68-1.68v-.62c0-.93,.79-1.68,1.68-1.68,.96,0,1.68,.75,1.68,1.68Z"/></g></g></svg>