<?xml version="1.0" encoding="UTF-8"?><svg id="Camada_1" xmlns="http://www.w3.org/2000/svg" xmlns:xlink="http://www.w3.org/1999/xlink" viewBox="0 0 339.23 324.33"><defs><style>.cls-1{fill:#fff;}.cls-2{fill:#3f6b71;}.cls-3{clip-path:url(#clippath);}.cls-4{fill:none;}.cls-5{fill:#ffa800;}.cls-6{fill:#506d8f;}</style><clipPath id="clippath"><rect class="cls-4" width="339.23" height="324.33"/></clipPath></defs><g class="cls-3"><g id="Grupo_2933"><path id="Caminho_7203" class="cls-5" d="M254.56,320.39c60.9-16.32,97.04-78.91,80.72-139.81-7.21-26.93-24.03-50.28-47.28-65.66-.02,2.69-.12,5.36-.31,8.01,48.16,34.61,59.15,101.7,24.55,149.87s-101.7,59.15-149.87,24.55c-25.01-17.97-41.11-45.82-44.19-76.47-2.41-1.16-4.78-2.41-7.12-3.74,3.87,62.93,58.03,110.81,120.96,106.93,7.61-.47,15.16-1.7,22.53-3.67"/><path id="Caminho_7205" class="cls-6" d="M250.34,33.44c-44.58-44.58-116.86-44.59-161.44,0-19.71,19.71-31.53,45.96-33.23,73.78,2.33-1.33,4.7-2.57,7.1-3.73C68.65,44.47,121.27,1.4,180.28,7.28c59.01,5.89,102.08,58.5,96.2,117.51-3.06,30.65-19.13,58.52-44.14,76.51,.2,2.67,.31,5.34,.32,8.03,52.56-34.82,66.95-105.66,32.13-158.22-4.21-6.36-9.05-12.28-14.45-17.68"/><path id="Caminho_7207" class="cls-2" d="M3.94,180.58c-16.32,60.9,19.82,123.5,80.71,139.82,26.93,7.22,55.57,4.33,80.51-8.12-2.32-1.36-4.58-2.78-6.78-4.28-54.05,24.41-117.65,.37-142.06-53.68-24.41-54.05-.37-117.65,53.68-142.06,28.07-12.68,60.23-12.69,88.31-.03,2.21-1.51,4.48-2.94,6.8-4.29-56.44-28.11-124.98-5.15-153.09,51.28-3.4,6.83-6.11,13.99-8.09,21.36"/><path id="Caminho_7208" class="cls-2" d="M115.85,114.92c0-27.24,22.08-49.32,49.32-49.32s49.32,22.08,49.32,49.32-22.08,49.32-49.32,49.32h0c-27.24,0-49.32-22.08-49.32-49.32h0"/><path id="Caminho_7209" class="cls-6" d="M185.14,209.42c0-27.24,22.08-49.32,49.32-49.32s49.32,22.08,49.32,49.32-22.08,49.32-49.32,49.32h0c-27.24,0-49.32-22.08-49.32-49.32h0"/><path id="Caminho_7210" class="cls-5" d="M61.75,209.42c0-27.24,22.08-49.32,49.32-49.32s49.32,22.08,49.32,49.32-22.08,49.32-49.32,49.32h0c-27.24,0-49.32-22.08-49.32-49.32h0"/></g></g><g><path class="cls-1" d="M135.03,112.41l-7.03,9.53h7.03v3.82h-12.31v-3.58l6.96-9.55h-6.96v-3.79h12.31v3.58Z"/><path class="cls-1" d="M145.69,125.92c-4.8,0-8.69-3.6-8.69-8.69s3.89-8.67,8.69-8.67,8.66,3.58,8.66,8.67-3.86,8.69-8.66,8.69Zm0-4.37c2.42,0,3.89-1.7,3.89-4.32s-1.46-4.34-3.89-4.34-3.89,1.68-3.89,4.34,1.44,4.32,3.89,4.32Z"/><path class="cls-1" d="M164.58,125.92c-4.8,0-8.69-3.6-8.69-8.69s3.89-8.67,8.69-8.67,8.66,3.58,8.66,8.67-3.86,8.69-8.66,8.69Zm0-4.37c2.42,0,3.89-1.7,3.89-4.32s-1.46-4.34-3.89-4.34-3.89,1.68-3.89,4.34,1.44,4.32,3.89,4.32Z"/><path class="cls-1" d="M175.35,108.83h5.69l4.25,10.99,4.15-10.99h5.66v16.92h-4.7v-9.34l-3.19,9.34h-3.94l-3.22-9.41v9.41h-4.71v-16.92Z"/><path class="cls-1" d="M204.82,120.04h-2.33v5.71h-4.71v-16.92h7.03c4.2,0,6.34,2.38,6.34,5.64,0,2.95-2.04,5.57-6.34,5.57Zm-.46-3.74c1.42,0,1.99-.72,1.99-1.82s-.58-1.85-1.99-1.85h-1.87v3.67h1.87Z"/></g><g><path class="cls-1" d="M225.78,205.6h-6.12v2.76h5.4v3.58h-5.4v3.05h6.12v3.77h-10.83v-16.92h10.83v3.77Z"/><path class="cls-1" d="M235.52,201.83c4.2,0,6.31,2.4,6.31,5.42,0,2.21-1.2,4.13-3.72,4.9l3.82,6.6h-5.26l-3.36-6.24h-.5v6.24h-4.71v-16.92h7.42Zm-.38,3.94h-2.33v3.53h2.33c1.27,0,1.92-.62,1.92-1.78,0-1.06-.65-1.75-1.92-1.75Z"/><path class="cls-1" d="M251,213.04h-2.33v5.71h-4.71v-16.92h7.03c4.2,0,6.34,2.38,6.34,5.64,0,2.95-2.04,5.57-6.34,5.57Zm-.46-3.74c1.42,0,1.99-.72,1.99-1.82s-.58-1.85-1.99-1.85h-1.87v3.67h1.87Z"/></g><g><path class="cls-1" d="M74.96,201.83h5.69l4.25,10.99,4.15-10.99h5.66v16.92h-4.7v-9.34l-3.19,9.34h-3.94l-3.22-9.41v9.41h-4.71v-16.92Z"/><path class="cls-1" d="M108.1,215.99h-6l-.91,2.76h-4.94l6.17-16.92h5.42l6.14,16.92h-4.97l-.91-2.76Zm-3-9.07l-1.8,5.47h3.62l-1.82-5.47Z"/><path class="cls-1" d="M122.55,213.04h-2.33v5.71h-4.71v-16.92h7.03c4.2,0,6.34,2.38,6.34,5.64,0,2.95-2.04,5.57-6.34,5.57Zm-.46-3.74c1.42,0,1.99-.72,1.99-1.82s-.58-1.85-1.99-1.85h-1.87v3.67h1.87Z"/><path class="cls-1" d="M137.81,213.04h-2.33v5.71h-4.71v-16.92h7.03c4.2,0,6.34,2.38,6.34,5.64,0,2.95-2.04,5.57-6.34,5.57Zm-.46-3.74c1.42,0,1.99-.72,1.99-1.82s-.58-1.85-1.99-1.85h-1.87v3.67h1.87Z"/></g></svg>