<?xml version="1.0" encoding="utf-8"?>
<!-- Generator: Adobe Illustrator 26.2.1, SVG Export Plug-In . SVG Version: 6.00 Build 0)  -->
<svg version="1.1" id="a" xmlns="http://www.w3.org/2000/svg" xmlns:xlink="http://www.w3.org/1999/xlink" x="0px" y="0px"
	 viewBox="0 0 283.2 332.4" style="enable-background:new 0 0 283.2 332.4;" xml:space="preserve">
<style type="text/css">
	.st0{fill:none;}
	.st1{fill:#FDFDFD;}
	.st2{fill:#0D536A;}
	.st3{fill:#3E365F;}
	.st4{fill:#5C5578;}
	.st5{fill:#696382;}
	.st6{fill:#D1D2D4;}
	.st7{fill:#3F375F;}
	.st8{fill:#403861;}
	.st9{fill:#D2D3D5;}
	.st10{fill:#D3D5D7;}
	.st11{fill:#D3D3D5;}
	.st12{fill:#585275;}
	.st13{fill:#474067;}
	.st14{fill:#5B5577;}
	.st15{fill:#C0BECB;}
	.st16{fill:#756F8C;}
	.st17{fill:#A7A3B6;}
	.st18{fill:#EFF0F0;}
	.st19{fill:#554D72;}
	.st20{fill:#413961;}
	.st21{fill:#635C7D;}
	.st22{fill:#726C8A;}
	.st23{fill:#686282;}
	.st24{fill:#666080;}
	.st25{fill:#FEFEFE;}
	.st26{fill:#B8B5C4;}
	.st27{fill:#F4F4F6;}
</style>
<path class="st0" d="M106.4,96.7c0.1,0,0.2,0.1,0.3,0.1C106.7,96.8,106.6,96.7,106.4,96.7z"/>
<path class="st0" d="M147.7,313.6c0,0,0.1-0.1,0.1-0.1C147.7,313.5,147.7,313.5,147.7,313.6z"/>
<path class="st0" d="M116.3,92.9c0.1,0.1,0.1,0.1,0.1,0.2c0.1-0.1,0.1-0.2,0.2-0.3C116.5,92.9,116.4,92.9,116.3,92.9z"/>
<path class="st0" d="M154.5,326c0.1,0.1,0.1,0.1,0.2,0.2C154.7,326.1,154.6,326.1,154.5,326z"/>
<path class="st1" d="M168.4,329.3c0.5-0.2,0.9-0.1,1.4,0C169.3,329.7,168.9,329.9,168.4,329.3z M170.8,326.7
	c1.1,0.5,2.1,1.3,3.5,1.1c-1.4,0.9-1.9,0.8-3.3-0.4c-0.2,0.1-0.5,0.1-0.7,0.2c-1.5,0.4-1.7,0.2-1.9-1.2c-0.1-0.6-0.2-1.1-0.3-1.9
	L170.8,326.7L170.8,326.7z M175.5,283c0.2-0.2,0.1-0.6,0.6-0.8c0.1,0.5,0.2,1.2-0.3,1.4C175.2,283.8,174.8,283.6,175.5,283
	L175.5,283z M69.8,74.8c-1-0.6-1.9-1.3-2.7-2.2c-0.7-0.9,0.1-1.7,0.3-2.5c0.1-0.3,0.4-0.6,0.6-0.9c0.5-1.4,1.3-2.2,3.1-1.7
	c0.6,0.2,1.4,0.1,1.8-0.6c0.4-0.7-0.2-1.3-0.6-1.8c-0.5-0.8-1.7-1.1-2-2.3c0.8,0.1,1.4,0,1.3-1c0-0.3,0.2-0.6,0.5-0.6c1,0,2-0.1,3,0
	c0.5,0,0.4,0.5,0.4,0.9c0,1.2,0,2.5-0.2,3.7c-0.2,1.6,0,3,1.4,4.1c-1.8,1.1-2.6,2.9-3.8,4.4C72.1,75,70.8,75.3,69.8,74.8L69.8,74.8z
	 M76.1,66.7c0.3-1.4,0.2-2.8,0.3-4.1c0-0.3,0.1-0.7,0.5-0.7c0.5,0,0.4,0.4,0.4,0.7c0.4,1.9-0.1,4,0.6,5.9c0.1,0.3,0,0.7-0.2,0.9
	c-0.3,0.2-0.4-0.2-0.6-0.4C76.4,68.3,75.9,67.7,76.1,66.7L76.1,66.7z M78.1,77.4c0.4,0.1,0.8,0.2,1.3,0.3
	C78.8,78,78.4,77.9,78.1,77.4z M81.2,77.1c-0.8-0.1-1.6-0.3-2.4-0.5c-1.5-0.4-2.9-0.8-4.4-1.2c-0.8-0.2-0.9-0.7-0.4-1.3
	c0.6-0.7,1.1-1.5,1.6-2.2c0.9-1.2,1.4-1.3,2.6-0.5c0.3-0.8,0.3-1.9,1.6-2c-0.2,1.2-0.8,2.2-1.2,3.2C78,74,78,74,79.4,74.3
	c0.7,0.1,1.4,0.4,2.1,0.4c0.8,0.1,1.1,0.6,1.1,1.3C82.5,76.8,81.9,77.2,81.2,77.1L81.2,77.1z M80.2,63.4c0.2,1.3-0.2,2.4-1.6,3.2
	c-0.2-1.7-0.1-3.2-0.2-4.6c0-0.8,0.9-1.6,1.5-2.4c0,0,0.4,0.1,0.5,0.2c0.2,0.2,0.3,0.4,0.1,0.6C79.8,61.3,80,62.3,80.2,63.4
	L80.2,63.4z M88,83.1c0,0.2,0.1,0.5,0.2,0.7c0.1,0.2,0.1,0.4,0.2,0.6c-2-1.2-3.2-3.2-5-4.9c1.2-0.5,2.5-1,2.5-2.5
	c0-0.1,0.2-0.2,0.2-0.2c1.1,0.1,1.7-0.9,2.9-0.9c1.3,0,2.7-0.8,3.2-2.3c0.1-0.2,0.2-0.5,0.5-0.4c1.4,0.8,2.6-0.1,3.8-0.6
	c0.9-0.4,1.1-0.2,1,0.7c-0.1,0.6-0.1,1.3-0.4,1.9c-1.2,2.2-0.8,4.7-1,7c-0.1,1.3-0.5,2.6-0.5,4c0,0.7-0.7,0.4-1.1,0.2
	c-1.3-0.5-2.1-1.5-2.8-2.6c-0.6-1-1.7-1.2-2.6-1.6C88.3,81.7,87.8,82.3,88,83.1L88,83.1z M97.3,94.5c-0.2,0.1-0.3-0.2-0.3-0.4
	c0-0.9-0.6-1.4-1.4-1.7c-1.2-0.5-2.3-1.3-3-2.5c-0.4-0.7-1.1-0.8-1.7-0.3c-0.3,0.3-0.3,1-1,0.4c-0.5-0.4-1.1-0.9-0.7-1.7
	c0.2-0.4,0.3-0.8,0.1-1.4c-0.2-0.6,0.2-0.9,0.7-0.7c1.4,0.5,3.1,0.1,4.4,1.1c0.1,0.1,0.3,0.2,0.4,0.2c1.4-0.7,1.7,0.6,2.2,1.3
	c0.5,0.7,1,1.5,1.6,2.2c0.7,0.7,0.4,1.7,0.4,2.6c0,0.5,0,0.9,0.1,1.5C98.5,95,98.1,94.2,97.3,94.5L97.3,94.5z M99.6,48.1
	c-0.2,0.3-0.5,0.3-0.8,0.3c-0.3,0-0.7,0-0.7-0.2c-0.1-0.8,0.4,0,0.6-0.2c0.2-0.3,0-0.5-0.1-0.7c-0.2-0.3,0-0.5,0.3-0.7
	c0.3-0.2,0.6,0,0.6,0.3C99.4,47.2,99.9,47.6,99.6,48.1z M116.6,60.1c-0.2-0.1-0.4-0.2-0.3-0.4c0.1-0.1,0.3-0.2,0.5-0.2
	c1.4-0.1,2.8,0.1,4.3,0.8C119.5,61.2,118,61,116.6,60.1L116.6,60.1z M112.4,137.3c0.7-0.6,0.9-1.8,0.3-2.3c-0.8-0.7-1.4-0.2-1.9,0.4
	c-0.8,1-1.6,0.1-2.6,0.1c0.8-1.2,0.7-2.2,0.2-3.4c-0.4-1,0.3-1.7,1.2-2.2c0.8-0.4,1.5-0.8,0.5-1.7c-0.2-0.2-0.1-0.4,0.1-0.6
	c0.2-0.3,0.4-0.6,0.6-0.9c0.7-1.1,0.6-2-0.2-2.9c1.2-0.8,2.3-1.5,3.7-2.1c1.6-0.6,2,0.3,2.9,0.8c0.4,0.2,0.7,0.5,1.2,0.5
	c1.1-0.1,1.8,0.5,2.6,1.2c0.8,0.8,2.3,0.6,3.5,1c0.5,0.2,0.8-0.6,1-1.2c0.3,0.2,0.6,0.4,0.8,0.5c1.7,0.6,1.6,2.4,2.5,3.5
	c0.2,0.3,0.1,0.6-0.1,0.9c-1.5,2.9-3.4,5.3-6.7,6.3c-0.9,0.3-1.8,0.7-2.6,1.1c-0.7,0.3-1.2,0.6-1,1.5c0.1,0.7-0.6,0.6-0.9,0.6
	c-0.8,0.2-1.1,0.4-0.9,1.5c0.1,1,0.6,2.4-0.9,3.1c-0.4,0.2-0.4,0.6-0.3,1c0,0.3,0,0.5-0.3,0.5c-0.3,0-0.4-0.1-0.5-0.4
	c0-0.1-0.1-0.2-0.1-0.3c-0.5-1.7-1.3-2-2.8-1.1c-0.3,0.1-0.5,0.4-0.8,0.1c-0.3-0.4-0.1-0.7,0.2-0.9c1.2-1.5,1.1-1.7-0.1-3.1
	C111.3,138.1,111.9,137.7,112.4,137.3L112.4,137.3z M145.9,189.8c-0.4-1.2-1.2-2-2.4-2.2c-2.5-0.4-4.7-1.6-7.2-2.2
	c-1.9-0.5-3.7-1.9-5.3-3.3c-0.9-0.8-1.7-1.8-2.5-2.7c-0.7-0.9-1.4-1.7-0.8-3c0.2-0.5-0.1-1-0.5-1.4c-1.5-1.2-2.8-2.6-2.9-4.7
	c0-0.3-0.2-0.7-0.4-0.9c-1.5-1.3-1.8-3.4-3.3-4.6c-0.2-0.2-0.4-0.5-0.5-0.8c-0.3-1.5-0.7-2.9-2.1-3.7c-0.3-0.2-0.4-0.6-0.5-1.1
	c-0.3-1.7-1-3.3-2.7-4.2c-0.5-0.3-0.9-0.7-1.2-1.3c-1-2-2.4-3.6-4.8-3.9c-0.2,0-0.4-0.1-0.7-0.2c-0.1-0.1-0.2-0.2-0.4-0.3
	c1.4-1.4,1.4-1.8,0-3.3c-1.1-1.2-1.2-2.1-0.3-3.5c0.3-0.5,0.7-0.9,0.9-1.5c0.3-0.9,1.4-0.8,2-1.3c0.1-0.1,0.7,0.5,0.3,1
	c-0.3,0.3-0.6,0.6-0.8,0.9c-0.4,0.7-0.2,1.4,0.3,2c0.6,0.6,1.2,0.6,1.8,0.1c0.8-0.6,1.4-0.6,1.5,0.6c0.1,0.9,0.6,1.4,1.6,1.3
	c0.8-0.1,1.1-0.6,1.6-1.3c1-1.4,0.9-2.9,1.3-4.3c0.1-0.4,0.4-0.6,0.7-0.7c0.6-0.2,1-0.6,0.9-1.2c-0.1-0.6,0.2-0.8,0.6-1
	c1-0.4,1.9-0.8,2.9-1.1c2.7-1.1,4.7-2.8,6-5.4c0.1-0.2,0.2-0.4,0.4-0.6c0.8-1,0.8-2,0.1-3.1c-0.1-0.2-0.4-0.3-0.2-0.6
	c0.2-0.3,0.5-0.2,0.8-0.2c0.4,0,0.8,0.3,1.2,0.6c1.4,0.9,2.5,2.5,4.4,2.4c0.2,1,1.4,1.5,1.4,2.7c-0.1,1.3,1.2,2.5,2.5,2.5
	c1.2,0,2.3,0.1,3-1.2c0.4-0.6,0.9-0.2,1.2,0.1c0.8,0.6,1.5,0.7,2.2-0.1c0.5-0.6,1.2-0.9,1.8-0.4c0.6,0.4,1.2,1,1,1.8
	c-0.2,0.7-0.6,1.6-1.5,1.7c-1.3,0.1-1.2,1.2-1.4,2c-0.2,0.7,0.5,0.4,0.9,0.3c1.5-0.4,1.9-0.3,2.6,1.3c-2.6-1.3-4.7,0.7-7,0.9
	c-0.4,0-0.8,0.4-1,0.8c-0.5,0.7-1,1.2-1.8,1.4c-0.4,0.1-0.6,0.4-0.8,0.7c-0.3,1-0.9,1.8-1.6,2.6c-0.4,0.4-0.4,0.9-0.1,1.4
	c0.4,0.6,0.5,0.9-0.5,1c-1.1,0.1-1.8,0.9-1.6,2c0.1,1.1-0.1,2.1-0.6,3c-0.4,0.9-0.2,1.4,0.6,1.9c1.1,0.7,1.6,1.9,2.5,2.8
	c0.4,0.4,0.3,0.8-0.1,1.1c-0.7,0.7-0.6,1.5-0.6,2.7c0.4-0.4,0.5-0.6,0.7-0.8c0.8-0.9,2.6-0.8,3,0.3c0.6,1.4,1.6,1.3,2.7,1.3
	c0.9,0,1.8-0.2,2.7-0.5c0.5-0.1,0.7-0.1,0.9,0.6c0.2,0.8,0.1,1.7,0.2,2.5c0,1.3,1,1.8,2.1,1.2c1.8-1,2.4-1,3.8,0.5
	c0.6,0.6,1.1,1.2,1.6,1.8c0.5,0.6,1,1.2,0.4,2.2c-0.4,0.6,0,1.6-1,1.9c0.9,1-0.5,2.3,0.4,3.1s0.5,1.3-0.3,1.8
	c-1.1,0.7-1.2,1.9-0.4,2.9c0.4,0.5,0.1,1-0.1,1.3c-0.8,0.9,0,1.8-0.1,2.7c0,0.3,0.6-0.1,0.8,0.3c-0.8,0.9-0.6,2.2-1.4,3.1
	c-0.3,0.3-0.3,0.8-0.1,1.3c0.3,0.8,0.1,1.6,0,2.4c-0.1,1-0.6,1.3-1.6,1.4C149.5,193.1,146.4,191.1,145.9,189.8L145.9,189.8z
	 M149.5,135.4l0.4-1c0.1,0.8,0.1,1.3-0.1,1.8c0,0.5-0.1,1-0.1,1.6l-1.4-0.8C148.6,136.5,149.1,136,149.5,135.4z M167.4,165.6
	c-0.1,1.1,0.4,1.8,1.2,2.4c2.3,1.6,4.6,3,7.5,3.5c0.7,0.1,1.4,0.4,1.9,0.9c1.7,1.4,3.7,1.9,5.8,2.3c0.5,0.1,1,0.4,1.6,0.6
	c0.3,0.1,0.7,0.5,0.6,0.7c-0.9,1.2,1.1,1.9,0.6,3.1c-0.2,0.5-0.9,0.8-0.9,1.5c-0.2,2.6,1.5,4.5,4.1,4.4c1.1,0,2.3-0.1,3.4-0.6
	c0.2-0.1,0.5-0.2,0.6,0.1c0.2,0.2,0.1,0.4-0.1,0.6c-1,1.2-0.6,2.3,0.1,3.4c0.4,0.5,0.8,1,1.1,1.5c1,1.4,1.1,1.9,0.1,3.3
	c-0.5,0.7,0.3,1.6-0.1,2c-0.6,0.7-0.5,1.2,0,1.9c0.2,0.3,0.8,0.6,0.1,1c-0.7,0.4-0.6-0.3-0.8-0.6c-1.2-2.2-4.5-3.3-7-2.2
	c-1.2,0.5-2.5,0.7-3.8,0.7c-1.1,0.1-2,0.4-2.7,1.2c-0.5,0.6-1,1.3-1.9,1.6c-0.6,0.2-0.2,0.6-0.1,0.9c0.9,1.8,1,3.6,0.2,5.4
	c-0.3,0.7-0.6,1.2-1.7,1c-1.2-0.3-2.4,0-3.7,0c-0.3,0-0.5,0.1-0.6,0.3c-0.6,1.2-1.3,1-2.2,0.3c-0.2-0.2-0.6-0.4-0.9-0.3
	c-1.5,0.1-2.9-0.1-4.1-1c-0.4-0.3-1.1,0-1.4,0.6c-0.7,1.2-1.4,2.3-2.6,3.1c-0.5,0.4-0.7,0.2-0.9-0.1c-0.6-0.5-0.8-1.3-1-2
	c-0.5-1.5-0.6-3.2-1.8-4.5c-0.2-0.2-0.1-0.5-0.1-0.8c0-0.3,0.1-0.8-0.2-0.9c-1-0.5-0.7-1.2-0.5-2c0-0.1,0-0.4,0.1-0.4
	c1-0.9,0.8-2.2-0.5-2.6c-1-0.4-1.4-0.8-1.1-1.9c0.3-1-0.4-1.8-1.1-2.2c-1-0.8-0.4-2-1.1-2.8c0,0,0-0.1,0-0.1
	c1.3-0.6,0.5-2.2,1.3-3.1c0.5-0.5,1.1-1.3-0.3-1.7c-0.4-0.1-0.7-0.6-0.2-1.2c0.8-0.9,0.8-1.9,0.3-2.9c-0.4-0.7-0.4-1.1,0.3-1.7
	c0.7-0.6,0.8-1.4,0.4-2.5c-0.4-0.9-0.4-1.9,0.2-2.9c0.3-0.4,0.9-1,0.8-1.1c-0.6-0.8,0.1-1.8-0.6-2.7c-0.9-1.2-1.9-2.2-2.8-3.3
	c-0.1-0.1-0.2-0.2-0.2-0.4c1.3,0.6,2.3,0.1,3.1-0.8c0.5-0.6,1.2-0.4,1.8-0.4c0.9,0,1.7-0.2,2.2-1.2c0.2-0.4,0.5-0.8,1.1-0.8
	c0.4,0,0.9-0.3,1.1-0.6c1.3-1.9,3.2-1.3,5-1.3c0.5,0,0.5,0.5,0.4,0.8C167,162.7,167.5,164.2,167.4,165.6L167.4,165.6z M195.3,206.6
	c1,0.6,2.1,0.6,3.7,0.5c0.7,0,1.8,0,2.9,0.5c0.6,0.3,0.9,0.6,0.7,1.3c-0.4,1.6,0.5,2.8,1,4.2c0.2,0.6,1,0.6,1.7,0.5
	c0.8-0.2,1.3,0.1,1.2,1c-0.1,0.5,0.2,1,0.4,1.5c0.2,0.9-0.2,1.6-0.7,2.2c-0.8,1-1.1,2.1-0.8,3.3c0.2,0.8-0.2,1.4-0.7,1.9
	c-0.7,0.8-1.6,1.4-2.2,2.3c-0.3,0.4-0.5,0.2-0.8,0c-0.5-0.3-1-0.4-1.4,0.2c-0.3,0.5-0.6,0.6-1.3,0.7c-1.6,0.3-2.6-0.4-3.8-1.1
	c-0.7-0.4-1.4-0.3-2.2-0.1c-0.3,0.1-0.8,0.3-1-0.1c-0.2-0.3-0.1-0.7,0.1-1c1.2-1.4,1.4-3.4,2.8-4.8c0.9-0.8,0.6-1.9-0.6-2.2
	c-2.2-0.6-3.9-1.9-5.6-3.4c-0.5-0.5-1.1-0.7-1.9-0.7c-0.9,0.1-1.6-0.2-2.3-0.8c-1.4-1.1-2.8-2.4-4.4-3.3c-0.7-0.4-1.3-1.3-2-1.9
	c-0.4-0.3,0-0.4,0.2-0.6c1.6-1.6,2.3-3.5,1.7-5.7c-0.3-1.1-0.5-2,0.6-2.9c0.8-0.7,1.4-1.4,2.7-1.4c1.3,0,2.7-0.2,3.9-0.8
	c2-1,4.8-0.1,6,2.3c0.5,1.1,1.1,2.2,1.6,3.3c0.5,1.2,0.4,2.6-0.1,3.8C194.8,206.2,194.9,206.3,195.3,206.6L195.3,206.6z
	 M146.7,287.3c0.4-0.7,0.2-1.3,0-2c-0.1-0.3-0.1-0.7-0.1-1.1c0-0.3-0.1-0.6,0.4-0.6c0.3,0,0.6-0.3,0.9,0.1c0.1,0.3,0.2,0.5,0,0.8
	c-0.6,0.6-0.6,1.2,0.1,1.9c0.5,0.5,0,1-0.1,1.4c-0.1,0.3-0.2,0.4-0.4,0.4C146.7,288.1,146.3,287.9,146.7,287.3L146.7,287.3z
	 M150.5,308.2c-0.1-0.3,0.1-0.7,0.1-1.1l0,0c-0.2-0.2-0.4-0.5-0.7-0.8c0.6-0.1,1,0,1.5,0.2l1.4,0.1c-0.4-1-1.3-1.8-1-3
	c0.1-0.2-0.3-0.2-0.5-0.1c-0.4,0.1-0.9,0.1-1.3,0.2c-0.3,0-0.5-0.1-0.6-0.3c-0.1-0.3,0.1-0.4,0.4-0.4c0.4-0.1,0.4-0.5,0.3-0.9
	c-0.1-0.4-0.4-0.8-0.9-0.7c-1.3,0.4-1.5-1.1-2.3-1.5c-0.1,0,0.6-1,0.6-1.6c0-0.2,0.6,0.2,0.9,0.4c0.6,0.2,1.3,0.9,1.8,0.2
	c0.4-0.6,0.8-1.6,0.3-2.3c-0.6-0.9-0.3-1.5,0.3-2.1c0.4-0.4,0.9-0.7,1.1-1.1c0.2-0.4,1.1-0.2,0.7-0.9c-0.3-0.6-0.5-1.5-1.6-1.2
	c-0.5,0.1-0.9-0.1-0.4-0.8c0.1-0.2,0.2-0.6,0.1-0.8c-0.5-1.4,0-2.8,0.1-4.2c0.1-0.6-0.5-0.7-0.6-1.1c0.1-0.5,0.7-0.1,0.9-0.4
	c-0.5-0.5-0.8-1.2-0.7-1.9c0-0.6-0.3-0.9-0.9-1c-0.6-0.1-0.8,0.3-0.9,0.8c-0.2,0.8-0.5,0.7-1.1,0.3c-1.2-0.8-1.6-1.5-1.4-2.9
	c0.2-1.2,0.2-2.4,0.1-3.6c0-0.4,0.1-0.7,0.3-1c0.9-1.2,1-2.2,0-3.3c-0.5-0.6-0.7-1.1-0.6-1.9c0-0.3,0-0.6,0-0.8
	c-0.3-1.4,0-2.5,0.4-3.9c0.5-1.9,1.1-3.8,1.3-5.8c0-0.2,0-0.4,0.1-0.5c1.2-2.1,0.9-4.3,0.8-6.5c0-0.6,0-1.4,1-1.3
	c0.4,0,0.5-0.3,0.4-0.6c-0.4-1-0.1-2.1-0.2-3.1c-0.2-2-0.2-3.9-1.4-5.6c-0.4-0.6-0.2-1.6,0.2-2.3c0.7-1.3,1-2.7,0.2-4.1
	c-0.4-0.8-0.4-1.6,0-2.3c0.9-1.5,1.2-3.3,1.2-4.8c0-1.8,0.7-3.5,0.5-5.3c-0.1-1.1,0.1-2.1,0.3-3.2c0.1-0.3,0.1-0.7,0.1-0.9
	c-0.7-1.9-0.6-4-0.2-5.9c0.4-2.2,0.1-4.4,0.7-6.6c0.2-0.8,0.2-1.5-0.3-2.2c-0.5-0.8-0.5-1.7-0.4-2.6c0.1-2,0.4-4-0.6-5.9
	c-0.3-0.6-0.2-1.1,0.8-1.1c1.2,0,2.3-0.5,2.4-2c0.9,0.7,1.4,1.3,1.1,2.4c-0.1,0.4-0.1,0.9,0.3,1.2c0.5,0.4,0.4,1.2,1.2,1.2
	c-0.4,0.6-0.2,1.2,0,1.7c0.2,0.4-0.1,0.6-0.4,0.7c-0.4,0-0.8-0.1-0.8,0.5c0,0.6,0.2,1,0.8,1.1c0.6,0.1,1,0.4,0.9,1.1
	c0,0.2,0.1,0.5,0.2,0.7c1.4,1.5,1.6,3.4,2.2,5.2c0.4,1.2,0.9,2.1,2.2,2.3c0.4,0.1,0.4,0.2,0.5,0.5c0.5,2-0.2,3.8-2,4.9
	c-1.2,0.7-2.4,1.4-1.7,3.1c0.1,0.3-0.1,0.6-0.3,0.9c-0.2,0.3-0.3,0.7-0.1,1c0.9,1.3,0.1,2.9,0.8,4.3c0.2,0.3-0.2,0.6-0.5,0.7
	c-0.7,0.4-1,1-1.2,1.7c-0.8,2.2-2,4.3-2.5,6.6c-0.2,1-0.3,1.9,0.2,2.8c0.4,0.7,0.3,1.3-0.3,1.8c-0.4,0.4-0.4,0.8-0.4,1.3
	c0.1,0.8,0.3,1.6-0.7,2.2c-0.6,0.4-0.3,1.3,0.3,1.7c0.6,0.4,0.6,0.9,0.7,1.5c0.2,1.5,0.1,3.2,1.8,4.2c0.6,0.4,0.4,1.4,0.6,2.1
	c0.1,0.7,0.2,1.5-0.9,1.7c-0.3,0.1-0.4,0.4-0.5,0.8c-0.2,0.9-0.4,1.9-0.7,2.8c-0.1,0.3-0.1,0.7,0.1,0.9c0.8,0.8,0.4,1.6-0.1,2.4
	c-1.1,1.9-1.8,4-1.3,6.2c0.3,1.2,0.8,2.4,1.2,3.6c0.2,0.6,0.2,0.9-0.5,1c-0.8,0.1-1.1,0.6-0.8,1.4c0.2,0.5,0.1,1-0.1,1.5
	c-0.7,2.2-0.8,4.5-0.2,6.8c0.3,1.1,0.5,2.2,0,3.4c-0.7,1.6,0.5,2.8,1.2,4c0.4,0.7,0.7,1.2,0.3,2c-0.5,0.9,0.2,1.2,1,1.1
	c0.3,0,0.8-0.2,0.9,0.3c0.1,0.5-0.4,0.5-0.7,0.6c-0.2,0.1-0.5,0.1-0.7,0.2c-0.3,0.1-0.6,0.3-0.6,0.7c0,0.4,0.3,0.6,0.6,0.6
	c1,0.2,0.8,0.9,0.6,1.6c-0.4,1.4-0.1,2.7,0.6,4c0.1,0.2,0.3,0.3,0.1,0.5c-1.4,1.9-1.4,4-1.1,6.2c0.1,1-0.3,2-0.6,3
	c-0.1,0.3-0.2,0.5-0.6,0.5c-0.9,0.1-1.7-0.1-2.6,0.2C150.8,309.8,150.7,308.8,150.5,308.2L150.5,308.2z M157.1,325.8
	c-0.2-0.1-0.6,0-0.6-0.4c0-0.1,0.2-0.2,0.2-0.3c0.4-0.1,0.5,0.1,0.6,0.4C157.3,325.6,157.3,325.8,157.1,325.8L157.1,325.8z
	 M157.1,323.3c-0.1-1.1,0.8-0.7,1-1.1c0.7-0.3,0.8-0.3,0.8,0.3C158.4,322.9,157.6,322.5,157.1,323.3L157.1,323.3z M158.7,324.4
	c1.1-0.3,1.6-0.1,1.7,0.6C159.7,325,159.2,324.6,158.7,324.4z M160.9,321.7c-0.1,0.6-0.3,1.2-0.4,1.8c-0.2-0.5,0.1-1.1-0.2-1.6
	c-1.3-1.9-4-1.9-5.2,0c-0.6-0.6-0.4-0.9,0.2-1.3c1-0.5,1.7-1.4,2.1-2.5l0,0l0,0c-0.6-0.3-1.5,0.4-1.8-0.6c-0.4,0.1-0.4,0.4-0.4,0.6
	c-0.2,0.5-0.6,0.9-1,0.7c-0.4-0.2-0.4-0.7-0.1-1.1c0.2-0.4,0.2-0.8-0.4-1c-0.6-0.2-0.6-0.8-0.7-1.3c-0.2-0.9-0.5-1.6-1.4-2.1
	c-0.8-0.4-0.2-2.3,0.9-2.8c0.5-0.2,1.1-0.3,1.6-0.5c0.1,1.1-0.3,2.1,0.1,3c0.4,0.8,0.4,2.2,1.9,1.3c0.5-0.3,0.8,0.1,0.7,0.6
	c-0.2,1.2,0.2,2.2,0.7,3.3c0,0,0,0,0,0l0,0c0,0,0,0,0,0c0.8,1,1.9,1.2,3.1,1.1c1.3-0.1,2.6-0.7,4-0.1c-0.6,0.7-1.4,0.9-2.2,1.2
	C161.7,320.6,160.9,320.8,160.9,321.7L160.9,321.7z M162.3,328c0.5-0.3,0.9-0.2,1.6-0.2C163.2,328.1,162.9,328.4,162.3,328z
	 M166.8,321c0.2,0,0.2,0.9,0.1,1.5c-0.1,0.8,0.1,1.8,0.3,2.6c0.1,0.4,0.2,0.7,0.2,1c0.2,0.7-0.1,0.9-0.8,0.8
	c-0.8-0.2-1.6-0.2-2.4-0.4c-0.4-0.1-0.7-0.2-0.8-0.7c-0.1-0.4,0.2-0.6,0.5-0.8c0.5-0.2,1-0.5,0.8-1.1c-0.2-0.6-0.8-0.5-1.2-0.4
	c-0.3,0-0.6,0-1,0c0.2-1.4,1.8-1.4,2.1-2.6C165.3,321.2,166.1,320.9,166.8,321L166.8,321z M194.5,256c0.7,0.5,1,1,0.3,1.8
	c-0.6,0.6,0.1,2.2,1,2.7c1.1,0.6,1.1,1.1,0.6,2.2c-1.8,4-5.1,5.5-9.1,6c-1.2,0.2-2.4,0.4-3.5,0.8c-0.8,0.3-1.6,0.3-2.3-0.1
	c-0.6-0.3-1.2-0.7-1.6,0.1c-0.3,0.6-0.5,1.4,0.3,1.9c1,0.6,0.3,1.2-0.2,1.5c-1,0.6-0.9,1.2-0.4,2c0.8,1.2,0.6,1.5-0.7,1.9
	c-0.1,0-0.3,0-0.3,0.1c-0.8,0.9-1.6,1.3-2.7,0.6c-0.8-0.5-1.9-0.5-2.6-1.2c-0.7-0.6-1.2-0.4-1.5,0.3c-0.4,0.9-0.4,1.9,0.2,2.7
	c0.3,0.4,0.5,0.7,0.1,1.2c-0.4,0.6-0.1,1.2,0.7,1.5c0.4,0.1,1,0,1.1,0.7c-1.5,0.6-1.6,1-0.7,2.1c0.3,0.4,0.1,0.5-0.1,0.7
	c-1.1,1-1.3,2.4-1.4,3.8c0,1.1-0.5,1.9-1.6,2.4c-1.9,0.9-3.4,2.4-3.9,4.6c-0.4,1.9,1.4,3.9,3.6,4.2c0.5,0.1,1.2-0.3,1.5,0.5
	c0.3,0.8-0.2,1.5-0.6,2.1c-1,1.5-2.6,2.6-3.5,4.2c-0.3,0.6-1.2,1-0.3,1.9c0.3,0.4-0.1,1.5-1,1.7c-1.2,0.2-1.6,1-1.8,2.1
	c-0.3,1.9-0.4,1.9,1.1,5.1c-1.8-0.5-3.4,0-5.1,0c-1.8,0.1-2.8-1.4-2.3-3.1c0-0.2,0-0.3,0.1-0.5c-0.4-1-1-1.6-2.1-1.4
	c-0.8,0.2-0.7-0.5-0.7-0.9c-0.2-1.2,0.2-2.4,0.5-3.5c0.5-1.5,0.4-3,0.3-4.5c-0.1-1.4,0-2.8,1-3.9c0.4-0.4,0.6-1,0.2-1.4
	c-1-1.4-0.9-2.8-0.6-4.3c0.2-0.8-0.3-1.6,0.5-2.5c0.7-0.7,0-1.7-1.1-2c-0.2-0.1-0.6,0-0.5-0.3c0.4-1.8-1.1-2.7-1.7-4
	c-0.2-0.4-0.3-0.9-0.2-1.3c0.8-1.7,0.1-3.4-0.1-5.1c-0.2-1.9-0.2-3.8,0.5-5.6c0.1-0.2,0.3-0.6,0.2-0.8c-0.3-0.9,0.1-1.1,0.8-1.5
	c0.8-0.5,0.4-1.3,0.2-2.1c-0.4-1.5-1.2-2.8-1.3-4.4c0-1.6,0.6-3,1.3-4.4c0.5-1,1.1-2,0.2-3.2c-0.5-0.6,0.5-3,1.3-3.4
	c0.1-0.1,0.2-0.1,0.3-0.2c0.7-0.7,0.5-4.7-0.4-5.1c-1.5-0.7-1.5-2-1.5-3.2c-0.1-1.2-0.3-2.1-1.4-2.7c1.1-0.5,1.4-1.3,1.1-2.3
	c-0.1-0.6-0.1-1.1,0.4-1.5c0.6-0.7,0.7-1.5,0.3-2.3c-0.5-0.9-0.4-1.8-0.1-2.8c0.6-2.3,1.9-4.4,2.6-6.6c0-0.1,0.2-0.3,0.3-0.4
	c1.5-0.7,1.2-1.8,1.1-3.2c-0.2-1.4-0.2-2.9-0.4-4.3c-0.3-2.1,1-2.5,2.2-3.2c2.2-1.3,1.8-3.5,1.7-5.5c0-0.8,0.1-1.2,0.6-1.7
	c0.6-0.5,1.2-1.2,1.5-1.9c0.4-0.9,0.9-0.7,1.4-0.3c0.5,0.4,1,0.8,1.7,0.6c2.9-0.4,3.6,0.9,3.7,3.3l0,0c0.1-0.1,0.3-0.2,0.4-0.2
	c0.1-0.3,0.2-0.6,0.2-0.9c0.5-2,1.5-2.7,3.6-2.6c0.2,0,0.4-0.1,0.5,0.2c0.7,1.2,1.9,2,2.9,3c1,0.9,2.3,1.5,3.4,2.4
	c1.3,1.1,2.6,2.4,4.6,2.1c0.5-0.1,0.9,0.4,1.3,0.8c1.5,1.4,3.1,2.6,5.2,3.1c0.8,0.2,0.7,0.6,0.2,1.1c-1.6,1.4-2,3.5-2.9,5.2
	c-0.6,1.1,0.3,2.4,1.4,2c1.9-0.7,3.1,0.6,4.6,1.2c0.9,0.3,3.2,0.1,3.8-0.6c0.2-0.3,0.3-0.4,0.6-0.2c0.8,0.5,1.3,0.1,1.8-0.6
	c0.4-0.4,0.7-0.9,1.1-1.2c1.4-1.2,2.5-2.6,1.8-4.7c1.8,0.1,2.2,0.7,2.1,2.2c0,0.3,0,0.6,0.1,0.8c0.1,0.3,0,0.8-0.2,0.9
	c-0.8,0.2-1,0.9-1.5,1.4c-0.5,0.6-1.4,0.9-2.1,1.3c-1.8,0.9-3.4,1.9-4.7,3.6c-0.7,1-1.8,1.6-2.6,2.6c-1.4,1.8-2.5,3.7-3,6
	c0,0.2-0.1,0.3-0.1,0.4c-1.6,2.1-1.1,4.5-1.2,6.8c-0.1,1.4-1.1,2.4-1.4,3.7c-0.5,1.9-0.2,3.1,1.4,4.2C193.5,255,194,255.5,194.5,256
	L194.5,256z M209.1,247.7c-1.3,1.1-0.8,2.9-1.9,4.1s-2.4,2-3.6,2.8c-0.5,0.3-1.1,0.2-1.8,0.2c-0.8,0.1-1.9-0.5-3,0.1
	c-0.4,0.2-0.9-0.3-1.3-0.6c-1-0.8-1.8-1.6-3.3-1.8c-1.4-0.1-1.9-2.4-1-3.6c1.1-1.5,1.1-3.2,0.8-5c-0.1-0.5-0.4-1,0-1.5
	c1-1.1,1.2-2.5,1.6-3.8c0.2-0.8,0.5-1.4,1.4-1.6c0.9-0.1,1.4,0.2,1.9,0.8c0.6,0.8,1.4,1.4,1.7,2.4c0.1,0.3,0.4,0.6,0.7,0.5
	c1-0.5,1.4,0.5,2.1,0.7c1.8,0.4,2.5,2.1,3.8,2.9c1.1,0.7,1.1,2.1,1.8,3C209.1,247.6,209.1,247.7,209.1,247.7L209.1,247.7z
	 M214.4,244.2c0,0.2-0.2,0.2-0.4,0.2c0-0.1-0.2-0.2-0.2-0.3c0-0.2,0.2-0.3,0.4-0.3C214.4,243.8,214.4,244,214.4,244.2L214.4,244.2z
	 M215.6,241c-0.2,0.1-0.2-0.1-0.1-0.2c0.1-0.1,0.2-0.2,0.4-0.3c0,0,0.1,0.1,0.1,0.2C215.9,240.8,215.8,240.9,215.6,241L215.6,241z
	 M228.7,125c0.3,0,0.6-0.2,0.9-0.2c0.7,0,1.8-0.1,2,0.6c0.2,0.7-0.2,1.6-0.8,2.2c-0.3,0.4-0.7,0.6-0.8,1.1c-0.1,0.6-0.5,0.6-1,0.7
	c-1.6,0.1-3.1-0.1-4.7,0.4c-0.6,0.2-1.2-0.7-1-1.4c0.2-0.8,0.4-1.5,0.4-2.3c0-0.7,0.4-1.2,1.4-1.1c0,0,0.2,0,0.3,0.1
	C226.6,126.1,227.6,125.1,228.7,125L228.7,125z M222,111.9c0.4,1.3,0.5,2.6,0.6,3.9c0.1,1.1,1.1,1.5,2,1.8c0.4,0.2,1.2,0,1.2,0.6
	c0,0.7-0.2,1.5-0.9,1.8c-0.6,0.3-1,0.8-1.3,1.3c-0.2,0.3-0.4,0.7-0.8,0.7c-2.1,0.3-2.6,2-3.3,3.6c-0.5,1.2-1.6,1.8-2.8,2.1
	c-1.6,0.3-3.2,0.1-4.8,0.4c1.3,0.3,2.6,0.6,3.9,0.8c0.6,0.1,1,0.2,0.9,1c-0.2,1.7,1,3,1.4,4.5c0.1,0.3,0.5,0.3,0.9,0.3
	c0.4-0.1,0.5-0.4,0.4-0.7c-0.1-0.8-0.1-1.7-0.6-2.4c-0.9-1.4-0.6-2.2,0.9-2.8c0.8-0.3,1.6-0.6,2.3-1.4c-0.1,0.9,0,1.6,0.2,2.2
	c0.4,1.3,1.3,1.9,2.6,1.6c0.5-0.1,0.9-0.1,1.4,0c1,0.2,1.8,0.4,1.1,1.7c-0.2,0.3,0.1,0.6,0.4,0.8c0.4,0.1,0.7,0.1,0.9-0.3
	c0.2-0.4,0.4-0.7,0.5-1.1c0.2-0.5,0.1-1.2,1-1c0.3,0.1,0.2-0.2,0.3-0.4c0.8-1.3,2.3-2,2.9-3.4c0.1-0.1,0.2-0.2,0.4-0.2
	c1.4-0.5,3.5,0.2,4.6,1.3c0.6,0.7,1.7,0.9,2.6,0.8c1.1-0.1,1.8,0.7,1.9,1.2c0.2,0.8,0.6,0.6,1.1,0.5c0.9-0.1,1.3,0.3,1.2,1.1
	c0,0.4-0.1,0.7,0,1.1c0.1,0.3-0.4,0.9,0.5,0.8c0.2,0,0.2,0.4,0,0.8c-0.8,1.3-0.8,1.4,0.7,1.9c0.4,0.1,0.1,0.5,0.4,0.7
	c0.8-1.7,2.4-2.3,4.2-2.5c1.3-0.1,2.3,0.5,3.1,1.2c0.4,0.4,0.8,0.7,1.3,0.7c0.9,0,1.8-0.1,2.4,0.7c0.1,0.1,0.3,0.2,0.4,0.2
	c0.7-0.1,1.3-0.4,1.8,0.4c0.1,0.1,0.7,0.1,0.9-0.1c1-1.1,2.1-0.3,2.8,0.2c0.7,0.5,1.5,0.8,2.2,1.2c0.8,0.5,1.6,1,1.9,2
	c0.1,0.3,0.3,0.3,0.5,0.4c1.2,0.7,2.5,1.3,2.6,3c0,0.4,0.3,0.4,0.6,0.4c0.9,0,1.8,0.4,2.3,1.1c1,1.4,2.4,1.5,3.8,1.6
	c0.8,0.1,1.6,0.4,1.8,1.2c0.3,1.2,0.9,2.2,1.1,3.4c0.1,0.8,0.3,1.6,0.7,2.3c0.5,0.9,0.2,1.8,0,2.8c-0.5,2.4-1.3,4.5-3.4,6
	c-0.6,0.4-1,1.1-1.3,1.8c-0.4,0.9-1.3,1.5-2.4,1.6c-0.6,0-1.1,0.3-1.5,0.8c-0.9,1-2,1.9-2.6,3c-0.6,1.4-1.7,2.3-2.5,3.4
	c-0.4,0.6-0.8,0.8-1.5,0.3c-0.4-0.3-1-0.5-1.4-0.1c-0.4,0.4-0.5,0.8-0.2,1.3c0.1,0.2,0.2,0.5,0,0.6c-1,0.5-0.6,1.7-1.5,2.4
	c-0.3,0.2-0.5,1.1,0.4,1.3c0.4,0.1,0.3,0.3,0.3,0.5c-0.7,1.9-0.4,3.9-0.5,5.9c0,0.6-0.2,1.2-0.5,1.7c-0.9,1.6-2.2,3.1-1.8,5.1
	c0.1,0.4-0.2,0.9-0.6,1.1c-1.3,0.8-1.5,2.1-1.5,3.4c0,1.5-0.3,2.7-1.8,3.5c-1,0.5-1.1,1.8-1.8,2.6c-0.9,0.9-1.6,1.9-2.4,2.9
	c-0.5,0.7-0.8,1.4-0.4,2.2c0.3,0.7-0.1,1.1-0.8,1.2c-1.1,0.2-2.1,0.5-2.5,1.7c-0.1,0.4-0.5,0.5-0.8,0.4c-0.9-0.3-2-0.1-2.8-0.8
	c-0.4-0.4-1-0.5-1.1,0.2c-0.2,1.3-1.1,0.9-1.7,0.7c-0.4-0.1-0.9-0.2-1.4-0.3c-0.6-0.2-1.2-0.5-1.3,0.6c0,0.3-0.5,0.3-0.8,0.4
	c-0.7,0.1-1.3,0.3-1.7,1c-0.3,0.4-0.7,0.5-1.1,0.5c-1.4-0.1-2.6,0.6-3.9,0.8c-0.8,0.2-1.3,1-2,1.4c-1.5,1-2.4,2.9-4.4,3.3
	c-0.2,0-0.5,0.3-0.6,0.6c-0.4,0.7-0.4,1.7-1.1,2.3c-0.1,0.1-0.1,0.6,0.1,0.8c1,1,0.4,2,0.1,3c-0.4,1.2-0.5,2.4-0.3,3.7
	c0.1,0.6,0,1.1-0.6,1.4c-2.9,1.1-4.5,3.4-5.6,6.1c-0.1,0.2-0.1,0.6-0.4,0.7c-0.5-0.8-1.1-0.7-1.8-0.3c-1.1,0.8-2.2,1.6-2.6,3
	c-0.2,0.7-0.9,1.2-1.5,1.7c-1,0.8-2,1.6-3,2.9c-0.1-2.2-2.4-2.5-3-4.2c0,0,0-0.1-0.1-0.1c-1.5-0.5-2.6-1.8-4.2-2.1
	c-0.3-0.1-0.6,0-0.8-0.4c-0.4-1-1.3-1.6-2-2.4c-0.6-0.8-1.5-0.8-2.6-0.8c0.9-1.5,1.9-2.7,3.2-3.8c0.3-0.3,0.7-0.4,0.9-0.8
	c1-1.7,2.7-2.6,4.4-3.4c0.9-0.4,1.7-1,2.6-1.5c1.7-1.1,2.1-2.9,1.9-4.6c-0.1-1.1-1-1.8-2-2.2c-0.3-0.1-0.6-0.2-1-0.3
	c0.2-0.3,0.3-0.5,0.4-0.7c1.4-1.8,0.6-3.6,0.1-5.4c-0.2-0.8-0.8-1.1-1.7-0.8s-1.4,0-1.6-1c-0.2-1-0.7-1.9-0.4-3
	c0.2-0.7-0.2-1.3-1-1.7c-1-0.5-2.1-0.8-3.2-0.7c-0.7,0-1.4,0-2,0s-1.1-0.1-1.1-1.1c0-1.8,0.3-3.6-1-5.2c-0.3-0.4-0.2-0.7,0.2-0.9
	c0.9-0.6,1.2-1.3,0.4-2.3c-0.1-0.1-0.1-0.2-0.1-0.2c0.6-1-0.2-2.2,0.3-3c0.8-1.2,0.7-2.3,0.1-3.5c-0.5-0.9-1.2-1.7-1.8-2.6
	c-0.5-0.7-0.6-1.3,0.1-2c0.5-0.5,0.6-1.2,0-1.8c-0.6-0.6-1.2-0.6-2-0.3c-1.3,0.5-2.6,0.6-4,0.5c-1.7-0.2-2.4-2.7-1.3-4
	c0.1-0.1,0.2-0.3,0.3-0.5c0.5-1.1-0.9-4.6-2-5.1c-0.5-0.2-1.1-0.5-1.7-0.6c-2-0.2-3.8-0.9-5.4-2.1c-1.6-1.2-3.6-1.4-5.3-2
	c-1.7-0.6-2.9-2-4.5-2.8c-0.2-0.1-0.4-0.4-0.3-0.6c0.3-1.4-0.3-2.8,0.1-4.1c0.2-0.8-0.1-1.5-0.1-2.2c0-0.4-0.2-0.5-0.5-0.5
	c-1.3,0-2.6,0-3.8,0c-1,0.1-1.9,0.4-2.4,1.3c-0.2,0.4-0.6,0.6-1,0.6c-0.7,0.2-1.3,0.4-1.5,1.3c-0.2,0.6-0.8,0.6-1.4,0.6
	c-1.1-0.1-2.1,0.1-2.8,1c-0.2,0.2-0.6,0.5-0.9,0.4c-1.9-0.7-3.5,0.7-5.2,0.9c-0.2,0-0.4,0.4-0.7,0.3c-0.3-0.2-0.2-0.5-0.2-0.8
	c0.3-1-0.2-2-0.1-3c0.1-0.7-0.3-1.1-1.2-0.9c-1.3,0.3-2.5,0.8-3.9,0.7c-0.6,0-1.1-0.1-1.2-0.8c-0.2-1-1.3-0.7-1.9-1.2
	c-0.3-0.2-0.6-0.2-0.6-0.8c-0.1-0.7-0.6-1.5-1.2-2c-0.9-0.7-1.2-1.9-2.3-2.4c-0.4-0.2-0.2-0.6-0.1-0.8c0.4-1,0.8-2.1,0.6-3.2
	c-0.1-0.5,0.1-0.9,0.8-0.8c1.2,0.2,2-0.9,1.4-2c-0.4-0.8-0.2-1.2,0.3-1.8c0.3-0.3,0.6-0.7,0.7-1.1c0.2-0.7,0.6-1.2,1.3-1.4
	c0.3-0.1,0.6-0.2,0.7-0.4c1.2-2.2,3.8-1.6,5.6-2.7c0.7-0.4,1.5,0.2,2.2,0.5c0.6,0.3,1,0.4,1.1-0.6c0.5-4,1.1-8,1.6-12
	c0-0.1,0-0.2,0-0.2c0.6-1.6-0.2-2.4-1.6-3c-0.6-0.3-1.2-0.9-1.3-1.8c-0.1-1,1.2-2.2,2.6-2.2c0.7,0,1.3,0.1,1.4-0.6
	c0.1-0.8-0.5-1.2-1.2-1.4c-0.3-0.1-0.6-0.2-0.9-0.1c-0.4,0.2-0.5,0-0.7-0.4c-0.3-1.1,0.1-1.4,1.1-1.3c2.3,0.4,4.5,0.1,6.7-0.4
	c0.4-0.1,0.5,0,0.6,0.3c0,0.2,0,0.5,0.1,0.7c0.5,0.8,0.5,1.3-0.6,1.6c0.4,0,0.7,0,1.1,0c1.3,0,2.4-0.2,3.5,1.1
	c1,1.2,2.5,1.2,3.8,0.2c0.6-0.4,1.2-0.8,1.7-1.3c0.7-0.6,1.3-1.4,2.4-1.4c0.3,0,0.7-0.2,0.8-0.4c0.6-0.9,1.3-1.5,2.5-1.7
	c0.6-0.1,0.9-0.8,0.9-1.4c0-0.7-0.5-1-1.1-1.3c-0.6-0.2-1.4,0.2-1.6-0.4c-0.4-1-0.9-2-0.9-3.2c0.1-0.6,0.1-1.2-0.5-1.8
	c1.6-0.2,2.8,0.6,4,1c1.2,0.5,2.3,0.6,3.2-0.6c0.2-0.2,0.4-0.3,0.6-0.3c1.9-0.1,3.5-1.4,5.5-1.5c0.6,0,1.1-0.6,1.5-1.1
	c0.3-0.4,0.6-0.8,1-1.2c0.2-0.2,0.5-0.3,0.8-0.2c0.4,0.2,0.1,0.5-0.1,0.7c-0.3,0.6-0.2,1.2,0.2,1.7c1,1.5,1.2,3,0.3,4.8
	c-0.9,1.8-0.1,5.4,2.4,6.3c1.1,0.4,2.5,0.7,3.8,0.1c0.2-0.1,0.4-0.3,0.5-0.2c1,0.7,1.9,0,2.8-0.3c0.4-0.1,0.9,0,1.3-0.3
	c1.3-1.1,2.7-0.7,4-0.1c1.5,0.6,2.1,0.3,2.4-1.3c0.1-0.6,1.6-1.3,2-0.9c1.1,0.9,2.6,0.5,3.7,1.3c0.2,0.2,0.6,0,0.9-0.3
	c1-0.9,1.9-1,2.8,0.1c0.4,0.4,0.9,0.3,1.3-0.1c2.1-2,3.9-4.2,3.8-7.6C220.6,109,221.5,110.2,222,111.9L222,111.9z M211.8,102.5
	c0.6,0.6,1.4,0.9,2.3,0.8c0.3,0,0.6-0.1,0.8,0.2c0.9,1.1,2.2,1.8,3.1,2.9c0.8,1,0.4,2.3,0.1,3.3c-0.5,1.9-1.6,3.5-3.3,4.7
	c-0.5-1.2-2.2-1.3-3.4-0.3c-0.3,0.2-0.4,0.8-0.9,0.6c-0.6-0.2-0.4-0.7-0.4-1.1c0-0.4,0-0.9,0.1-1.3c0.4-1.7,0.5-3.2-0.2-4.9
	c-0.7-1.6-0.6-3.2,0.7-4.7C211.1,102.2,211.4,102,211.8,102.5z M198.6,102.8c-0.1-0.8,0.7-1.2,0.8-2c0-0.2,0.3-0.2,0.5-0.2
	c0.8,0.1,1.5,0.4,2.3,0.6c1.7,0.3,3.4,0,5.1,0c0.8,0,1.4,0,2,0.4c0.5,0.3,0.6,0.5,0.2,0.9c-1.4,1.6-1.2,3.6-0.4,5.2
	c1,2.1,0,4-0.2,5.9c-0.1,0.8-0.8,0.3-1.1,0.1c-0.8-0.8-1.5-0.7-2.4-0.2c-0.4,0.2-0.7,0.3-1.1,0c-0.4-0.3-0.9-0.3-1.3,0.2
	c-0.3,0.4-0.1,0.8,0.2,1.2c0.2,0.2,0.7,0.4,0.4,0.9c-0.3,0.5-0.7,0-1.1-0.1c-1.2-0.2-2.1-0.8-1.9-2.2c0-0.1,0-0.2-0.1-0.2
	c-1.1-0.9-1.4-2.4-2.5-3.3c-1.5-1.2-1.9-2.3-1.4-4.2c0.2-0.9,0.3-1.8,1.5-2C198.6,103.6,198.7,103.2,198.6,102.8L198.6,102.8z
	 M193.2,101.7c-0.3-0.9,0.3-1.8,0-2.7c-0.3-0.9,0.5-0.7,1-0.7c1.8-0.1,2.6,1.5,3.8,2.5c0.4,0.3-0.6,2.2-1.1,2.3
	c-0.9,0.2-1.2,0.7-1,1.6c0.1,0.3,0.1,0.6,0,0.9c-0.7,2.2-0.1,3.8,1.7,5.2c0.3,0.2,0.6,0.4,0.6,0.8c0.1,0.7,0.4,1.1,1,1.4
	c0.8,0.4,0.6,1.1,0.8,1.7c0.1,0.2-0.1,0.2-0.2,0.3c-1.2,0.7-2.6,0.9-3.8,1.5c-0.5,0.2-0.9-0.2-1.3-0.4c-0.3-0.2,0-0.6,0.1-0.9
	c0.3-0.8,0.2-1.7,0.9-2.3c0.1-0.1,0.1-0.3,0.1-0.4c-0.6-1.5-0.5-3.2-1.4-4.7c0,0-0.1-0.1-0.1-0.1c-0.1-1.3-0.5-2.2-1.7-3
	c-0.4-0.3-0.4-1.4,0.3-1.9C193.1,102.5,193.3,102,193.2,101.7L193.2,101.7z M188.9,92.5c0-0.2,0.1-0.4,0.4-0.3
	c0.4,0.1,0.9,0.1,0.9,0.6c0.2,1.2,1,2.1,1.9,2.7c0.2,0.2,0.4,0.4,0.3,0.7c-0.6,1.5-0.1,3.2-0.3,4.7c0,0.3,0,0.5-0.1,0.8
	c-1.3,1.7-1.2,2.7,0.4,4.3c0.2,0.2,0.5,0.4,0.4,0.8c-0.2,0.6,0.1,1,0.4,1.6c0.8,1.5,1.1,3.2,0.7,4.9c-0.2,0.8-0.5,1.6-0.7,2.4
	c-0.1,0.6-0.4,0.7-1,0.7c-1.3,0.1-2.5-0.1-3-1.4c-0.4-1.2-0.8-2.5-0.1-3.8c0.9-1.7,0.6-3.3-0.3-4.9c-0.3-0.5-0.4-0.9-0.1-1.5
	c0.5-1.1-0.1-2-1.3-1.9c-1.6,0.2-2.5-1-3.4-1.8c-0.9-0.8,0.3-1.5,0.3-2.3c0-0.5,0.7-0.1,1.1-0.1c0.9,0.1,1.9,0.1,2.9,0
	c1-0.1,1.5-0.8,1.3-1.8c0-0.2-0.1-0.6-0.3-0.5c-1.2,0.3-1.7-1-2.7-1.3C187.6,94.6,188.7,94,188.9,92.5L188.9,92.5z M154.8,59.1
	c1.3-0.4,2.7-0.2,4,0.2c0.4,0.1,0.1,0.4-0.1,0.6c-0.7,0.5-1.5,0.2-2,0.3c-0.7,0-1.1,0-1.6,0c-0.3,0-0.6-0.1-0.6-0.4
	C154.3,59.4,154.5,59.1,154.8,59.1L154.8,59.1z M150.4,81.6c0.7,0.3,1.4,0.8,2.2,0.4c0.3-0.2,0.8-0.1,1,0.2c0.8,1.2,2.3,1.6,3,2.8
	c0.3,0.5,0.6,0.2,0.9,0.1c1.5-0.4,2.9-0.8,4.5-0.8c1,0,1.8,0.2,2.5,0.9c0.5,0.6,1.2,0.8,1.9,0.8c2.5,0.2,4.7-0.6,6.9-1.6
	c0.1-0.1,0.5-0.1,0.3-0.4c-0.5-0.7,0.2-0.5,0.4-0.6c0.6-0.1,1.2-0.1,1.8,0c0.5,0,0.9,0.1,0.7,0.8c-0.1,0.5,1.4,2.2,2,2.2
	c0.8,0,1.4,0.4,2.2,0.3c1.3-0.2,2.1,0.9,3.2,1.3c0.6,0.2,0.2,1.2,0.1,1.9c-0.4,1.6-0.3,1.7,1.3,1.3c0.3-0.1,0.6-0.2,0.9-0.2
	c0.4-0.1,0.9-0.5,1.2-0.1c0.4,0.5,0.2,1.2,0,1.7c-0.2,0.5-0.5,0.8-1.1,0.7c-0.3,0-0.6-0.1-0.9-0.1c0,0.8-0.7,1.2-0.8,2
	c-0.1,0.9,0.7,1.1,1.4,1.2c0.6,0.1,0.8,0.5,1,0.9c-1.7,0.1-3.5-0.9-4.9,0.7c0.5,0.4,0.8,0.8,0.3,1.5c-0.5,0.7-0.2,1.6,0.4,2.2
	c0.4,0.4,0.9,0.7,1.3,1.1c0.4,0.4,1.1,0.7,0.9,1.3c-0.2,0.7-0.7,1.4-1.5,1.4c-1.9,0-3.5,1.4-5.5,1.4c-0.2,0-0.5,0.2-0.6,0.3
	c-0.7,1.1-1.6,1-2.6,0.5c-1.6-0.9-3.5-0.8-5.2-1.5c-0.3-0.1-0.8-0.2-0.9,0.2c-0.2,0.4-0.2,1,0.3,1.3c1,0.6,1.1,1.4,1.2,2.4
	c0.1,1,0.5,2.1,0.9,3.1c0.3,0.7,0.9,0.7,1.6,0.8c0.4,0,0.9-0.1,1,0.4c0.1,0.6-0.5,0.5-0.9,0.5c-0.7,0-1.2,0.3-1.5,1
	c-0.2,0.5-0.6,0.9-1.1,1c-1.2,0.1-1.9,0.8-2.6,1.6c-0.2,0.2-0.5,0.4-0.7,0.7c-2,1.7-3.1,1.4-4.4-0.8c-0.8-1.3-1.4-2.6-1.8-4.1
	c-0.2-0.8-0.6-1.6-1.5-1.9c-0.4-0.2-0.6-0.4-0.6-0.8c0-0.5,0.5-0.3,0.7-0.4c0.8-0.2,0.9-0.6,0.2-1.2c-0.2-0.2-0.2-0.1,0-0.2
	c0.5-0.5,0.1-0.8-0.2-1.2c-1.2-1.6-1.5-3.2-0.4-5c0.5-0.8,0.8-1.8,0.6-2.8c-0.2-1.2-1.2-1.9-2.4-1.7c-0.7,0.2-1.3,0-2-0.1
	c-1-0.1-2-0.3-2.8,0.5c-0.5,0.4-0.8,0-1.1-0.3c-1.1-1.2-2.4-2-4-2.4c-0.9-0.2-1.7-0.3-2.6-0.1c-1.2,0.2-2.3,0.3-3.6-0.7
	c-0.9-0.8-0.8-1.3-0.9-2.2c-0.1-1.7,0.1-3.5-1.8-4.5c-0.4-0.2-0.2-0.7-0.2-1c0.5-1.8,0.7-3.8,2.4-5c0.3-0.2,0.6-0.7,0.8-1
	c0.5,0.3,0.6,0.7,0.5,1.2c-0.2,1.3-0.9,2.5-1.2,3.8c-0.4,1.5-0.1,2.5,0.9,3.1c0.9,0.5,2.1,0.2,2.8-0.6c0.9-1.1,1-2.4,0-3.3
	c-0.7-0.7-0.3-1.6-1-2.2c-0.1-0.1,0.2-0.4,0.4-0.5c1.9-1.1,3.9-1.7,5.9-2.5C150.1,81.2,150.2,81.5,150.4,81.6L150.4,81.6z M149.5,80
	c-0.5,0-0.8-0.1-0.9-0.5c0-0.1,0.1-0.2,0.2-0.2C149.2,79.2,149.3,79.7,149.5,80z M129.3,59c0.1-0.5,0.6-0.2,1-0.2
	c1.2,0.2,2.5,0.4,3.8,0.5c0.8,0.1,1.2-0.8,1.7-1.2c0.5-0.5-0.2-0.6-0.4-1c-0.2-0.4-0.5-0.8-0.5-1.2c0.1-0.9-0.2-1.4-1.1-1.5
	c0.3-0.5,0.7-0.4,1-0.3c1.9,0.5,3.7,0.2,5.6,0.2c2,0,3.8,0.6,5.1,2.2c0.7,0.8,1.6,1.1,2.6,1.2c1.3,0.1,1.3,0.2,0.8,1.5
	c-1.3-1.1-4-1.1-5.3,0c-0.4,0.4-0.7,0.3-0.9-0.1c-0.6-1-1.2-0.6-1.8-0.1c-0.1,0.1-0.2,0.2-0.3,0.2c-0.5,0.5-0.9,1.2-1.5,1.3
	c-0.6,0.1-0.9-0.8-1.4-1.2c-0.4-0.3-0.8-0.4-1.2-0.2c-2,0.9-4.1,0.5-6.2,0.4C129.7,59.6,129.2,59.5,129.3,59L129.3,59z M128.1,87.6
	c-0.1-1.6,0.4-2.4,1.9-3c1-0.4,2-0.6,3-0.9c2.6-0.6,4.8-1.9,7.1-3.2c0.5-0.3,0.7-0.7,0.9-1.2c0.3-0.8,1.7-1.2,2.2-0.8
	c0.5,0.4,0.4,0.8-0.2,0.9c-1.3,0.1-1.8,0.9-2.3,1.9c-0.2,0.4-0.4,0.9-0.8,1.2c-1.9,1.5-2.3,3.7-2.8,5.9c-0.1,0.6-0.1,1.2,0.4,1.5
	c1.9,1.1,1.7,3,1.6,4.7c-0.1,1.1-0.4,2,1.2,2.1c1.5,1.9,3.4,0.9,5.2,0.9c1.4,0,2.9,0.4,4.1,1.5c0.5,0.5,1.1,1,1.6,1.4
	c0.5,0.4,1,0.4,1.4,0c0.6-0.5,1.2-0.5,1.9-0.5c1,0,2,0.4,3.1,0.1c0.7-0.2,1,0.5,1,1.2c0,0.8-0.3,1.4-0.7,2c-1,1.9-0.8,3.7,0.4,5.4
	c0.4,0.7,0.9,1.2-0.2,1.7c-0.8,0.4-0.7,2.1,0.2,2.6c1.1,0.6,1.4,1.5,1.6,2.5c0.3,1,0.6,1.9,1.2,2.8c-0.7,0.3-1.1-0.1-1.4-0.6
	c-0.2-0.4-0.2-0.9-0.2-1.4c0-0.6,0-1.2-0.6-1.4c-0.6-0.2-0.9,0.3-1.2,0.8c-0.1,0.2-0.2,0.4-0.5,0.2c-0.8-0.6-1.2-0.3-1.8,0.4
	c-0.4,0.4-1.1,0.2-1.7,0.2c-1.2,0-2.3-0.2-3.5-0.1c-1.2,0-1.5,0.5-1.2,1.7c0.2,0.7,0.3,1.5,0.5,2.2c0.1,0.4-0.1,0.5-0.4,0.8
	c-1.3,1-1.6,2.4-0.6,3.7c0.5,0.6,0.9,1.3,1.8,1.5c0.5,0.1,0.7,0.6,0.7,1.1c-0.3,2.2-0.6,4.5-0.9,6.9c-0.4-0.7-0.7-1.2-1-1.6
	c-0.9-1.3-2.2-1.6-3.5-0.5c-0.6,0.5-0.9,0.6-1.5,0.1c-0.9-0.7-1.9-0.5-2.5,0.4c-0.7,1-1.7,0.7-2.4,0.5c-0.6-0.1-1.4-0.9-0.9-2
	c0.2-0.4,0.2-0.9-0.5-1.1c-0.2,0-0.4-0.2-0.4-0.4c-0.3-1.4-1.3-1.7-2.6-1.9c-0.8-0.2-1.5-0.9-2.1-1.5c-0.9-0.8-1.9-1.5-3.2-1.2
	c-0.4,0.1-0.6-0.3-0.9-0.5c-1.3-0.9-2.5-1.8-3.9-2.7c-0.4,0.8-0.1,1.4-0.1,2.2c-0.8-0.4-1.5-1.1-2.5-0.7c-0.3,0.1-0.4-0.3-0.6-0.5
	c-0.4-0.6-1-1-1.7-0.9c-1.1,0-1.9-0.4-2.7-1.1c-0.4-0.4-0.9-0.7-1.5-0.9c-0.3-0.1-0.5-0.2-0.6-0.5c0-0.5,0.4-0.3,0.6-0.4
	c1.4-0.5,1.5-0.5,0.9-2c0.5,0.2,1,0.3,1-0.6c0-0.5,0.7-0.4,1.1-0.5c0.9-0.2,2.2-0.1,1.7-1.7c1-0.8-0.1-2.6,1.6-3
	c0.3-0.1,0.3-0.6,0.1-0.8c-1.4-1.3-1-2.9-0.7-4.5c0.1-0.7-0.1-0.9-1-0.9c1-0.6,2-1,1.5-2.1c-0.2-0.6-0.6-1.1-0.2-1.8
	c0.1-0.2-0.2-0.6-0.4-0.8c-0.4-0.3-0.8-0.7-1.1-1.1c-0.7-0.8-0.7-1.1,0.4-1.2c1.1-0.1,0.8-1,1.1-1.6c0-0.6,0-1.2-0.1-1.8
	c0-0.1,0-0.4,0.2-0.3c0.1,0,0.2,0.2,0.2,0.4c0.5,0.8,1,1.7,2.3,1.5c-0.1-0.5-0.2-1.1-0.2-1.6c0-1.2-0.4-2.6,1.4-2.9
	c0.1,0,0.1-0.2,0.2-0.3c0.1-1,0.8-1.5,1.6-1.9C127.8,89.1,128.1,88.4,128.1,87.6L128.1,87.6z M94.6,44.7c0.5-0.3,0.9-0.6,1.5-0.8
	c2.7-1,5.5-1.6,8.4-1.2c1,0.1,2.1,0.4,3.1,0.4c0.8,0,1.3,0.6,1.8,1c0.7,0.5,1.5,1,2.4,0.8c1.1-0.1,1.9,0.7,2.8,1.1
	c0.8,0.4,1.5,0.8,2.4,1c0.9,0.2,1.7,0.6,2.5,1.3c0.8,0.6,1.9,0.8,2.9,1.1c0.2,0,0.4-0.2,0.4,0.2c0,1.1,0.8,1,1.4,0.9
	c1.2-0.2,2.2,0.3,3,1.2c-1.4,0.9-2.9,1.5-4.6,1c-1.4-0.4-2.8,0.2-4.2,0.2c-0.3,0.2-0.6,0.2-0.9,0.2c0.1-0.3,0.3-0.4,0.6-0.5
	c0.4-0.3,1.2-0.4,1.1-1.2c-0.1-0.8-0.8-0.8-1.3-1c-0.6-0.3-1.2-0.2-1.8-0.2c-1,0-1.7-0.4-2-1.3c-0.4-1.3-1.2-1.8-2.6-1.8
	c-1.5,0-3.1-0.2-4.3-1.3c-0.8-0.7-1.9-0.4-2.9-0.4c-0.5,0-1.7,0.7-1-0.9c0.2-0.3-0.2-0.8-0.7-0.8c-1.8-0.3-3.5-0.8-5.1,0.9
	c-0.7,0.8-2,0.9-3.1,1.3c-0.2,0.1-0.3,0-0.3-0.2C94.3,45.4,94.2,45,94.6,44.7z M95.4,70.4c0.3,0.3,0.8,0.4,1.4,0.7
	c-1.5,0.5-2.5,1.7-4.1,0.8c-0.7-0.4-1.2,0.4-1.5,1c-0.7,1.3-1.7,1.9-3.2,1.7c-0.2,0-0.5-0.1-0.6,0c-0.5,0.7-1.3,0.8-2,1
	c-0.5,0.1-0.7,0.5-0.7,1c0,0.3,0,0.7-0.2,0.9c-0.3,0.3-0.5,0.7-1,0.5c-0.3-0.2-0.4-0.7-0.2-1.1c0.1-0.2,0.1-0.3,0.2-0.4
	c0.4-1.4-0.3-2.4-1.8-2.7c-1.5-0.3-2-1.1-1.4-2.5c0.9-2.2,1.3-2.4,3.6-1.9c1.5,0.3,2.8-0.4,4.2-0.4C90.6,69,93.3,68.5,95.4,70.4
	L95.4,70.4z M7.2,4.3c2.1,1.5,4.4,2.1,6.8,2.3c1.1,0.1,2.2,0.2,3.3,0.2c0.8,0,1.6,0.2,1.9-0.9c0.1-0.4,0.5-0.2,0.7-0.2
	c1.4,0,2.8,0.2,4.1,0.6c0.8,0.2,1.2,1.1,1.8,1.7c0.2,0.3,0.4,0.6,0.6,0.9c1.5,1.2,2,2.8,2.4,4.6c0.4,1.8,2,3.1,3.7,4
	c0.5,0.2,0.9,0.1,1.3-0.3c0.2-0.2,0.3-0.4,0.5-0.5c0.5-0.6,0.6-1.7,1.4-1.8c0.9-0.2,2,0.1,3,0.2c0.6,0.1,0.5,0.8,0.9,1.1
	c0.9,0.7,1.4,1.7,1.7,2.8c0.5,1.8,1.3,3.4,2.7,4.7c0.4,0.4,0.3,0.8,0.3,1.2c0.1,2.6,0.9,3.5,3.3,4.7c1.1,0.5,2.4,0.6,3.5,1.3
	c0.5,0.3,0.4,0.6,0.4,0.9c0,0.5-0.5,0.3-0.7,0.2c-0.6-0.2-0.9,0.2-0.8,0.7c0.1,0.7-0.3,1.1-0.7,1.6c-0.6,0.8-0.4,1.9-0.1,2.8
	c0.4,1.4,0.2,2.8,0,4.1c-0.1,1.1-0.1,2.2-0.1,3.2c0,0.5,0.1,1,0.4,1.3c0.7,0.7,0.8,1.3,0.5,2.3c-0.3,1,0.5,1.9,1.1,2.7
	c0.9,1,1.4,2.2,1.8,3.4c0.7,2,1.8,3.5,4,3.8c0.5,0.1,0.6,0.5,0.9,0.8c1,1.1,1.8,1.3,3,0.5c0.6-0.3,1.2-0.7,1.9-0.5
	c1,0.2,1.8,0,2.6-0.4c0.8-0.4,1.7-0.7,2.2,0.4c0.3,0.5,0.8,0.5,1.3,0.3c0.7-0.2,1.4-0.5,1.4-1.2c0-0.6,0.3-0.8,0.8-1
	c0.3-0.1,0.7-0.4,0.8-0.7c0.5-1.9,1.9-3.4,1.9-5.5c0-1.2,1-1.9,2.8-1.9c1.2,0,2.3-0.2,3.5-0.6c1.7-0.5,1.7-0.5,1.9,1.4
	c0.4-0.5,0.7-0.8,1-1.1c0.6-0.4,1.2-0.3,1.7,0.1c0.4,0.4,0.5,1,0.2,1.6c-0.2,0.3-0.5,0.7-0.8,0.9c-1.1,0.9-1.5,2.1-1.5,3.4
	c0,0.8-0.4,1.1-1.2,1.3c1.6,0.5,0.9,1.4,0.5,2.2c-0.7-0.4-1.4-1.6-1.8,0.2c-1.1,0.2-1.5,1.1-2,2c-0.1,0.2-0.4,0.2-0.7,0.2
	c-2.1,0-4.2,0-6.4,0c-0.3,0-0.7,0-0.6,0.5c0.3,1.5-0.7,1.2-1.6,1.2c-0.2,0-0.5,0-0.8,0c0.6,2,2.5,2.9,3.7,4.6c-0.9,0-1.7,0-2.4,0
	c-0.4,0-1,0-1.2,0.4c-0.8,1.3-1.7,2.5-2.3,3.9c-0.1,0.2,0.1,0.6-0.3,0.7c-0.4,0.1-0.5-0.3-0.7-0.5c-1.6-1.9-3.2-3.7-5.5-4.6
	c-1.3-0.5-2.5-0.5-3.8,0c-0.6,0.2-1.2,0.6-1.7,0.8c-1,0.5-2,0.5-3.1,0c-1.2-0.6-2.6-0.8-3.8-1.5c-2.8-1.7-5.8-3.1-8.8-4.3
	c-0.5-0.2-1.2-0.4-1.1-1.3c0-0.1,0.1-0.4-0.2-0.3c-1.1,0.2-1.6-0.5-2.1-1.2c-0.3-0.4-0.8-0.5-1.3-0.6c-0.7-0.2-1.4-0.4-2.1-0.8
	c-1.4-0.7-2.7-1.4-3.5-2.9c-0.4-0.7-1.1-1.3-1.8-1.5c-1.4-0.5-2.1-1.5-2.8-2.6c-0.4-0.7-1-1.5,0.2-2.1c0.7-0.3,1.1-3.2,0.8-4
	c-0.5-1.1-1.1-2.1-0.8-3.5c0.1-0.7-1-1.3-1.5-2c-0.8-1-1.3-2.2-1.9-3.3c-0.4-0.8-1.1-1.3-1.7-2c-0.7-0.7-1.2-1.3-1.4-2.4
	c-0.1-0.7,0-2.1-1.6-1.9c-0.3,0-1.3-0.3-1-1.3c0.1-0.6-0.2-1-0.8-0.9c-0.8,0.1-0.6-0.3-0.4-0.7c0.8-1.8,0.8-1.9-0.8-2.9
	c-0.4-0.2-0.7-0.8-0.6-1c1-1.2-0.5-1.1-0.8-1.2c-1-0.3-1.6-0.8-2.1-1.8c-0.9-1.8-2-3.5-3.2-5.1c-0.9-1.2-0.4-2.4-0.5-3.5
	C5.2,9,5.1,7.9,3.8,7C3.6,6.9,3.4,6.6,3.3,6.4C2.7,4.6,2.2,2.8,1.5,0.7C3.6,2,5.5,3.1,7.2,4.3L7.2,4.3z M0.1,0.6c0-0.2,0-0.4,0-0.6
	c0.8,0.1,1.1,0.5,1.2,1.2C1.6,3.1,2,5,2.3,6.9C2.4,8,2.4,9.1,2.2,10.2c-0.3,1.8-0.3,3.6,0.7,5.2c1,1.7,1.2,3.7,1.6,5.6
	c0.2,0.9,0.4,1.7,0.2,2.6c0.5,0.2,0.6-0.6,1-0.4C6,23.3,5.9,23.8,6,24.2c0.5,2.1,1.1,4.1,1.2,6.3c0,0.8,0.3,1.9,1.6,1.8
	c0.4,0,0.7,0.4,0.8,0.8c0.2,0.6,0.4,1.2,0.8,1.7c0.3,0.5,0,0.8-0.4,1.1c-0.4,0.2-0.8,0.1-0.9-0.4c-0.6-1.8-1.8-3-3.1-4.3
	c-0.5-0.5-0.5-1.2-1.2-1.5c-0.4-0.2,0-0.8,0.1-1.1c0.6-1.2,0.6-2.4,0-3.6c-0.2-0.4-0.4-0.7-0.7-0.9c-1.1-0.7-1.6-1.6-1-3.1
	c-1.1,0.4-1.6-0.5-2.3-0.9l0,0c-0.5-0.8,0-1.6-0.2-2.4c-0.3-0.1-0.2,0.7-0.6,0.3c-0.2-0.2-0.1-0.4,0.1-0.6c0.3-0.4,0.7-0.5,1,0
	c0.3,0.2,0.6,0.4,0.5-0.2c-0.1-1.8-0.4-3.6-1.5-5.2C-0.2,11.2,0,9.9,0.1,8.9C0.3,6.2,0.1,3.4,0.1,0.6z"/>
<path class="st1" d="M151.1,321.7c-0.5-0.8-0.8-1.5-0.9-2.4c-0.1-1.2-0.4-2.3-1.5-3c-0.2-0.2-0.4-0.4-0.4-0.7c0-0.7-0.9-1.3-0.6-2
	c-0.1,0.1-0.3,0.2-0.7,0.3c-0.2,0-0.5-0.1-0.5,0.4c1.1,0,1.5,0.5,1.5,1.6c0,0.3,0.1,0.7,0.4,0.8c0.8,0,0.9,0.7,1.1,1.2
	c0.2,0.5,0.4,1.1,0.4,1.7c0,0.9,0.7,1.7,1,2.4c0.5,1.2,1.3,2.1,1.9,3.2c0.2,0.4,0.4,0.6,0.9,0.6c0.3,0,0.6,0,0.8,0.2
	c-0.5-0.5-1-0.9-1.6-1.3C151.9,324,151.7,322.7,151.1,321.7L151.1,321.7z"/>
<path class="st1" d="M147.6,312.5c-0.4-0.5-0.7-1.1-1-1.7c-0.4-0.7-0.5-1.6-0.2-2.3c0.4-0.7,0.3-1.3,0.1-1.9c-0.4-1.3-0.2-1.6,1-2
	c0.9-0.3,1.1-0.9,0.9-1.7c-0.3-1-1-1.5-2.1-1.3c-0.5,0.1-1,0.1-0.9-0.5c0.2-1,0.3-2.1,0.9-2.9c1.2-1.5,1.3-1.4,0.5-3.1
	c-0.1-0.3-0.2-0.7-0.4-1c-0.6-0.7-0.4-1.3,0.2-1.9c0.6-0.6,0.9-1.2,0.8-2.1c-0.1-1-0.6-1.2-1.4-0.6c-0.2,0.1-0.3,0.5-0.7,0.3
	c0.7-1.3,1.1-2.7,0.9-4.1c-0.4-1.9,0.3-3.9-0.3-5.8c-0.1-0.2,0-0.4,0.1-0.6c0.2-0.8,0.1-1.7,0-2.5c-0.2-1-0.1-1.9,0.6-2.7
	c0.6-0.7,0.6-1.6,0-2.3c-0.5-0.7-0.6-1.4-0.7-2.2c-0.3-2-0.1-3.9,0.5-5.8c0.6-1.9,0.9-4,1.4-5.9c0.5-1.7,0.8-3.2,0.5-4.9
	c-0.2-1,0.1-2,0.7-2.9c0.6-0.8,0.7-1.7,0.5-2.6c-0.1-0.7-0.4-1.3-0.2-2c0.2-1-0.1-1.8-0.6-2.6c-0.8-1.3-1-2.7-0.3-4.2
	c0.3-0.6,0.7-1.4,0.4-2.1c-0.9-2-0.6-3.9,0.3-5.7c0.1-0.2,0-0.4,0.1-0.6c0.5-1.6,0.3-3.3,0.7-4.9c0.5-2.2,0.1-4.5,0.7-6.6
	c0-0.1,0-0.2-0.1-0.4c-0.4-1.2-0.4-2.4-0.4-3.7c0-0.7,0-1.4-0.4-2c-0.4-0.6-0.2-1.1,0.3-1.6c0.5-0.4,0.9-0.9,0.7-1.6
	c-0.3-1.3,0-2.6,0.2-3.9c0.1-0.6,0.1-1.1-0.2-1.6c-0.4-0.7-0.4-1.5-0.4-2.3c0-2.1,0.1-4.3-0.6-6.4c-0.3-1-0.7-1.8-1.6-2.4
	c-0.9-0.7-2.1-1.3-2.6-2.4c-0.7-1.6-2.1-2-3.5-2.6c-2.9-1.1-6-1.4-8.6-3.2c-2.3-1.6-4.3-3.4-5.9-5.6c-0.3-0.5-0.6-1-0.5-1.6
	c0.2-1.2-0.3-2-1.1-2.7c-1.1-1-1.9-2.2-2.1-3.7c-0.1-0.6-0.4-1-0.7-1.5c-1.5-2.2-3.4-4.2-4-7c-0.1-0.5-0.5-0.8-0.8-1.1
	c-0.8-0.6-1.2-1.4-1.4-2.4c-0.2-1.2-0.8-2.2-1.9-2.9c-0.9-0.6-1.6-1.4-2.1-2.4c-0.9-1.5-2-2.6-3.8-2.9c-0.6-0.1-1.1-0.4-1.5-0.8
	c-0.3-0.3-0.5-0.7-0.2-1.1c0.8-1,0.4-1.7-0.2-2.6c-0.8-1-1.2-2.2-0.5-3.4c0.8-1.3,1.3-2.8,2.8-3.6c0.6-0.4,1.1-1,1.6-1.6
	c0.2-0.2,0.5-0.5,0.4-0.8c-0.1-0.4-0.5-0.2-0.8-0.2c-0.8,0-1.6-0.2-2.4-0.4c-0.7-0.1-1-0.6-0.6-1.1c0.8-1.2,0.4-2.3,0.1-3.5
	c-0.3-1.1-0.1-1.6,1-2c0.4-0.2,0.8-0.4,0.8-0.8c0-0.9,0.4-1.6,0.7-2.4c0.2-0.8,0.5-1.5,0-2.3c-0.3-0.4,0-0.8,0.4-1
	c1.1-0.6,1.9-1.5,3.1-1.9c0.3-0.1,0.7-0.3,0.7-0.7c-0.1-1.2,0.5-1.9,1.4-2.6c0.1-0.1,0.2-0.3,0.2-0.4c0-1.1,0.9-1.5,1.7-1.9
	c2.5-1.1,3.7-4.3,2.7-6.9c-0.5-1.3,0.3-2.8-0.3-4.2c0-0.1,0.1-0.1,0.1-0.2c0.9-2,0.5-3.7-1.1-5.1c-0.1,0-0.1-0.1-0.2-0.1
	c0,0.1,0,0.2,0,0.4c1,0.7,1.8,1.4,1.2,2.8c-0.1,0.2,0,0.6,0.2,0.8c0.2,0.3,0.1,0.5-0.1,0.7c-0.8,0.6-0.6,1.3-0.1,2
	c0.3,0.6,0.4,1.1-0.2,1.4c-0.4,0.3-0.3,0.5-0.1,0.8c1.2,1.8,0.9,3.8-0.2,5.5c-0.7,1.1-1.7,1.5-2.7,2c-0.6,0.3-1.2,0.6-1.1,1.4
	s-0.3,1-0.8,1.3c-0.7,0.3-1,0.8-0.7,1.5c0.2,0.5,0,0.9-0.5,1c-1.4,0.3-2.2,1.7-3.6,2.1c-0.4,0.1-0.5,0.8-0.3,1
	c0.6,0.7,0.6,1.3,0.2,2.1c-0.7,1.1,0.2,3.2-2.1,3.4c-0.1,0-0.2,0.3-0.3,0.5c-0.5,0.8-0.1,1.5,0.1,2.3c0.3,0.9,0.7,1.7-0.2,2.5
	c-0.4,0.4-0.6,1.4,0.3,1.7c1.2,0.3,2.4,0.8,3.7,0.4c-1.1,2.1-3.4,2.9-4.5,5s-1,3.5,0.4,5.2c0.5,0.6,0.5,1.1,0,1.5
	c-0.8,0.6-0.5,1.1,0.1,1.7c0.5,0.4,1,0.7,1.6,0.8c1.8,0.3,2.9,1.5,3.8,3c0.5,0.9,1.2,1.6,2,2.2c1.1,0.7,1.8,1.7,1.9,3.1
	c0.1,0.7,0.3,1.4,0.8,1.8c1.3,0.8,1.7,2.1,1.9,3.4c0.1,0.3,0.2,0.6,0.4,0.9c1.3,1.3,1.9,3.2,3.2,4.6c0.2,0.2,0.5,0.6,0.5,0.9
	c0.1,2,1.2,3.3,2.6,4.5c0.6,0.5,0.9,1.1,0.6,1.9c-0.2,0.5-0.1,1.1,0.2,1.5c1.2,1.8,2.5,3.6,4.3,4.7c2.3,1.4,4.3,3.5,7.3,3.5
	c0.1,0,0.3,0.1,0.4,0.2c1.1,0.6,2.3,0.9,3.5,1.2c0.8,0.2,1.9,0.3,2.3,1.1c0.8,1.9,2.5,2.9,4,4c0.4,0.3,0.6,0.6,0.7,1
	c0.5,2.1,1,4.3,0.8,6.5c-0.1,1.1-0.1,2.3,0.6,3.4c0.3,0.4,0.1,0.9,0,1.4c-0.2,1-0.6,2-0.3,2.9c0.3,1.1,0.1,1.9-0.9,2.4
	c-0.5,0.3-0.7,0.8-0.3,1.2c0.7,0.8,0.7,1.7,0.6,2.6c0,1.1-0.1,2.3,0.4,3.4c0.1,0.3,0.1,0.5,0,0.8c-0.4,1.2-0.4,2.5-0.4,3.8
	c0,1.8-0.5,3.6-0.6,5.4c-0.1,1.3-0.3,2.8-1.1,4c-0.6,0.9-0.5,1.9,0,2.8c0.6,1.2,0.5,2.3-0.1,3.4c-0.5,0.9-0.7,2.1-0.2,2.9
	c0.8,1.6,1.4,3.2,1.2,5c0,0.3,0.1,0.6,0.1,0.9c0.3,0.9,0,1.8-0.5,2.5c-0.6,0.8-0.7,1.6-0.8,2.4c-0.1,1.2,0.7,2.4,0.2,3.4
	c-0.8,1.7-0.9,3.6-1.4,5.4c-0.5,2-1.4,4-1.4,6.1c0,0.9,0.4,1.7,0.2,2.6c-0.1,0.7,0.1,1.3,0.6,1.9c0.7,0.8,0.7,1.6-0.1,2.3
	c-0.5,0.5-0.6,1.1-0.6,1.7c0,1,0.5,2.1,0.2,3.1c-0.5,1.6,0.3,3.2,0.1,4.9c-0.3,1.9,0.7,4-0.8,5.8c-0.3,0.3,0,0.7,0.3,0.9
	c0.4,0.3,0.5-0.1,0.6-0.3c0.3-0.3,0.5-1,1-0.8c0.5,0.3,0.2,0.9,0.3,1.4c0,0.7-0.6,1-1,1.4c-0.3,0.4-0.7,0.9-0.4,1.3
	c0.6,0.7,0.6,1.6,1.2,2.3c0.7,0.7,0.5,1.2-0.3,1.8c-0.4,0.2-1,0.4-1,1c0,0.8-0.3,1.5-0.6,2.1c-0.2,0.5,0,0.9,0.3,1.2
	c0.3,0.4,0.7,0.3,1.1,0c0.4-0.4,0.8-0.3,1.1,0.1c0.5,0.5,0.8,1,0.7,1.7c-0.1,0.6-0.6,0.5-1,0.6c-0.9,0.1-1.3,0.6-1.2,1.5
	c0.1,1,1,2-0.1,2.9c0,0,0,0.1,0,0.2c0.1,1.4,0.6,2.7,1.5,3.8c0.3,0.4,0.4,0.6,0.4,0.8c0.1-0.1,0.1-0.2,0.2-0.3
	C148.1,312.9,147.8,312.6,147.6,312.5L147.6,312.5z"/>
<path class="st1" d="M282.2,158.3c-0.5,2.3-1.4,4.3-3.3,5.8c-0.5,0.4-0.9,0.8-1.1,1.4c-0.5,1.3-1.6,2-2.8,2.4
	c-0.8,0.3-1.4,0.8-2,1.4c-1.6,1.7-2.6,3.7-4.2,5.4c-0.5,0.6-1,1.1-1.9,1c-0.4,0-0.8,0.1-0.9,0.5c-0.5,1.1-1.4,2.1-1,3.5
	c0.1,0.3,0,0.6-0.1,0.9c-0.5,1.8-0.7,3.6-0.6,5.4c0.1,1.3-0.2,2.5-1,3.6c-0.8,1.1-1.3,2.4-1.2,3.8c0,0.5-0.1,1.1-0.5,1.4
	c-1.2,1.1-1.6,2.5-1.6,4.1c0,1.3-0.4,2.4-1.6,3c-0.3,0.2-0.6,0.4-0.8,0.7c-0.7,1.7-2.1,2.8-3.1,4.2c-0.5,0.7-0.8,1.4-0.7,2.3
	c0.1,1.3-0.1,1.6-1.4,2c-0.7,0.2-1.4,0.5-1.8,1.1c-0.7,1.1-1.7,1.2-2.8,0.9c-0.8-0.3-1.5-0.2-2.4,0.1c-1,0.3-2,0.9-3.1,0.1
	c-0.1-0.1-0.3-0.1-0.5,0c-1,0.4-2.1,0.5-2.9,1.2c-0.8,0.7-1.7,0.9-2.7,1.1c-1.8,0.2-3.4,0.7-4.9,2.1c-1.3,1.2-2.6,2.6-4.2,3.6
	c-0.9,0.6-1.3,1.7-1,2.8c0.3,1.1,0.1,2-0.2,2.9c-0.3,1.1-0.6,2.1-0.4,3.3c0.2,1.3-0.1,1.9-1.3,2.5c-0.9,0.4-1.7,0.9-2.4,1.6
	c-1.4,1.3-2.2,2.9-2.8,4.7c-0.4,1.2-1.1,2.3-2.3,2.9c-0.8,0.4-1.4,1.1-1.6,2.1c-0.2,0.9-0.8,1.1-1.5,0.7c-1-0.5-1.7-0.1-2.4,0.5
	c-1.4,1.2-1.5,3.1-2.1,4.6c-1.3,3.3-4.1,5.4-7.6,5.6c-2,0.1-3.9,0.1-5.5-1.6c-0.4-0.5-1.2-0.9-1.8-0.2c-0.6,0.7,0.2,1.1,0.7,1.5
	c0.8,0.7,1.4,1.5,0.8,2.7c-0.4,0.7,0,1.3,0.6,1.7c1.1,0.7,1.5,1.6,0.9,2.8c-0.9,2.1-2.1,4-4.3,5.2c-3.1,1.7-6.7,1.8-10,2.6
	c-0.9,0.2-1.5,0.4-1.6,1.4c-0.1,0.6-0.2,1.3-0.7,1.8c-0.5,0.5-0.5,1.1-0.2,1.7c0.3,0.7,0.2,1.4-0.4,2c-1.3,1.3-3.3,1.6-5,0.9
	c-0.6-0.2-1.1-0.5-1.7-0.4c-0.9,0.1-1.2,0.5-0.8,1.4c0.2,0.4,0.4,0.7,0.5,1.1c0.4,1.4,0.4,1.4,1.9,1.4c0.7,0,1.5-0.1,1.7,0.9
	c0.2,0.9-0.1,1.6-1,2c-1.9,0.8-3.3,3-3.2,4.9c0.1,1.6-0.6,2.6-2,3.2c-1.4,0.6-2.5,1.5-3.2,3c-0.9,1.8,0.4,4.1,2.4,4.3
	c0.5,0.1,1,0,1.6,0.1c0.7,0.1,1.1,0.4,1,1.2c-0.2,1.4-0.4,2.8-1.8,3.6c-0.4,0.2-0.6,0.6-1,0.9c-1,1-1.8,2.1-1.8,3.6
	c0,1.1-0.5,2.1-1.7,2.5c-0.6,0.2-1,0.8-1.2,1.4c-0.7,1.9,0.1,3.6,1.3,4.8c1.2,1.3,1.4,2.8,1.7,4.3c0.1,0.6,0.2,1.1,0.6,1.5
	c1.9,1.7,3.7,3.4,6.5,3.6c0.7,0,1.4,0.1,2.1,0c0.4,0,1,0,1.1,0.5c0.1,0.6-0.5,0.7-1,0.9c-0.3,0.1-0.6,0-0.8-0.1
	c-0.7-0.3-1.3-0.1-2,0c-1.5,0.5-2.5,1.4-3.5,2.5c-0.2,0.2-0.4,0.5-0.7,0.6c-1.8,0.1-3.4-0.5-5.1-0.8c-0.3,0-0.5-0.3-0.8-0.5
	c-0.4-0.2-0.8-0.4-1.2-0.4c-0.7,0.1-1.3-0.2-1.9-0.6c-0.2-0.2-0.5-0.4-0.8-0.5c-0.7-0.2-1.5,0.1-2.1,0c-0.5-0.1-0.9-1.1-1.6-1.5
	c-0.6-0.4-1.2-0.9-1.8-1.3c0.2,0.2,0.3,0.5,0.4,0.9c0.1,0.4,0.2,0.7,0.7,0.7c0.8-0.1,1.2,0.5,1.6,1c0.3,0.4,0.4,1,0.9,1.3
	c0.3-0.3-0.1-1.1,0.3-0.9c0.6,0.3,1.3-0.2,1.8,0.3c1.3,1.6,3.7,0.7,5,2.3c0,0.1,0.2,0,0.3,0c0.8-0.4,1.5,0.1,2.3,0.3
	c0.9,0.1,2.1,0.6,2.6-0.1c0.6-0.9,1.5-1.3,2.1-2.1c0.5-0.7,2.6-1.1,3.4-0.8c1,0.3,1.7,0,2.3-0.8c0.2-0.2,0.3-0.5,0.1-0.6
	c-0.4-0.5-1-0.7-1.6-0.6c-0.8,0.1-1.5,0.1-2.2,0c-3.8-0.7-7.2-3-7.2-7.7c0-0.4-0.2-0.6-0.4-0.8c-1.4-0.8-1.8-2.3-2.3-3.7
	c-0.4-1.1,0.4-2.5,1.5-3c0.7-0.3,1-0.8,1.3-1.5c0.5-0.9,0.1-1.9,0.5-2.7c0.6-1.4,1.7-2.4,2.9-3.2c0.6-0.4,0.9-0.9,1-1.5
	c0.6-2.1-0.3-3.3-2.4-3.5c-1.7-0.1-2.9-2.2-2.2-3.8c0.7-1.6,2-2.5,3.5-3.1c1.1-0.5,2-2,1.7-3.1c-0.4-1.6,1.5-4.4,3.1-4.8
	c1.1-0.3,1.2-1.1,1.2-2.1c0-0.8-0.2-1.3-1.2-1.4c-1.4-0.1-2-0.7-2.8-2c-0.2-0.3-0.7-0.6-0.4-1c0.3-0.4,0.8-0.3,1.2-0.2
	c0.5,0.1,1,0.4,1.5,0.6c1.1,0.4,2.1,0.5,3.1-0.2c0.3-0.2,0.6-0.4,0.9-0.5c1.4-0.5,1.8-1.6,1.2-2.9c-0.1-0.3-0.5-0.7-0.1-1.1
	c0.8-0.7,0.9-1.6,1-2.5c0-0.4,0.2-0.7,0.5-0.6c1.4,0.1,2.5-0.6,3.8-0.8c2.6-0.4,5.3-0.8,7.5-2.3c2.4-1.6,4.2-3.8,4.2-6.9
	c0-0.6-0.1-1-0.9-1.2c-1-0.2-1.4-1-0.8-1.7c0.7-1,0.2-1.6-0.3-2.3c-0.3-0.4-0.8-0.6-1.2-1c-0.2-0.2-0.4-0.4-0.2-0.7
	c0.2-0.3,0.5-0.3,0.8-0.2c0.6,0.3,1.1,0.6,1.6,1.1c0.7,0.6,1.4,1.4,2.4,1.2c1.3-0.3,2.5-0.1,3.8-0.2c0.7,0,1.3-0.2,1.8-0.5
	c3.2-1.7,4.8-4.5,5.6-7.9c0.2-1.1,1.1-1.7,1.9-2.4c0.6-0.6,1.1,0.1,1.6,0.3c0.9,0.4,1.6,0.2,1.7-0.8c0.1-1.2,0.8-1.8,1.7-2.3
	c1.2-0.6,1.8-1.6,2.2-2.8c1-2.9,2.5-5.3,5.5-6.5c0.9-0.4,1.3-1.2,1.1-2.1c-0.4-1.5,0-2.7,0.4-4.1c0.2-0.7,0.6-1.5,0.2-2.3
	c-0.5-1.1,0.1-2.4,1.1-3.1c0.4-0.2,0.8-0.5,1.1-0.9c1.2-1.1,2.3-2.2,3.5-3.2c0.4-0.4,1-0.7,1.6-0.8c1-0.1,2-0.6,3-0.6
	c0.7,0,1.4-0.3,2-0.9c0.8-0.9,2.1-0.8,3.1-1.4c0.3-0.2,0.6,0.1,0.8,0.4c0.2,0.6,0.4,0.3,0.8,0.2c1.5-0.5,2.9-1.3,4.7-0.5
	c0.8,0.3,1.8,0.1,2.3-0.7c0.5-0.8,1.2-1.2,2.1-1.4c1.3-0.3,1.7-0.9,1.5-2.2c-0.2-1,0.2-1.6,0.7-2.4c1-1.3,2.5-2.3,3-4
	c0.1-0.3,0.4-0.5,0.7-0.7c1.6-0.8,1.9-2.2,1.9-3.8c0-1.2,0.3-2.4,1.3-3.2c0.5-0.4,0.9-1,0.8-1.8c-0.2-1.5,0.5-2.7,1.2-3.9
	c0.6-1,1-2,1-3.3c-0.1-1.5-0.1-3,0.2-4.5c0.2-0.8,0.7-1.6,0.4-2.4c-0.3-0.9,0.1-1.5,0.5-2.2c0.1-0.2,0.4-0.3,0.4-0.6
	c-0.1-0.8,0.4-0.9,0.9-0.7c0.8,0.3,1.2-0.2,1.6-0.7c1.8-1.8,3-4.1,4.7-6c0.5-0.6,1-0.9,1.7-1.1c1.1-0.3,2.2-0.8,2.7-1.9
	c0.4-0.9,1-1.7,1.8-2.3c1.8-1.5,2.6-3.6,3-5.8c0.1-0.4,0.1-0.9,0.7-1c-0.9-0.2-0.9,0.6-1,1.1L282.2,158.3z"/>
<path class="st2" d="M116.4,93.4c-0.1,0.5,0.1,1,0.1,1.5c-0.2,1.7,0.6,3,1.8,4c-0.5-1.2-0.2-1.6,1-2.3c0.7-0.4,0.9-1.1,0.8-1.8
	c-0.1-0.8-0.3-1.6-0.3-2.4c0-0.8-0.6-1.2-1.3-1.5c-1.9-0.8-3.9-1.3-6.1-1.2c-0.8,0.1-1.4,0.5-1.8,1.2c-1,2-4,3.4-6.2,2.9
	c-0.2,0-0.4-0.1-0.6,0c-1,0.3-1.7-0.2-2.3-0.8c-0.2-0.2-0.4-0.5-0.9-0.6c0.4,0.6,0.4,1.2,0.2,1.8c-0.2,0.4,0,0.7,0.5,0.7
	c0.5,0,0.9,0.1,1.4,0.1c0.3,0,0.6,0,0.8,0c1,0.1,1.3,1.2,2.1,1.4c0.2,0.1,0.5,0.2,0.7,0.2c0.1,0,0.2,0,0.3,0.1
	c0.4,0.2,0.7,0.4,1,0.8c0.3,0.5,1.3,0.5,1.7,0c0.2-0.2,0.1-0.3,0-0.5c-0.2-0.2-0.5-0.4-0.6-0.7c-0.6-0.9-0.4-1.5,0.5-1.9
	c0.6-0.3,1.1-0.6,1.3-1.2c0.4-0.8,1.1-1.1,2.1-0.8c0.1-0.1,0.2-0.1,0.3-0.2c1.1-0.3,2,0.3,3,0.5c0.1,0,0.1,0,0.2,0.1
	c0.1,0,0.2,0,0.3-0.1c-0.1,0.1-0.1,0.2-0.2,0.3C116.4,93.2,116.4,93.3,116.4,93.4L116.4,93.4z"/>
<path class="st3" d="M116.5,94.9c0-0.5-0.2-1-0.1-1.5c0-0.1,0-0.2,0-0.2c-0.4,0.7-0.1,1.3-0.2,1.7c-0.3,2.2,0.9,3.4,2.3,4.6
	c-0.1-0.2-0.2-0.4-0.3-0.6C117,97.9,116.3,96.7,116.5,94.9L116.5,94.9z"/>
<path class="st3" d="M116.1,92.8c-1-0.2-1.9-0.8-3-0.5c-0.1,0.1-0.2,0.1-0.3,0.2c0.1,0,0.2,0,0.2,0.1c1.1-0.4,2,0.5,3.3,0.3
	C116.2,92.9,116.2,92.8,116.1,92.8L116.1,92.8z"/>
<path class="st3" d="M103.6,95c-0.3,0-0.6-0.1-0.8,0c-0.5,0-1-0.1-1.4-0.1c-0.5,0-0.7-0.3-0.5-0.7c0.2-0.6,0.2-1.2-0.2-1.8
	c0.5,0.1,0.7,0.4,0.9,0.6c0.6,0.7,1.3,1.2,2.3,0.8c0.2-0.1,0.4,0,0.6,0c2.2,0.5,5.2-0.9,6.2-2.9c0.4-0.8,0.9-1.2,1.8-1.2
	c2.1-0.2,4.1,0.3,6.1,1.2c0.6,0.3,1.2,0.7,1.3,1.5c0,0.8,0.2,1.6,0.3,2.4c0.1,0.8,0,1.4-0.8,1.8c-1.3,0.8-1.5,1.2-1,2.3
	c0.1,0.1,0.2,0.1,0.3,0.2c0-0.3-0.2-0.5-0.2-0.8c-0.1-0.7,0.1-1.2,0.8-1.4c1-0.3,1.5-1.1,1.3-2.2c-0.1-0.6-0.4-1.2-0.3-1.7
	c0.3-1.3-0.6-2-1.5-2.4c-2-0.9-4.2-1.3-6.4-1.2c-0.7,0-1.3,0.3-1.7,1.1c-0.2,0.5-0.2,1.3-0.8,1.5c-1,0.3-1.7,0.9-2.5,1.4
	c-0.9,0.5-1.8,0.7-2.7,0.1c-0.2-0.1-0.4-0.4-0.6-0.2c-1.1,1-1.5-0.1-2.1-0.6c-0.3-0.2-0.4-0.6-0.7-0.8c-0.2-0.1-0.5-0.3-0.8-0.1
	c-0.2,0.3,0,0.5,0.2,0.7c0.4,0.4,0.5,0.8,0.2,1.3c-0.6,1.1-0.5,1.2,0.9,1.3c1.5,0.2,3.6-0.6,3.8,2c0.6-0.3,0.9-0.6,1.1-0.6
	c-0.2-0.1-0.5-0.2-0.7-0.2C105,96.2,104.6,95.2,103.6,95L103.6,95z"/>
<path class="st3" d="M110.7,93.3c-0.3,0.7-0.7,1-1.3,1.2c-0.9,0.4-1.1,1.1-0.5,1.9c0.2,0.3,0.4,0.5,0.6,0.7c0.1,0.2,0.2,0.3,0,0.5
	c-0.5,0.5-1.4,0.5-1.7,0c-0.3-0.4-0.6-0.7-1-0.8c0.1,0.1,0.2,0.2,0.2,0.4c0.7,1.5,1.5,1.4,2.8,0.8c0.6-0.3,0.7-0.4,0.2-0.8
	c-0.2-0.2-0.4-0.3-0.6-0.4c-0.4-0.3-0.8-0.8-0.7-1.3c0.1-0.6,0.7-0.5,1.1-0.7c0.3-0.1,0.9-0.1,0.9-0.6c0-1.4,0.9-1.4,1.8-1.5
	c0.1,0,0.1-0.1,0.2-0.1C111.8,92.3,111.1,92.5,110.7,93.3L110.7,93.3z"/>
<path class="st3" d="M112.6,92.7c0.1,0,0.3,0,0.4-0.1c-0.1,0-0.2,0-0.2-0.1C112.7,92.6,112.7,92.6,112.6,92.7L112.6,92.7z"/>
<path class="st3" d="M118.6,99.1c-0.1-0.1-0.2-0.1-0.3-0.2c0.1,0.2,0.2,0.4,0.3,0.6C118.6,99.3,118.6,99.2,118.6,99.1z"/>
<path class="st4" d="M189.4,316.8L189.4,316.8C189.4,316.8,189.5,316.8,189.4,316.8C189.5,316.8,189.4,316.8,189.4,316.8z"/>
<path class="st2" d="M191.1,315.9c-0.5,0.3-1.5-0.1-1.6,0.9c0,0.1,0,0.1,0,0.2c0.6,0,1.1,0,1.6,0c0.4,0,0.4-0.2,0.5-0.5
	C191.6,316,191.2,315.9,191.1,315.9L191.1,315.9z"/>
<path class="st5" d="M189.4,316.8c-0.4,0.2-0.7,0.6-0.9,1c0.9,0.2,0.6-0.6,0.9-0.9C189.4,316.9,189.4,316.9,189.4,316.8L189.4,316.8
	z"/>
<path class="st5" d="M189.4,316.8c0,0,0,0.1,0.1,0.1C189.5,316.9,189.5,316.8,189.4,316.8C189.5,316.8,189.5,316.8,189.4,316.8
	L189.4,316.8z"/>
<path class="st2" d="M215.5,115.4c-0.4,0.4-0.9,0.6-1.3,0.1c-0.9-1.1-1.9-0.9-2.8-0.1c-0.2,0.2-0.6,0.4-0.9,0.3
	c-1.1-0.8-2.6-0.4-3.7-1.3c-0.5-0.4-1.9,0.3-2,0.9c-0.3,1.6-0.9,1.9-2.4,1.3c-1.4-0.5-2.7-1-4,0.1c-0.4,0.3-0.9,0.2-1.3,0.3
	c-0.9,0.3-1.8,0.9-2.8,0.3c-0.1-0.1-0.4,0.1-0.5,0.2c-1.3,0.7-2.7,0.3-3.8-0.1c-2.4-0.9-3.3-4.5-2.4-6.3c0.9-1.8,0.7-3.3-0.3-4.8
	c-0.4-0.5-0.5-1.1-0.2-1.7c0.1-0.2,0.5-0.5,0.1-0.7c-0.3-0.2-0.6,0-0.8,0.2c-0.3,0.4-0.7,0.8-1,1.2c-0.4,0.5-0.9,1.1-1.5,1.1
	c-2,0-3.6,1.4-5.5,1.5c-0.2,0-0.4,0.1-0.6,0.3c-0.9,1.2-1.9,1.1-3.2,0.6c-1.2-0.5-2.4-1.2-4-1c0.6,0.5,0.6,1.1,0.5,1.8
	c-0.1,1.2,0.5,2.2,0.9,3.2c0.2,0.6,1.1,0.1,1.6,0.4c0.6,0.3,1.1,0.6,1.1,1.3c0,0.6-0.3,1.4-0.9,1.4c-1.2,0.1-1.9,0.8-2.5,1.7
	c-0.2,0.2-0.5,0.4-0.8,0.4c-1.1,0.1-1.7,0.8-2.4,1.4c-0.5,0.5-1.1,0.9-1.7,1.3c-1.3,0.9-2.8,0.9-3.8-0.2c-1-1.2-2.2-1-3.5-1.1
	c-0.4,0-0.7,0-1.1,0c1.1-0.3,1.1-0.9,0.6-1.6c-0.1-0.2-0.1-0.5-0.1-0.7c-0.1-0.3-0.1-0.4-0.6-0.3c-2.2,0.5-4.5,0.8-6.7,0.4
	c-1-0.2-1.4,0.1-1.1,1.3c0.1,0.5,0.2,0.6,0.7,0.4c0.3-0.1,0.6,0,0.9,0.1c0.7,0.2,1.3,0.6,1.2,1.4c-0.1,0.8-0.7,0.7-1.4,0.6
	c-1.4-0.1-2.7,1.1-2.6,2.2c0.1,0.8,0.6,1.5,1.3,1.8c1.4,0.6,2.2,1.4,1.6,3c0,0.1,0,0.2,0,0.2c-0.5,4-1.1,8-1.6,12
	c-0.1,1-0.5,0.9-1.1,0.6c-0.7-0.4-1.5-0.9-2.2-0.5c-1.8,1-4.4,0.4-5.6,2.7c-0.1,0.2-0.4,0.4-0.7,0.4c-0.7,0.2-1.1,0.7-1.3,1.4
	c-0.1,0.4-0.4,0.8-0.7,1.1c-0.5,0.5-0.7,1-0.3,1.8c0.6,1.1-0.2,2.2-1.4,2c-0.7-0.1-0.9,0.4-0.8,0.8c0.2,1.2-0.2,2.2-0.6,3.2
	c-0.1,0.3-0.4,0.6,0.1,0.8c1.1,0.5,1.4,1.7,2.3,2.4c0.6,0.5,1.1,1.3,1.2,2c0.1,0.6,0.3,0.6,0.6,0.8c0.6,0.5,1.7,0.1,1.9,1.2
	c0.1,0.7,0.6,0.8,1.2,0.8c1.3,0,2.6-0.4,3.9-0.7c0.9-0.2,1.3,0.2,1.2,0.9c-0.1,1,0.4,2,0.1,3c-0.1,0.2-0.1,0.6,0.2,0.8
	c0.3,0.1,0.5-0.2,0.7-0.3c1.7-0.3,3.3-1.6,5.2-0.9c0.4,0.1,0.7-0.1,0.9-0.4c0.8-0.8,1.7-1.1,2.8-1c0.6,0,1.2,0,1.4-0.6
	c0.2-0.8,0.8-1.1,1.5-1.3c0.4-0.1,0.7-0.3,1-0.6c0.6-0.9,1.4-1.3,2.4-1.3c1.3-0.1,2.6,0,3.8,0c0.3,0,0.5,0.1,0.5,0.5
	c0,0.8,0.3,1.5,0.1,2.2c-0.3,1.4,0.2,2.8-0.1,4.1c-0.1,0.2,0.1,0.5,0.3,0.6c1.6,0.8,2.8,2.2,4.5,2.8c1.8,0.6,3.8,0.8,5.3,2
	c1.6,1.2,3.4,1.8,5.4,2.1c0.6,0.1,1.1,0.4,1.7,0.6c1.1,0.5,2.4,4,2,5.1c-0.1,0.2-0.2,0.4-0.3,0.5c-1.1,1.3-0.4,3.8,1.3,4
	c1.3,0.2,2.7,0.1,4-0.5c0.8-0.3,1.4-0.3,2,0.3c0.6,0.6,0.5,1.3,0,1.8c-0.7,0.7-0.5,1.4-0.1,2c0.6,0.9,1.2,1.7,1.8,2.6
	c0.6,1.1,0.7,2.2-0.1,3.5c-0.5,0.8,0.2,2-0.3,3c0,0,0.1,0.1,0.1,0.2c0.8,0.9,0.5,1.7-0.4,2.3c-0.4,0.3-0.6,0.5-0.2,0.9
	c1.3,1.5,1,3.4,1,5.2c0,0.9,0.4,1.1,1.1,1.1s1.4,0,2,0c1.1,0,2.2,0.2,3.2,0.7c0.8,0.4,1.2,1,1,1.7c-0.2,1.1,0.2,2,0.4,3
	c0.2,1,0.7,1.3,1.6,1s1.5,0,1.7,0.8c0.5,1.8,1.3,3.6-0.1,5.4c-0.2,0.2-0.3,0.5-0.4,0.7c0.4,0.1,0.7,0.1,1,0.3c1,0.5,1.9,1.1,2,2.2
	c0.1,1.8-0.2,3.6-1.9,4.6c-0.8,0.5-1.7,1.1-2.6,1.5c-1.7,0.8-3.3,1.7-4.4,3.4c-0.2,0.3-0.6,0.5-0.9,0.8c-1.2,1.1-2.2,2.3-3.2,3.8
	c1.1,0,2,0.1,2.6,0.8c0.6,0.8,1.5,1.4,2,2.4c0.2,0.4,0.4,0.4,0.8,0.4c1.6,0.3,2.7,1.6,4.2,2.1c0,0,0.1,0.1,0.1,0.1
	c0.5,1.7,2.9,2,3,4.2c1-1.3,2-2.1,3-2.9c0.6-0.5,1.3-1,1.5-1.7c0.4-1.4,1.4-2.2,2.6-3c0.7-0.4,1.3-0.5,1.8,0.3
	c0.4-0.2,0.4-0.5,0.4-0.7c1.1-2.7,2.7-5,5.6-6.1c0.6-0.2,0.7-0.7,0.6-1.4c-0.2-1.2-0.1-2.4,0.3-3.7c0.3-1,0.9-2-0.1-3
	c-0.1-0.1-0.2-0.7-0.1-0.8c0.7-0.6,0.6-1.6,1.1-2.3c0.1-0.2,0.4-0.5,0.6-0.6c2-0.4,2.8-2.3,4.4-3.3c0.6-0.4,1.2-1.2,2-1.4
	c1.3-0.3,2.6-0.9,3.9-0.8c0.5,0,0.9-0.1,1.1-0.5c0.4-0.6,1-0.8,1.7-1c0.3-0.1,0.8-0.1,0.8-0.4c0.1-1,0.7-0.7,1.3-0.6
	c0.4,0.1,0.9,0.2,1.4,0.3c0.6,0.1,1.5,0.6,1.7-0.7c0.1-0.6,0.6-0.6,1.1-0.2c0.8,0.7,1.9,0.5,2.8,0.8c0.3,0.1,0.7,0,0.8-0.4
	c0.5-1.2,1.4-1.5,2.5-1.7c0.7-0.1,1.1-0.5,0.8-1.2c-0.4-0.9-0.1-1.6,0.4-2.2c0.8-1,1.5-2,2.4-2.9c0.8-0.8,0.8-2.1,1.8-2.6
	c1.5-0.8,1.7-2,1.8-3.5c0-1.4,0.2-2.6,1.5-3.4c0.4-0.2,0.7-0.7,0.6-1.1c-0.4-2.1,0.9-3.5,1.8-5.1c0.3-0.5,0.5-1.1,0.5-1.7
	c0-2-0.2-4,0.5-5.9c0.1-0.2,0.1-0.4-0.3-0.5c-0.9-0.2-0.7-1.1-0.4-1.3c0.8-0.6,0.5-1.9,1.5-2.4c0.3-0.1,0.1-0.4,0-0.6
	c-0.2-0.5-0.2-0.9,0.2-1.3c0.5-0.4,1-0.2,1.4,0.1c0.6,0.4,1.1,0.3,1.5-0.3c0.8-1.2,1.8-2.1,2.5-3.4c0.5-1.1,1.7-2,2.6-3
	c0.4-0.5,0.9-0.8,1.5-0.8c1.1-0.1,2-0.7,2.4-1.6c0.3-0.8,0.7-1.4,1.3-1.8c2.1-1.5,2.9-3.6,3.4-6c0.2-1,0.5-1.9,0-2.8
	c-0.4-0.7-0.6-1.5-0.7-2.3c-0.2-1.2-0.8-2.2-1.1-3.4c-0.2-0.8-1-1.1-1.8-1.2c-1.5-0.1-2.9-0.2-3.8-1.6c-0.5-0.7-1.4-1.1-2.3-1.1
	c-0.3,0-0.6,0-0.6-0.4c-0.1-1.7-1.5-2.3-2.6-3c-0.2-0.1-0.5-0.2-0.5-0.4c-0.3-1-1.1-1.5-1.9-2c-0.7-0.5-1.5-0.8-2.2-1.2
	c-0.7-0.5-1.8-1.3-2.8-0.2c-0.2,0.2-0.8,0.2-0.9,0.1c-0.5-0.8-1.1-0.6-1.8-0.4c-0.1,0-0.3-0.1-0.4-0.2c-0.6-0.8-1.5-0.8-2.4-0.7
	c-0.5,0-0.9-0.3-1.3-0.7c-0.9-0.8-1.8-1.4-3.1-1.2c-1.8,0.2-3.4,0.8-4.2,2.5c-0.3-0.2,0-0.6-0.4-0.7c-1.5-0.5-1.5-0.6-0.7-1.9
	c0.2-0.3,0.2-0.8,0-0.8c-0.9,0.1-0.4-0.5-0.5-0.8c-0.1-0.4,0-0.7,0-1.1c0-0.9-0.3-1.3-1.2-1.1c-0.5,0.1-0.8,0.3-1.1-0.5
	c-0.2-0.5-0.9-1.3-1.9-1.2c-0.9,0.1-2-0.1-2.6-0.8c-1.1-1.2-3.2-1.9-4.6-1.3c-0.1,0.1-0.3,0.1-0.4,0.2c-0.7,1.4-2.1,2.2-2.9,3.4
	c-0.1,0.1,0,0.5-0.3,0.4c-0.9-0.2-0.8,0.5-1,1c-0.1,0.4-0.3,0.7-0.5,1.1c-0.2,0.4-0.6,0.4-0.9,0.3c-0.4-0.1-0.6-0.4-0.4-0.8
	c0.6-1.3-0.1-1.5-1.1-1.7c-0.5-0.1-0.9-0.1-1.4,0c-1.3,0.3-2.2-0.4-2.6-1.6c-0.2-0.7-0.3-1.4-0.2-2.2c-0.7,0.8-1.5,1.1-2.3,1.4
	c-1.5,0.6-1.8,1.4-0.9,2.8c0.5,0.7,0.5,1.6,0.6,2.4c0,0.4,0,0.6-0.4,0.7c-0.3,0.1-0.7,0.1-0.9-0.3c-0.5-1.5-1.6-2.8-1.4-4.5
	c0.1-0.8-0.2-0.9-0.9-1c-1.3-0.2-2.6-0.5-3.9-0.8c1.6-0.3,3.2-0.1,4.8-0.4c1.3-0.2,2.3-0.8,2.8-2.1c0.7-1.6,1.2-3.3,3.3-3.6
	c0.4-0.1,0.6-0.4,0.8-0.7c0.3-0.6,0.7-1,1.3-1.3c0.7-0.4,0.9-1.2,0.9-1.8c0-0.6-0.8-0.5-1.2-0.6c-0.9-0.3-1.9-0.7-2-1.8
	c-0.1-1.3-0.3-2.6-0.6-3.9c-0.4-1.7-1.4-2.9-2.7-4.1C219.4,111.3,217.6,113.5,215.5,115.4L215.5,115.4z"/>
<path class="st2" d="M191.6,250.4c0.4-1.3,1.4-2.3,1.4-3.7c0.1-2.3-0.4-4.8,1.2-6.8c0.1-0.1,0.1-0.3,0.1-0.4c0.5-2.3,1.6-4.2,3-6
	c0.8-1,1.9-1.6,2.6-2.6c1.2-1.7,2.9-2.7,4.7-3.6c0.8-0.4,1.6-0.7,2.1-1.3c0.4-0.5,0.6-1.2,1.5-1.4c0.3-0.1,0.3-0.5,0.2-0.9
	c-0.1-0.3-0.1-0.6-0.1-0.8c0.1-1.6-0.4-2.1-2.1-2.2c0.7,2.1-0.4,3.4-1.8,4.7c-0.4,0.4-0.8,0.8-1.1,1.2c-0.5,0.6-1,1.1-1.8,0.6
	c-0.3-0.2-0.4-0.1-0.6,0.2c-0.6,0.8-2.9,1-3.8,0.6c-1.5-0.5-2.7-1.9-4.6-1.2c-1,0.4-2-0.9-1.4-2c0.9-1.8,1.3-3.8,2.9-5.2
	c0.5-0.5,0.6-0.9-0.2-1.1c-2-0.5-3.6-1.7-5.2-3.1c-0.4-0.3-0.8-0.9-1.3-0.8c-2,0.3-3.3-1-4.6-2.1c-1.1-0.9-2.4-1.4-3.4-2.4
	c-1-1-2.2-1.8-2.9-3c-0.1-0.2-0.3-0.2-0.5-0.2c-2.1-0.1-3.1,0.6-3.6,2.6c-0.1,0.3-0.2,0.6-0.2,0.9c0,0.3-0.1,0.6-0.3,0.8l-0.1-0.6
	l0,0c-0.1-2.5-0.8-3.8-3.7-3.3c-0.7,0.1-1.2-0.3-1.7-0.6c-0.6-0.4-1-0.6-1.4,0.3c-0.3,0.7-0.9,1.3-1.5,1.9c-0.6,0.5-0.7,1-0.6,1.7
	c0.1,2,0.4,4.1-1.7,5.5c-1.2,0.7-2.5,1.1-2.2,3.2c0.2,1.3,0.2,2.9,0.4,4.3c0.2,1.4,0.4,2.5-1.1,3.2c-0.1,0.1-0.2,0.2-0.3,0.4
	c-0.7,2.3-2,4.3-2.6,6.6c-0.2,0.9-0.3,1.9,0.1,2.8c0.4,0.8,0.3,1.6-0.3,2.3c-0.4,0.5-0.5,1-0.4,1.5c0.3,1,0,1.8-1.1,2.3
	c1.2,0.6,1.4,1.5,1.4,2.7c0.1,1.2,0.1,2.5,1.5,3.2c0.9,0.4,1.1,4.4,0.4,5.1c-0.1,0.1-0.2,0.2-0.3,0.2c-0.7,0.4-1.7,2.8-1.3,3.4
	c0.9,1.2,0.3,2.2-0.2,3.2c-0.7,1.4-1.3,2.8-1.3,4.4c0,1.6,0.9,2.9,1.3,4.4c0.2,0.8,0.6,1.6-0.2,2.1c-0.7,0.4-1.1,0.6-0.8,1.5
	c0.1,0.2-0.1,0.5-0.2,0.8c-0.7,1.8-0.7,3.8-0.5,5.6c0.2,1.7,0.9,3.4,0.1,5.1c-0.2,0.4,0,0.8,0.2,1.3c0.6,1.3,2.1,2.3,1.7,4
	c-0.1,0.3,0.3,0.2,0.5,0.3c1.1,0.3,1.7,1.3,1.1,2c-0.8,0.9-0.3,1.7-0.5,2.5c-0.4,1.5-0.5,3,0.6,4.3c0.3,0.4,0.1,1-0.2,1.4
	c-1,1.1-1,2.5-1,3.9c0.1,1.5,0.1,3-0.3,4.5c-0.4,1.1-0.7,2.3-0.5,3.5c0.1,0.4-0.1,1.1,0.7,0.9c1.2-0.2,1.8,0.4,2.1,1.4
	c0.3,0,0.6,0,0.8,0.3c-0.2,0.3-0.6,0.1-0.8,0.2c-0.5,1.8,0.5,3.2,2.3,3.1c1.7-0.1,3.3-0.6,5.1,0c-1.5-3.2-1.4-3.2-1.1-5.1
	c0.2-1.1,0.6-1.8,1.8-2.1c0.9-0.2,1.3-1.4,1-1.7c-0.8-1,0-1.4,0.3-1.9c0.9-1.6,2.5-2.7,3.5-4.2c0.4-0.6,1-1.2,0.6-2.1
	c-0.3-0.8-1-0.4-1.5-0.5c-2.1-0.3-4-2.3-3.6-4.2c0.4-2.2,1.9-3.7,3.9-4.6c1.1-0.5,1.6-1.4,1.6-2.4c0-1.5,0.2-2.8,1.4-3.8
	c0.2-0.2,0.4-0.3,0.1-0.7c-0.9-1.2-0.8-1.5,0.7-2.1c-0.1-0.6-0.7-0.5-1.1-0.7c-0.7-0.3-1.1-0.8-0.7-1.5c0.4-0.5,0.2-0.8-0.1-1.2
	c-0.7-0.8-0.7-1.8-0.2-2.7c0.3-0.7,0.8-1,1.5-0.3c0.7,0.7,1.8,0.7,2.6,1.2c1.1,0.6,2,0.3,2.7-0.6c0.1-0.1,0.2-0.1,0.3-0.1
	c1.3-0.4,1.4-0.7,0.7-1.9c-0.5-0.8-0.6-1.4,0.4-2c0.5-0.3,1.2-0.9,0.2-1.5c-0.8-0.5-0.6-1.3-0.3-1.9c0.4-0.8,1.1-0.5,1.6-0.1
	c0.7,0.4,1.5,0.5,2.3,0.1c1.1-0.5,2.3-0.7,3.5-0.8c4-0.5,7.4-2,9.1-6c0.5-1.1,0.5-1.6-0.6-2.2c-0.9-0.5-1.6-2.1-1-2.7
	c0.7-0.8,0.4-1.3-0.3-1.8c-0.5-0.4-1-0.9-1.5-1.3C191.4,253.5,191.1,252.3,191.6,250.4L191.6,250.4z"/>
<path class="st2" d="M3.8,7c1.2,0.8,1.4,2,1.6,3.4c0.1,1.1-0.4,2.4,0.5,3.5c1.2,1.6,2.2,3.3,3.2,5.1c0.5,0.9,1,1.5,2.1,1.8
	c0.3,0.1,1.8,0,0.8,1.2c-0.1,0.2,0.2,0.8,0.6,1c1.6,1,1.6,1.1,0.8,2.9c-0.2,0.4-0.4,0.8,0.4,0.7c0.6-0.1,0.9,0.3,0.8,0.9
	c-0.2,0.9,0.8,1.3,1,1.3c1.6-0.2,1.6,1.2,1.6,1.9c0.1,1.1,0.6,1.7,1.4,2.4c0.6,0.6,1.3,1.2,1.7,2c0.6,1.2,1.1,2.3,1.9,3.3
	c0.5,0.7,1.6,1.3,1.5,2c-0.3,1.4,0.4,2.4,0.8,3.5c0.4,0.9-0.1,3.7-0.8,4c-1.3,0.7-0.6,1.4-0.2,2.1c0.6,1.2,1.5,2.1,2.8,2.6
	c0.7,0.3,1.5,0.9,1.8,1.5c0.8,1.5,2.2,2.2,3.5,2.9c0.7,0.4,1.4,0.6,2.1,0.8c0.4,0.2,1,0.2,1.3,0.6c0.5,0.8,1,1.5,2.1,1.2
	c0.3-0.1,0.2,0.2,0.2,0.3c-0.1,0.8,0.6,1.1,1.1,1.3c3,1.3,6,2.6,8.8,4.3c1.1,0.7,2.5,0.9,3.8,1.5c1.1,0.5,2.1,0.5,3.1,0
	c0.6-0.3,1.1-0.6,1.7-0.8c1.3-0.5,2.5-0.5,3.8,0c2.4,0.9,4,2.7,5.5,4.6c0.2,0.2,0.3,0.6,0.7,0.5c0.3-0.1,0.2-0.5,0.3-0.7
	c0.6-1.4,1.4-2.7,2.3-3.9c0.2-0.4,0.8-0.4,1.2-0.4c0.7,0,1.5,0,2.4,0c-1.2-1.7-3.1-2.6-3.7-4.6c0.3,0,0.6,0,0.8,0
	c0.8,0,1.8,0.2,1.6-1.2c-0.1-0.5,0.3-0.5,0.6-0.5c2.1,0,4.2,0,6.4,0c0.2,0,0.5,0,0.7-0.2c0.4-0.9,0.9-1.8,2-2
	c0.4-1.8,1.2-0.6,1.8-0.2c0.4-0.8,1.1-1.6-0.5-2.2c0.9-0.2,1.2-0.5,1.2-1.3c0-1.3,0.4-2.5,1.5-3.4c0.3-0.2,0.6-0.6,0.8-0.9
	c0.3-0.5,0.3-1.2-0.2-1.6c-0.4-0.4-1.1-0.5-1.7-0.1c-0.3,0.3-0.6,0.6-1,1.1c-0.2-1.9-0.2-1.9-1.9-1.4c-1.2,0.3-2.3,0.6-3.5,0.6
	c-1.9,0-2.9,0.7-2.8,1.9c0,2.1-1.4,3.6-1.9,5.5c-0.1,0.3-0.4,0.6-0.8,0.7c-0.5,0.2-0.7,0.4-0.8,1c-0.1,0.8-0.8,1-1.4,1.2
	c-0.5,0.2-1,0.2-1.3-0.3c-0.6-1.1-1.5-0.8-2.2-0.4c-0.9,0.4-1.7,0.6-2.7,0.4c-0.7-0.1-1.3,0.2-1.9,0.5c-1.3,0.7-2.1,0.6-3-0.5
	c-0.2-0.3-0.4-0.7-0.9-0.8c-2.2-0.3-3.4-1.8-4-3.8c-0.4-1.3-1-2.4-1.8-3.4c-0.6-0.7-1.4-1.6-1.1-2.7c0.3-1,0.2-1.6-0.5-2.3
	c-0.3-0.3-0.4-0.9-0.4-1.3c0-1.1,0-2.2,0.1-3.2c0.2-1.4,0.3-2.7,0-4.1c-0.2-0.9-0.4-2,0.1-2.8c0.4-0.5,0.8-0.9,0.7-1.6
	c-0.1-0.5,0.2-0.8,0.8-0.7c0.2,0.1,0.7,0.3,0.7-0.2c0-0.3,0-0.6-0.4-0.9c-1.1-0.7-2.3-0.7-3.5-1.3c-2.3-1.1-3.2-2-3.3-4.7
	c0-0.4,0.1-0.9-0.3-1.2c-1.4-1.3-2.2-2.9-2.7-4.7c-0.3-1.1-0.8-2-1.7-2.8c-0.4-0.3-0.3-1.1-0.9-1.1c-1-0.1-2-0.4-3-0.2
	c-0.8,0.1-0.9,1.2-1.4,1.8c-0.2,0.2-0.3,0.4-0.5,0.5c-0.4,0.4-0.8,0.5-1.3,0.3c-1.7-0.9-3.3-2.2-3.7-4c-0.4-1.8-0.9-3.4-2.4-4.6
	c-0.3-0.2-0.4-0.6-0.6-0.9c-0.6-0.6-1-1.5-1.8-1.7c-1.3-0.4-2.7-0.6-4.1-0.6c-0.3,0-0.6-0.1-0.7,0.2c-0.3,1.1-1.1,1-1.9,0.9
	c-1.1-0.1-2.2-0.1-3.3-0.2c-2.4-0.3-4.8-0.8-6.8-2.3C5.5,3.1,3.7,2,1.5,0.7c0.7,2.1,1.2,3.9,1.8,5.7C3.4,6.6,3.6,6.9,3.8,7z"/>
<path class="st2" d="M152.5,191.7c0.1-0.8,0.3-1.6,0-2.4c-0.2-0.4-0.2-0.9,0.1-1.3c0.8-0.9,0.6-2.3,1.4-3.1c-0.2-0.4-0.9,0-0.8-0.3
	c0.1-0.9-0.8-1.8,0.1-2.7c0.3-0.3,0.6-0.7,0.1-1.3c-0.8-1-0.7-2.2,0.4-2.9c0.8-0.5,1.1-1,0.3-1.8s0.5-2.2-0.4-3.1
	c1-0.3,0.6-1.3,1-1.9c0.6-0.9,0.2-1.5-0.4-2.2c-0.5-0.6-1.1-1.2-1.6-1.8c-1.4-1.4-2-1.5-3.8-0.5c-1.1,0.7-2.1,0.2-2.1-1.2
	c0-0.8,0-1.6-0.2-2.5c-0.1-0.6-0.4-0.7-0.9-0.6c-0.9,0.3-1.8,0.5-2.7,0.5c-1.1,0-2.1,0.1-2.7-1.3c-0.4-1.1-2.2-1.1-3-0.3
	c-0.2,0.2-0.4,0.4-0.7,0.8c0-1.1-0.2-2,0.6-2.7c0.4-0.4,0.5-0.8,0.1-1.1c-0.9-0.9-1.4-2.1-2.5-2.8c-0.7-0.5-1-1.1-0.6-1.9
	c0.4-0.9,0.7-1.9,0.6-3c-0.1-1,0.6-1.9,1.6-2c1-0.1,0.8-0.4,0.5-1c-0.3-0.5-0.3-1,0.1-1.4c0.7-0.8,1.3-1.6,1.6-2.6
	c0.1-0.4,0.4-0.6,0.8-0.7c0.8-0.2,1.4-0.8,1.8-1.4c0.2-0.4,0.6-0.8,1-0.8c2.3-0.2,4.4-2.1,7-0.9c-0.7-1.5-1-1.7-2.6-1.3
	c-0.4,0.1-1.1,0.5-0.9-0.3c0.2-0.7,0.1-1.8,1.4-2c0.9-0.1,1.3-1,1.5-1.7c0.2-0.7-0.4-1.4-1-1.8c-0.6-0.4-1.3-0.1-1.8,0.4
	c-0.7,0.8-1.4,0.8-2.2,0.1c-0.4-0.3-0.9-0.7-1.2-0.1c-0.7,1.2-1.8,1.2-3,1.2c-1.3,0-2.6-1.2-2.5-2.5c0-1.2-1.2-1.7-1.4-2.7
	c-1.9,0.1-3-1.5-4.4-2.4c-0.4-0.2-0.7-0.5-1.2-0.6c-0.3,0-0.6-0.1-0.8,0.2c-0.2,0.3,0.1,0.4,0.2,0.6c0.7,1.1,0.7,2.1-0.1,3.1
	c-0.1,0.2-0.2,0.4-0.4,0.6c-1.3,2.6-3.3,4.4-6,5.4c-1,0.4-1.9,0.8-2.9,1.1c-0.4,0.2-0.7,0.4-0.6,1c0.1,0.6-0.3,1-0.9,1.2
	c-0.4,0.1-0.6,0.2-0.7,0.7c-0.4,1.4-0.3,2.9-1.3,4.3c-0.5,0.6-0.7,1.2-1.6,1.3c-0.9,0.1-1.4-0.4-1.6-1.3c-0.2-1.2-0.8-1.2-1.5-0.6
	c-0.7,0.5-1.2,0.5-1.8-0.1c-0.6-0.6-0.7-1.2-0.3-2c0.2-0.3,0.5-0.6,0.8-0.9c0.5-0.5-0.2-1.1-0.3-1c-0.6,0.5-1.8,0.4-2,1.3
	c-0.2,0.6-0.5,1.1-0.9,1.5c-0.9,1.4-0.9,2.3,0.3,3.5c1.4,1.4,1.4,1.8,0,3.3c0.1,0.1,0.2,0.2,0.4,0.3c0.2,0.1,0.4,0.2,0.7,0.2
	c2.4,0.3,3.8,1.9,4.8,3.9c0.3,0.6,0.7,1,1.2,1.3c1.7,0.9,2.3,2.4,2.7,4.2c0.1,0.4,0.1,0.9,0.5,1.1c1.4,0.9,1.8,2.2,2.1,3.7
	c0.1,0.3,0.2,0.6,0.5,0.8c1.5,1.3,1.8,3.4,3.3,4.6c0.2,0.2,0.4,0.6,0.4,0.9c0.1,2.1,1.4,3.5,2.9,4.7c0.4,0.4,0.8,0.8,0.5,1.4
	c-0.6,1.3,0.1,2.1,0.8,3c0.8,1,1.6,1.9,2.5,2.7c1.6,1.4,3.4,2.9,5.3,3.3c2.4,0.6,4.7,1.8,7.2,2.2c1.2,0.2,2,1,2.4,2.2
	c0.5,1.4,3.6,3.3,5,3.3C151.8,193.1,152.4,192.7,152.5,191.7L152.5,191.7z"/>
<path class="st2" d="M125.5,91.4c0,0.1-0.1,0.2-0.2,0.3c-1.7,0.4-1.4,1.8-1.4,2.9c0,0.5,0.1,1.1,0.2,1.6c-1.3,0.2-1.8-0.6-2.3-1.5
	c-0.4,0.5,0.1,1.2-0.4,1.7c-0.3,0.6,0,1.5-1.1,1.6c-1.1,0.1-1.2,0.3-0.4,1.2c0.3,0.4,0.7,0.7,1.1,1.1c0.2,0.2,0.6,0.6,0.4,0.8
	c-0.4,0.7-0.1,1.2,0.2,1.8c0.4,1.1-0.6,1.5-1.5,2.1c0.9,0,1.1,0.3,1,0.9c-0.3,1.6-0.7,3.2,0.7,4.5c0.2,0.2,0.3,0.7-0.1,0.8
	c-1.7,0.4-0.6,2.2-1.6,3c0.5,1.6-0.8,1.5-1.7,1.7c-0.4,0.1-1.1,0-1.1,0.5c0,0.8-0.4,0.7-1,0.6c0.5,1.5,0.5,1.6-0.9,2
	c-0.2,0.1-0.6-0.1-0.6,0.4c0,0.3,0.3,0.4,0.6,0.5c0.6,0.2,1.1,0.5,1.5,0.9c0.8,0.7,1.6,1.1,2.7,1.1c0.7,0,1.3,0.3,1.7,0.9
	c0.2,0.2,0.3,0.6,0.6,0.5c0.9-0.4,1.6,0.3,2.5,0.7c-0.1-0.8-0.3-1.4,0.1-2.2c1.3,0.9,2.6,1.8,3.9,2.7c0.3,0.2,0.5,0.6,0.9,0.5
	c1.3-0.3,2.3,0.5,3.2,1.2c0.7,0.5,1.3,1.3,2.1,1.5c1.2,0.2,2.3,0.5,2.6,1.9c0,0.2,0.3,0.4,0.4,0.4c0.7,0.1,0.7,0.6,0.5,1.1
	c-0.4,1.1,0.3,1.8,0.9,2c0.7,0.2,1.8,0.5,2.4-0.5c0.6-0.9,1.6-1.1,2.5-0.4c0.6,0.5,1,0.3,1.5-0.1c1.2-1,2.5-0.8,3.5,0.5
	c0.3,0.5,0.6,1,1,1.6c0.3-2.4,0.6-4.7,0.9-6.9c0.1-0.6-0.2-1-0.7-1.1c-0.9-0.2-1.3-0.9-1.8-1.5c-1-1.3-0.8-2.7,0.6-3.7
	c0.3-0.2,0.4-0.4,0.4-0.8c-0.2-0.7-0.3-1.5-0.5-2.2c-0.3-1.2-0.1-1.7,1.2-1.7c1.1,0,2.3,0.1,3.5,0.1c0.6,0,1.4,0.2,1.7-0.2
	c0.6-0.7,1-0.9,1.8-0.4c0.3,0.2,0.4,0,0.5-0.2c0.2-0.5,0.5-1,1.2-0.8c0.7,0.2,0.6,0.8,0.6,1.4c0,0.5,0,1,0.2,1.4
	c0.3,0.6,0.6,0.9,1.4,0.6c-0.6-0.9-0.9-1.8-1.2-2.8c-0.3-1-0.6-1.9-1.6-2.5c-0.9-0.5-1-2.2-0.2-2.6c1.1-0.5,0.7-1.1,0.2-1.7
	c-1.2-1.7-1.4-3.5-0.4-5.4c0.4-0.6,0.7-1.3,0.7-2c0-0.7-0.3-1.4-1-1.2c-1.1,0.3-2.1-0.1-3.1-0.1c-0.7,0-1.3,0-1.9,0.5
	c-0.4,0.4-1,0.4-1.4,0c-0.6-0.4-1.1-0.9-1.6-1.4c-1.1-1.1-2.6-1.5-4.1-1.5c-1.8,0-3.8,1-5.2-0.9c-1.5-0.1-1.3-1-1.2-2.1
	c0.1-1.7,0.3-3.5-1.6-4.7c-0.5-0.3-0.5-0.9-0.4-1.5c0.5-2.2,0.9-4.4,2.8-5.9c0.4-0.3,0.6-0.8,0.8-1.2c0.4-1.1,0.9-1.9,2.3-1.9
	c0.6,0,0.7-0.4,0.2-0.9c-0.5-0.5-1.8,0-2.2,0.8c-0.2,0.5-0.4,0.9-0.9,1.2c-2.2,1.3-4.5,2.6-7.1,3.2c-1,0.2-2,0.5-3,0.9
	c-1.5,0.6-2,1.4-1.9,3c0,0.8-0.3,1.5-1,1.9C126.3,89.9,125.6,90.4,125.5,91.4L125.5,91.4z"/>
<path class="st2" d="M167.1,160.3c-1.8,0-3.7-0.6-5,1.3c-0.2,0.4-0.7,0.6-1.1,0.6c-0.6,0-0.9,0.4-1.1,0.8c-0.4,0.9-1.2,1.2-2.2,1.2
	c-0.6,0-1.3-0.1-1.8,0.4c-0.8,0.9-1.8,1.4-3.1,0.8c0.1,0.1,0.1,0.3,0.2,0.4c0.9,1.1,1.9,2.1,2.8,3.3c0.6,0.9-0.1,1.9,0.6,2.7
	c0.1,0.1-0.6,0.7-0.8,1.1c-0.6,0.9-0.6,2-0.2,2.9c0.5,1,0.4,1.9-0.4,2.5c-0.7,0.6-0.7,1-0.3,1.7c0.5,1,0.5,2-0.3,2.9
	c-0.5,0.5-0.2,1,0.2,1.2c1.3,0.4,0.7,1.2,0.3,1.7c-0.8,0.9,0,2.5-1.3,3.1c0,0,0,0.1,0,0.1c0.7,0.8,0.1,2,1.1,2.8
	c0.7,0.5,1.4,1.3,1.1,2.2c-0.3,1.1,0.1,1.5,1.1,1.9c1.3,0.5,1.4,1.7,0.5,2.6c-0.1,0.1,0,0.3-0.1,0.4c-0.2,0.8-0.5,1.5,0.5,2
	c0.3,0.1,0.2,0.6,0.2,0.9c0,0.3-0.1,0.6,0.1,0.8c1.2,1.2,1.3,2.9,1.8,4.5c0.2,0.7,0.4,1.5,1,2c0.2,0.2,0.4,0.4,0.9,0.1
	c1.2-0.8,2-1.9,2.6-3.1c0.3-0.6,1-0.9,1.4-0.6c1.3,0.9,2.6,1.1,4.1,1c0.3,0,0.6,0.1,0.9,0.3c0.9,0.6,1.6,0.9,2.2-0.3
	c0.1-0.2,0.3-0.3,0.6-0.3c1.2,0,2.5-0.2,3.7,0c1.1,0.2,1.3-0.2,1.7-1c0.8-1.8,0.7-3.6-0.2-5.4c-0.1-0.3-0.5-0.7,0.1-0.9
	c0.9-0.3,1.3-1,1.9-1.6c0.7-0.8,1.6-1.2,2.7-1.2c1.3-0.1,2.6-0.2,3.8-0.7c2.5-1.1,5.8,0,7,2.2c0.2,0.3,0.1,1,0.8,0.6
	c0.7-0.4,0.1-0.7-0.1-1c-0.5-0.6-0.6-1.1,0-1.9c0.3-0.4-0.4-1.2,0.1-2c1-1.4,0.9-1.9-0.1-3.3c-0.4-0.5-0.8-1-1.1-1.5
	c-0.8-1.1-1.1-2.2-0.1-3.4c0.2-0.2,0.3-0.4,0.1-0.6c-0.2-0.2-0.4-0.2-0.6-0.1c-1.1,0.5-2.2,0.6-3.4,0.6c-2.6,0.1-4.3-1.9-4.1-4.4
	c0.1-0.7,0.7-1,0.9-1.5c0.6-1.1-1.4-1.8-0.6-3.1c0.1-0.1-0.3-0.5-0.6-0.7c-0.5-0.2-1-0.5-1.6-0.6c-2.1-0.4-4.1-0.8-5.8-2.3
	c-0.5-0.4-1.2-0.8-1.9-0.9c-2.8-0.5-5.2-1.9-7.5-3.5c-0.9-0.6-1.4-1.3-1.2-2.4c0.2-1.5-0.4-3,0.1-4.5
	C167.6,160.8,167.7,160.3,167.1,160.3L167.1,160.3z"/>
<path class="st2" d="M143.5,84.3c0.7,0.6,0.3,1.5,1,2.2c1,0.9,0.9,2.3,0,3.3c-0.7,0.9-1.9,1.1-2.8,0.6c-1-0.5-1.3-1.6-0.9-3.1
	c0.3-1.3,0.9-2.4,1.2-3.8c0.1-0.6,0.1-0.9-0.5-1.2c-0.3,0.3-0.5,0.8-0.8,1c-1.7,1.2-2,3.2-2.4,5c-0.1,0.3-0.2,0.8,0.2,1
	c1.9,1,1.6,2.8,1.8,4.5c0.1,0.8-0.1,1.4,0.9,2.2c1.2,1,2.3,1,3.6,0.7c0.9-0.2,1.7-0.1,2.6,0.1c1.6,0.4,2.9,1.2,4,2.4
	c0.3,0.3,0.6,0.8,1.1,0.3c0.8-0.8,1.8-0.7,2.8-0.5c0.7,0.1,1.3,0.2,2,0.1c1.2-0.3,2.2,0.4,2.4,1.7c0.2,1-0.1,1.9-0.6,2.8
	c-1.1,1.8-0.8,3.4,0.4,5c0.3,0.4,0.7,0.8,0.2,1.2c-0.2,0.2-0.1,0.1,0,0.2c0.7,0.7,0.6,1-0.2,1.2c-0.3,0.1-0.7-0.1-0.7,0.4
	c0,0.4,0.2,0.7,0.6,0.8c0.9,0.4,1.3,1.1,1.5,1.9c0.4,1.5,1,2.8,1.8,4.1c1.3,2.2,2.5,2.5,4.4,0.8c0.2-0.2,0.5-0.4,0.7-0.7
	c0.7-0.7,1.4-1.5,2.6-1.6c0.5,0,0.9-0.4,1.1-1c0.3-0.7,0.8-1,1.5-1c0.4,0,0.9,0.2,0.9-0.5c-0.1-0.6-0.6-0.4-1-0.4
	c-0.6,0-1.3,0-1.6-0.8c-0.4-1-0.8-2-0.9-3.1c-0.1-1.1-0.2-1.9-1.2-2.4c-0.5-0.3-0.5-0.8-0.3-1.3c0.1-0.4,0.7-0.3,0.9-0.2
	c1.7,0.7,3.6,0.5,5.2,1.5c1,0.6,1.9,0.6,2.6-0.5c0.1-0.2,0.4-0.3,0.6-0.3c1.9,0,3.5-1.4,5.5-1.4c0.8,0,1.3-0.7,1.5-1.4
	c0.2-0.6-0.5-0.9-0.9-1.3c-0.4-0.4-0.9-0.7-1.3-1.1c-0.6-0.6-0.9-1.4-0.4-2.2c0.4-0.7,0.1-1.1-0.3-1.5c1.4-1.7,3.2-0.6,4.9-0.7
	c-0.2-0.5-0.4-0.9-1-0.9c-0.6-0.1-1.4-0.2-1.4-1.2c0.1-0.7,0.8-1.2,0.8-2c0.3,0,0.6,0,0.9,0.1c0.6,0.1,0.9-0.2,1.1-0.7
	c0.2-0.6,0.3-1.2,0-1.7c-0.3-0.4-0.8,0-1.2,0.1c-0.3,0-0.6,0.2-0.9,0.2c-1.6,0.4-1.8,0.2-1.3-1.3c0.2-0.7,0.5-1.6-0.1-1.9
	c-1.1-0.4-1.9-1.5-3.2-1.3c-0.8,0.1-1.4-0.3-2.2-0.3c-0.6,0-2.1-1.6-2-2.2c0.2-0.7-0.2-0.8-0.7-0.8c-0.6,0-1.2,0-1.8,0
	c-0.2,0-0.9-0.1-0.4,0.6c0.2,0.2-0.1,0.3-0.3,0.4c-2.2,1-4.4,1.8-6.9,1.6c-0.7-0.1-1.4-0.3-1.9-0.8c-0.7-0.7-1.6-0.9-2.5-0.9
	c-1.5,0.1-3,0.4-4.5,0.8c-0.3,0.1-0.6,0.4-0.9-0.1c-0.7-1.2-2.2-1.7-3-2.8c-0.2-0.3-0.7-0.3-1-0.2c-0.9,0.4-1.5-0.1-2.2-0.4
	c-0.2-0.1-0.2-0.4-0.6-0.2c-2,0.8-4.1,1.4-5.9,2.5C143.7,83.9,143.3,84.2,143.5,84.3L143.5,84.3z"/>
<path class="st2" d="M153.8,309.4c0.4,0,0.5-0.2,0.6-0.5c0.2-1,0.7-2,0.6-3c-0.3-2.2-0.3-4.3,1.1-6.2c0.1-0.2,0-0.3-0.1-0.5
	c-0.7-1.2-0.9-2.6-0.6-4c0.2-0.7,0.4-1.4-0.6-1.6c-0.3-0.1-0.6-0.3-0.6-0.6c0-0.3,0.3-0.5,0.6-0.7c0.2-0.1,0.5-0.1,0.7-0.2
	c0.3-0.1,0.8,0,0.7-0.6c-0.1-0.5-0.5-0.4-0.9-0.3c-0.8,0-1.5-0.2-1-1.1c0.4-0.9,0.1-1.4-0.3-2c-0.8-1.2-1.9-2.4-1.2-4
	c0.5-1.2,0.3-2.2,0-3.4c-0.6-2.3-0.5-4.6,0.2-6.8c0.2-0.5,0.3-0.9,0.1-1.5c-0.3-0.7,0-1.3,0.8-1.4c0.7-0.1,0.7-0.4,0.5-1
	c-0.4-1.2-0.9-2.4-1.2-3.6c-0.5-2.2,0.1-4.3,1.3-6.2c0.4-0.8,0.9-1.5,0.1-2.4c-0.2-0.2-0.2-0.6-0.1-0.9c0.2-0.9,0.5-1.9,0.7-2.8
	c0.1-0.3,0.2-0.7,0.5-0.8c1.1-0.2,1-1,0.9-1.7c-0.1-0.7,0.1-1.7-0.6-2.1c-1.7-1-1.6-2.7-1.8-4.2c-0.1-0.6-0.1-1.1-0.7-1.5
	c-0.7-0.4-0.9-1.3-0.3-1.7c1-0.6,0.7-1.4,0.7-2.2c0-0.5,0-1,0.4-1.3c0.5-0.5,0.6-1.1,0.3-1.8c-0.5-0.9-0.4-1.8-0.2-2.8
	c0.5-2.3,1.7-4.4,2.5-6.6c0.2-0.7,0.5-1.3,1.2-1.7c0.3-0.1,0.7-0.4,0.5-0.7c-0.8-1.3,0.1-3-0.8-4.3c-0.2-0.3-0.1-0.7,0.1-1
	c0.2-0.3,0.4-0.5,0.3-0.9c-0.8-1.8,0.5-2.4,1.7-3.1c1.8-1.1,2.5-2.9,2-4.9c-0.1-0.3-0.2-0.5-0.5-0.5c-1.4-0.2-1.9-1.2-2.2-2.3
	c-0.6-1.8-0.8-3.8-2.2-5.2c-0.1-0.2-0.3-0.4-0.2-0.7c0.1-0.7-0.3-1-0.9-1.1c-0.6-0.1-0.8-0.5-0.8-1.1c0-0.7,0.4-0.5,0.8-0.5
	c0.4,0,0.6-0.2,0.4-0.7c-0.3-0.6-0.4-1.2,0-1.7c-0.8,0-0.8-0.9-1.2-1.2c-0.4-0.3-0.4-0.8-0.3-1.2c0.3-1-0.2-1.7-1.1-2.4
	c-0.1,1.6-1.2,2-2.4,2c-0.9,0-1.1,0.5-0.8,1.1c1,1.9,0.7,3.9,0.6,5.9c-0.1,0.9-0.1,1.8,0.4,2.6c0.5,0.7,0.4,1.4,0.3,2.2
	c-0.6,2.2-0.2,4.4-0.7,6.6c-0.4,1.9-0.4,4,0.2,5.9c0.1,0.3,0,0.6-0.1,0.9c-0.3,1.1-0.5,2.1-0.3,3.2c0.2,1.8-0.5,3.5-0.5,5.3
	c0,1.6-0.4,3.3-1.2,4.8c-0.4,0.7-0.5,1.5,0,2.3c0.8,1.4,0.6,2.7-0.2,4.1c-0.4,0.8-0.6,1.6-0.2,2.3c1.2,1.7,1.2,3.7,1.4,5.6
	c0.1,1.1-0.2,2.1,0.2,3.1c0.1,0.2,0,0.6-0.4,0.6c-1,0-1,0.7-1,1.3c0.1,2.2,0.5,4.5-0.8,6.5c-0.1,0.1,0,0.3-0.1,0.5
	c-0.1,2-0.8,3.9-1.3,5.8c-0.4,1.4-0.7,2.5-0.4,3.9c0.1,0.3,0.1,0.6,0,0.8c-0.1,0.7,0.1,1.3,0.6,1.9c0.9,1.1,0.9,2.1,0,3.3
	c-0.2,0.3-0.4,0.6-0.3,1c0.1,1.2,0.1,2.4-0.1,3.6c-0.3,1.4,0.1,2.1,1.4,2.9c0.6,0.4,0.9,0.5,1.1-0.3c0.1-0.5,0.3-0.9,0.9-0.8
	c0.5,0.1,0.9,0.4,0.9,1c0,0.8,0.2,1.4,0.7,1.9c-0.2,0.4-0.8,0-0.9,0.4c0.1,0.4,0.6,0.5,0.6,1.1c-0.1,1.4-0.7,2.8-0.1,4.2
	c0.1,0.2,0.1,0.6-0.1,0.8c-0.6,0.7-0.1,0.9,0.4,0.8c1.1-0.3,1.3,0.6,1.6,1.2c0.4,0.6-0.6,0.5-0.7,0.9c-0.2,0.4-0.7,0.7-1.1,1.1
	c-0.6,0.6-0.9,1.2-0.3,2.1c0.5,0.8,0.1,1.7-0.3,2.3c-0.5,0.7-1.2,0.1-1.8-0.2c-0.3-0.1-0.9-0.6-0.9-0.4c-0.1,0.7-0.7,1.6-0.6,1.6
	c0.8,0.4,0.9,1.9,2.3,1.5c0.4-0.1,0.7,0.2,0.9,0.7c0.1,0.4,0.1,0.7-0.3,0.9c-0.2,0.1-0.5,0.1-0.4,0.4c0.1,0.2,0.3,0.4,0.6,0.3
	c0.4-0.1,0.9-0.1,1.3-0.2c0.2,0,0.5-0.1,0.5,0.1c-0.3,1.2,0.6,1.9,1,3l-1.4-0.1c-0.4,0-0.8,0.1-0.8,0.6l0,0c0,0.4-0.2,0.7-0.1,1.1
	c0.1,0.5,0.3,1.5,0.7,1.4C152.1,309.4,152.9,309.5,153.8,309.4L153.8,309.4z"/>
<path class="st2" d="M195.1,201.9c-0.4-1.1-1-2.2-1.6-3.3c-1.2-2.5-4-3.3-6-2.3c-1.3,0.6-2.6,0.8-3.9,0.8c-1.3,0-1.9,0.8-2.7,1.4
	c-1.1,0.9-0.9,1.8-0.6,2.9c0.6,2.2-0.1,4.1-1.7,5.7c-0.2,0.2-0.6,0.3-0.2,0.6c0.7,0.6,1.2,1.5,2,1.9c1.6,0.9,3,2.1,4.4,3.3
	c0.7,0.5,1.4,0.9,2.3,0.8c0.7-0.1,1.3,0.2,1.9,0.7c1.6,1.5,3.4,2.8,5.6,3.4c1.2,0.4,1.5,1.4,0.6,2.2c-1.5,1.3-1.7,3.3-2.8,4.8
	c-0.2,0.3-0.3,0.7-0.1,1c0.2,0.4,0.6,0.2,1,0.1c0.7-0.2,1.4-0.3,2.2,0.1c1.2,0.6,2.2,1.4,3.8,1.1c0.6-0.1,1-0.2,1.3-0.7
	c0.3-0.5,0.9-0.5,1.4-0.2c0.3,0.2,0.5,0.4,0.8,0c0.6-0.9,1.5-1.6,2.2-2.3c0.5-0.6,0.9-1.1,0.7-1.9c-0.4-1.3,0-2.3,0.8-3.3
	c0.5-0.6,0.9-1.3,0.7-2.2c-0.1-0.5-0.4-1-0.4-1.5c0.1-1-0.4-1.2-1.2-1c-0.7,0.1-1.4,0.2-1.7-0.5c-0.5-1.3-1.4-2.6-1-4.2
	c0.2-0.6-0.1-1-0.7-1.3c-1.1-0.5-2.2-0.6-2.9-0.5c-1.6,0-2.7,0.1-3.7-0.5c-0.4-0.2-0.5-0.3-0.3-0.9
	C195.5,204.5,195.6,203.1,195.1,201.9L195.1,201.9z"/>
<path class="st2" d="M111,141.8c-0.2,0.3-0.5,0.6-0.2,0.9c0.3,0.4,0.5,0.1,0.8-0.1c1.6-0.8,2.3-0.5,2.8,1.1c0,0.1,0.1,0.2,0.1,0.3
	c0.1,0.3,0.2,0.4,0.5,0.4c0.3,0,0.4-0.2,0.3-0.5c-0.1-0.4-0.1-0.8,0.3-1c1.4-0.7,1-2.1,0.9-3.1c-0.1-1,0.1-1.2,0.9-1.5
	c0.3-0.1,1,0.1,0.9-0.6c-0.2-0.9,0.3-1.2,1-1.5c0.9-0.4,1.7-0.8,2.6-1.1c3.2-1,5.2-3.4,6.7-6.3c0.1-0.3,0.3-0.6,0.1-0.9
	c-0.9-1.2-0.9-2.9-2.5-3.6c-0.3-0.1-0.5-0.3-0.8-0.5c-0.2,0.6-0.6,1.4-1,1.2c-1.2-0.4-2.6-0.2-3.5-1c-0.8-0.8-1.5-1.3-2.6-1.2
	c-0.5,0-0.8-0.3-1.2-0.5c-0.9-0.6-1.3-1.4-2.9-0.8c-1.4,0.6-2.5,1.3-3.7,2.1c0.8,0.9,0.9,1.9,0.2,2.9c-0.2,0.3-0.4,0.6-0.6,0.9
	c-0.1,0.2-0.3,0.4-0.1,0.6c0.9,0.9,0.3,1.3-0.5,1.7c-0.9,0.4-1.6,1.1-1.2,2.2c0.4,1.2,0.6,2.2-0.2,3.4c1,0,1.8,0.9,2.6-0.1
	c0.5-0.6,1.2-1.1,1.9-0.4c0.6,0.5,0.4,1.7-0.3,2.3c-0.5,0.4-1.1,0.8-1.5,1.4C112.2,140.1,112.2,140.4,111,141.8L111,141.8z"/>
<path class="st2" d="M207.4,244.6c-1.3-0.9-2.1-2.5-3.8-2.9c-0.7-0.2-1.1-1.2-2.1-0.7c-0.3,0.1-0.6-0.1-0.7-0.5
	c-0.4-1-1.1-1.6-1.7-2.4c-0.5-0.7-1.1-1-1.9-0.8c-0.9,0.1-1.2,0.8-1.4,1.6c-0.3,1.4-0.6,2.7-1.6,3.8c-0.4,0.4-0.1,1,0,1.5
	c0.3,1.7,0.3,3.5-0.8,5c-0.9,1.2-0.4,3.5,1,3.6c1.5,0.1,2.3,0.9,3.3,1.8c0.4,0.3,0.9,0.9,1.3,0.6c1.1-0.6,2.1-0.1,3-0.1
	c0.8,0,1.4,0.1,1.8-0.2c1.3-0.9,2.6-1.6,3.6-2.8c1-1.2,0.6-3.1,1.9-4.1c0,0,0-0.1,0-0.1C208.4,246.7,208.5,245.3,207.4,244.6
	L207.4,244.6z"/>
<path class="st6" d="M196.8,105.7c-0.5,1.9-0.1,3,1.4,4.2c1.1,0.9,1.4,2.4,2.5,3.3c0.1,0,0.1,0.2,0.1,0.2c-0.1,1.4,0.7,2,1.9,2.2
	c0.4,0.1,0.7,0.6,1.1,0.1c0.3-0.4-0.2-0.6-0.4-0.9c-0.3-0.3-0.6-0.7-0.2-1.2c0.3-0.5,0.9-0.4,1.3-0.2c0.4,0.3,0.7,0.2,1.1,0
	c0.8-0.5,1.6-0.6,2.4,0.2c0.2,0.2,1,0.7,1.1-0.1c0.2-1.9,1.1-3.8,0.2-5.9c-0.7-1.6-0.9-3.6,0.4-5.2c0.3-0.4,0.2-0.6-0.2-0.9
	c-0.6-0.4-1.2-0.4-2-0.4c-1.7,0-3.4,0.3-5.1,0c-0.8-0.2-1.5-0.4-2.3-0.6c-0.2,0-0.5,0-0.5,0.2c-0.1,0.7-0.9,1.1-0.8,2
	c0.1,0.3,0,0.8-0.3,0.8C197.1,103.9,197,104.7,196.8,105.7L196.8,105.7z"/>
<path class="st6" d="M91.6,83.6c0.7,1.1,1.5,2.1,2.8,2.6c0.5,0.2,1.1,0.5,1.1-0.2c0-1.4,0.4-2.7,0.5-4c0.2-2.3-0.2-4.8,1-7
	c0.3-0.5,0.3-1.2,0.4-1.9c0.1-0.8-0.1-1.1-1-0.7C95.3,73,94,73.8,92.6,73c-0.3-0.2-0.4,0.2-0.5,0.4c-0.5,1.5-1.9,2.3-3.2,2.3
	c-1.2,0-1.8,1.1-2.9,0.9c-0.1,0-0.2,0.1-0.2,0.2c0,1.6-1.3,2-2.5,2.5c1.7,1.7,3,3.6,5,4.9c-0.1-0.2-0.1-0.4-0.2-0.6
	c-0.1-0.2-0.2-0.4-0.2-0.7c-0.1-0.8,0.4-1.4,1.1-1.1C89.9,82.5,90.9,82.6,91.6,83.6L91.6,83.6z"/>
<path class="st6" d="M189.2,96.4c0.3-0.1,0.3,0.3,0.3,0.5c0.1,0.9-0.3,1.7-1.3,1.8c-0.9,0.1-1.9,0-2.9,0c-0.4,0-1.1-0.4-1.1,0.1
	c-0.1,0.8-1.2,1.5-0.3,2.3c1,0.9,1.8,2,3.4,1.8c1.2-0.1,1.8,0.8,1.3,1.9c-0.3,0.6-0.2,1,0.1,1.5c0.9,1.6,1.1,3.2,0.3,4.9
	c-0.7,1.3-0.3,2.6,0.1,3.8c0.5,1.4,1.7,1.5,3,1.4c0.6,0,0.9-0.1,1-0.7c0.2-0.8,0.4-1.6,0.7-2.4c0.5-1.7,0.2-3.4-0.7-4.9
	c-0.3-0.6-0.6-0.9-0.4-1.6c0.1-0.4-0.2-0.6-0.4-0.8c-1.6-1.6-1.6-2.6-0.4-4.3c0.2-0.3,0.1-0.5,0.1-0.8c0.2-1.6-0.3-3.2,0.3-4.7
	c0.1-0.3,0-0.6-0.3-0.7c-1-0.7-1.7-1.5-1.9-2.7c-0.1-0.5-0.6-0.5-0.9-0.6c-0.3-0.1-0.4,0.2-0.4,0.3c-0.2,1.4-1.2,2-2.4,2.6
	C187.5,95.4,188,96.7,189.2,96.4L189.2,96.4z"/>
<path class="st6" d="M210,107.3c0.7,1.6,0.7,3.2,0.2,4.9c-0.1,0.4-0.1,0.9-0.1,1.3c0,0.4-0.2,0.9,0.4,1.1c0.5,0.2,0.7-0.3,0.9-0.6
	c1.2-1,2.9-0.8,3.4,0.3c1.7-1.2,2.8-2.8,3.3-4.7c0.2-1,0.7-2.3-0.1-3.3c-0.9-1.1-2.2-1.8-3.1-2.9c-0.2-0.2-0.5-0.2-0.8-0.2
	c-0.9,0.1-1.7-0.2-2.3-0.8c-0.5-0.5-0.8-0.3-1.1,0.1C209.4,104.1,209.3,105.7,210,107.3z"/>
<path class="st2" d="M94.7,46c1.1-0.4,2.4-0.5,3.1-1.3c1.6-1.7,3.3-1.2,5.1-0.9c0.5,0.1,0.8,0.5,0.7,0.8c-0.8,1.5,0.5,0.9,1,0.9
	c1,0,2.1-0.2,2.9,0.4c1.3,1.1,2.8,1.3,4.3,1.3c1.4,0,2.2,0.5,2.6,1.8c0.3,1,1,1.3,2,1.3c0.6,0,1.2-0.1,1.8,0.2
	c0.5,0.2,1.3,0.2,1.3,1c0.1,0.8-0.7,0.9-1.1,1.2l0.3,0.3c1.4,0,2.7-0.6,4.2-0.2c1.7,0.5,3.1,0,4.6-1c-0.9-0.9-1.8-1.4-3-1.2
	c-0.6,0.1-1.4,0.2-1.4-0.9c0-0.3-0.3-0.1-0.4-0.2c-1-0.3-2.2-0.5-2.9-1.1c-0.8-0.7-1.6-1-2.5-1.3c-0.8-0.2-1.6-0.7-2.4-1
	c-0.9-0.4-1.7-1.2-2.8-1.1c-0.9,0.1-1.7-0.3-2.4-0.8c-0.6-0.4-1-1.1-1.8-1c-1.1,0-2.1-0.3-3.1-0.4c-2.9-0.4-5.7,0.2-8.4,1.2
	c-0.5,0.2-1,0.5-1.5,0.8c-0.4,0.3-0.3,0.7-0.3,1.1C94.4,46,94.5,46.1,94.7,46L94.7,46z"/>
<path class="st6" d="M83.8,69.4c-2.3-0.5-2.7-0.3-3.6,1.9c-0.6,1.4-0.1,2.2,1.4,2.5c1.5,0.3,2.1,1.3,1.8,2.7c0,0.2-0.1,0.3-0.2,0.4
	c-0.2,0.4-0.1,0.9,0.2,1.1c0.4,0.2,0.7-0.2,1-0.5c0.3-0.2,0.3-0.6,0.2-0.9c0-0.5,0.2-0.9,0.7-1c0.8-0.2,1.5-0.3,2-1
	c0.1-0.1,0.4-0.1,0.6,0c1.5,0.2,2.6-0.4,3.2-1.7c0.3-0.6,0.8-1.4,1.5-1c1.6,0.9,2.6-0.2,4.1-0.8c-0.6-0.3-1.1-0.5-1.4-0.7
	c-2.2-1.9-4.8-1.4-7.4-1.4C86.7,69,85.3,69.8,83.8,69.4L83.8,69.4z"/>
<path class="st6" d="M76.5,69.8c-1.4-1.1-1.6-2.5-1.4-4.1c0.2-1.2,0.2-2.5,0.2-3.7c0-0.3,0.1-0.8-0.4-0.9c-1-0.1-2,0-3,0
	c-0.3,0-0.5,0.3-0.5,0.6c0.1,1-0.5,1.1-1.3,1c0.3,1.2,1.5,1.5,2,2.3c0.4,0.6,1,1.1,0.6,1.8c-0.4,0.7-1.2,0.8-1.8,0.6
	c-1.7-0.5-2.5,0.3-3.1,1.7c-0.1,0.3-0.5,0.6-0.6,0.9c-0.2,0.8-1,1.6-0.3,2.5c0.7,0.9,1.7,1.6,2.7,2.2c0.9,0.5,2.2,0.2,2.9-0.7
	C74,72.7,74.7,70.9,76.5,69.8L76.5,69.8z"/>
<path class="st2" d="M0.3,12c1.1,1.6,1.4,3.4,1.5,5.2c0,0.6-0.2,0.4-0.5,0.2c-0.5,0.9-0.1,1.8-0.2,2.7l0,0c0.7,0.4,1.2,1.3,2.3,0.9
	c-0.7,1.5-0.1,2.4,0.9,3.1C4.6,24.4,4.8,24.7,5,25c0.6,1.2,0.5,2.4,0,3.6c-0.2,0.3-0.6,0.8-0.1,1.1C5.5,30,5.6,30.7,6,31.2
	c1.3,1.2,2.5,2.5,3.1,4.3c0.2,0.5,0.5,0.6,0.9,0.4c0.4-0.2,0.7-0.6,0.4-1.1c-0.4-0.5-0.6-1.1-0.8-1.7c-0.1-0.4-0.4-0.8-0.8-0.8
	c-1.3,0-1.6-1-1.6-1.8c-0.1-2.1-0.7-4.2-1.2-6.3c-0.1-0.4,0-0.9-0.4-1.1s-0.5,0.6-1,0.4c0.2-0.9,0-1.7-0.2-2.6
	c-0.4-1.9-0.5-3.9-1.6-5.6c-1-1.6-1-3.4-0.7-5.2C2.4,9.1,2.4,8,2.3,6.9C2,5,1.6,3.1,1.3,1.2C1.2,0.5,0.9,0.1,0.1,0
	c0,0.2,0,0.4,0,0.6c0,2.8,0.3,5.5,0.1,8.3C0,9.9-0.2,11.2,0.3,12L0.3,12z"/>
<path class="st6" d="M192.4,104.7c1.1,0.8,1.6,1.7,1.7,3c0,0,0.1,0.1,0.1,0.1c0.8,1.5,0.8,3.2,1.4,4.7c0.1,0.1,0,0.4-0.1,0.4
	c-0.6,0.6-0.6,1.6-0.9,2.3c-0.1,0.3-0.4,0.7-0.1,0.9c0.4,0.2,0.8,0.6,1.3,0.4c1.2-0.6,2.6-0.8,3.8-1.5c0.1-0.1,0.3-0.1,0.2-0.3
	c-0.2-0.6,0-1.4-0.8-1.7c-0.6-0.3-0.9-0.8-1-1.4c0-0.4-0.3-0.6-0.6-0.8c-1.9-1.4-2.4-3-1.7-5.2c0.1-0.3,0-0.6,0-0.9
	c-0.2-0.8,0.1-1.4,1-1.6c0.5-0.1,1.5-2,1.1-2.3c-1.1-1-1.9-2.5-3.8-2.5c-0.5,0-1.2-0.2-1,0.7c0.3,0.9-0.3,1.8,0,2.7
	c0.1,0.3-0.1,0.8-0.6,1.1C191.9,103.3,192,104.4,192.4,104.7L192.4,104.7z"/>
<path class="st6" d="M130.2,59.7c2.1,0.1,4.2,0.5,6.2-0.4c0.4-0.2,0.8-0.1,1.2,0.2c0.5,0.4,0.9,1.3,1.4,1.2c0.6-0.1,1-0.8,1.5-1.3
	c0.1-0.1,0.2-0.2,0.3-0.2c0.6-0.6,1.2-0.9,1.8,0.1c0.2,0.4,0.5,0.4,0.9,0.1c1.3-1.1,4-1.1,5.3,0c0.5-1.3,0.5-1.4-0.8-1.5
	c-1-0.1-1.9-0.4-2.6-1.2c-1.3-1.6-3.1-2.1-5.1-2.2c-1.9,0-3.7,0.3-5.6-0.2c-0.3-0.1-0.7-0.1-1,0.3c0.9,0.1,1.2,0.5,1.1,1.5
	c0,0.4,0.3,0.8,0.5,1.2c0.1,0.3,0.8,0.5,0.4,1c-0.5,0.5-0.8,1.3-1.7,1.2c-1.3-0.1-2.5-0.3-3.8-0.5c-0.4-0.1-0.9-0.3-1,0.2
	C129.2,59.5,129.8,59.6,130.2,59.7L130.2,59.7z"/>
<path class="st6" d="M98.8,91.1c-0.6-0.7-1.1-1.4-1.6-2.2c-0.6-0.8-0.8-2-2.2-1.3c-0.1,0.1-0.3-0.1-0.4-0.2c-1.3-1-3-0.6-4.4-1.1
	c-0.5-0.2-0.9,0.2-0.7,0.7c0.2,0.5,0.1,0.9-0.1,1.4c-0.4,0.8,0.2,1.3,0.7,1.7c0.7,0.6,0.7-0.2,1-0.4c0.6-0.5,1.3-0.4,1.7,0.3
	c0.7,1.2,1.7,2,3,2.5c0.8,0.3,1.4,0.8,1.4,1.7c0,0.2,0.1,0.5,0.3,0.4c0.9-0.4,1.3,0.4,2.1,0.7c-0.1-0.6-0.1-1-0.1-1.5
	C99.1,92.9,99.4,91.9,98.8,91.1L98.8,91.1z"/>
<path class="st6" d="M81.4,74.7c-0.7-0.1-1.4-0.3-2.1-0.4C78,74,78,74,78.6,72.7c0.4-1,1.1-2,1.2-3.2c-1.3,0.1-1.3,1.2-1.6,2
	c-1.2-0.8-1.7-0.7-2.6,0.5c-0.5,0.8-1.1,1.5-1.6,2.2c-0.5,0.7-0.4,1.1,0.4,1.3c1.4,0.4,2.9,0.8,4.4,1.2c0.8,0.2,1.6,0.4,2.4,0.5
	c0.8,0.1,1.3-0.3,1.4-1.1C82.6,75.3,82.3,74.8,81.4,74.7L81.4,74.7z"/>
<path class="st2" d="M225.3,124.9c-1-0.1-1.4,0.4-1.4,1.1c0,0.8-0.2,1.6-0.4,2.3c-0.2,0.7,0.4,1.6,1,1.4c1.5-0.5,3.1-0.3,4.7-0.4
	c0.4,0,0.9-0.1,1-0.7c0.1-0.5,0.5-0.8,0.8-1.1c0.6-0.6,1-1.6,0.8-2.2c-0.2-0.7-1.3-0.6-2-0.6c-0.3,0-0.6,0.2-0.9,0.2
	c-1.1,0.1-2.1,1.1-3.1,0C225.4,124.9,225.2,124.9,225.3,124.9L225.3,124.9z M225.9,126.2c-0.1,0.5-0.5,1-1,1c-0.7,0-0.3-0.7-0.4-1
	c-0.2-0.6,0.2-0.7,0.6-0.7C225.6,125.6,226,125.7,225.9,126.2L225.9,126.2z"/>
<path class="st2" d="M156.7,314.8c0.1-0.5-0.2-0.9-0.7-0.6c-1.6,0.9-1.6-0.5-1.9-1.3c-0.4-0.9,0-2-0.1-3c-0.6,0.2-1.1,0.3-1.6,0.5
	c-1,0.5-1.6,2.4-0.9,2.8c0.9,0.5,1.2,1.2,1.4,2.1c0.1,0.5,0.1,1.1,0.7,1.3c0.6,0.2,0.6,0.6,0.4,1c-0.2,0.5-0.2,1,0.1,1.1
	c0.4,0.2,0.8-0.2,1-0.7c0.1-0.2,0.1-0.5,0.4-0.6c0.3,1,1.2,0.3,1.8,0.6C156.9,317.1,156.5,316,156.7,314.8L156.7,314.8z"/>
<path class="st7" d="M157.4,318.1L157.4,318.1C157.4,318.1,157.4,318.1,157.4,318.1L157.4,318.1L157.4,318.1L157.4,318.1
	L157.4,318.1z"/>
<path class="st2" d="M164.6,320.9c-0.2,1.2-1.8,1.2-2.1,2.6c0.4,0,0.7,0,1,0c0.5,0,1-0.2,1.2,0.4c0.2,0.6-0.3,0.9-0.8,1.1
	c-0.4,0.2-0.6,0.4-0.5,0.8c0.1,0.4,0.4,0.6,0.8,0.7c0.8,0.2,1.6,0.2,2.4,0.4c0.7,0.2,1-0.1,0.8-0.8c-0.1-0.4-0.2-0.7-0.2-1
	c-0.1-0.9-0.4-1.8-0.3-2.6c0.1-0.6,0.1-1.5-0.1-1.5C166.1,320.9,165.4,321.2,164.6,320.9L164.6,320.9z"/>
<path class="st8" d="M157.4,318.1L157.4,318.1C157.4,318.1,157.4,318.1,157.4,318.1L157.4,318.1L157.4,318.1z"/>
<path class="st2" d="M164.5,319.1c-1.4-0.6-2.7,0-4,0.1c-1.2,0.1-2.3,0-3.1-1.1c-0.4,1.1-1.1,1.9-2.1,2.5c-0.7,0.4-0.8,0.7-0.2,1.3
	c1.2-1.9,3.9-1.9,5.2,0c0.2-0.1,0.4-0.1,0.6-0.2c0-0.9,0.8-1.1,1.4-1.4C163.1,320,163.9,319.8,164.5,319.1L164.5,319.1z"/>
<polygon class="st8" points="157.4,318.1 157.4,318.1 157.4,318.1 "/>
<path class="st9" d="M80.4,59.8c-0.2-0.1-0.5-0.2-0.5-0.2c-0.6,0.8-1.5,1.6-1.5,2.4c0.1,1.5,0,2.9,0.2,4.6c1.4-0.8,1.8-1.9,1.6-3.2
	c-0.1-1-0.4-2,0.3-3C80.7,60.2,80.6,59.9,80.4,59.8L80.4,59.8z"/>
<path class="st10" d="M77.1,68.9c0.2,0.2,0.3,0.6,0.6,0.4c0.3-0.2,0.4-0.5,0.2-0.9c-0.7-1.9-0.2-3.9-0.6-5.9
	c-0.1-0.3,0.1-0.7-0.4-0.7c-0.4,0-0.5,0.3-0.5,0.7c0,1.4,0.1,2.8-0.3,4.1C75.9,67.7,76.4,68.3,77.1,68.9L77.1,68.9z"/>
<path class="st11" d="M155,60.2c0.5,0,0.9,0,1.6,0c0.6-0.1,1.3,0.2,2-0.3c0.2-0.2,0.6-0.5,0.1-0.6c-1.3-0.3-2.6-0.5-4-0.2
	c-0.2,0.1-0.5,0.3-0.4,0.6C154.4,60.1,154.7,60.1,155,60.2L155,60.2z"/>
<path class="st2" d="M116.8,59.5c-0.2,0-0.4,0.1-0.5,0.2c-0.1,0.2,0.1,0.3,0.3,0.4c1.4,0.8,2.8,1.1,4.5,0.1
	C119.6,59.6,118.3,59.3,116.8,59.5L116.8,59.5z"/>
<path class="st2" d="M170.3,327.6c0.2-0.1,0.5-0.1,0.7-0.2c-0.1-0.2-0.1-0.5-0.2-0.8l-2.7-2.2c0.1,0.8,0.2,1.3,0.3,1.9
	C168.6,327.9,168.9,328.1,170.3,327.6L170.3,327.6z"/>
<path class="st2" d="M147.8,287.9c0.1-0.5,0.6-1,0.1-1.4c-0.7-0.6-0.7-1.2-0.1-1.9c0.2-0.2,0.2-0.5,0-0.8c-0.2-0.4-0.6-0.1-0.9-0.1
	c-0.4,0-0.4,0.3-0.4,0.6c0,0.4,0,0.7,0.1,1.1c0.3,0.7,0.4,1.3,0,2c-0.3,0.5,0.1,0.8,0.7,0.9C147.6,288.3,147.7,288.1,147.8,287.9
	L147.8,287.9z"/>
<path class="st12" d="M171,327.5c1.4,1.2,1.9,1.2,3.3,0.4c-1.5,0.2-2.4-0.6-3.5-1.1C170.9,327,171.2,327.2,171,327.5z"/>
<path class="st2" d="M170.8,326.7c0.1,0.2,0.1,0.5,0.2,0.8C171.2,327.2,170.9,327,170.8,326.7z"/>
<path class="st13" d="M149.6,137.9c0-0.6,0.1-1.1,0.1-1.6c-0.1-0.3,0-0.6-0.3-0.8c-0.4,0.5-0.8,1.1-1.2,1.6L149.6,137.9z"/>
<path class="st2" d="M98.7,46.6c-0.3,0.1-0.4,0.3-0.3,0.7c0.1,0.2,0.3,0.4,0.1,0.7c-0.2,0.2-0.7-0.6-0.6,0.2c0,0.3,0.4,0.2,0.7,0.2
	c0.3,0,0.7,0,0.8-0.3c0.2-0.5-0.2-0.8-0.3-1.2C99.3,46.6,99,46.4,98.7,46.6z"/>
<path class="st14" d="M1.3,17.5c-0.3-0.5-0.7-0.4-1,0c-0.2,0.2-0.3,0.5-0.1,0.6c0.4,0.4,0.3-0.5,0.6-0.3C1,18.6,0.6,19.4,1,20.1
	C1,19.2,0.6,18.3,1.3,17.5z"/>
<path class="st14" d="M1.3,17.5C0.6,18.3,1,19.2,1,20.1l0,0C1.2,19.3,0.8,18.3,1.3,17.5z"/>
<path class="st2" d="M158.7,324.4c0.6,0.3,1.1,0.6,1.7,0.6C160.3,324.3,159.7,324.1,158.7,324.4z"/>
<path class="st2" d="M175.7,283.6c0.5-0.2,0.4-0.8,0.3-1.4c-0.5,0.2-0.3,0.6-0.6,0.8C174.8,283.6,175.2,283.8,175.7,283.6
	L175.7,283.6z"/>
<path class="st2" d="M158.1,322.2c-0.3,0.3-1.1,0-1,1.1c0.5-0.8,1.3-0.4,1.8-0.8C158.6,322.5,158.3,322.5,158.1,322.2L158.1,322.2z"
	/>
<path class="st15" d="M160.3,321.9c0.3,0.5,0.1,1.1,0.2,1.6c0.1-0.6,0.3-1.2,0.4-1.8C160.8,321.9,160.6,322.1,160.3,321.9
	L160.3,321.9z"/>
<path class="st15" d="M160.9,321.7c-0.2,0.1-0.4,0.1-0.6,0.2C160.6,322.1,160.8,321.9,160.9,321.7z"/>
<path class="st16" d="M121.8,94.7c-0.1-0.1-0.1-0.3-0.2-0.4c-0.2-0.1-0.2,0.1-0.2,0.3c0,0.6,0,1.2,0.1,1.8
	C121.8,95.9,121.2,95.1,121.8,94.7L121.8,94.7z"/>
<path class="st16" d="M121.8,94.7c-0.7,0.4-0.1,1.2-0.4,1.7C122,95.9,121.4,95.2,121.8,94.7z"/>
<path class="st17" d="M162.3,328c0.6,0.4,0.9,0.2,1.6-0.2C163.2,327.8,162.9,327.6,162.3,328z"/>
<path class="st2" d="M148.6,79.6c0.1,0.4,0.4,0.5,0.9,0.5c-0.2-0.4-0.2-0.8-0.7-0.7C148.7,79.4,148.6,79.5,148.6,79.6z"/>
<path class="st2" d="M168.4,329.3c0.5,0.6,0.9,0.4,1.4,0C169.3,329.1,168.9,329.1,168.4,329.3z"/>
<path class="st2" d="M156.7,325.1c-0.1,0.1-0.2,0.2-0.2,0.3c0,0.4,0.4,0.3,0.6,0.4c0.2,0.1,0.3-0.1,0.2-0.3
	C157.2,325.3,157,325.1,156.7,325.1L156.7,325.1z"/>
<path class="st18" d="M79.3,77.8c-0.5-0.1-0.9-0.2-1.3-0.3C78.4,77.9,78.8,78,79.3,77.8z"/>
<path class="st19" d="M151.4,306.6c-0.5-0.2-0.9-0.3-1.5-0.2c0.3,0.3,0.5,0.5,0.7,0.8C150.4,306.3,151,306.5,151.4,306.6z"/>
<path class="st19" d="M151.4,306.6c-0.5-0.1-1-0.3-0.8,0.6l0,0C150.7,306.7,151.1,306.7,151.4,306.6z"/>
<path class="st20" d="M158.9,322.5c0-0.6-0.1-0.6-0.8-0.3C158.4,322.3,158.7,322.2,158.9,322.5z"/>
<path class="st20" d="M158.1,322.2c0.2,0.3,0.5,0.2,0.8,0.3C158.7,322.2,158.4,322.3,158.1,322.2z"/>
<path class="st21" d="M149.8,136.2c0.3-0.5,0.2-1,0.1-1.8l-0.4,1C150.1,135.6,149.7,136,149.8,136.2z"/>
<path class="st21" d="M149.5,135.4c0.3,0.2,0.2,0.5,0.3,0.8C149.8,135.9,150.1,135.5,149.5,135.4z"/>
<path class="st22" d="M214.1,243.8c-0.2,0-0.4,0.1-0.4,0.3c0,0.1,0.2,0.2,0.2,0.3c0.3,0.1,0.4,0,0.4-0.2
	C214.4,244,214.4,243.8,214.1,243.8L214.1,243.8z"/>
<path class="st23" d="M157.9,314.6c0,0.2,0,0.3-0.1,0.5C158.1,314.9,158.1,314.8,157.9,314.6z"/>
<path class="st23" d="M158.7,314.9c-0.2-0.3-0.5-0.3-0.8-0.3c0.2,0.2,0.2,0.3-0.1,0.5C158.1,315,158.4,315.1,158.7,314.9
	L158.7,314.9z"/>
<path class="st24" d="M118.3,52.7c-0.3,0-0.5,0.1-0.6,0.5c0.3,0,0.6,0,0.9-0.2C118.3,53.1,118.3,52.9,118.3,52.7L118.3,52.7z"/>
<path class="st24" d="M118.6,53l-0.3-0.3C118.3,52.9,118.3,53.1,118.6,53z"/>
<path class="st25" d="M215.5,240.8c-0.1,0.1,0,0.2,0.1,0.2c0.1-0.1,0.2-0.2,0.3-0.3c-0.1-0.1-0.1-0.2-0.1-0.2
	C215.7,240.6,215.6,240.7,215.5,240.8L215.5,240.8z"/>
<path class="st26" d="M171.9,211.1c0.1-0.1,0.2-0.4,0.3-0.6c-0.1,0.1-0.3,0.2-0.4,0.2l0,0C171.9,210.9,172,211.1,171.9,211.1
	L171.9,211.1z"/>
<path class="st26" d="M172.2,210.5c-0.1,0.2-0.2,0.5-0.3,0.6c0.1-0.1,0-0.2-0.1-0.4l0.1,0.6C172.1,211.1,172.2,210.8,172.2,210.5
	L172.2,210.5z"/>
<path class="st27" d="M224.5,126.2c0.1,0.3-0.3,1,0.4,1c0.5,0,0.9-0.5,1-1c0.1-0.5-0.3-0.6-0.8-0.7
	C224.7,125.6,224.3,125.7,224.5,126.2L224.5,126.2z"/>
</svg>
