<?xml version="1.0" encoding="UTF-8"?><svg xmlns="http://www.w3.org/2000/svg" viewBox="0 0 428.75 348"><defs><style>.j,.k{opacity:.7;}.l,.m,.n,.o,.p,.k,.q,.r,.s,.t{fill:#fff;}.u,.v,.r,.t{opacity:.6;}.u,.w,.x{fill:#407bff;}.y{fill:#fafafa;}.a`,.o,.p,.x{opacity:.5;}.aa{stroke:#fff;}.aa,.ab,.ac,.ad{fill:none;}.aa,.ac,.ad{stroke-miterlimit:10;}.m{opacity:.8;}.m,.v,.p,.ae,.af,.ag,.ah,.s,.t{isolation:isolate;}.n,.ah{opacity:.4;}.ai{fill:#ba4d3c;}.aj,.ag,.ah{fill:#f5f5f5;}.ak{fill:#e9a527;}.al{fill:#ebb376;}.v,.am{fill:#263238;}.an,.ae,.af,.q,.s{opacity:.2;}.ab{stroke:#e0e0e0;stroke-linecap:round;stroke-linejoin:round;stroke-width:1.8px;}.ao{fill:#de5753;}.ap{fill:#ce7a63;}.ae,.aq{fill:#506b70;}.ar{opacity:.3;}.ac{stroke:#263238;stroke-width:.85px;}.as{fill:#6ea0f9;}.at{fill:#5a6d8c;}.au{fill:#e9b376;}.av{fill:#ebebeb;}.ad{stroke:#506b70;stroke-width:2px;}.aw{fill:#d58745;}.ax{fill:#a02724;}</style></defs><g id="a"/><g id="b"/><g id="c"/><g id="d"/><g id="e"/><g id="f"/><g id="g"/><g id="h"><g><g><rect class="av" x="2.36" y="293.7" width="424.04" height=".21"/><rect class="av" x="355.82" y="307.35" width="28.09" height=".21"/><rect class="av" x="275.88" y="309.65" width="7.37" height=".21"/><rect class="av" x="338.69" y="299.47" width="16.28" height=".21"/><rect class="av" x="46.84" y="300.9" width="36.63" height=".21"/><rect class="av" x="91.03" y="300.9" width="5.37" height=".21"/><rect class="av" x="113.85" y="304.48" width="79.44" height=".21"/><path class="av" d="M203.36,255.88H39.6c-2.67,0-4.84-2.17-4.84-4.84V20.84c0-2.67,2.17-4.84,4.84-4.84H203.36c2.67,0,4.84,2.17,4.84,4.84V251.03c0,2.67-2.17,4.84-4.84,4.84ZM39.6,16.21c-2.55,0-4.63,2.08-4.63,4.63V251.03c0,2.55,2.08,4.63,4.63,4.63H203.36c2.55,0,4.63-2.08,4.63-4.63V20.84c0-2.55-2.08-4.63-4.63-4.63H39.6Z"/><path class="av" d="M386.8,255.88H223.04c-2.67,0-4.84-2.17-4.84-4.84V20.84c0-2.67,2.17-4.84,4.84-4.84h163.76c2.67,0,4.84,2.17,4.84,4.84V251.03c0,2.67-2.17,4.84-4.84,4.84ZM223.04,16.21c-2.55,0-4.63,2.08-4.63,4.63V251.03c0,2.55,2.08,4.63,4.63,4.63h163.76c2.55,0,4.63-2.08,4.63-4.63V20.84c0-2.55-2.08-4.63-4.63-4.63H223.04Z"/></g><g><path class="ab" d="M347.46,112.56c10.67,28.14-40.75,73.73-114.84,101.82-74.1,28.09-142.81,28.04-153.48-.1"/><path class="ab" d="M298.66,282.56c-24.19,17.91-82.02-19.21-129.16-82.9-47.14-63.69-65.75-129.84-41.56-147.75"/><g><path class="av" d="M102.25,176.5c-.03-3.71,.13-7.37,.46-10.98,2.79-30.94,18.22-58.27,41.11-76.76,18.97-15.32,43.07-24.57,69.35-24.76,.68,0,1.36,0,2.03,0,14.04,.15,27.46,2.9,39.8,7.78h0c37.73,14.93,65.44,49.8,69.99,91.71,.4,3.76,.63,7.56,.66,11.42,.07,9.31-1.01,18.36-3.1,27.02-6.17,25.65-21.2,47.89-41.7,63.25-18.44,13.8-41.3,22.05-66.11,22.23-13.29,.09-26.06-2.14-37.9-6.31-43.17-15.2-74.25-56.2-74.59-104.6Z"/><g><path class="ah" d="M180.48,257.08c-2.1,.2-3.04,2.78-3.47,4.88-.63,3.16-1.28,6.31-1.91,9.47,3.84,1.8,3.53,6.49,1.73,9.67-43.17-15.2-74.25-56.2-74.59-104.6-.03-3.71,.13-7.37,.46-10.98,.09-.06,.19-.11,.29-.16,3.04-1.44,5.45,1.16,7.74,2.63,.52,.33,7.21,3.58,7.3,2.68-.28,2.92-.12,5.89,.47,8.76,.04,.22,.11,.46,.29,.58,.44,.3,.93-.3,1.09-.81,.41-1.29,.58-2.65,1.06-3.91,.48-1.26,1.37-2.47,2.65-2.88,1.3-.41,2.71,.07,4.05-.12,1.64-.23,3.01-1.45,3.84-2.88,.8-1.38,1.17-2.99,1.57-4.51,1.58,3.5,5.58,1.34,7.93,4.18,.76,.91,1.66,2.22,2.76,1.78,1.04-.42,1.16-2.2,2.28-2.34,.78-.1,1.35,.76,1.47,1.54,.12,.78-.01,1.61,.32,2.33,.46,1,1.86,1.44,2.81,.86,.85-.51,1.18-1.56,1.71-2.4,.53-.84,1.67-1.55,2.47-.96,.19,.14,.33,.33,.44,.54,.78,1.49-.1,3.3-1.14,4.63-1.04,1.32-2.32,2.65-2.43,4.32,.6,.43,1.56,.23,1.94-.41,.13-.22,.2-.49,.4-.65,.43-.36,1.06-.02,1.54,.29,2.22,1.43,5.02,1.93,7.59,1.35,.19-3.4,.38-6.81,.58-10.21,.77-.03,1.23-.08,1.53-.87,2.55,2.49,4.89,5.16,7.71,7.41,.34,.27,.7,.56,.81,.98,.12,.43-.06,.89-.03,1.34,.09,1.49,2.08,1.88,3.57,1.84,.43,.24,.18,.95-.25,1.19s-.97,.26-1.36,.57c-.58,.45-.59,1.34-.38,2.05,.74,2.46,3.75,3.96,6.16,3.07,.29-.11,.58-.25,.75-.5,.38-.56,.02-1.29-.05-1.96-.27-2.64,2.57-2.02,3.89-1.29,1.78,.99,2.78,3.61,3.11,5.49,.39,2.19,2.05,16.74,6.9,14.73,.46-.19,.78-.6,1.02-1.03,.7-1.32,.65-2.91,1.17-4.32,.51-1.4,2.11-2.69,3.42-1.96,.52,.29,.86,.84,1.36,1.17,1.4,.92,3.38-.18,4.9,.51,.7,.32,1.18,.97,1.82,1.4,.63,.43,1.63,.57,2.08-.05,.5-.7-.09-1.76,.32-2.51,.43-.79,1.77-.63,2.23,.15,.45,.78,.18,1.81-.38,2.52-.29,.37-.67,.71-.77,1.17-.17,.83,.61,1.52,1.31,2,1.11,.77,2.21,1.53,3.32,2.3-.07,.77-.82,1.3-1.56,1.51-.74,.21-1.53,.2-2.27,.44-3.55,1.18-3.53,6.44-8.18,5.41,.28-1.4-1.21-2.82-2.6-2.48-1.71,.42-2.81,2.85-4.5,2.37-.59-.17-1.04-.68-1.63-.82-1.64-.39-2.44,2.13-2.91,3.21-1.53,3.56,.85,3.99,.75,7.17-.04,1.45-1.12,2.68-1.39,4.11-.25,1.32,.22,2.68,.04,4.01-.49,3.65-5.32,1.44-7.46,1.01,1.16,2.07-.57,4.58-2.45,6.02-2.9,2.2-2.4,2.01-2.76,5.19-.1,.84-.58,1.69-1.37,1.97-1.39,.49-2.73-.88-4.2-1.02-.7-.07-1.41,.15-2.11,.03-1.83-.31-2.46-2.55-3.65-3.97-1.04-1.24-2.72-1.92-4.33-1.75-.13,.94-.13,1.89-.01,2.83,1.02,.63,2.05,1.26,3.07,1.89,.9,.56,1.84,1.15,2.4,2.05,.31,.51,.51,1.11,.96,1.49,.9,.77,2.25,.3,3.44,.23,2.86-.19,7.53,1.6,10.29,2.51,2.94,.97,3.97,3.05,6.68,3.98,.48,.16,.59,.86,.3,1.28-.28,.42-.8,.61-1.3,.69-1.16,.2-2.38,0-3.41-.56,1.35,.74-2.59,4-3.31,4.16-1.17,.26-2.74-.62-3.93-.68-2.95-.15-4.66,.44-2.72,3.65,.74,1.23,1.61,2.79,.79,3.97-.78-.32-1.72,.14-2.16,.87s-.47,1.62-.37,2.46c.06,.57,.2,1.17,.62,1.56,.22,.21,.51,.35,.68,.6,.55,.83-.58,1.73-1.51,2.09"/><path class="ah" d="M278.23,129.12c-.92-.69-2.22-.13-3.18,.5-.96,.63-2.08,1.37-3.16,.98l-.06-3.99c0-.25-.02-.53-.2-.7-.18-.17-.47-.17-.72-.16-.86,.04-1.71,.08-2.57,.12-.71,.79,1.28,1.74,.99,2.77-.13,.45-.64,.65-1.05,.87-3.53,1.89-1.29,5.83,.31,7.97,1.86,2.48,1.73,5.86,1.53,8.96-.07,1.1-.2,2.33-1.05,3.05-.82,.71-2.04,.66-3.09,.97-1.83,.53-3.12,2.15-4.83,2.99-5.97,2.94-9.91-3.45-7.96-8.49,1.01-2.61,1.44-2.11,.86-4.9-.24-1.16,.14-2.54-1.07-3.33-1.28-.84-3.13,.06-3.24,1.62-.1,1.53-.45,2.99,.18,4.43-1.77-.66-3.87-.24-5.8-.24,.28,1.78-2.02,3.35-3.58,2.44,.05-.87-.18-2.07-1.06-2.06-.25,0-.49,.12-.71,.25-.92,.54-1.73,1.26-2.69,1.71-1.48,.69-5.75,.36-6.41,2.37-.12,.35-.12,.74-.25,1.08-.3,.73-1.23,1.09-1.98,.86-.75-.23-1.3-.96-1.44-1.73-.1-.52-.04-1.06-.18-1.57-.72-2.7-3.49-.59-4.73-1.32-.59-.35-3.04-4.96-3.1-5.52-1.18,1.47-2.94,2.71-4.9,2.61-2.15-.1-3.06-1.81-3.55-3.89-.51-2.2-.54-4.83-1.02-6.43-.26-.86-.48-1.9,.13-2.56,.76-.82,2.37-.51,2.92-1.48,.17-.31,.19-.68,.25-1.03,.35-2.05,2.66-3.54,4.67-3.02,.66-.43,.67-1.37,.71-2.16,.04-.79,.37-1.76,1.16-1.82,.9-.06,1.31,1.12,1.3,2.03-.01,.92-.16,1.85-.43,2.73-.2,.66-.47,1.37-.24,2.02,.18,.49,.61,.84,1.03,1.14,1.02,.74,2.18,1.4,3.44,1.39,1.26,0,2.58-.92,2.63-2.18,.01-.34-.06-.68,.02-1.01,.2-.84,1.28-1.13,2.14-1.02s1.72,.48,2.57,.3,1.56-1.28,.95-1.9c1.14-.4,2.78-.6,3.23,.52,.14,.36,.1,.76,.11,1.15,.04,2.4,3.03,5.86,5.06,3.35,1.34-1.65-.97-4.65,1.43-6.01,1.15-.65,2.71-.08,3.84-.75,.35-.42-.25-.99-.79-1.13-1.68-.44-3.58,.07-4.81,1.31-.68-1.4,.37-3.45-.82-4.45-1.17-.99-3.43,.18-4.3-1.08-.25-.36-.29-.82-.32-1.26-.16-2.17,.51-6.14-2.55-6.5-.37-.04-.76-.02-1.11-.15-1.06-.41-1.05-1.89-.85-3,1.15-.49,2.38,.36,3.49,.94,1.11,.59,2.86,.68,3.24-.51,.27-.85-.4-1.92,.17-2.62,.26-.32,.73-.44,.95-.8,.54-.85-.77-1.7-1-2.68-.32-1.35,1.48-2.21,2.86-2.11,1.38,.1,2.93,.57,4.04-.25,.35-.26,.62-.63,.94-.92,1.01-.9,2.48-.98,3.83-1.01,2.16-.06-2.75-8.92-2.8-9.46-.37-4.11,3.85-6.3,6.26-8.92,1.26-1.38,2.19-3.01,3.11-4.64,36.32,14.37,63.18,47.73,69.28,86.34,.27,1.73,.6,3.52,.61,5.25-2.55-.72-6.52-2.63-9.1-1.08-3.29,1.97-.91,6.85-4.7,8.29-.94-.01-.67-1.56-1.21-2.32-.3-.43-.86-.57-1.32-.8-.47-.24-.92-.74-.73-1.22-.82-.64-1.95,.18-2.71,.89-.9,.84-1.92,1.61-3.12,1.86-2.5,.53-4.81-1.27-7.06-2.47-1.86-1-3.89-1.63-5.91-2.26,.97,.06,1.47-1.29,1.09-2.19-.38-.9-1.22-1.5-1.85-2.25-1.06-1.29-.25-2.78-1.13-4.15-1.1-1.7-3.2-2.89-3.38-4.9-.22-2.44,2.47-3.99,4.74-4.89-1.2-2.75-4.46-4.64-4.45-7.64,0-1.16,.52-2.24,1.02-3.27,1.03-2.12,2.05-4.25,3.08-6.36,.43-.88,.86-1.85,.6-2.79-.3-1.11-1.43-1.75-2.45-2.26-1.11-.56-2.22-1.12-3.34-1.67-.46-.23-.96-.46-1.46-.38-.54,.09-.94,.52-1.27,.96-1.81,2.35-2.68,5.41-2.38,8.37-3.94-.59-7.82-1.66-11.49-3.2,.41,2.28-.53,4.79,.17,6.93"/><path class="ah" d="M185.87,147.76c-1.06,.76-1.91,1.92-1.98,3.23-.04,.8,.22,1.59,.27,2.4,.05,.8-.18,1.72-.88,2.11-.9,.5-1.99-.12-2.83-.72-.68-.48-1.41-1.04-1.58-1.86-.12-.6,.09-1.22,.04-1.83-.11-1.2-1.17-2.05-2.02-2.91-.85-.86-1.57-2.21-.9-3.22,.44-.66,1.34-.89,1.81-1.53,1.16-1.56-.93-3.74,.02-5.16,1.13-1.68,3.95-.82,5.51,.03,1.58,.86,2.72,2.46,3.85,3.81,3.19,3.82,2.07,3.24-1.3,5.66Z"/><path class="ah" d="M143.9,88.73c18.69-16.21,44.77-24.55,69.26-24.72,.68,0,1.36,0,2.03,0,3.23,3.64,4.94,10.54-1.46,11.83,0,.7,.4,.87,.75,1.43,.55,.88-.37,1.98-1.33,2.38-3.14,1.3-6.96,1.22-6.46,5.48,.6,5.08,2.99,1.85,5.63,3.69,.38,.27,.61,.7,.91,1.05,1.12,1.29,3.09,1.28,4.79,1.16-.43-1,.24-2.3,1.29-2.55,.4-.09,.85-.06,1.18-.3,.71-.52,.17-1.73-.64-2.07-.81-.33-1.75-.2-2.59-.44-.84-.25-1.61-1.25-1.1-1.96,.21-.3,.59-.44,.94-.52,1.5-.34,3.16,.12,4.28,1.19,.28-.81,1.15-1.37,2.01-1.28,.85,.08,1.6,.8,1.72,1.65,.17,1.24-.68,2.93,.43,3.51-.98-.26-2.1,.09-2.76,.87-2.59,3.05-1.05,10.48-7.88,9.23-1.1-.2-2.15-.67-3.26-.73s-2.39,.46-2.68,1.53c-1.43-2.08-5.11-1.64-6.34-3.85-.58-1.04-.31-2.47,.59-3.24,.15-.13,.32-.25,.4-.43,.15-.37-.19-.76-.24-1.16-.09-.69,.66-1.23,.75-1.93,.13-.97-1-1.59-1.94-1.83-.95-.25-2.1-.59-2.29-1.55-.07-.33,0-.67-.06-.99-.13-.66-.8-1.1-1.47-1.18-.67-.09-1.33,.11-1.98,.3-.44,.37-.24,1.11,.15,1.54,.39,.42,.94,.7,1.26,1.18,.18,.27-.71,6.06-.27,5.91-2.07,.71-6.49,.82-5.6,3.91,.31,1.09,.95,2.23,.55,3.29,1.46-.41,2.92-.8,4.38-1.18,.36,.47-.23,1.11-.8,1.26-.57,.14-1.25,.12-1.64,.57-.27,.31-.31,.76-.33,1.17-.08,1.35-.15,2.69-.23,4.04-.08,1.46-.28,3.13-1.49,3.95-1.37,.94-3.32,.19-4.47-1.01-.28-.29-.58-.62-.98-.62-.36,0-.65,.27-.92,.51-1.42,1.27-3.4,2.03-5.25,1.59-1.85-.44-3.38-2.3-3.07-4.18,.12-.72,.43-1.61-.13-2.08-.33-.28-.89-.31-1.04-.72-.18-.51,.46-.87,.9-1.2,.78-.58,1.07-1.75,.63-2.63-.22-.45-4.26-2.11-4.89-1.8-1.44,.7-1.18,4.56-1.36,6.04-.07,.57-.17,1.21-.64,1.56-.72,.54-1.77-.02-2.33-.73-.56-.71-.97-1.6-1.79-2-.47-.23-1.02-.25-1.54-.26-1.06-.03-2.26-.01-3.01,.74-.35,.35-.56,.83-.91,1.18-.8,.81-2.13,.77-3.2,.38-1.07-.38-2.03-1.04-3.13-1.34-2.33-.62-5,.48-7.15-.63-1.04-.54-1.79-2.02-.96-2.85,.71-.72,2.25-.59,2.44-1.58,.18-.95-2.14-2.32-2.55-3.15-.32-.66,.38-1.88-.36-3.1-.61-.99-2.09-1.29-2.75-2.36Z"/><path class="ah" d="M281.07,248.68c1.33-.89,2.82-1.4,3.28-3.23,.63-2.49-.71-3.55-3.18-2.62-.22,.08-.46,.17-.68,.1-.71-.23-.21-1.28,.26-1.87,1.09-1.37,1.16-3.22,.6-4.82-.13-.38,6.83-.54,7.6-.12,2.69,1.47,.94,7.19,4.05,6.23,.21-2.18,.1-4.43,.1-6.63l3.18-.12c-.79,.03-.32-4.03-.05-4.47,1.05-1.72,4.27-.99,3.98-4.25-.36-4.12-8.35-4.96-7.39-.23-2.43,.93-5.27,1.14-7.88,1.06-.06,.84-.11,1.68-.16,2.52-.6,.37-1.4,.44-2.06,.15-1.26-2.12-1.07-5.01,.46-6.95-.91-1.4,.2-3.19,1.26-4.48-2.92-2.14-2.08-7.57,1.35-8.72,3.44-1.16,7.39,2.66,6.35,6.13,1.68,.19,3.28,.93,4.52,2.07,.18-4.38,3.48-8.46,7.74-9.54,2.14-.55,4.67-.52,6.13-2.18,.65-.73,.97-1.71,1.57-2.48,1.37-1.73,3.81-2.09,6.02-2.21,1.48-.08,2.95-.1,4.43-.08-6.17,25.65-21.2,47.89-41.7,63.25-.78,.03-1.58,.02-2.26-.34-1.25-.67-1.64-2.25-1.9-3.65-1.01-5.45-.44-8.84,3.99-12.23,.13-.1,.26-.19,.39-.28Z"/></g><g><path class="ag" d="M180.48,257.08c-2.1,.2-3.04,2.78-3.47,4.88-.63,3.16-1.28,6.31-1.91,9.47,3.84,1.8,3.53,6.49,1.73,9.67-43.17-15.2-74.25-56.2-74.59-104.6-.03-3.71,.13-7.37,.46-10.98,.09-.06,.19-.11,.29-.16,3.04-1.44,5.45,1.16,7.74,2.63,.52,.33,7.21,3.58,7.3,2.68-.28,2.92-.12,5.89,.47,8.76,.04,.22,.11,.46,.29,.58,.44,.3,.93-.3,1.09-.81,.41-1.29,.58-2.65,1.06-3.91,.48-1.26,1.37-2.47,2.65-2.88,1.3-.41,2.71,.07,4.05-.12,1.64-.23,3.01-1.45,3.84-2.88,.8-1.38,1.17-2.99,1.57-4.51,1.58,3.5,5.58,1.34,7.93,4.18,.76,.91,1.66,2.22,2.76,1.78,1.04-.42,1.16-2.2,2.28-2.34,.78-.1,1.35,.76,1.47,1.54,.12,.78-.01,1.61,.32,2.33,.46,1,1.86,1.44,2.81,.86,.85-.51,1.18-1.56,1.71-2.4,.53-.84,1.67-1.55,2.47-.96,.19,.14,.33,.33,.44,.54,.78,1.49-.1,3.3-1.14,4.63-1.04,1.32-2.32,2.65-2.43,4.32,.6,.43,1.56,.23,1.94-.41,.13-.22,.2-.49,.4-.65,.43-.36,1.06-.02,1.54,.29,2.22,1.43,5.02,1.93,7.59,1.35,.19-3.4,.38-6.81,.58-10.21,.77-.03,1.23-.08,1.53-.87,2.55,2.49,4.89,5.16,7.71,7.41,.34,.27,.7,.56,.81,.98,.12,.43-.06,.89-.03,1.34,.09,1.49,2.08,1.88,3.57,1.84,.43,.24,.18,.95-.25,1.19s-.97,.26-1.36,.57c-.58,.45-.59,1.34-.38,2.05,.74,2.46,3.75,3.96,6.16,3.07,.29-.11,.58-.25,.75-.5,.38-.56,.02-1.29-.05-1.96-.27-2.64,2.57-2.02,3.89-1.29,1.78,.99,2.78,3.61,3.11,5.49,.39,2.19,2.05,16.74,6.9,14.73,.46-.19,.78-.6,1.02-1.03,.7-1.32,.65-2.91,1.17-4.32,.51-1.4,2.11-2.69,3.42-1.96,.52,.29,.86,.84,1.36,1.17,1.4,.92,3.38-.18,4.9,.51,.7,.32,1.18,.97,1.82,1.4,.63,.43,1.63,.57,2.08-.05,.5-.7-.09-1.76,.32-2.51,.43-.79,1.77-.63,2.23,.15,.45,.78,.18,1.81-.38,2.52-.29,.37-.67,.71-.77,1.17-.17,.83,.61,1.52,1.31,2,1.11,.77,2.21,1.53,3.32,2.3-.07,.77-.82,1.3-1.56,1.51-.74,.21-1.53,.2-2.27,.44-3.55,1.18-3.53,6.44-8.18,5.41,.28-1.4-1.21-2.82-2.6-2.48-1.71,.42-2.81,2.85-4.5,2.37-.59-.17-1.04-.68-1.63-.82-1.64-.39-2.44,2.13-2.91,3.21-1.53,3.56,.85,3.99,.75,7.17-.04,1.45-1.12,2.68-1.39,4.11-.25,1.32,.22,2.68,.04,4.01-.49,3.65-5.32,1.44-7.46,1.01,1.16,2.07-.57,4.58-2.45,6.02-2.9,2.2-2.4,2.01-2.76,5.19-.1,.84-.58,1.69-1.37,1.97-1.39,.49-2.73-.88-4.2-1.02-.7-.07-1.41,.15-2.11,.03-1.83-.31-2.46-2.55-3.65-3.97-1.04-1.24-2.72-1.92-4.33-1.75-.13,.94-.13,1.89-.01,2.83,1.02,.63,2.05,1.26,3.07,1.89,.9,.56,1.84,1.15,2.4,2.05,.31,.51,.51,1.11,.96,1.49,.9,.77,2.25,.3,3.44,.23,2.86-.19,7.53,1.6,10.29,2.51,2.94,.97,3.97,3.05,6.68,3.98,.48,.16,.59,.86,.3,1.28-.28,.42-.8,.61-1.3,.69-1.16,.2-2.38,0-3.41-.56,1.35,.74-2.59,4-3.31,4.16-1.17,.26-2.74-.62-3.93-.68-2.95-.15-4.66,.44-2.72,3.65,.74,1.23,1.61,2.79,.79,3.97-.78-.32-1.72,.14-2.16,.87s-.47,1.62-.37,2.46c.06,.57,.2,1.17,.62,1.56,.22,.21,.51,.35,.68,.6,.55,.83-.58,1.73-1.51,2.09"/><path class="ag" d="M278.23,129.12c-.92-.69-2.22-.13-3.18,.5-.96,.63-2.08,1.37-3.16,.98l-.06-3.99c0-.25-.02-.53-.2-.7-.18-.17-.47-.17-.72-.16-.86,.04-1.71,.08-2.57,.12-.71,.79,1.28,1.74,.99,2.77-.13,.45-.64,.65-1.05,.87-3.53,1.89-1.29,5.83,.31,7.97,1.86,2.48,1.73,5.86,1.53,8.96-.07,1.1-.2,2.33-1.05,3.05-.82,.71-2.04,.66-3.09,.97-1.83,.53-3.12,2.15-4.83,2.99-5.97,2.94-9.91-3.45-7.96-8.49,1.01-2.61,1.44-2.11,.86-4.9-.24-1.16,.14-2.54-1.07-3.33-1.28-.84-3.13,.06-3.24,1.62-.1,1.53-.45,2.99,.18,4.43-1.77-.66-3.87-.24-5.8-.24,.28,1.78-2.02,3.35-3.58,2.44,.05-.87-.18-2.07-1.06-2.06-.25,0-.49,.12-.71,.25-.92,.54-1.73,1.26-2.69,1.71-1.48,.69-5.75,.36-6.41,2.37-.12,.35-.12,.74-.25,1.08-.3,.73-1.23,1.09-1.98,.86-.75-.23-1.3-.96-1.44-1.73-.1-.52-.04-1.06-.18-1.57-.72-2.7-3.49-.59-4.73-1.32-.59-.35-3.04-4.96-3.1-5.52-1.18,1.47-2.94,2.71-4.9,2.61-2.15-.1-3.06-1.81-3.55-3.89-.51-2.2-.54-4.83-1.02-6.43-.26-.86-.48-1.9,.13-2.56,.76-.82,2.37-.51,2.92-1.48,.17-.31,.19-.68,.25-1.03,.35-2.05,2.66-3.54,4.67-3.02,.66-.43,.67-1.37,.71-2.16,.04-.79,.37-1.76,1.16-1.82,.9-.06,1.31,1.12,1.3,2.03-.01,.92-.16,1.85-.43,2.73-.2,.66-.47,1.37-.24,2.02,.18,.49,.61,.84,1.03,1.14,1.02,.74,2.18,1.4,3.44,1.39,1.26,0,2.58-.92,2.63-2.18,.01-.34-.06-.68,.02-1.01,.2-.84,1.28-1.13,2.14-1.02s1.72,.48,2.57,.3,1.56-1.28,.95-1.9c1.14-.4,2.78-.6,3.23,.52,.14,.36,.1,.76,.11,1.15,.04,2.4,3.03,5.86,5.06,3.35,1.34-1.65-.97-4.65,1.43-6.01,1.15-.65,2.71-.08,3.84-.75,.35-.42-.25-.99-.79-1.13-1.68-.44-3.58,.07-4.81,1.31-.68-1.4,.37-3.45-.82-4.45-1.17-.99-3.43,.18-4.3-1.08-.25-.36-.29-.82-.32-1.26-.16-2.17,.51-6.14-2.55-6.5-.37-.04-.76-.02-1.11-.15-1.06-.41-1.05-1.89-.85-3,1.15-.49,2.38,.36,3.49,.94,1.11,.59,2.86,.68,3.24-.51,.27-.85-.4-1.92,.17-2.62,.26-.32,.73-.44,.95-.8,.54-.85-.77-1.7-1-2.68-.32-1.35,1.48-2.21,2.86-2.11,1.38,.1,2.93,.57,4.04-.25,.35-.26,.62-.63,.94-.92,1.01-.9,2.48-.98,3.83-1.01,2.16-.06-2.75-8.92-2.8-9.46-.37-4.11,3.85-6.3,6.26-8.92,1.26-1.38,2.19-3.01,3.11-4.64,36.32,14.37,63.18,47.73,69.28,86.34,.27,1.73,.6,3.52,.61,5.25-2.55-.72-6.52-2.63-9.1-1.08-3.29,1.97-.91,6.85-4.7,8.29-.94-.01-.67-1.56-1.21-2.32-.3-.43-.86-.57-1.32-.8-.47-.24-.92-.74-.73-1.22-.82-.64-1.95,.18-2.71,.89-.9,.84-1.92,1.61-3.12,1.86-2.5,.53-4.81-1.27-7.06-2.47-1.86-1-3.89-1.63-5.91-2.26,.97,.06,1.47-1.29,1.09-2.19-.38-.9-1.22-1.5-1.85-2.25-1.06-1.29-.25-2.78-1.13-4.15-1.1-1.7-3.2-2.89-3.38-4.9-.22-2.44,2.47-3.99,4.74-4.89-1.2-2.75-4.46-4.64-4.45-7.64,0-1.16,.52-2.24,1.02-3.27,1.03-2.12,2.05-4.25,3.08-6.36,.43-.88,.86-1.85,.6-2.79-.3-1.11-1.43-1.75-2.45-2.26-1.11-.56-2.22-1.12-3.34-1.67-.46-.23-.96-.46-1.46-.38-.54,.09-.94,.52-1.27,.96-1.81,2.35-2.68,5.41-2.38,8.37-3.94-.59-7.82-1.66-11.49-3.2,.41,2.28-.53,4.79,.17,6.93"/><path class="ag" d="M185.87,147.76c-1.06,.76-1.91,1.92-1.98,3.23-.04,.8,.22,1.59,.27,2.4,.05,.8-.18,1.72-.88,2.11-.9,.5-1.99-.12-2.83-.72-.68-.48-1.41-1.04-1.58-1.86-.12-.6,.09-1.22,.04-1.83-.11-1.2-1.17-2.05-2.02-2.91-.85-.86-1.57-2.21-.9-3.22,.44-.66,1.34-.89,1.81-1.53,1.16-1.56-.93-3.74,.02-5.16,1.13-1.68,3.95-.82,5.51,.03,1.58,.86,2.72,2.46,3.85,3.81,3.19,3.82,2.07,3.24-1.3,5.66Z"/><path class="ag" d="M143.9,88.73c18.69-16.21,44.77-24.55,69.26-24.72,.68,0,1.36,0,2.03,0,3.23,3.64,4.94,10.54-1.46,11.83,0,.7,.4,.87,.75,1.43,.55,.88-.37,1.98-1.33,2.38-3.14,1.3-6.96,1.22-6.46,5.48,.6,5.08,2.99,1.85,5.63,3.69,.38,.27,.61,.7,.91,1.05,1.12,1.29,3.09,1.28,4.79,1.16-.43-1,.24-2.3,1.29-2.55,.4-.09,.85-.06,1.18-.3,.71-.52,.17-1.73-.64-2.07-.81-.33-1.75-.2-2.59-.44-.84-.25-1.61-1.25-1.1-1.96,.21-.3,.59-.44,.94-.52,1.5-.34,3.16,.12,4.28,1.19,.28-.81,1.15-1.37,2.01-1.28,.85,.08,1.6,.8,1.72,1.65,.17,1.24-.68,2.93,.43,3.51-.98-.26-2.1,.09-2.76,.87-2.59,3.05-1.05,10.48-7.88,9.23-1.1-.2-2.15-.67-3.26-.73s-2.39,.46-2.68,1.53c-1.43-2.08-5.11-1.64-6.34-3.85-.58-1.04-.31-2.47,.59-3.24,.15-.13,.32-.25,.4-.43,.15-.37-.19-.76-.24-1.16-.09-.69,.66-1.23,.75-1.93,.13-.97-1-1.59-1.94-1.83-.95-.25-2.1-.59-2.29-1.55-.07-.33,0-.67-.06-.99-.13-.66-.8-1.1-1.47-1.18-.67-.09-1.33,.11-1.98,.3-.44,.37-.24,1.11,.15,1.54,.39,.42,.94,.7,1.26,1.18,.18,.27-.71,6.06-.27,5.91-2.07,.71-6.49,.82-5.6,3.91,.31,1.09,.95,2.23,.55,3.29,1.46-.41,2.92-.8,4.38-1.18,.36,.47-.23,1.11-.8,1.26-.57,.14-1.25,.12-1.64,.57-.27,.31-.31,.76-.33,1.17-.08,1.35-.15,2.69-.23,4.04-.08,1.46-.28,3.13-1.49,3.95-1.37,.94-3.32,.19-4.47-1.01-.28-.29-.58-.62-.98-.62-.36,0-.65,.27-.92,.51-1.42,1.27-3.4,2.03-5.25,1.59-1.85-.44-3.38-2.3-3.07-4.18,.12-.72,.43-1.61-.13-2.08-.33-.28-.89-.31-1.04-.72-.18-.51,.46-.87,.9-1.2,.78-.58,1.07-1.75,.63-2.63-.22-.45-4.26-2.11-4.89-1.8-1.44,.7-1.18,4.56-1.36,6.04-.07,.57-.17,1.21-.64,1.56-.72,.54-1.77-.02-2.33-.73-.56-.71-.97-1.6-1.79-2-.47-.23-1.02-.25-1.54-.26-1.06-.03-2.26-.01-3.01,.74-.35,.35-.56,.83-.91,1.18-.8,.81-2.13,.77-3.2,.38-1.07-.38-2.03-1.04-3.13-1.34-2.33-.62-5,.48-7.15-.63-1.04-.54-1.79-2.02-.96-2.85,.71-.72,2.25-.59,2.44-1.58,.18-.95-2.14-2.32-2.55-3.15-.32-.66,.38-1.88-.36-3.1-.61-.99-2.09-1.29-2.75-2.36Z"/><path class="ag" d="M281.07,248.68c1.33-.89,2.82-1.4,3.28-3.23,.63-2.49-.71-3.55-3.18-2.62-.22,.08-.46,.17-.68,.1-.71-.23-.21-1.28,.26-1.87,1.09-1.37,1.16-3.22,.6-4.82-.13-.38,6.83-.54,7.6-.12,2.69,1.47,.94,7.19,4.05,6.23,.21-2.18,.1-4.43,.1-6.63l3.18-.12c-.79,.03-.32-4.03-.05-4.47,1.05-1.72,4.27-.99,3.98-4.25-.36-4.12-8.35-4.96-7.39-.23-2.43,.93-5.27,1.14-7.88,1.06-.06,.84-.11,1.68-.16,2.52-.6,.37-1.4,.44-2.06,.15-1.26-2.12-1.07-5.01,.46-6.95-.91-1.4,.2-3.19,1.26-4.48-2.92-2.14-2.08-7.57,1.35-8.72,3.44-1.16,7.39,2.66,6.35,6.13,1.68,.19,3.28,.93,4.52,2.07,.18-4.38,3.48-8.46,7.74-9.54,2.14-.55,4.67-.52,6.13-2.18,.65-.73,.97-1.71,1.57-2.48,1.37-1.73,3.81-2.09,6.02-2.21,1.48-.08,2.95-.1,4.43-.08-6.17,25.65-21.2,47.89-41.7,63.25-.78,.03-1.58,.02-2.26-.34-1.25-.67-1.64-2.25-1.9-3.65-1.01-5.45-.44-8.84,3.99-12.23,.13-.1,.26-.19,.39-.28Z"/></g></g><path class="y" d="M345.65,116.31c0-3.57-2.89-6.46-6.46-6.46-.64,0-1.27,.1-1.85,.27,.09-.65,.14-1.31,.14-1.98,0-7.55-6.12-13.67-13.67-13.67-.86,0-1.7,.08-2.52,.24-2.1-3.44-5.88-5.74-10.21-5.74-6.55,0-11.86,5.26-11.96,11.78-.07,0-.13-.01-.2-.01-6.08,0-11.02,4.93-11.02,11.02s4.93,11.02,11.02,11.02h40.44c3.48-.11,6.28-2.95,6.28-6.46Z"/><path class="y" d="M126.99,137.02c0-3.06-2.48-5.54-5.54-5.54-.55,0-1.09,.08-1.59,.23,.08-.56,.12-1.12,.12-1.7,0-6.48-5.25-11.73-11.73-11.73-.74,0-1.46,.07-2.16,.2-1.8-2.95-5.04-4.93-8.75-4.93-5.62,0-10.17,4.51-10.25,10.11-.06,0-.11,0-.17,0-5.22,0-9.45,4.23-9.45,9.45s4.23,9.45,9.45,9.45h34.69c2.99-.09,5.38-2.53,5.38-5.54Z"/><path class="y" d="M252.72,187.47c0-3.57-2.89-6.46-6.46-6.46-.64,0-1.27,.1-1.85,.27,.09-.65,.14-1.31,.14-1.98,0-7.55-6.12-13.67-13.67-13.67-.86,0-1.7,.08-2.52,.24-2.1-3.44-5.88-5.74-10.21-5.74-6.55,0-11.86,5.26-11.96,11.78-.07,0-.13-.01-.2-.01-6.08,0-11.01,4.93-11.01,11.02s4.93,11.02,11.01,11.02h40.44c3.48-.11,6.28-2.95,6.28-6.46Z"/><path class="y" d="M352.42,247.46c0-2.47-2-4.48-4.48-4.48-.45,0-.88,.07-1.29,.19,.07-.45,.1-.91,.1-1.37,0-5.24-4.24-9.48-9.48-9.48-.6,0-1.18,.06-1.75,.16-1.46-2.38-4.08-3.98-7.07-3.98-4.54,0-8.22,3.65-8.29,8.17-.05,0-.09,0-.14,0-4.22,0-7.64,3.42-7.64,7.64s3.42,7.64,7.64,7.64h28.04c2.41-.07,4.35-2.05,4.35-4.48Z"/><path class="y" d="M111.12,250.69c0-2.31-1.88-4.19-4.19-4.19-.42,0-.82,.06-1.2,.18,.06-.42,.09-.85,.09-1.29,0-4.9-3.97-8.87-8.87-8.87-.56,0-1.1,.05-1.63,.15-1.36-2.23-3.81-3.72-6.62-3.72-4.25,0-7.69,3.41-7.75,7.64-.04,0-.09,0-.13,0-3.95,0-7.14,3.2-7.14,7.14s3.2,7.14,7.14,7.14h26.23c2.26-.07,4.07-1.91,4.07-4.19Z"/><path class="ab" d="M79.14,214.28c-10.67-28.14,40.75-73.73,114.84-101.82,74.1-28.09,142.81-28.04,153.48,.1"/><path class="ab" d="M127.94,51.91c24.19-17.91,82.02,19.21,129.16,82.9,47.14,63.69,65.75,129.84,41.56,147.75"/></g><ellipse id="i" class="aj" cx="214.38" cy="322.4" rx="164.43" ry="9.6"/><g><path class="w" d="M320.98,176.97c-2.05,.23-3.69,1.64-4.31,3.48l-36.56-6.23c.06-.59,.05-1.2-.02-1.81-.54-4.88-4.95-8.4-9.83-7.86-.23,.03-.45,.07-.67,.11-2.52-8.88-6.46-22.85-9.44-33.4,1.94-.92,3.18-2.99,2.93-5.23-.31-2.83-2.87-4.87-5.7-4.56-2.83,.31-4.87,2.87-4.56,5.7,.31,2.83,2.87,4.87,5.7,4.56,1.27,4.51,3.26,11.55,5.25,18.59,1.5,5.3,3,10.59,4.19,14.82-3.63,1.44-6.01,5.18-5.56,9.24,.09,.83,.3,1.62,.6,2.36l-29.93,14.86c-2.25-3.78-6.56-6.12-11.2-5.6-1.69,.19-3.24,.74-4.61,1.55l-30.8-44.18c4.38-3.41,6.96-8.94,6.3-14.85-.76-6.83-5.61-12.24-11.83-14.04l5.78-24.68c.3,.02,.6,.02,.9-.02,2.83-.31,4.87-2.87,4.56-5.7-.31-2.83-2.87-4.87-5.7-4.56-2.83,.31-4.87,2.87-4.56,5.7,.21,1.93,1.47,3.49,3.14,4.19l-5.78,24.68c-1.53-.28-3.13-.35-4.76-.17-9.05,1-15.6,9.19-14.6,18.24,.05,.44,.13,.86,.21,1.29l-36.3,8.92c-1.34-3.83-5.18-6.37-9.37-5.91-4.88,.54-8.4,4.95-7.86,9.83,.54,4.88,4.95,8.4,9.83,7.86,4.88-.54,8.4-4.95,7.86-9.82-.01-.1-.03-.2-.05-.31l36.3-8.92c2.25,7.49,9.59,12.56,17.63,11.66,2.54-.28,4.87-1.14,6.91-2.42l30.8,44.18c-2.94,2.4-4.65,6.18-4.2,10.23,.49,4.4,3.41,7.95,7.27,9.47l-7.56,24.47c-.89-.19-1.83-.24-2.78-.13-4.88,.54-8.4,4.95-7.86,9.83,.07,.63,.21,1.24,.4,1.81l-18.18,8.01c-1.03-1.57-2.89-2.52-4.88-2.3-2.83,.31-4.87,2.87-4.56,5.7s2.87,4.87,5.7,4.56c2.83-.31,4.87-2.87,4.56-5.7-.03-.24-.08-.48-.13-.71l18.18-8.01c1.7,3.02,5.09,4.9,8.74,4.49,2.25-.25,4.21-1.33,5.62-2.89l21.78,16.16c-.45,.87-.65,1.88-.54,2.92,.31,2.83,2.87,4.87,5.7,4.56,2.83-.31,4.87-2.87,4.56-5.7s-2.87-4.87-5.7-4.56c-1.18,.13-2.22,.65-3.01,1.42l-21.78-16.16c.98-1.62,1.46-3.55,1.24-5.57-.37-3.32-2.54-6.02-5.42-7.23l7.56-24.47c1.23,.28,2.53,.38,3.86,.23,6.33-.7,10.91-6.42,10.21-12.75-.12-1.09-.4-2.12-.79-3.08l29.96-14.87c1.78,2.73,4.99,4.39,8.44,4,3.67-.41,6.58-3.01,7.56-6.35l36.61,6.23c0,.18,.01,.36,.03,.55,.31,2.83,2.87,4.87,5.7,4.56,2.83-.31,4.87-2.87,4.56-5.7-.31-2.83-2.87-4.87-5.7-4.56Zm-63.41-53.82c1.9-.21,3.61,1.16,3.83,3.06,.21,1.9-1.16,3.61-3.06,3.83-1.9,.21-3.61-1.16-3.82-3.06-.21-1.9,1.16-3.61,3.06-3.82Zm-67.09-38.89c.21,1.9-1.16,3.61-3.06,3.82-1.9,.21-3.61-1.16-3.83-3.06-.21-1.9,1.16-3.61,3.06-3.83,1.9-.21,3.61,1.16,3.82,3.06Zm-67.89,60.23c.44,3.95-2.42,7.51-6.36,7.95-3.95,.44-7.51-2.42-7.95-6.36-.44-3.95,2.42-7.51,6.36-7.95,3.95-.44,7.51,2.42,7.95,6.36Zm39.01-12.53c-.9-8.13,4.98-15.47,13.1-16.37,8.13-.9,15.47,4.98,16.37,13.1s-4.98,15.47-13.1,16.37c-8.13,.9-15.47-4.98-16.37-13.1Zm20.49,122.68c.21,1.9-1.16,3.61-3.06,3.83-1.9,.21-3.61-1.16-3.82-3.06s1.16-3.61,3.06-3.83c1.9-.21,3.61,1.16,3.83,3.06Zm28.29-6.1c-3.95,.44-7.51-2.42-7.95-6.36-.44-3.95,2.42-7.51,6.36-7.95,3.95-.44,7.51,2.42,7.95,6.36,.44,3.95-2.42,7.51-6.36,7.95Zm31.79,13.86c1.9-.21,3.61,1.16,3.82,3.06,.21,1.9-1.16,3.61-3.06,3.83-1.9,.21-3.61-1.16-3.82-3.06s1.16-3.61,3.06-3.83Zm-9.23-66.03c.6,5.4-3.31,10.28-8.71,10.88-5.4,.6-10.28-3.31-10.88-8.71-.6-5.4,3.31-10.28,8.71-10.88,5.4-.6,10.28,3.31,10.88,8.71Zm31.15-22.19c-.44-3.95,2.42-7.51,6.36-7.95,3.95-.44,7.51,2.42,7.95,6.36,.44,3.95-2.42,7.51-6.36,7.95-3.95,.44-7.51-2.42-7.95-6.36Zm54.02,8.3c-.21-1.9,1.16-3.61,3.06-3.82,1.9-.21,3.61,1.16,3.83,3.06,.21,1.9-1.16,3.61-3.06,3.83-1.9,.21-3.61-1.16-3.82-3.06Z"/><g class="j"><path class="l" d="M320.98,176.97c-2.05,.23-3.69,1.64-4.31,3.48l-36.56-6.23c.06-.59,.05-1.2-.02-1.81-.54-4.88-4.95-8.4-9.83-7.86-.23,.03-.45,.07-.67,.11-2.52-8.88-6.46-22.85-9.44-33.4,1.94-.92,3.18-2.99,2.93-5.23-.31-2.83-2.87-4.87-5.7-4.56-2.83,.31-4.87,2.87-4.56,5.7,.31,2.83,2.87,4.87,5.7,4.56,1.27,4.51,3.26,11.55,5.25,18.59,1.5,5.3,3,10.59,4.19,14.82-3.63,1.44-6.01,5.18-5.56,9.24,.09,.83,.3,1.62,.6,2.36l-29.93,14.86c-2.25-3.78-6.56-6.12-11.2-5.6-1.69,.19-3.24,.74-4.61,1.55l-30.8-44.18c4.38-3.41,6.96-8.94,6.3-14.85-.76-6.83-5.61-12.24-11.83-14.04l5.78-24.68c.3,.02,.6,.02,.9-.02,2.83-.31,4.87-2.87,4.56-5.7-.31-2.83-2.87-4.87-5.7-4.56-2.83,.31-4.87,2.87-4.56,5.7,.21,1.93,1.47,3.49,3.14,4.19l-5.78,24.68c-1.53-.28-3.13-.35-4.76-.17-9.05,1-15.6,9.19-14.6,18.24,.05,.44,.13,.86,.21,1.29l-36.3,8.92c-1.34-3.83-5.18-6.37-9.37-5.91-4.88,.54-8.4,4.95-7.86,9.83,.54,4.88,4.95,8.4,9.83,7.86,4.88-.54,8.4-4.95,7.86-9.82-.01-.1-.03-.2-.05-.31l36.3-8.92c2.25,7.49,9.59,12.56,17.63,11.66,2.54-.28,4.87-1.14,6.91-2.42l30.8,44.18c-2.94,2.4-4.65,6.18-4.2,10.23,.49,4.4,3.41,7.95,7.27,9.47l-7.56,24.47c-.89-.19-1.83-.24-2.78-.13-4.88,.54-8.4,4.95-7.86,9.83,.07,.63,.21,1.24,.4,1.81l-18.18,8.01c-1.03-1.57-2.89-2.52-4.88-2.3-2.83,.31-4.87,2.87-4.56,5.7s2.87,4.87,5.7,4.56c2.83-.31,4.87-2.87,4.56-5.7-.03-.24-.08-.48-.13-.71l18.18-8.01c1.7,3.02,5.09,4.9,8.74,4.49,2.25-.25,4.21-1.33,5.62-2.89l21.78,16.16c-.45,.87-.65,1.88-.54,2.92,.31,2.83,2.87,4.87,5.7,4.56,2.83-.31,4.87-2.87,4.56-5.7s-2.87-4.87-5.7-4.56c-1.18,.13-2.22,.65-3.01,1.42l-21.78-16.16c.98-1.62,1.46-3.55,1.24-5.57-.37-3.32-2.54-6.02-5.42-7.23l7.56-24.47c1.23,.28,2.53,.38,3.86,.23,6.33-.7,10.91-6.42,10.21-12.75-.12-1.09-.4-2.12-.79-3.08l29.96-14.87c1.78,2.73,4.99,4.39,8.44,4,3.67-.41,6.58-3.01,7.56-6.35l36.61,6.23c0,.18,.01,.36,.03,.55,.31,2.83,2.87,4.87,5.7,4.56,2.83-.31,4.87-2.87,4.56-5.7-.31-2.83-2.87-4.87-5.7-4.56Zm-63.41-53.82c1.9-.21,3.61,1.16,3.83,3.06,.21,1.9-1.16,3.61-3.06,3.83-1.9,.21-3.61-1.16-3.82-3.06-.21-1.9,1.16-3.61,3.06-3.82Zm-67.09-38.89c.21,1.9-1.16,3.61-3.06,3.82-1.9,.21-3.61-1.16-3.83-3.06-.21-1.9,1.16-3.61,3.06-3.83,1.9-.21,3.61,1.16,3.82,3.06Zm-67.89,60.23c.44,3.95-2.42,7.51-6.36,7.95-3.95,.44-7.51-2.42-7.95-6.36-.44-3.95,2.42-7.51,6.36-7.95,3.95-.44,7.51,2.42,7.95,6.36Zm39.01-12.53c-.9-8.13,4.98-15.47,13.1-16.37,8.13-.9,15.47,4.98,16.37,13.1s-4.98,15.47-13.1,16.37c-8.13,.9-15.47-4.98-16.37-13.1Zm20.49,122.68c.21,1.9-1.16,3.61-3.06,3.83-1.9,.21-3.61-1.16-3.82-3.06s1.16-3.61,3.06-3.83c1.9-.21,3.61,1.16,3.83,3.06Zm28.29-6.1c-3.95,.44-7.51-2.42-7.95-6.36-.44-3.95,2.42-7.51,6.36-7.95,3.95-.44,7.51,2.42,7.95,6.36,.44,3.95-2.42,7.51-6.36,7.95Zm31.79,13.86c1.9-.21,3.61,1.16,3.82,3.06,.21,1.9-1.16,3.61-3.06,3.83-1.9,.21-3.61-1.16-3.82-3.06s1.16-3.61,3.06-3.83Zm-9.23-66.03c.6,5.4-3.31,10.28-8.71,10.88-5.4,.6-10.28-3.31-10.88-8.71-.6-5.4,3.31-10.28,8.71-10.88,5.4-.6,10.28,3.31,10.88,8.71Zm31.15-22.19c-.44-3.95,2.42-7.51,6.36-7.95,3.95-.44,7.51,2.42,7.95,6.36,.44,3.95-2.42,7.51-6.36,7.95-3.95,.44-7.51-2.42-7.95-6.36Zm54.02,8.3c-.21-1.9,1.16-3.61,3.06-3.82,1.9-.21,3.61,1.16,3.83,3.06,.21,1.9-1.16,3.61-3.06,3.83-1.9,.21-3.61-1.16-3.82-3.06Z"/></g></g><g><g><path class="ac" d="M316.66,272.93s4.56-3.8,8.47,0c3.91,3.8,4.67,27.36,4.67,27.36"/><path class="ac" d="M330.12,304.84s-2.69-27.65,7.44-39.27"/><path class="ac" d="M329.16,301.93s2.07-31.48-5.52-38.46"/><path class="ac" d="M330.12,301.93s.18-20.8,5.82-24.03c5.64-3.23,8.52,7.31,8.52,7.31"/><path class="ac" d="M327.89,301.93s.92-15.97-3.45-21.67c-4.37-5.71-8.97,2.44-8.97,2.44"/><path class="ac" d="M329.42,304.07s-2.83-37.34,1.85-43.67"/></g><g><path class="aq" d="M340.77,280.93s-2.81,1.04-1.98,3.49,9.73,6.48,9.73,6.48c0,0,3.73-3.42,.3-8.97-3.42-5.55-7.98-2.75-8.06-1Z"/><path class="ae" d="M340.77,280.93s-2.81,1.04-1.98,3.49,9.73,6.48,9.73,6.48c0,0,3.73-3.42,.3-8.97-3.42-5.55-7.98-2.75-8.06-1Z"/></g><g><path class="aq" d="M328.54,276.26s3-.13,3.17,2.46c.17,2.58-6.49,9.73-6.49,9.73,0,0-4.75-1.72-3.73-8.16s6.31-5.61,7.06-4.02Z"/><path class="ae" d="M328.54,276.26s3-.13,3.17,2.46c.17,2.58-6.49,9.73-6.49,9.73,0,0-4.75-1.72-3.73-8.16s6.31-5.61,7.06-4.02Z"/></g><g><path class="aq" d="M326.01,263.9s2-.21,1.84-1.43c-.16-1.22-7.76-4.35-12.25,.72,0,0,2.87,4.93,7.03,5,4.15,.06,3.39-4.28,3.39-4.28Z"/><path class="ae" d="M326.01,263.9s2-.21,1.84-1.43c-.16-1.22-7.76-4.35-12.25,.72,0,0,2.87,4.93,7.03,5,4.15,.06,3.39-4.28,3.39-4.28Z"/></g><g><path class="aq" d="M329.73,260.95s-1.81,.87-2.32-.24,4.29-7.8,10.78-5.87c0,0,.17,5.71-3.32,7.96s-5.14-1.84-5.14-1.84Z"/><path class="ae" d="M329.73,260.95s-1.81,.87-2.32-.24,4.29-7.8,10.78-5.87c0,0,.17,5.71-3.32,7.96s-5.14-1.84-5.14-1.84Z"/></g><g><path class="aq" d="M320.27,279.94s1.38-1.11-.11-1.66c-1.49-.54-8.79-.39-8.86,6.84,0,0,8.5,1.41,9.55-1.34,1.05-2.75-.58-3.84-.58-3.84Z"/><path class="ae" d="M320.27,279.94s1.38-1.11-.11-1.66c-1.49-.54-8.79-.39-8.86,6.84,0,0,8.5,1.41,9.55-1.34,1.05-2.75-.58-3.84-.58-3.84Z"/></g><g><path class="aq" d="M337.61,263.72s-1.38-1.11,.11-1.66c1.49-.54,8.79-.39,8.86,6.84,0,0-8.5,1.41-9.55-1.34-1.05-2.75,.58-3.84,.58-3.84Z"/><path class="ae" d="M337.61,263.72s-1.38-1.11,.11-1.66c1.49-.54,8.79-.39,8.86,6.84,0,0-8.5,1.41-9.55-1.34-1.05-2.75,.58-3.84,.58-3.84Z"/></g><g><path class="aq" d="M333.11,269.55s-.12-1.35,.97-.82c1.09,.53,4.9,4.64,.95,8.53,0,0-5.31-3.93-4.35-5.98,.96-2.05,2.43-1.73,2.43-1.73Z"/><path class="ae" d="M333.11,269.55s-.12-1.35,.97-.82c1.09,.53,4.9,4.64,.95,8.53,0,0-5.31-3.93-4.35-5.98,.96-2.05,2.43-1.73,2.43-1.73Z"/></g><g><path class="aq" d="M319.04,271.48s.82-1.08-.38-1.21c-1.21-.13-6.62,1.31-5.36,6.71,0,0,6.59-.5,6.87-2.74,.28-2.24-1.13-2.76-1.13-2.76Z"/><path class="ae" d="M319.04,271.48s.82-1.08-.38-1.21c-1.21-.13-6.62,1.31-5.36,6.71,0,0,6.59-.5,6.87-2.74,.28-2.24-1.13-2.76-1.13-2.76Z"/></g><polygon class="am" points="341.3 321.97 318.69 321.97 316.25 297.22 343.74 297.22 341.3 321.97"/><polygon class="p" points="341.3 321.97 318.69 321.97 316.25 297.22 343.74 297.22 341.3 321.97"/><rect class="am" x="315.04" y="294.49" width="29.9" height="5.46"/><rect class="at" x="315.04" y="294.49" width="29.9" height="5.46"/></g><g><g><path class="w" d="M331.18,272.96h-55.02c-3.41,0-5.92-2.76-5.63-6.17l14.21-162.47c.3-3.41,3.3-6.17,6.7-6.17h55.02c3.41,0,5.92,2.76,5.63,6.17l-14.21,162.47c-.3,3.41-3.3,6.17-6.7,6.17Z"/><path class="t" d="M331.18,272.96h-55.02c-3.41,0-5.92-2.76-5.63-6.17l14.21-162.47c.3-3.41,3.3-6.17,6.7-6.17h55.02c3.41,0,5.92,2.76,5.63,6.17l-14.21,162.47c-.3,3.41-3.3,6.17-6.7,6.17Z"/><path class="w" d="M325.25,272.96h-55.02c-3.41,0-5.92-2.76-5.63-6.17l14.21-162.47c.3-3.41,3.3-6.17,6.7-6.17h55.02c3.41,0,5.92,2.76,5.63,6.17l-14.21,162.47c-.3,3.41-3.3,6.17-6.7,6.17Z"/><path class="m" d="M325.25,272.96h-55.02c-3.41,0-5.92-2.76-5.63-6.17l14.21-162.47c.3-3.41,3.3-6.17,6.7-6.17h55.02c3.41,0,5.92,2.76,5.63,6.17l-14.21,162.47c-.3,3.41-3.3,6.17-6.7,6.17Z"/><path class="am" d="M343.92,104.02l-14.24,162.77c-.12,1.34-.95,2.38-1.88,2.38h-59.63c-.85,0-1.41-.95-1.3-2.18l14.28-163.17c.09-1.07,.72-2,1.46-2h14.91c.42,0,.77,.4,.88,.97l.43,2.19c.11,.57,.45,.96,.88,.96h25.38c.42,0,.84-.38,1.04-.94l.81-2.2c.21-.57,.62-.97,1.05-.97h14.69c.81,0,1.37,1.02,1.27,2.19Z"/><polygon class="as" points="343.22 112 341.48 131.87 341.4 132.82 340.01 148.73 339.96 149.32 339.74 151.82 339.25 157.46 338.86 161.78 338.81 162.36 338.49 166.1 337.98 171.92 336.97 183.47 336.89 184.4 331 251.67 268.2 251.67 280.42 112 343.22 112"/><g><g><polygon class="t" points="287.66 108.38 288.43 108.38 288.56 106.89 287.79 106.89 287.66 108.38"/><polygon class="t" points="286.39 108.38 287.17 108.38 287.34 106.39 286.57 106.39 286.39 108.38"/><polygon class="t" points="285.13 108.38 285.9 108.38 286.12 105.9 285.35 105.9 285.13 108.38"/><polygon class="t" points="283.86 108.38 284.64 108.38 284.9 105.4 284.13 105.4 283.86 108.38"/></g><g><polygon class="t" points="336.48 107.84 336.02 107.84 336.15 106.35 336.61 106.35 336.48 107.84"/><polygon class="t" points="336.75 108.38 340.41 108.38 340.64 105.8 336.97 105.8 336.75 108.38"/></g></g><g><path class="v" d="M312.68,102.04c-.06,.69-.49,1.24-.97,1.24s-.81-.56-.75-1.24c.06-.69,.49-1.24,.97-1.24s.81,.56,.75,1.24Z"/><path class="v" d="M314.43,102.04c-.04,.44-.32,.8-.62,.8s-.52-.36-.48-.8c.04-.44,.32-.8,.62-.8s.52,.36,.48,.8Z"/></g><g><g class="an"><polygon points="341.48 131.87 341.4 132.82 340.01 148.73 339.96 149.32 339.74 151.82 339.25 157.46 338.86 161.78 338.81 162.36 338.49 166.1 337.98 171.92 336.97 183.47 336.89 184.4 296.03 184.4 296.03 131.87 341.48 131.87"/></g><g class="an"><polygon class="l" points="341.4 132.82 340.01 148.73 339.96 149.32 339.74 151.82 339.25 157.46 338.86 161.78 338.81 162.36 338.49 166.1 337.98 171.92 336.97 183.47 296.96 183.47 296.96 132.82 341.4 132.82"/></g><polygon class="an" points="335.06 162.36 335.06 166.1 338.49 166.1 337.98 171.92 329.82 171.92 329.82 166.1 334.47 166.1 334.47 161.78 338.86 161.78 338.81 162.36 335.06 162.36"/><polygon class="an" points="335.51 151.82 339.74 151.82 339.25 157.46 335.51 157.46 335.51 151.82"/><polygon class="an" points="340.01 148.73 339.96 149.32 330.87 149.32 328.72 151.46 326.58 149.32 312.96 149.32 312.96 153.02 322.06 153.02 322.06 160.55 312.96 160.55 312.96 169.01 317.87 169.01 317.87 174.52 307.44 174.52 307.44 169.01 312.37 169.01 312.37 160.55 305.72 160.55 305.72 153.02 312.37 153.02 312.37 148.73 326.95 148.73 328.43 147.25 328.43 144.56 321.18 144.56 321.18 139.36 336.26 139.36 336.26 144.56 329.02 144.56 329.02 147.25 330.5 148.73 340.01 148.73"/></g></g><g><path class="am" d="M285.89,149.53s-4.33,2.42-1.94,7.98c0,0-3.18,2.31-1.79,7.1s4.23,4.92,4.23,4.92c0,0-1.87,3.37-.64,7.43,1.13,3.76,4.41,4.27,4.41,4.27,0,0-3.03,5.75,2.01,9.65,10.58,8.2,24.42,2.88,28.7-.87,6.54-5.74,3.42-11.52,3.42-11.52,0,0,3.08-4.19-2.9-11.02,0,0,3.59-5.17-1.71-11.3,0,0,2.6-8.44-6.83-10.55,0,0-1.28-4.04-5.3-5.15-5.24-1.45-7.22,1.11-7.22,1.11-7.09-2.39-8.68,2.3-8.68,2.3,0,0-6.06-.07-5.75,5.64Z"/><path class="au" d="M292.95,191.49c-.11,9.03-1.59,17.88-4.73,26.39-4.23,12.87-20.6,1.96-27.07-3.06l2.34-3.68c3.73,1.7,7.64,3.35,11.37,4.45,1.83,.54,3.77,.92,5.07,.83,.64-.03,.91-.29,.61-.17-.13,.06-.25,.22-.28,.23-.05,.11,.07-.25,.13-.47,2.38-7.86,3.44-16.31,3.76-24.52h8.8Z"/><path class="w" d="M286.58,182.96c-2.94,.98-4.14,13.48-4.14,13.48l8.67,5.02s7.02-13.03,4.47-16.16c-2.65-3.26-4.71-3.77-9-2.34Z"/><path class="ak" d="M286.58,182.96c-2.94,.98-4.14,13.48-4.14,13.48l8.67,5.02s7.02-13.03,4.47-16.16c-2.65-3.26-4.71-3.77-9-2.34Z"/><polygon class="an" points="287.05 185.69 285.65 198.3 290.52 201.11 287.05 185.69"/><g><path class="al" d="M263.2,215.11l-8.9-.48,4.84-5.63s4.59,.96,5.44,3.87l-1.37,2.23Z"/><polygon class="al" points="249.69 211.79 253.42 207.67 259.14 209.01 254.3 214.64 249.69 211.79"/></g><path class="w" d="M322.8,224.48c-5.71,.42-17.83,1.3-29.56,2.15-10.05-42.19-6.67-43.67-6.67-43.67,0,0,1.09-.31,2.75-.73,2.41-.61,6.04-1.47,9.41-2.03,4.34-.72,8.43-.86,13.43-.98,3.21-.08,6.41,.11,8.79,.31,2.34,.2,3.88,.42,3.88,.42-3.96,25.1-3.4,32.52-2.04,44.52Z"/><path class="ak" d="M322.09,201.94c-.68,9.34-.14,15.04,.71,22.53-5.71,.42-17.83,1.3-29.56,2.15-10.05-42.19-6.67-43.67-6.67-43.67,0,0,1.09-.31,2.75-.73,2.41-.61,6.04-1.47,9.41-2.03,4.34-.72,8.43-.86,13.43-.98,3.21-.08,6.41,.11,8.79,.31,2.34,.2,3.88,.42,3.88,.42-.87,5.52-1.53,10.19-2,14.23-.33,2.87-.58,5.43-.75,7.75Z"/><path class="am" d="M328.61,251.66c-.95-11.07-2.2-20.9-5.81-27.19l-21.75,1.58-7.8,.57s-.32,10.92-.5,25.04h35.87Z"/><path class="s" d="M328.61,251.66c-.95-11.07-2.2-20.9-5.81-27.19l-21.75,1.58-7.8,.57s-.32,10.92-.5,25.04h35.87Z"/><path class="al" d="M308.04,165.05c-.53,4.38-.8,12.35,2.43,15.01,0,0-.86,4.47-8.89,5.05-8.82,.64-4.53-4.07-4.53-4.07,4.73-1.5,4.35-5.06,3.27-8.36l7.73-7.63Z"/><path class="an" d="M304.89,168.17l-4.57,4.51c.26,.78,.47,1.57,.59,2.35,1.82-.4,4.2-2.6,4.26-4.54,.03-.97-.08-1.89-.27-2.32Z"/><g><path class="al" d="M307.84,154.5c.84,7.19,1.35,10.22-1.59,14.52-4.42,6.46-13.44,5.92-16.41-.88-2.67-6.12-3.6-16.85,2.86-20.93,6.36-4.02,14.3,.1,15.14,7.29Z"/><path class="am" d="M288.23,150.17c-1.11,3.91,24.78,7.62,20.06,1.07-4.72-6.55-17.16-11.28-20.06-1.07Z"/><path class="am" d="M301.98,153.63c.64,3.42,6.28,5.7,6.28,5.7,0,0,4.01-6.01-.21-6.92s-6.07,1.22-6.07,1.22Z"/><path class="am" d="M296.39,158.58c.1,.58-.12,1.1-.5,1.17-.38,.07-.77-.35-.87-.93-.1-.58,.12-1.1,.5-1.17s.77,.35,.87,.93Z"/><path class="am" d="M289.84,159.76c.1,.58-.12,1.1-.5,1.17s-.77-.35-.87-.93c-.1-.58,.12-1.1,.5-1.17,.38-.07,.77,.35,.87,.93Z"/><path class="am" d="M289.14,158.83l-1.46-.15s.91,.96,1.46,.15Z"/><path class="aw" d="M292.49,160.28s-.54,2.67-1.4,4.07c.89,.58,2.13,.02,2.13,.02l-.73-4.08Z"/><path class="al" d="M310.94,160.68c-.26,1.48-1.17,2.7-2.19,3.4-1.53,1.04-2.89-.19-2.96-1.94-.06-1.58,.66-4.03,2.44-4.37,1.75-.34,3,1.23,2.71,2.92Z"/><path class="am" d="M298.78,156.78c-.14,.05-.3,0-.39-.12-.96-1.28-3.02-1.23-3.04-1.23-.19,0-.35-.14-.36-.33,0-.19,.14-.35,.33-.36,.1,0,2.44-.06,3.61,1.5,.11,.15,.08,.37-.07,.48-.03,.02-.06,.04-.1,.05Z"/><path class="am" d="M287.33,157.09c-.11,.04-.24,.02-.34-.06-.15-.12-.16-.34-.04-.49,1.24-1.46,2.82-1.28,2.89-1.27,.19,.02,.32,.2,.3,.39-.02,.19-.2,.32-.38,.3h0c-.05,0-1.29-.14-2.28,1.03-.04,.05-.09,.08-.15,.1Z"/><path class="am" d="M295.69,157.66l-1.46-.15s.91,.96,1.46,.15Z"/><g><path class="am" d="M294.96,166.31c.88,.69,2.17,2.17,2.17,2.17,.16-.09,.31-.19,.46-.29,2.08-1.31,2.61-2.6,2.57-3.64-.02-.57-.23-1.06-.44-1.43-.24-.43-.51-.69-.51-.69-.69,1.35-2.53,2.72-3.54,3.41-.42,.29-.7,.46-.7,.46Z"/><path class="l" d="M295.66,165.85l.66,.62c1.95-1.24,3.16-2.37,3.4-3.35-.24-.43-.51-.69-.51-.69-.69,1.35-2.53,2.72-3.54,3.41Z"/><path class="ao" d="M297.59,168.2c2.08-1.31,2.61-2.6,2.57-3.64-.69,.47-1.47,1.12-2.02,1.91-.42,.6-.55,1.2-.55,1.73Z"/></g></g><path class="l" d="M323.12,222.71l.95,2.59c.12,.2-.11,.42-.45,.45l-30.42,2.21c-.27,.02-.5-.1-.53-.26l-.46-2.63c-.03-.18,.19-.35,.48-.38l29.93-2.18c.22-.02,.42,.06,.5,.19Z"/><g><path class="am" d="M319.34,226.35l.8-.06c.16-.01,.28-.1,.26-.2l-.63-3.41c-.02-.1-.16-.17-.32-.16l-.8,.06c-.16,.01-.28,.1-.26,.2l.63,3.41c.02,.1,.16,.17,.32,.16Z"/><path class="am" d="M295.47,228.08l.8-.06c.16-.01,.28-.1,.26-.2l-.63-3.41c-.02-.1-.16-.17-.32-.16l-.8,.06c-.16,.01-.28,.1-.26,.2l.63,3.41c.02,.1,.16,.17,.32,.16Z"/><path class="am" d="M307.41,227.22l.8-.06c.16-.01,.28-.1,.26-.2l-.63-3.41c-.02-.1-.16-.17-.32-.16l-.8,.06c-.16,.01-.28,.1-.26,.2l.63,3.41c.02,.1,.16,.17,.32,.16Z"/><g class="af"><path class="l" d="M319.34,226.35l.8-.06c.16-.01,.28-.1,.26-.2l-.63-3.41c-.02-.1-.16-.17-.32-.16l-.8,.06c-.16,.01-.28,.1-.26,.2l.63,3.41c.02,.1,.16,.17,.32,.16Z"/><path class="l" d="M295.47,228.08l.8-.06c.16-.01,.28-.1,.26-.2l-.63-3.41c-.02-.1-.16-.17-.32-.16l-.8,.06c-.16,.01-.28,.1-.26,.2l.63,3.41c.02,.1,.16,.17,.32,.16Z"/><path class="l" d="M307.41,227.22l.8-.06c.16-.01,.28-.1,.26-.2l-.63-3.41c-.02-.1-.16-.17-.32-.16l-.8,.06c-.16,.01-.28,.1-.26,.2l.63,3.41c.02,.1,.16,.17,.32,.16Z"/></g></g><g><path class="al" d="M315.97,215.46l-7.52,2.38,2.85-6.85s4.66-.51,6.37,1.99l-1.7,2.48Z"/><polygon class="al" points="302.7 215.7 305.4 210.09 311.3 210.99 308.45 217.84 302.7 215.7"/></g><path class="al" d="M320.95,179.54c-1.31,1.66-3.73,4.34-7.07,6.55-.26,.18-.53,.35-.81,.52-3.17,1.93-7.1,3.36-11.65,3.15-4.19-.19-6.93-1.15-8.73-2.37-.27-.19-.52-.37-.75-.57-1.92-1.61-2.46-3.48-2.61-4.58,1.25-.31,2.82-.7,4.53-1.08,.35-.08,.7-.15,1.05-.22,1.26-.26,2.57-.52,3.83-.73,4.34-.72,8.43-.86,13.43-.98,.36,0,.73-.02,1.09,0,.29,0,.58,0,.86,0,2.54,.02,4.94,.17,6.84,.33Z"/><path class="am" d="M313.88,186.08c-.26,.18-.53,.35-.81,.52-.23-3.31,0-5.92,.19-7.39,.29,0,.58,0,.86,0-.18,1.34-.4,3.78-.24,6.88Z"/><path class="am" d="M294.91,180.93c-.72,1.54-1.68,3.87-2.22,6.45-.27-.19-.52-.37-.75-.57,.49-2.2,1.26-4.19,1.92-5.66,.35-.08,.7-.15,1.05-.22Z"/><path class="an" d="M322.84,194.19c-.33,2.87-.58,5.43-.75,7.75-2.52-3.08-3.7-8.54-3.7-8.54,1.72-.42,3.21-.04,4.44,.79Z"/><path class="au" d="M329.19,187.21c3,5.99,5.7,12.02,7.49,18.51,.32,1.28,.73,3.14,.62,4.73-.69,9-18.1,6.51-24.12,5.69l.16-4.35c3.56-.41,7.19-.83,10.61-1.41,2.09-.41,4.67-.77,6.2-1.78,.06-.03-.17-.03-.54,.62-.18,.29-.27,.92-.27,.83,0,.02,0,.04,0,.05-1.82-6.5-5.29-12.78-8.04-18.98l7.88-3.91h0Z"/><path class="w" d="M324.83,179.96c3.03,.69,7.32,10.62,7.32,10.62l-10.89,9.05s-4.81-8.21-3.84-12.12c1.01-4.08,3.96-8.33,7.41-7.55Z"/><path class="ak" d="M324.83,179.96c3.03,.69,7.32,10.62,7.32,10.62l-10.89,9.05s-4.81-8.21-3.84-12.12c1.01-4.08,3.96-8.33,7.41-7.55Z"/><g class="af"><path class="l" d="M313.88,186.08c-.26,.18-.53,.35-.81,.52-.23-3.31,0-5.92,.19-7.39,.29,0,.58,0,.86,0-.18,1.34-.4,3.78-.24,6.88Z"/></g><g class="af"><path class="l" d="M294.91,180.93c-.72,1.54-1.68,3.87-2.22,6.45-.27-.19-.52-.37-.75-.57,.49-2.2,1.26-4.19,1.92-5.66,.35-.08,.7-.15,1.05-.22Z"/></g></g></g><g><path class="am" d="M199.87,214.34H74.23c-2.42,0-4.06,1.96-3.68,4.37l14.27,89.96c.38,2.41,2.65,4.37,5.07,4.37h125.64c2.42,0,4.06-1.96,3.68-4.37l-14.27-89.96c-.38-2.41-2.65-4.37-5.07-4.37Z"/><path class="o" d="M199.87,214.34H74.23c-2.42,0-4.06,1.96-3.68,4.37l14.27,89.96c.38,2.41,2.65,4.37,5.07,4.37h125.64c2.42,0,4.06-1.96,3.68-4.37l-14.27-89.96c-.38-2.41-2.65-4.37-5.07-4.37Z"/><path class="am" d="M200.72,214.34H75.08c-2.42,0-4.06,1.96-3.68,4.37l14.27,89.96c.38,2.41,2.65,4.37,5.07,4.37h125.64c2.42,0,4.06-1.96,3.68-4.37l-14.27-89.96c-.38-2.41-2.65-4.37-5.07-4.37Z"/><path class="w" d="M217.05,305.91H87.8l-.9-5.69-1.1-6.94-.64-4.04-.83-5.26-1.81-11.45-.29-1.83-1.1-6.94-.64-4.04-2.93-18.48-1.11-7-.69-4.34-1.84-11.6c-.07-.43,0-.81,.23-1.06,.2-.24,.53-.36,.93-.36h125.65c1.17,0,2.37,1.03,2.55,2.22l13.77,86.8Z"/><path class="k" d="M217.05,305.91H87.8l-.9-5.69-1.1-6.94-.64-4.04-.83-5.26-1.81-11.45-.29-1.83-1.1-6.94-.64-4.04-2.93-18.48-1.11-7-.69-4.34-1.84-11.6c-.07-.43,0-.81,.23-1.06,.2-.24,.53-.36,.93-.36h125.65c1.17,0,2.37,1.03,2.55,2.22l13.77,86.8Z"/><g><polygon class="q" points="162.16 229.92 162.16 305.91 87.8 305.91 86.91 300.22 85.8 293.28 85.16 289.25 84.33 283.99 82.51 272.54 82.22 270.71 81.12 263.77 80.49 259.73 77.55 241.26 76.44 234.26 75.75 229.92 162.16 229.92"/><polygon class="an" points="158.84 234.26 158.84 259.73 80.49 259.73 77.55 241.26 76.44 234.26 158.84 234.26"/><polygon class="an" points="158.84 263.77 158.84 289.25 85.16 289.25 84.33 283.99 82.51 272.54 82.22 270.71 81.12 263.77 158.84 263.77"/><polygon class="an" points="158.84 293.28 158.84 305.91 87.8 305.91 86.91 300.22 85.8 293.28 158.84 293.28"/><g class="an"><rect class="l" x="95.41" y="238.38" width="4.97" height="21.35"/><rect class="l" x="124.53" y="238.11" width="4.97" height="21.35" transform="translate(-40.41 25.19) rotate(-9.78)"/><polygon class="l" points="82.51 241.2 82.51 259.73 80.49 259.73 77.55 241.26 77.55 241.2 82.51 241.2"/><rect class="l" x="88.97" y="241.2" width="4.97" height="18.54"/><rect class="l" x="117.79" y="241.2" width="4.97" height="18.54"/><rect class="l" x="104.01" y="240.88" width="4.97" height="18.54" transform="translate(-51.72 29.05) rotate(-12.53)"/><rect class="l" x="84.33" y="237.32" width="2.48" height="22.41"/><rect class="l" x="113.87" y="237.32" width="2.48" height="22.41"/><rect class="l" x="153.87" y="267.89" width="4.97" height="21.35" transform="translate(312.71 557.14) rotate(180)"/><rect class="l" x="129.85" y="267.89" width="4.97" height="21.35" transform="translate(264.67 557.14) rotate(180)"/><rect class="l" x="100.73" y="267.63" width="4.97" height="21.35" transform="translate(157.67 570.1) rotate(-170.22)"/><rect class="l" x="147.72" y="270.71" width="4.97" height="18.54" transform="translate(300.4 559.96) rotate(180)"/><rect class="l" x="136.3" y="270.71" width="4.97" height="18.54" transform="translate(277.56 559.96) rotate(180)"/><rect class="l" x="107.48" y="270.71" width="4.97" height="18.54" transform="translate(219.93 559.96) rotate(180)"/><rect class="l" x="121.26" y="270.39" width="4.97" height="18.54" transform="translate(183.87 579.5) rotate(-167.47)"/><rect class="l" x="143.42" y="266.83" width="2.48" height="22.41" transform="translate(289.32 556.08) rotate(180)"/><rect class="l" x="113.87" y="266.83" width="2.48" height="22.41" transform="translate(230.23 556.08) rotate(180)"/><rect class="l" x="88.97" y="270.71" width="4.97" height="18.54"/><polygon class="l" points="86.81 266.83 86.81 289.25 85.16 289.25 84.33 283.99 84.33 266.83 86.81 266.83"/><g><rect class="l" x="121.58" y="297.41" width="4.97" height="8.51"/><polygon class="l" points="155.38 305.91 150.33 305.91 148.93 297.72 153.82 296.87 155.38 305.91"/><rect class="l" x="103.72" y="300.22" width="4.96" height="5.69"/><rect class="l" x="115.14" y="300.22" width="4.97" height="5.69"/><rect class="l" x="143.96" y="300.22" width="4.97" height="5.69"/><polygon class="l" points="134.48 305.91 129.39 305.91 128.22 300.66 133.08 299.59 134.48 305.91"/><rect class="l" x="110.5" y="296.35" width="2.48" height="9.57"/><rect class="l" x="140.05" y="296.35" width="2.48" height="9.57"/><polygon class="l" points="98.23 305.91 93.19 305.91 91.77 297.72 96.67 296.87 98.23 305.91"/><polygon class="l" points="91.77 300.22 91.77 305.91 87.8 305.91 86.91 300.22 91.77 300.22"/></g></g></g><g><path class="ap" d="M163.11,245.93c1.97,1.68,4.12,3.36,6.22,4.86,6.36,4.42,13.39,8.64,21.23,9.15-.06,.01-.44,.2-.32,.24,.14,.03,.72-.45,1.25-1.23,3.9-6.53,5.03-15.37,6.45-23.13h7.06c.76,6.37,.79,12.44-.07,18.85-1.07,8.25-5.16,18.55-15.38,18.18-7.2,.1-13.93-2.15-20.11-5.25-5.51-2.81-10.52-6.25-15.11-10.35l-1-.93,9.77-10.39h0Z"/><path class="at" d="M182.8,256.14l-5.9,14.59s-.69-.2-1.85-.58c-.85-.28-1.96-.66-3.25-1.11-7.28-2.56-19.06-8.17-21.88-12.7-4.2-6.76,2.26-12.04,14.4-9.89,5.24,.93,10.05,4.83,13.66,6.86,1.19,.67,2.22,1.27,3.01,1.73,1.15,.68,1.81,1.09,1.81,1.09Z"/><path class="ar" d="M150.32,257.17c1.46-3.09,5.77,0,12.72,.6,3.1,.27,14.01,7.66,15,10.15l-1.14,2.81s-22.52-6.75-26.58-13.56Z"/><g><path class="ap" d="M202.55,239.32l7.83-4.83-6.82-5.61s-6.62,5.7-5.28,8.09l4.27,2.36Z"/><polygon class="ap" points="211.77 226.38 206.01 223.71 203.55 228.87 210.37 234.49 211.77 226.38"/></g><path class="at" d="M125.85,286.69c1.01,7.3,1.61,13.88,2.04,19.23h43.99c1.06-39.73-10.12-59.87-10.12-59.87,0,0-1.67-.32-4.49-.61-2.2-.21-4.96-.41-7.76-.4-4.82,.03-12.66,.96-18.05,1.74-3.14,.45-6.31,1.15-8.84,1.77-3.04,.75-5.15,1.39-5.15,1.39,.29,.84,.56,1.67,.84,2.5,3.8,11.77,6.1,23.73,7.56,34.25Z"/><path class="ar" d="M125.85,286.69c-1.46-10.51-3.75-22.48-7.56-34.25,2.82-.52,7.7-.71,8.94,3.8,1.34,4.84,1.37,16.54-1.38,30.45Z"/><path class="ap" d="M127.23,261.22c-3.94,8.69-7.94,18.07-9.93,27.28l-.33,1.65c.06-.69-.27-1.81-.78-2.44-.39-.5-.82-.87-1.22-.94,.53,.48,2.05,.52,3.19,.65,6.03,.32,12.16-.49,18.41-1.04l1.94,6.79c-8.03,3.45-26.24,10.5-32.71,1.76-1.87-2.46-1.81-5.58-1.41-8.4,.6-5.61,2.02-11.16,3.75-16.48,1.77-5.31,3.79-10.31,6.38-15.3l12.71,6.46h0Z"/><path class="at" d="M129.39,263.39c-1.28,5.49-3.6,12.13-5.34,16.79-.45,1.23-.88,2.33-1.23,3.22-.61,1.56-.99,2.51-.99,2.51l-16.95-7.37s.14-.69,.39-1.87c.2-.88,.45-2.04,.78-3.38,1.94-7.9,6.11-22.05,11.4-23.35,7.91-1.94,14.27,3.5,11.94,13.45Z"/><path class="ap" d="M129.88,226.48l5.22,3.54,7.11,4.83c-.11,.91-.17,1.82-.16,2.7-.01,3.6,1.22,6.76,6.59,7.5,0,0,6.63,3.53-2.55,5.16,.03,.59,.07,2.02-.17,3.01-1.13-1.37-2.72-2.29-3.25-2.58-10.12,.79-11.91-3.76-11.91-3.76,3.56-4.26,1.03-14.71-.87-20.4Z"/><path class="an" d="M142.21,234.86c-.11,.91-.17,1.82-.16,2.7-2.5-.26-6.03-2.56-6.62-5.03-.22-.93-.33-1.84-.33-2.5l7.11,4.83Z"/><path class="am" d="M143.81,204.66c4.09,1.39,7.33,12.21,2.57,15.07-4.76,2.85-10.31-17.7-2.57-15.07Z"/><path class="ap" d="M127.09,218.31c2.42,7.56,3.46,12.1,8.36,15.18,7.37,4.64,16.02-.94,15.91-9-.09-7.25-4.04-18.4-12.38-19.8-8.21-1.38-14.32,6.05-11.89,13.62Z"/><path class="am" d="M133.48,208.14l-1.15-6.71c-1.74,.96-3.62,1.49-5.39,1.26-8.17-1.03-13.74,4.73-9.56,8.81-3.59,2.03-.96,6.97,1.9,9.99,3.98,4.2,7.94,5.96,10.29,3.62,2.18-1.37,1.72-9.38,.64-12.25-1.62-4.33,3.27-4.73,3.27-4.73Z"/><path class="ap" d="M126.08,226.54c1.54,1.53,3.54,2.32,5.18,2.44,2.48,.18,2.81-2.13,1.36-4.19-1.3-1.85-4.16-4.18-6.28-3.4-2.09,.77-2.02,3.4-.26,5.14Z"/><path class="am" d="M139.35,217.9c.16,.62,.62,1.06,1.03,.97s.62-.67,.46-1.29c-.16-.62-.62-1.06-1.03-.97-.41,.09-.62,.67-.46,1.29Z"/><path class="am" d="M146.46,216.35c.16,.62,.62,1.06,1.03,.97,.41-.09,.62-.67,.46-1.29-.16-.62-.62-1.06-1.03-.97s-.62,.67-.46,1.29Z"/><path class="ai" d="M144.27,217.16s2.35,3.29,4.36,4.68c-.85,1.27-2.86,1.21-2.86,1.21l-1.5-5.9Z"/><path class="am" d="M136.57,216.1c-.06,0-.13,0-.19-.03-.19-.08-.28-.31-.2-.5,.83-1.89,2.56-2.17,2.63-2.18,.19-.05,.4,.11,.43,.32,.03,.21-.11,.4-.32,.43-.07,.01-1.4,.24-2.05,1.73-.06,.13-.18,.21-.31,.23Z"/><path class="am" d="M148.9,213.26c-.12,.01-.24-.03-.33-.13-1.1-1.32-2.5-1.21-2.52-1.21-.21,.02-.39-.13-.41-.34-.02-.21,.13-.39,.34-.41h0c.07,0,1.81-.14,3.16,1.48,.13,.16,.11,.4-.05,.53-.06,.05-.13,.08-.21,.09Z"/><g><path class="ap" d="M138.24,292.72l8.06,.12-5.48-8.44s-7.16,1.18-6.24,4.82l3.65,3.5Z"/><polygon class="ap" points="151.44 287.34 146.58 280.59 140.83 284.4 146.31 292.84 151.44 287.34"/></g><path class="am" d="M126.55,203.6s5.12-11.07,15.66-9.34c0,0-1.98,.53-2.79,1.33,0,0,9.07-1.2,12.2,5.07l-1.79-.94s2.56,5.2,0,8.81l-.59-1.73s-3.52,4.8-9.15,3.73l1.88-1.06s-9.6,.14-12.09-2.2c-2.49-2.34-3.33-3.67-3.33-3.67Z"/><path class="n" d="M162.53,260.74c-.42,0-.8,.21-1.02,.54l-4.11-1.02c-.07-.61-.58-1.09-1.22-1.09-.68,0-1.23,.55-1.23,1.23s.55,1.23,1.23,1.23c.42,0,.8-.21,1.02-.54l4.11,1.02c0,.08,.03,.16,.05,.23l-2.29,1.78c-.19-.12-.41-.19-.65-.19-.68,0-1.23,.55-1.23,1.23s.55,1.23,1.23,1.23,1.23-.55,1.23-1.23c0-.13-.03-.25-.06-.37l2.29-1.78c.19,.12,.41,.19,.65,.19,.68,0,1.23-.55,1.23-1.23s-.55-1.23-1.23-1.23Z"/><g><path class="am" d="M147.45,225.13s-2.56-.59-9.74-.59c.84,2.16,2.41,3.92,6.09,3.89,3.68-.03,3.65-3.3,3.65-3.3Z"/><path class="ax" d="M142.09,226.73c1.78-.02,3.06,.39,4.01,1.04-.52,.38-1.27,.64-2.3,.65-1.78,.02-3.05-.38-4-1.04,.52-.38,1.26-.64,2.29-.65Z"/><path class="l" d="M147.12,225.07c-.2,.46-.41,.92-1.13,1.07-1.5,.1-5.33-.32-6.36-.54-.66-.11-1.22-.33-1.62-1.06,5.53,.01,8.24,.38,9.11,.53Z"/></g></g><g><path class="am" d="M233.15,321.18H96.4c-3.57,0-6.47-2.9-6.47-6.47v-3.28c0-.99,.8-1.78,1.78-1.78h199.16c.99,0,1.78,.8,1.78,1.78h0c0,.89-.66,1.65-1.54,1.77l-57.73,7.96c-.08,.01-.16,.02-.24,.02Z"/><path class="o" d="M292.67,311.43c0,.7-.42,1.32-1.03,1.61-.16,.08-.33,.14-.52,.16l-57.73,7.95c-.08,.02-.16,.02-.25,.02H96.4c-3.57,0-6.46-2.89-6.46-6.46v-3.28c0-.98,.8-1.78,1.78-1.78h199.15c.98,0,1.79,.8,1.79,1.78Z"/><path class="q" d="M128.77,321.18h-32.37c-3.57,0-6.47-2.9-6.47-6.47v-3.28c0-.99,.8-1.78,1.78-1.78h94.78c.99,0,1.78,.8,1.78,1.78h0c0,.89-.66,1.65-1.54,1.77l-57.73,7.96c-.08,.01-.16,.02-.24,.02Z"/><g><rect class="an" x="95.71" y="313.9" width="4.38" height="3.03" rx=".5" ry=".5"/><rect class="an" x="97.09" y="313.9" width="3.01" height="3.03" rx=".5" ry=".5"/><rect class="an" x="103.38" y="313.9" width="4.38" height="2.18" rx=".5" ry=".5"/><rect class="an" x="104.75" y="313.9" width="3.01" height="2.18" rx=".5" ry=".5"/><rect class="an" x="109.36" y="313.9" width="4.38" height="2.18" rx=".5" ry=".5"/><rect class="an" x="110.73" y="313.9" width="3.01" height="2.18" rx=".5" ry=".5"/></g><path class="n" d="M292.67,311.43c0,.7-.42,1.32-1.03,1.61h-104.38c.61-.29,1.03-.91,1.03-1.61,0-.98-.8-1.78-1.78-1.78h104.37c.98,0,1.79,.8,1.79,1.78Z"/></g></g><g><g><rect class="w" x="231.01" y="113.76" width="55.08" height="37.16" rx="8.04" ry="8.04"/><path class="w" d="M267.04,146.68s.93,6.42,11.76,14.41c0,0-5.13-7.28-5.13-14.41h-6.63Z"/><g class="j"><rect class="l" x="231.01" y="113.76" width="55.08" height="37.16" rx="8.04" ry="8.04"/><path class="l" d="M267.04,146.68s.93,6.42,11.76,14.41c0,0-5.13-7.28-5.13-14.41h-6.63Z"/></g></g><g><path class="w" d="M241.1,119l-1.42,1.18,2.02,2.93,1.61-.9c.85,.81,1.86,1.48,2.98,1.94l-.16,1.83,3.5,.65,.5-1.77c1.22-.03,2.39-.29,3.48-.75l1.18,1.42,2.93-2.02-.9-1.61c.81-.85,1.48-1.86,1.94-2.98l1.83,.16,.65-3.5-1.77-.5c-.03-1.22-.29-2.39-.75-3.48l1.42-1.18-2.02-2.93-1.61,.9c-.85-.81-1.86-1.48-2.98-1.94l.16-1.83-3.5-.65-.5,1.77c-1.22,.03-2.39,.29-3.48,.75l-1.18-1.42-2.93,2.02,.9,1.61c-.81,.85-1.48,1.86-1.94,2.98l-1.83-.16-.65,3.5,1.77,.5c.03,1.22,.29,2.39,.75,3.48Zm4.08-4.57c.48-2.62,3-4.34,5.61-3.86,2.62,.48,4.34,3,3.86,5.61-.48,2.62-3,4.34-5.61,3.86-2.62-.48-4.34-3-3.86-5.61Z"/><path class="u" d="M267.02,131.19l2.51,.46,.36-1.27c.87-.02,1.72-.21,2.5-.54l.85,1.02,2.11-1.45-.65-1.16c.59-.61,1.06-1.33,1.39-2.14l1.32,.12,.46-2.51-1.27-.36c-.02-.88-.21-1.72-.54-2.5l1.02-.85-1.45-2.11-1.16,.65c-.61-.58-1.33-1.06-2.14-1.39l.12-1.32-2.51-.46-.36,1.27c-.88,.02-1.72,.21-2.5,.54l-.85-1.02-2.11,1.45,.65,1.16c-.59,.61-1.06,1.33-1.39,2.14l-1.32-.12-.46,2.51,1.27,.36c.02,.87,.21,1.72,.54,2.5l-1.02,.85,1.45,2.11,1.16-.65c.61,.59,1.33,1.06,2.14,1.39l-.12,1.32Zm-.68-8.31c.35-1.88,2.15-3.12,4.03-2.77,1.88,.35,3.12,2.15,2.77,4.03-.35,1.88-2.15,3.12-4.03,2.77-1.88-.35-3.12-2.15-2.77-4.03Z"/><path class="x" d="M247.7,136.9c.02,1.04,.25,2.05,.64,2.98l-1.21,1.01,1.73,2.51,1.38-.77c.73,.7,1.59,1.27,2.55,1.66l-.14,1.57,2.99,.55,.43-1.51c1.04-.02,2.05-.25,2.98-.64l1.01,1.21,2.51-1.73-.77-1.38c.7-.73,1.27-1.59,1.66-2.55l1.57,.14,.55-2.99-1.51-.43c-.02-1.04-.25-2.05-.64-2.98l1.21-1.01-1.73-2.51-1.38,.77c-.73-.7-1.59-1.27-2.55-1.66l.14-1.57-2.99-.55-.43,1.51c-1.04,.02-2.05,.25-2.98,.64l-1.01-1.21-2.51,1.72,.77,1.38c-.7,.73-1.27,1.59-1.66,2.55l-1.57-.14-.55,2.99,1.51,.43Zm4.13-.93c.41-2.24,2.56-3.72,4.8-3.3,2.24,.41,3.72,2.56,3.3,4.8-.41,2.24-2.56,3.72-4.8,3.3-2.24-.41-3.72-2.56-3.3-4.8Z"/></g></g><g><g><path class="ad" d="M157.7,173.39h-60.7c-5.83,0-10.56-4.73-10.56-10.56V92.53c0-5.83,4.73-10.56,10.56-10.56h98.12c5.83,0,10.56,4.73,10.56,10.56v70.3c0,5.83-4.73,10.56-10.56,10.56h-26.87l-8.96,17.32"/><path class="ad" d="M162.2,173.39c0,1.24-1.01,2.25-2.25,2.25s-2.25-1.01-2.25-2.25,1.01-2.25,2.25-2.25,2.25,1.01,2.25,2.25Z"/><path class="ad" d="M160.38,192.96c0,1.24-1.01,2.25-2.25,2.25s-2.25-1.01-2.25-2.25,1.01-2.25,2.25-2.25,2.25,1.01,2.25,2.25Z"/></g><g><g><rect class="w" x="96.15" y="91.3" width="99.82" height="71.78" rx="4.76" ry="4.76"/><path class="r" d="M195.97,95.34v63.69c0,2.23-1.81,4.04-4.04,4.04H100.19c-2.23,0-4.04-1.81-4.04-4.04v-63.69c0-2.24,1.81-4.05,4.04-4.05h91.75c2.23,0,4.04,1.81,4.04,4.05Z"/></g><path class="an" d="M195.89,115.56v-.42h-24.68v-23.36h-.42v23.36h-24.47v-23.36h-.42v23.36h-24.47v-23.36h-.42v23.36h-24.78v.42h24.78v23.5h-24.78v.42h24.78v23.12h.42v-23.12h24.47v23.12h.42v-23.12h24.47v23.12h.42v-23.12h24.68v-.42h-24.68v-23.5h24.68Zm-74.46,23.5v-23.5h24.47v23.5h-24.47Zm49.36,0h-24.47v-23.5h24.47v23.5Z"/><path class="ak" d="M195.97,103.97v55.07c0,2.23-1.81,4.04-4.04,4.04H100.19c.2-.51,6.76-16.39,20.85-16.39s16.47-19.37,25.01-19.37,9.35,11.75,17.04,11.75,16.59-39.31,32.87-35.08Z"/><g><path class="ak" d="M123.35,102.03c-.44-.19-.89-.36-1.34-.52-.46-.15-.92-.27-1.38-.36-.24-.06-.47-.1-.71-.13-.01,0-.03,0-.04-.01-.44-.07-.89-.11-1.34-.13-.26-.01-.51-.02-.76-.02-1.18,0-2.33,.15-3.45,.44-.22,.06-.44,.12-.66,.19-.21,.07-.43,.13-.65,.21-.21,.08-.43,.17-.64,.26-.8,.34-1.57,.76-2.3,1.26-.19,.12-.37,.25-.55,.38-.17,.13-.35,.27-.52,.42-.34,.28-.66,.57-.98,.89-.03,.03-.07,.07-.09,.1-.03,.02-.06,.04-.08,.08-.1,.09-.19,.19-.29,.3-.15,.16-.29,.33-.43,.49-.12,.16-.25,.3-.37,.46-.15,.19-.29,.39-.43,.61-.11,.17-.24,.35-.35,.53-.12,.2-.24,.4-.34,.61-.09,.16-.18,.31-.26,.48-.12,.24-.22,.47-.33,.72-.09,.2-.17,.42-.25,.63-.06,.12-.1,.26-.13,.39-.04,.12-.09,.25-.12,.38-.19,.64-.34,1.29-.44,1.95-.03,.21-.06,.44-.08,.66-.01,.07-.01,.15-.02,.21-.03,.37-.04,.75-.04,1.13,0,1.41,.21,2.78,.62,4.07,1.34,4.32,4.75,7.73,9.07,9.08,1.3,.39,2.67,.62,4.1,.62s2.78-.21,4.07-.62c1.5-.46,2.89-1.19,4.13-2.11h0c.21-.15,.43-.31,.63-.48,.21-.18,.42-.35,.61-.54,.2-.18,.38-.37,.56-.56,.19-.19,.37-.39,.54-.59,.58-.68,1.07-1.43,1.5-2.22,.02-.04,.04-.07,.06-.11,.08-.11,.15-.24,.2-.36,.12-.24,.24-.48,.35-.73,.19-.45,.36-.9,.5-1.36,.04-.16,.09-.3,.12-.46,.03-.1,.06-.19,.08-.29,.03-.1,.06-.2,.07-.3,.02-.03,.02-.07,.02-.1,.02-.06,.03-.12,.04-.18,.02-.12,.06-.25,.07-.37,.04-.21,.08-.42,.1-.63,.01-.09,.02-.17,.03-.25,0-.04,0-.08,.01-.11,.04-.47,.07-.93,.07-1.4,0-5.62-3.37-10.47-8.2-12.6Zm-5.57,21.29c-4.8,0-8.69-3.89-8.69-8.69,0-2.36,.92-4.48,2.44-6.04,.02-.01,.03-.03,.04-.04,1.58-1.61,3.78-2.6,6.21-2.6,1.26,0,2.45,.27,3.51,.74,3.05,1.35,5.17,4.4,5.17,7.95,0,2.85-1.38,5.39-3.51,6.97-1.45,1.08-3.23,1.72-5.17,1.72Z"/><path class="l" d="M125.98,125.67c-1.23,.93-2.62,1.65-4.11,2.12-1.3,.41-2.66,.62-4.08,.62s-2.79-.22-4.1-.62c-4.3-1.36-7.71-4.77-9.07-9.07-.41-1.3-.62-2.66-.62-4.08,0-.38,0-.76,.04-1.13,.02-.07,.02-.15,.03-.22,.03-.22,.04-.45,.08-.66,.1-.66,.25-1.31,.44-1.95,.03-.14,.08-.25,.12-.38,.03-.14,.08-.27,.14-.39,.08-.21,.16-.43,.25-.63,.1-.25,.2-.48,.33-.72,.08-.17,.17-.32,.25-.48,.1-.2,.21-.41,.34-.6,.11-.19,.24-.36,.35-.53,.14-.21,.28-.42,.42-.6,.13-.16,.25-.31,.37-.46,.14-.17,.28-.34,.42-.5,.09-.11,.18-.21,.28-.31l.08-.08h0l3.62,3.57s-.02,.03-.04,.04c-1.52,1.56-2.43,3.68-2.43,6.04,0,4.79,3.88,8.69,8.68,8.69,1.94,0,3.73-.64,5.17-1.72l3.02,4.06Z"/><path class="n" d="M123.35,102.03l-2.05,4.66c-1.07-.47-2.26-.74-3.51-.74-2.42,0-4.62,1-6.21,2.6-.01,.01-.02,.03-.04,.04l-3.66-3.52h-.01l.08-.09s.07-.07,.1-.09c.31-.31,.64-.61,.98-.89,.17-.15,.35-.28,.52-.42,.18-.13,.36-.26,.55-.38,.73-.49,1.5-.92,2.3-1.26,.21-.09,.43-.18,.64-.26,.22-.08,.44-.15,.65-.21,.22-.07,.44-.13,.66-.19,1.11-.29,2.27-.44,3.45-.44,.26,0,.51,.01,.76,.02,.45,.02,.9,.07,1.34,.13,.01,.01,.03,.01,.04,.01,.24,.03,.47,.08,.71,.13,.46,.09,.92,.21,1.38,.36,.45,.16,.9,.33,1.34,.52Z"/><path class="a`" d="M131.56,114.64c0,.47-.02,.93-.07,1.4-.01,.03-.01,.07-.01,.11-.01,.08-.02,.16-.03,.25-.02,.21-.06,.42-.1,.63-.01,.12-.04,.25-.07,.37-.01,.07-.02,.12-.04,.18,0,.03,0,.07-.02,.1-.01,.1-.03,.2-.07,.3-.02,.1-.04,.19-.08,.29-.03,.16-.08,.3-.12,.46-.15,.46-.31,.91-.5,1.36-.11,.25-.22,.49-.35,.73-.06,.12-.12,.25-.2,.36-.44,.83-.97,1.61-1.56,2.32-.17,.2-.35,.4-.54,.59-.18,.19-.37,.38-.56,.56-.19,.19-.39,.36-.61,.54-.2,.17-.42,.34-.63,.49v-.02l-3.03-4.06c2.13-1.58,3.51-4.12,3.51-6.97h5.08Z"/></g><line class="aa" x1="127.87" y1="108.6" x2="136.32" y2="102.52"/><rect class="l" x="134.87" y="98.96" width="15.77" height="7.83" rx=".84" ry=".84"/><path class="l" d="M128.74,108.6c0,.48-.39,.87-.87,.87s-.87-.39-.87-.87,.39-.87,.87-.87,.87,.39,.87,.87Z"/><path class="a`" d="M195.97,135.94v23.09c0,2.23-1.81,4.04-4.04,4.04H100.19c.35-.37,5.92-9.19,14.79-9.19,7,0,7.45,5.02,15.84,5.28s16.88-16.6,28.49-16.6,13.5,5.78,21.78,6.12c8.29,.33,14.88-12.74,14.88-12.74Z"/></g></g></g></g></svg>