<?xml version="1.0" encoding="UTF-8"?><svg id="a" xmlns="http://www.w3.org/2000/svg" viewBox="0 0 553 265"><defs><style>.b{fill:#fff;}.c{fill:#108141;}.d{fill:#3f6b71;}.e{fill:#ffa800;}.f{fill:#062060;}</style></defs><g><g><polygon class="d" points="406.51 200.19 181.71 200.19 294.11 28.41 406.51 200.19"/><polygon class="e" points="276.1 37.8 267.17 40.98 270.55 43.54 175.79 176.57 177.3 177.64 272.02 44.66 275.45 47.25 276.1 37.8"/><polygon class="f" points="403.75 176.33 404.06 166.86 400.44 169.06 311.44 32.11 309.89 33.12 398.86 170.02 395.19 172.25 403.75 176.33"/><polygon class="c" points="217.48 211.34 225.28 216.72 225.38 212.49 388.71 211.6 388.7 209.75 225.43 210.64 225.53 206.35 217.48 211.34"/></g><g><path class="b" d="M242.13,138.77h-1.94v4.6h-3.12v-12.82h5.06c3.14,0,4.71,1.77,4.71,4.13,0,2.12-1.44,4.09-4.71,4.09Zm-.24-2.48c1.24,0,1.77-.62,1.77-1.61s-.53-1.61-1.77-1.61h-1.7v3.22h1.7Z"/><path class="b" d="M254.53,143.5c-3.63,0-6.59-2.72-6.59-6.58s2.96-6.56,6.59-6.56,6.56,2.7,6.56,6.56-2.92,6.58-6.56,6.58Zm0-2.85c2.05,0,3.38-1.48,3.38-3.73s-1.33-3.73-3.38-3.73-3.4,1.44-3.4,3.73,1.32,3.73,3.4,3.73Z"/><path class="b" d="M267.46,143.5c-2.76,0-4.91-1.37-5-3.96h3.32c.09,.99,.71,1.46,1.59,1.46s1.5-.46,1.5-1.21c0-2.37-6.41-1.1-6.37-5.64,0-2.43,1.99-3.78,4.68-3.78s4.68,1.39,4.8,3.84h-3.38c-.05-.82-.64-1.32-1.48-1.33-.75-.02-1.32,.37-1.32,1.17,0,2.23,6.34,1.22,6.34,5.52,0,2.15-1.68,3.95-4.68,3.95Z"/><path class="b" d="M273.35,130.55h9.92v2.5h-3.4v10.32h-3.12v-10.32h-3.4v-2.5Z"/><path class="b" d="M284.78,130.55h3.12v7.67c0,1.52,.75,2.39,2.23,2.39s2.26-.88,2.26-2.39v-7.67h3.12v7.65c0,3.54-2.48,5.3-5.44,5.3s-5.3-1.75-5.3-5.3v-7.65Z"/><path class="b" d="M300.83,130.55v10.41h4.09v2.41h-7.21v-12.82h3.12Z"/><path class="b" d="M314.4,141.11h-4.79l-.77,2.26h-3.27l4.64-12.82h3.62l4.64,12.82h-3.31l-.77-2.26Zm-2.39-7.11l-1.57,4.69h3.16l-1.59-4.69Z"/><path class="b" d="M331.4,136.96c0,3.8-2.63,6.41-6.72,6.41h-4.8v-12.82h4.8c4.09,0,6.72,2.59,6.72,6.41Zm-6.92,3.71c2.36,0,3.74-1.35,3.74-3.71s-1.39-3.74-3.74-3.74h-1.48v7.45h1.48Z"/><path class="b" d="M339.21,143.5c-3.63,0-6.59-2.72-6.59-6.58s2.96-6.56,6.59-6.56,6.56,2.7,6.56,6.56-2.92,6.58-6.56,6.58Zm0-2.85c2.05,0,3.38-1.48,3.38-3.73s-1.33-3.73-3.38-3.73-3.4,1.44-3.4,3.73,1.32,3.73,3.4,3.73Z"/><path class="b" d="M235.31,158.87c0,3.8-2.63,6.41-6.72,6.41h-4.8v-12.82h4.8c4.09,0,6.72,2.59,6.72,6.41Zm-6.92,3.71c2.36,0,3.74-1.35,3.74-3.71s-1.39-3.74-3.74-3.74h-1.48v7.45h1.48Z"/><path class="b" d="M245.04,163.02h-4.79l-.77,2.26h-3.27l4.64-12.82h3.62l4.64,12.82h-3.31l-.77-2.26Zm-2.39-7.11l-1.57,4.69h3.16l-1.59-4.69Z"/><path class="b" d="M260.3,152.32c3.05,0,5.35,1.72,6.08,4.49h-3.43c-.53-1.1-1.5-1.64-2.69-1.64-1.92,0-3.23,1.43-3.23,3.69s1.31,3.69,3.23,3.69c1.19,0,2.16-.55,2.69-1.64h3.43c-.73,2.78-3.03,4.47-6.08,4.47-3.78,0-6.45-2.69-6.45-6.52s2.67-6.54,6.45-6.54Z"/><path class="b" d="M274.36,165.41c-3.63,0-6.59-2.72-6.59-6.58s2.96-6.56,6.59-6.56,6.56,2.7,6.56,6.56-2.92,6.58-6.56,6.58Zm0-2.85c2.05,0,3.38-1.48,3.38-3.73s-1.33-3.73-3.38-3.73-3.4,1.44-3.4,3.73,1.32,3.73,3.4,3.73Z"/><path class="b" d="M290.5,154.96h-4.73v2.59h4.18v2.41h-4.18v2.81h4.73v2.5h-7.85v-12.82h7.85v2.5Z"/><path class="b" d="M297.77,152.46c3.14,0,4.71,1.81,4.71,4.04,0,1.61-.88,3.12-2.85,3.71l2.96,5.08h-3.53l-2.67-4.84h-.75v4.84h-3.12v-12.82h5.24Zm-.18,2.59h-1.94v3.18h1.94c1.17,0,1.72-.6,1.72-1.61,0-.95-.55-1.57-1.72-1.57Z"/><path class="b" d="M312.28,154.96h-4.73v2.59h4.18v2.41h-4.18v2.81h4.73v2.5h-7.85v-12.82h7.85v2.5Zm-1.19-3.23l-2.83-1.5-2.83,1.5v-2.15l2.83-1.44,2.83,1.44v2.15Z"/><path class="b" d="M325.78,152.46v12.82h-3.12l-5.22-7.91v7.91h-3.12v-12.82h3.12l5.22,7.95v-7.95h3.12Z"/><path class="b" d="M333.95,152.32c3.05,0,5.35,1.72,6.08,4.49h-3.43c-.53-1.1-1.5-1.64-2.68-1.64-1.92,0-3.23,1.43-3.23,3.69s1.31,3.69,3.23,3.69c1.19,0,2.16-.55,2.68-1.64h3.43c-.73,2.78-3.03,4.47-6.08,4.47-3.78,0-6.45-2.69-6.45-6.52s2.67-6.54,6.45-6.54Z"/><path class="b" d="M341.95,152.46h3.12v12.82h-3.12v-12.82Z"/><path class="b" d="M355.32,163.02h-4.79l-.77,2.26h-3.27l4.64-12.82h3.62l4.64,12.82h-3.31l-.77-2.26Zm-2.39-7.11l-1.57,4.69h3.16l-1.59-4.69Z"/></g></g><g><path d="M384.73,91.37h-1.61v3.49h-1.09v-8.36h2.7c1.97,0,2.89,1.08,2.89,2.45,0,1.27-.82,2.42-2.89,2.42Zm0-.9c1.25,0,1.78-.59,1.78-1.52s-.53-1.55-1.78-1.55h-1.61v3.07h1.61Z"/><path d="M390.07,94.86h-1.09v-6.57h1.09v1.07c.37-.73,1.08-1.19,2.12-1.19v1.13h-.29c-1.04,0-1.83,.47-1.83,1.99v3.57Z"/><path d="M396.17,88.18c1.22,0,2.06,.62,2.45,1.31v-1.2h1.1v6.57h-1.1v-1.22c-.4,.71-1.25,1.33-2.46,1.33-1.75,0-3.11-1.38-3.11-3.42s1.36-3.37,3.12-3.37Zm.22,.95c-1.2,0-2.22,.88-2.22,2.42s1.02,2.46,2.22,2.46,2.23-.9,2.23-2.45-1.03-2.43-2.23-2.43Zm1.38-3.65v.95l-2.55,1.37v-.82l2.55-1.5Z"/><path d="M401.81,89.18h-.85v-.9h.85v-1.66h1.09v1.66h1.71v.9h-1.71v3.87c0,.65,.24,.88,.91,.88h.8v.92h-.98c-1.16,0-1.82-.48-1.82-1.8v-3.87Z"/><path d="M405.75,86.47c0-.42,.32-.74,.74-.74,.4,0,.72,.32,.72,.74s-.32,.74-.72,.74c-.42,0-.74-.32-.74-.74Zm.18,1.81h1.09v6.57h-1.09v-6.57Z"/><path d="M411.68,88.18c1.63,0,2.7,.84,3.03,2.22h-1.17c-.23-.79-.89-1.3-1.86-1.3-1.2,0-2.09,.85-2.09,2.46s.89,2.48,2.09,2.48c.97,0,1.62-.47,1.86-1.3h1.17c-.34,1.31-1.4,2.22-3.03,2.22-1.87,0-3.2-1.32-3.2-3.41s1.33-3.38,3.2-3.38Z"/><path d="M418.88,88.18c1.22,0,2.06,.62,2.45,1.31v-1.2h1.1v6.57h-1.1v-1.22c-.4,.71-1.25,1.33-2.46,1.33-1.75,0-3.11-1.38-3.11-3.42s1.36-3.37,3.12-3.37Zm.22,.95c-1.2,0-2.22,.88-2.22,2.42s1.02,2.46,2.22,2.46,2.23-.9,2.23-2.45-1.03-2.43-2.23-2.43Z"/><path d="M430.21,88.18c1.03,0,1.98,.53,2.43,1.28v-3.48h1.1v8.88h-1.1v-1.24c-.4,.73-1.25,1.34-2.45,1.34-1.76,0-3.12-1.38-3.12-3.42s1.36-3.37,3.13-3.37Zm.2,.95c-1.2,0-2.22,.88-2.22,2.42s1.02,2.46,2.22,2.46,2.23-.9,2.23-2.45-1.03-2.43-2.23-2.43Z"/><path d="M438.44,94.97c-1.87,0-3.25-1.32-3.25-3.41s1.33-3.38,3.25-3.38,3.15,1.34,3.15,3.14c0,.24-.01,.43-.04,.66h-5.25c.08,1.33,1.02,2.06,2.13,2.06,.98,0,1.61-.5,1.85-1.21h1.17c-.34,1.2-1.39,2.13-3.02,2.13Zm-2.12-3.87h4.15c.01-1.28-.95-1.99-2.08-1.99-1.07,0-1.96,.71-2.07,1.99Z"/><path d="M449.79,88.18c1.76,0,3.12,1.32,3.12,3.37s-1.36,3.42-3.12,3.42c-1.2,0-2.05-.65-2.46-1.32v4.33h-1.09v-9.69h1.09v1.21c.4-.7,1.26-1.32,2.46-1.32Zm-.23,.95c-1.19,0-2.23,.91-2.23,2.43s1.04,2.45,2.23,2.45,2.23-.91,2.23-2.46-1.02-2.42-2.23-2.42Z"/><path d="M454.35,85.98h1.09v8.88h-1.09v-8.88Z"/><path d="M460.02,88.18c1.22,0,2.06,.62,2.45,1.31v-1.2h1.1v6.57h-1.1v-1.22c-.4,.71-1.25,1.33-2.46,1.33-1.75,0-3.11-1.38-3.11-3.42s1.36-3.37,3.12-3.37Zm.22,.95c-1.2,0-2.22,.88-2.22,2.42s1.02,2.46,2.22,2.46,2.23-.9,2.23-2.45-1.03-2.43-2.23-2.43Z"/><path d="M470.23,91.14c0-1.34-.73-2.03-1.83-2.03s-1.88,.7-1.88,2.11v3.63h-1.09v-6.57h1.09v.94c.43-.68,1.22-1.06,2.11-1.06,1.52,0,2.69,.94,2.69,2.82v3.87h-1.08v-3.72Z"/><path d="M475.94,94.97c-1.87,0-3.25-1.32-3.25-3.41s1.33-3.38,3.25-3.38,3.15,1.34,3.15,3.14c0,.24-.01,.43-.04,.66h-5.25c.08,1.33,1.02,2.06,2.13,2.06,.98,0,1.61-.5,1.85-1.21h1.17c-.34,1.2-1.39,2.13-3.02,2.13Zm-2.12-3.87h4.15c.01-1.28-.95-1.99-2.08-1.99-1.07,0-1.96,.71-2.07,1.99Z"/><path d="M481.67,88.28v8c0,1.19-.62,1.69-1.74,1.69h-.64v-.92h.46c.6,0,.83-.22,.83-.79v-7.98h1.09Zm-1.27-1.81c0-.42,.32-.74,.73-.74s.73,.32,.73,.74-.32,.74-.73,.74-.73-.32-.73-.74Z"/><path d="M486.22,88.18c1.22,0,2.06,.62,2.45,1.31v-1.2h1.1v6.57h-1.1v-1.22c-.4,.71-1.25,1.33-2.46,1.33-1.75,0-3.11-1.38-3.11-3.42s1.36-3.37,3.12-3.37Zm.22,.95c-1.2,0-2.22,.88-2.22,2.42s1.02,2.46,2.22,2.46,2.23-.9,2.23-2.45-1.03-2.43-2.23-2.43Z"/><path d="M501.11,91.14c0-1.34-.72-2.03-1.8-2.03s-1.86,.71-1.86,2.12v3.62h-1.08v-3.72c0-1.34-.72-2.03-1.8-2.03s-1.86,.71-1.86,2.12v3.62h-1.09v-6.57h1.09v.95c.43-.7,1.21-1.07,2.08-1.07,1.08,0,1.98,.48,2.41,1.46,.38-.95,1.32-1.46,2.33-1.46,1.5,0,2.66,.94,2.66,2.82v3.87h-1.08v-3.72Z"/><path d="M506.83,94.97c-1.87,0-3.25-1.32-3.25-3.41s1.33-3.38,3.25-3.38,3.15,1.34,3.15,3.14c0,.24-.01,.43-.04,.66h-5.25c.08,1.33,1.02,2.06,2.13,2.06,.98,0,1.61-.5,1.85-1.21h1.17c-.34,1.2-1.39,2.13-3.02,2.13Zm-2.12-3.87h4.15c.01-1.28-.95-1.99-2.08-1.99-1.07,0-1.96,.71-2.07,1.99Z"/><path d="M516.23,91.14c0-1.34-.73-2.03-1.83-2.03s-1.88,.7-1.88,2.11v3.63h-1.09v-6.57h1.09v.94c.43-.68,1.22-1.06,2.11-1.06,1.52,0,2.69,.94,2.69,2.82v3.87h-1.08v-3.72Z"/><path d="M519.35,89.18h-.85v-.9h.85v-1.66h1.09v1.66h1.71v.9h-1.71v3.87c0,.65,.24,.88,.91,.88h.8v.92h-.98c-1.16,0-1.82-.48-1.82-1.8v-3.87Z"/><path d="M526.34,94.97c-1.86,0-3.27-1.32-3.27-3.41s1.46-3.38,3.32-3.38,3.32,1.31,3.32,3.38-1.5,3.41-3.37,3.41Zm0-.96c1.14,0,2.25-.78,2.25-2.45s-1.09-2.43-2.22-2.43-2.2,.78-2.2,2.43,1.02,2.45,2.16,2.45Z"/><path d="M531.5,94.93c-.42,0-.74-.32-.74-.74s.32-.74,.74-.74c.4,0,.72,.32,.72,.74s-.32,.74-.72,.74Z"/></g><g><path d="M151.2,239h4.72v.89h-3.63v2.82h2.95v.89h-2.95v3.77h-1.09v-8.36Z"/><path d="M160.12,247.46c-1.86,0-3.27-1.32-3.27-3.41s1.46-3.38,3.32-3.38,3.32,1.31,3.32,3.38-1.5,3.41-3.37,3.41Zm0-.96c1.14,0,2.25-.78,2.25-2.45s-1.09-2.43-2.22-2.43-2.2,.78-2.2,2.43,1.02,2.45,2.16,2.45Z"/><path d="M166.02,247.36h-1.09v-6.57h1.09v1.07c.37-.73,1.08-1.19,2.12-1.19v1.13h-.29c-1.04,0-1.83,.47-1.83,1.99v3.57Z"/><path d="M178.9,243.64c0-1.34-.72-2.03-1.8-2.03s-1.86,.71-1.86,2.12v3.62h-1.08v-3.72c0-1.34-.72-2.03-1.8-2.03s-1.86,.71-1.86,2.12v3.62h-1.09v-6.57h1.09v.95c.43-.7,1.21-1.07,2.08-1.07,1.08,0,1.98,.48,2.41,1.46,.38-.95,1.32-1.46,2.33-1.46,1.5,0,2.66,.94,2.66,2.82v3.87h-1.08v-3.72Z"/><path d="M184.48,240.68c1.22,0,2.06,.62,2.45,1.31v-1.2h1.1v6.57h-1.1v-1.22c-.4,.71-1.25,1.33-2.46,1.33-1.75,0-3.11-1.38-3.11-3.42s1.36-3.37,3.12-3.37Zm.22,.95c-1.2,0-2.22,.88-2.22,2.42s1.02,2.46,2.22,2.46,2.23-.9,2.23-2.45-1.03-2.43-2.23-2.43Z"/><path d="M192.21,247.46c-1.54,0-2.61-.84-2.69-2.04h1.13c.06,.64,.62,1.12,1.55,1.12,.86,0,1.34-.43,1.34-.97,0-1.46-3.89-.61-3.89-3.06,0-1.01,.95-1.83,2.41-1.83s2.41,.78,2.48,2.06h-1.09c-.05-.66-.55-1.14-1.43-1.14-.8,0-1.28,.38-1.28,.91,0,1.56,3.81,.71,3.86,3.06,0,1.08-.95,1.89-2.4,1.89Z"/><path d="M202.07,240.68c1.03,0,1.98,.53,2.44,1.28v-3.48h1.1v8.88h-1.1v-1.24c-.4,.73-1.25,1.34-2.45,1.34-1.76,0-3.12-1.38-3.12-3.42s1.36-3.37,3.13-3.37Zm.2,.95c-1.2,0-2.22,.88-2.22,2.42s1.02,2.46,2.22,2.46,2.23-.9,2.23-2.45-1.03-2.43-2.23-2.43Z"/><path d="M210.3,247.46c-1.87,0-3.25-1.32-3.25-3.41s1.33-3.38,3.25-3.38,3.15,1.34,3.15,3.14c0,.24-.01,.43-.04,.66h-5.25c.08,1.33,1.02,2.06,2.13,2.06,.98,0,1.61-.5,1.85-1.21h1.17c-.34,1.2-1.39,2.13-3.02,2.13Zm-2.12-3.87h4.15c.01-1.28-.95-1.99-2.08-1.99-1.07,0-1.96,.71-2.07,1.99Z"/><path d="M220.97,247.46c-1.86,0-3.27-1.32-3.27-3.41s1.46-3.38,3.32-3.38,3.32,1.31,3.32,3.38-1.5,3.41-3.37,3.41Zm0-.96c1.14,0,2.25-.78,2.25-2.45s-1.09-2.43-2.22-2.43-2.2,.78-2.2,2.43,1.02,2.45,2.16,2.45Z"/><path d="M226.87,247.36h-1.09v-6.57h1.09v1.07c.37-.73,1.08-1.19,2.12-1.19v1.13h-.29c-1.04,0-1.83,.47-1.83,1.99v3.57Z"/><path d="M232.97,240.68c1.2,0,2.06,.6,2.45,1.31v-1.2h1.1v6.72c0,1.81-1.21,3.09-3.14,3.09-1.73,0-2.96-.88-3.18-2.28h1.08c.24,.79,1.02,1.33,2.1,1.33,1.16,0,2.04-.74,2.04-2.15v-1.38c-.4,.71-1.25,1.34-2.45,1.34-1.76,0-3.12-1.38-3.12-3.42s1.36-3.37,3.12-3.37Zm.22,.95c-1.2,0-2.22,.88-2.22,2.42s1.02,2.46,2.22,2.46,2.23-.9,2.23-2.45-1.03-2.43-2.23-2.43Z"/><path d="M241.08,240.68c1.22,0,2.06,.62,2.45,1.31v-1.2h1.1v6.57h-1.1v-1.22c-.4,.71-1.25,1.33-2.46,1.33-1.75,0-3.11-1.38-3.11-3.42s1.36-3.37,3.12-3.37Zm.22,.95c-1.2,0-2.22,.88-2.22,2.42s1.02,2.46,2.22,2.46,2.23-.9,2.23-2.45-1.03-2.43-2.23-2.43Z"/><path d="M251.29,243.64c0-1.34-.73-2.03-1.83-2.03s-1.88,.7-1.88,2.11v3.63h-1.09v-6.57h1.09v.94c.43-.68,1.22-1.06,2.11-1.06,1.52,0,2.69,.94,2.69,2.82v3.87h-1.08v-3.72Z"/><path d="M253.98,238.97c0-.42,.32-.74,.74-.74,.4,0,.72,.32,.72,.74s-.32,.74-.72,.74c-.42,0-.74-.32-.74-.74Zm.18,1.81h1.09v6.57h-1.09v-6.57Z"/><path d="M261.13,241.67l-3.2,4.79h3.23v.9h-4.47v-.9l3.19-4.79h-3.17v-.89h4.43v.89Z"/><path d="M265.29,240.68c1.22,0,2.06,.62,2.45,1.31v-1.2h1.1v6.57h-1.1v-1.22c-.4,.71-1.25,1.33-2.46,1.33-1.75,0-3.11-1.38-3.11-3.42s1.36-3.37,3.12-3.37Zm.22,.95c-1.2,0-2.22,.88-2.22,2.42s1.02,2.46,2.22,2.46,2.23-.9,2.23-2.45-1.03-2.43-2.23-2.43Z"/><path d="M271.78,247.36h-1.09v-6.57h1.09v1.07c.37-.73,1.08-1.19,2.12-1.19v1.13h-.29c-1.04,0-1.83,.47-1.83,1.99v3.57Z"/><path d="M281.23,247.46c-1.86,0-3.27-1.32-3.27-3.41s1.46-3.38,3.32-3.38,3.32,1.31,3.32,3.38-1.5,3.41-3.37,3.41Zm0-.96c1.14,0,2.25-.78,2.25-2.45s-1.09-2.43-2.22-2.43-2.2,.78-2.2,2.43,1.02,2.45,2.16,2.45Z"/><path d="M288.37,247.46c-1.54,0-2.61-.84-2.69-2.04h1.13c.06,.64,.62,1.12,1.55,1.12,.86,0,1.34-.43,1.34-.97,0-1.46-3.89-.61-3.89-3.06,0-1.01,.95-1.83,2.41-1.83s2.41,.78,2.48,2.06h-1.09c-.05-.66-.55-1.14-1.43-1.14-.8,0-1.28,.38-1.28,.91,0,1.56,3.81,.71,3.86,3.06,0,1.08-.95,1.89-2.4,1.89Z"/><path d="M299.06,240.68c1.76,0,3.12,1.32,3.12,3.37s-1.36,3.42-3.12,3.42c-1.2,0-2.05-.65-2.46-1.32v4.33h-1.09v-9.69h1.09v1.21c.4-.7,1.26-1.32,2.46-1.32Zm-.23,.95c-1.19,0-2.23,.91-2.23,2.43s1.04,2.45,2.23,2.45,2.23-.91,2.23-2.46-1.02-2.42-2.23-2.42Z"/><path d="M304.72,247.36h-1.09v-6.57h1.09v1.07c.37-.73,1.08-1.19,2.12-1.19v1.13h-.29c-1.04,0-1.83,.47-1.83,1.99v3.57Z"/><path d="M310.97,247.46c-1.86,0-3.27-1.32-3.27-3.41s1.46-3.38,3.32-3.38,3.32,1.31,3.32,3.38-1.5,3.41-3.37,3.41Zm0-.96c1.14,0,2.25-.78,2.25-2.45s-1.09-2.43-2.22-2.43-2.2,.78-2.2,2.43,1.02,2.45,2.16,2.45Z"/><path d="M318.58,240.68c1.63,0,2.7,.84,3.03,2.22h-1.17c-.23-.79-.89-1.3-1.86-1.3-1.2,0-2.09,.85-2.09,2.46s.89,2.48,2.09,2.48c.97,0,1.62-.47,1.86-1.3h1.17c-.34,1.31-1.4,2.22-3.03,2.22-1.87,0-3.2-1.32-3.2-3.41s1.33-3.38,3.2-3.38Z"/><path d="M325.91,247.46c-1.87,0-3.25-1.32-3.25-3.41s1.33-3.38,3.25-3.38,3.15,1.34,3.15,3.14c0,.24-.01,.43-.04,.66h-5.25c.08,1.33,1.02,2.06,2.13,2.06,.98,0,1.61-.5,1.85-1.21h1.17c-.34,1.2-1.39,2.13-3.02,2.13Zm-2.12-3.87h4.15c.01-1.28-.95-1.99-2.08-1.99-1.07,0-1.96,.71-2.07,1.99Z"/><path d="M332.83,247.46c-1.54,0-2.61-.84-2.69-2.04h1.13c.06,.64,.62,1.12,1.55,1.12,.86,0,1.34-.43,1.34-.97,0-1.46-3.89-.61-3.89-3.06,0-1.01,.95-1.83,2.41-1.83s2.41,.78,2.48,2.06h-1.09c-.05-.66-.55-1.14-1.43-1.14-.8,0-1.28,.38-1.28,.91,0,1.56,3.81,.71,3.86,3.06,0,1.08-.95,1.89-2.4,1.89Z"/><path d="M339.1,247.46c-1.54,0-2.61-.84-2.69-2.04h1.13c.06,.64,.62,1.12,1.55,1.12,.86,0,1.34-.43,1.34-.97,0-1.46-3.89-.61-3.89-3.06,0-1.01,.95-1.83,2.41-1.83s2.41,.78,2.48,2.06h-1.09c-.05-.66-.55-1.14-1.43-1.14-.8,0-1.28,.38-1.28,.91,0,1.56,3.81,.71,3.86,3.06,0,1.08-.95,1.89-2.4,1.89Z"/><path d="M345.9,247.46c-1.86,0-3.27-1.32-3.27-3.41s1.46-3.38,3.32-3.38,3.32,1.31,3.32,3.38-1.5,3.41-3.37,3.41Zm0-.96c1.14,0,2.25-.78,2.25-2.45s-1.09-2.43-2.22-2.43-2.2,.78-2.2,2.43,1.02,2.45,2.16,2.45Z"/><path d="M353.04,247.46c-1.54,0-2.61-.84-2.69-2.04h1.13c.06,.64,.62,1.12,1.55,1.12,.86,0,1.34-.43,1.34-.97,0-1.46-3.89-.61-3.89-3.06,0-1.01,.95-1.83,2.41-1.83s2.41,.78,2.48,2.06h-1.09c-.05-.66-.55-1.14-1.43-1.14-.8,0-1.28,.38-1.28,.91,0,1.56,3.81,.71,3.86,3.06,0,1.08-.95,1.89-2.4,1.89Z"/><path d="M362.9,240.68c1.03,0,1.98,.53,2.44,1.28v-3.48h1.1v8.88h-1.1v-1.24c-.4,.73-1.25,1.34-2.45,1.34-1.76,0-3.12-1.38-3.12-3.42s1.36-3.37,3.13-3.37Zm.2,.95c-1.2,0-2.22,.88-2.22,2.42s1.02,2.46,2.22,2.46,2.23-.9,2.23-2.45-1.03-2.43-2.23-2.43Z"/><path d="M371.14,247.46c-1.87,0-3.25-1.32-3.25-3.41s1.33-3.38,3.25-3.38,3.15,1.34,3.15,3.14c0,.24-.01,.43-.04,.66h-5.25c.08,1.33,1.02,2.06,2.13,2.06,.98,0,1.61-.5,1.85-1.21h1.17c-.34,1.2-1.39,2.13-3.02,2.13Zm-2.12-3.87h4.15c.01-1.28-.95-1.99-2.08-1.99-1.07,0-1.96,.71-2.07,1.99Z"/><path d="M379.18,241.68h-.85v-.9h.85v-1.66h1.09v1.66h1.71v.9h-1.71v3.87c0,.65,.24,.88,.91,.88h.8v.92h-.98c-1.16,0-1.82-.48-1.82-1.8v-3.87Z"/><path d="M384.4,247.36h-1.09v-6.57h1.09v1.07c.37-.73,1.08-1.19,2.12-1.19v1.13h-.29c-1.04,0-1.83,.47-1.83,1.99v3.57Z"/><path d="M390.49,240.68c1.22,0,2.06,.62,2.45,1.31v-1.2h1.1v6.57h-1.1v-1.22c-.4,.71-1.25,1.33-2.46,1.33-1.75,0-3.11-1.38-3.11-3.42s1.36-3.37,3.12-3.37Zm.22,.95c-1.2,0-2.22,.88-2.22,2.42s1.02,2.46,2.22,2.46,2.23-.9,2.23-2.45-1.03-2.43-2.23-2.43Z"/><path d="M399.44,240.68c1.78,0,3.12,1.32,3.12,3.37s-1.36,3.42-3.12,3.42c-1.2,0-2.05-.6-2.46-1.32v1.21h-1.09v-8.88h1.09v3.53c.42-.73,1.3-1.33,2.46-1.33Zm-.23,.95c-1.19,0-2.23,.91-2.23,2.43s1.04,2.45,2.23,2.45,2.23-.91,2.23-2.46-1.02-2.42-2.23-2.42Z"/><path d="M406.72,240.68c1.22,0,2.06,.62,2.45,1.31v-1.2h1.1v6.57h-1.1v-1.22c-.4,.71-1.25,1.33-2.46,1.33-1.75,0-3.11-1.38-3.11-3.42s1.36-3.37,3.12-3.37Zm.22,.95c-1.2,0-2.22,.88-2.22,2.42s1.02,2.46,2.22,2.46,2.23-.9,2.23-2.45-1.03-2.43-2.23-2.43Z"/><path d="M412.12,238.48h1.09v8.88h-1.09v-8.88Z"/><path d="M415.07,238.48h1.09v3.25c.43-.7,1.25-1.07,2.17-1.07,1.46,0,2.63,.94,2.63,2.82v3.87h-1.08v-3.72c0-1.34-.73-2.03-1.83-2.03s-1.88,.7-1.88,2.11v3.63h-1.09v-8.88Z"/><path d="M425.62,247.46c-1.86,0-3.27-1.32-3.27-3.41s1.46-3.38,3.32-3.38,3.32,1.31,3.32,3.38-1.5,3.41-3.37,3.41Zm0-.96c1.14,0,2.25-.78,2.25-2.45s-1.09-2.43-2.22-2.43-2.2,.78-2.2,2.43,1.02,2.45,2.16,2.45Z"/><path d="M430.78,247.43c-.42,0-.74-.32-.74-.74s.32-.74,.74-.74c.4,0,.72,.32,.72,.74s-.32,.74-.72,.74Z"/></g><g><path d="M28.66,93h-3.65l-.67,1.86h-1.15l3.02-8.31h1.26l3.01,8.31h-1.15l-.67-1.86Zm-1.82-5.11l-1.51,4.22h3.02l-1.51-4.22Z"/><path d="M41.29,91.14c0-1.34-.72-2.03-1.8-2.03s-1.86,.71-1.86,2.12v3.62h-1.08v-3.72c0-1.34-.72-2.03-1.8-2.03s-1.86,.71-1.86,2.12v3.62h-1.09v-6.57h1.09v.95c.43-.7,1.21-1.07,2.08-1.07,1.08,0,1.98,.48,2.41,1.46,.38-.95,1.32-1.46,2.33-1.46,1.5,0,2.66,.94,2.66,2.82v3.87h-1.08v-3.72Z"/><path d="M47.72,88.18c1.76,0,3.12,1.32,3.12,3.37s-1.36,3.42-3.12,3.42c-1.2,0-2.05-.65-2.46-1.32v4.33h-1.09v-9.69h1.09v1.21c.4-.7,1.26-1.32,2.46-1.32Zm-.23,.95c-1.19,0-2.23,.91-2.23,2.43s1.04,2.45,2.23,2.45,2.23-.91,2.23-2.46-1.02-2.42-2.23-2.42Z"/><path d="M52.28,85.98h1.09v8.88h-1.09v-8.88Z"/><path d="M55.05,86.47c0-.42,.32-.74,.74-.74,.4,0,.72,.32,.72,.74s-.32,.74-.72,.74c-.42,0-.74-.32-.74-.74Zm.18,1.81h1.09v6.57h-1.09v-6.57Z"/><path d="M60.89,88.18c1.22,0,2.06,.62,2.45,1.31v-1.2h1.1v6.57h-1.1v-1.22c-.4,.71-1.25,1.33-2.46,1.33-1.75,0-3.11-1.38-3.11-3.42s1.36-3.37,3.12-3.37Zm.22,.95c-1.2,0-2.22,.88-2.22,2.42s1.02,2.46,2.22,2.46,2.23-.9,2.23-2.45-1.03-2.43-2.23-2.43Z"/><path d="M69.09,88.18c1.63,0,2.7,.84,3.03,2.22h-1.17c-.23-.79-.89-1.3-1.86-1.3-1.2,0-2.09,.85-2.09,2.46s.89,2.48,2.09,2.48c.97,0,1.62-.47,1.86-1.3h1.17c-.31,1.21-1.26,2.09-2.7,2.21v.6c.92-.01,1.55,.4,1.55,1.19s-.61,1.24-1.46,1.24h-1.38v-.71h1.16c.52,0,.77-.14,.77-.53s-.25-.52-.77-.52h-.6v-1.28c-1.66-.17-2.81-1.45-2.81-3.38,0-2.06,1.33-3.38,3.2-3.38Z"/><path d="M76.29,88.18c1.22,0,2.06,.62,2.45,1.31v-1.2h1.1v6.57h-1.1v-1.22c-.4,.71-1.25,1.33-2.46,1.33-1.75,0-3.11-1.38-3.11-3.42s1.36-3.37,3.12-3.37Zm.22,.95c-1.2,0-2.22,.88-2.22,2.42s1.02,2.46,2.22,2.46,2.23-.9,2.23-2.45-1.03-2.43-2.23-2.43Zm-.35-2.81c.64,0,.88,.55,1.37,.55,.26,0,.48-.17,.53-.52h.62c-.1,.82-.58,1.25-1.2,1.25s-.89-.55-1.37-.55c-.26,0-.47,.17-.52,.53h-.64c.12-.83,.58-1.26,1.2-1.26Z"/><path d="M84.56,94.97c-1.86,0-3.27-1.32-3.27-3.41s1.46-3.38,3.32-3.38,3.32,1.31,3.32,3.38-1.5,3.41-3.37,3.41Zm0-.96c1.14,0,2.25-.78,2.25-2.45s-1.09-2.43-2.22-2.43-2.2,.78-2.2,2.43,1.02,2.45,2.16,2.45Z"/><path d="M89.3,93.35h1.2l-1.34,3.23h-.73l.88-3.23Z"/><path d="M104.43,91.14c0-1.34-.72-2.03-1.8-2.03s-1.86,.71-1.86,2.12v3.62h-1.08v-3.72c0-1.34-.72-2.03-1.8-2.03s-1.86,.71-1.86,2.12v3.62h-1.09v-6.57h1.09v.95c.43-.7,1.21-1.07,2.08-1.07,1.08,0,1.98,.48,2.41,1.46,.38-.95,1.32-1.46,2.33-1.46,1.5,0,2.66,.94,2.66,2.82v3.87h-1.08v-3.72Z"/><path d="M113.14,94.86h-1.09v-.97c-.42,.68-1.22,1.07-2.1,1.07-1.51,0-2.7-.94-2.7-2.82v-3.85h1.08v3.71c0,1.33,.73,2.01,1.83,2.01s1.88-.7,1.88-2.11v-3.61h1.09v6.57Z"/><path d="M117.71,88.18c1.03,0,1.98,.53,2.43,1.28v-3.48h1.1v8.88h-1.1v-1.24c-.4,.73-1.25,1.34-2.45,1.34-1.76,0-3.12-1.38-3.12-3.42s1.36-3.37,3.13-3.37Zm.2,.95c-1.2,0-2.22,.88-2.22,2.42s1.02,2.46,2.22,2.46,2.23-.9,2.23-2.45-1.03-2.43-2.23-2.43Z"/><path d="M125.81,88.18c1.22,0,2.06,.62,2.45,1.31v-1.2h1.1v6.57h-1.1v-1.22c-.4,.71-1.25,1.33-2.46,1.33-1.75,0-3.11-1.38-3.11-3.42s1.36-3.37,3.12-3.37Zm.22,.95c-1.2,0-2.22,.88-2.22,2.42s1.02,2.46,2.22,2.46,2.23-.9,2.23-2.45-1.03-2.43-2.23-2.43Z"/><path d="M136.02,91.14c0-1.34-.73-2.03-1.83-2.03s-1.88,.7-1.88,2.11v3.63h-1.09v-6.57h1.09v.94c.43-.68,1.22-1.06,2.11-1.06,1.52,0,2.69,.94,2.69,2.82v3.87h-1.08v-3.72Z"/><path d="M141.69,88.18c1.63,0,2.7,.84,3.03,2.22h-1.17c-.23-.79-.89-1.3-1.86-1.3-1.2,0-2.09,.85-2.09,2.46s.89,2.48,2.09,2.48c.97,0,1.62-.47,1.86-1.3h1.17c-.31,1.21-1.26,2.09-2.7,2.21v.6c.92-.01,1.55,.4,1.55,1.19s-.61,1.24-1.46,1.24h-1.38v-.71h1.16c.52,0,.77-.14,.77-.53s-.25-.52-.77-.52h-.6v-1.28c-1.66-.17-2.81-1.45-2.81-3.38,0-2.06,1.33-3.38,3.2-3.38Z"/><path d="M148.89,88.18c1.22,0,2.06,.62,2.45,1.31v-1.2h1.1v6.57h-1.1v-1.22c-.4,.71-1.25,1.33-2.46,1.33-1.75,0-3.11-1.38-3.11-3.42s1.36-3.37,3.12-3.37Zm.22,.95c-1.2,0-2.22,.88-2.22,2.42s1.02,2.46,2.22,2.46,2.23-.9,2.23-2.45-1.03-2.43-2.23-2.43Z"/><path d="M160.36,94.97c-1.86,0-3.27-1.32-3.27-3.41s1.46-3.38,3.32-3.38,3.32,1.31,3.32,3.38-1.5,3.41-3.37,3.41Zm0-.96c1.14,0,2.25-.78,2.25-2.45s-1.09-2.43-2.22-2.43-2.2,.78-2.2,2.43,1.02,2.45,2.16,2.45Z"/><path d="M171,94.86h-1.09v-.97c-.42,.68-1.22,1.07-2.1,1.07-1.51,0-2.7-.94-2.7-2.82v-3.85h1.08v3.71c0,1.33,.73,2.01,1.83,2.01s1.88-.7,1.88-2.11v-3.61h1.09v6.57Z"/><path d="M26.51,102.58c1.63,0,2.7,.84,3.03,2.22h-1.17c-.23-.79-.89-1.3-1.86-1.3-1.2,0-2.09,.85-2.09,2.46s.89,2.48,2.09,2.48c.97,0,1.62-.47,1.86-1.3h1.17c-.34,1.31-1.4,2.22-3.03,2.22-1.87,0-3.2-1.32-3.2-3.41s1.33-3.38,3.2-3.38Z"/><path d="M33.87,109.37c-1.86,0-3.27-1.32-3.27-3.41s1.46-3.38,3.32-3.38,3.32,1.31,3.32,3.38-1.5,3.41-3.37,3.41Zm0-.96c1.14,0,2.25-.78,2.25-2.45s-1.09-2.43-2.22-2.43-2.2,.78-2.2,2.43,1.02,2.45,2.16,2.45Z"/><path d="M43.49,105.54c0-1.34-.73-2.03-1.83-2.03s-1.88,.7-1.88,2.11v3.63h-1.09v-6.57h1.09v.94c.43-.68,1.22-1.06,2.11-1.06,1.52,0,2.69,.94,2.69,2.82v3.87h-1.08v-3.72Z"/><path d="M48.69,109.37c-1.54,0-2.61-.84-2.69-2.04h1.13c.06,.64,.62,1.12,1.55,1.12,.86,0,1.34-.43,1.34-.97,0-1.46-3.89-.61-3.89-3.06,0-1.01,.95-1.83,2.41-1.83s2.41,.78,2.48,2.06h-1.09c-.05-.66-.55-1.14-1.43-1.14-.8,0-1.28,.38-1.28,.91,0,1.56,3.81,.71,3.86,3.06,0,1.08-.95,1.9-2.4,1.9Z"/><path d="M55.47,109.37c-1.87,0-3.25-1.32-3.25-3.41s1.33-3.38,3.25-3.38,3.15,1.34,3.15,3.14c0,.24-.01,.43-.04,.66h-5.25c.08,1.33,1.02,2.06,2.13,2.06,.98,0,1.61-.5,1.85-1.21h1.17c-.34,1.2-1.39,2.14-3.02,2.14Zm-2.12-3.87h4.15c.01-1.28-.95-1.99-2.08-1.99-1.07,0-1.96,.71-2.07,1.99Z"/><path d="M61.16,109.26h-1.09v-6.57h1.09v1.07c.37-.73,1.08-1.19,2.12-1.19v1.13h-.29c-1.04,0-1.83,.47-1.83,1.99v3.57Z"/><path d="M64.94,102.69l2.05,5.56,2.04-5.56h1.16l-2.58,6.57h-1.27l-2.58-6.57h1.18Z"/><path d="M73.98,102.58c1.22,0,2.06,.62,2.45,1.31v-1.2h1.1v6.57h-1.1v-1.22c-.4,.71-1.25,1.33-2.46,1.33-1.75,0-3.11-1.38-3.11-3.42s1.36-3.37,3.12-3.37Zm.22,.95c-1.2,0-2.22,.88-2.22,2.42s1.02,2.46,2.22,2.46,2.23-.9,2.23-2.45-1.03-2.43-2.23-2.43Z"/><path d="M82.18,102.58c1.63,0,2.7,.84,3.03,2.22h-1.17c-.23-.79-.89-1.3-1.86-1.3-1.2,0-2.09,.85-2.09,2.46s.89,2.48,2.09,2.48c.97,0,1.62-.47,1.86-1.3h1.17c-.31,1.21-1.26,2.09-2.7,2.21v.6c.92-.01,1.55,.4,1.55,1.19s-.61,1.24-1.46,1.24h-1.38v-.71h1.16c.52,0,.77-.14,.77-.53s-.25-.52-.77-.52h-.6v-1.28c-1.66-.17-2.81-1.45-2.81-3.38,0-2.06,1.33-3.38,3.2-3.38Z"/><path d="M89.38,102.58c1.22,0,2.06,.62,2.45,1.31v-1.2h1.1v6.57h-1.1v-1.22c-.4,.71-1.25,1.33-2.46,1.33-1.75,0-3.11-1.38-3.11-3.42s1.36-3.37,3.12-3.37Zm.22,.95c-1.2,0-2.22,.88-2.22,2.42s1.02,2.46,2.22,2.46,2.23-.9,2.23-2.45-1.03-2.43-2.23-2.43Zm-.35-2.81c.64,0,.88,.55,1.37,.55,.26,0,.48-.17,.53-.52h.62c-.1,.82-.58,1.25-1.2,1.25s-.89-.55-1.37-.55c-.26,0-.47,.17-.52,.53h-.64c.12-.83,.58-1.26,1.2-1.26Z"/><path d="M97.65,109.37c-1.86,0-3.27-1.32-3.27-3.41s1.46-3.38,3.32-3.38,3.32,1.31,3.32,3.38-1.5,3.41-3.37,3.41Zm0-.96c1.14,0,2.25-.78,2.25-2.45s-1.09-2.43-2.22-2.43-2.2,.78-2.2,2.43,1.02,2.45,2.16,2.45Z"/><path d="M108.39,102.58c1.03,0,1.98,.53,2.43,1.28v-3.48h1.1v8.88h-1.1v-1.24c-.4,.73-1.25,1.34-2.45,1.34-1.76,0-3.12-1.38-3.12-3.42s1.36-3.37,3.13-3.37Zm.2,.95c-1.2,0-2.22,.88-2.22,2.42s1.02,2.46,2.22,2.46,2.23-.9,2.23-2.45-1.03-2.43-2.23-2.43Z"/><path d="M116.62,109.37c-1.87,0-3.25-1.32-3.25-3.41s1.33-3.38,3.25-3.38,3.15,1.34,3.15,3.14c0,.24-.01,.43-.04,.66h-5.25c.08,1.33,1.02,2.06,2.13,2.06,.98,0,1.61-.5,1.85-1.21h1.17c-.34,1.2-1.39,2.14-3.02,2.14Zm-2.12-3.87h4.15c.01-1.28-.95-1.99-2.08-1.99-1.07,0-1.96,.71-2.07,1.99Z"/><path d="M127.97,102.58c1.76,0,3.12,1.32,3.12,3.37s-1.36,3.42-3.12,3.42c-1.2,0-2.05-.65-2.46-1.32v4.33h-1.09v-9.69h1.09v1.21c.4-.7,1.26-1.32,2.46-1.32Zm-.23,.95c-1.19,0-2.23,.91-2.23,2.43s1.04,2.45,2.23,2.45,2.23-.91,2.23-2.46-1.02-2.42-2.23-2.42Z"/><path d="M133.62,109.26h-1.09v-6.57h1.09v1.07c.37-.73,1.08-1.19,2.12-1.19v1.13h-.29c-1.04,0-1.83,.47-1.83,1.99v3.57Z"/><path d="M139.72,102.58c1.22,0,2.06,.62,2.45,1.31v-1.2h1.1v6.57h-1.1v-1.22c-.4,.71-1.25,1.33-2.46,1.33-1.75,0-3.11-1.38-3.11-3.42s1.36-3.37,3.12-3.37Zm.22,.95c-1.2,0-2.22,.88-2.22,2.42s1.02,2.46,2.22,2.46,2.23-.9,2.23-2.45-1.03-2.43-2.23-2.43Zm1.38-3.65v.95l-2.55,1.37v-.82l2.55-1.5Z"/><path d="M145.36,103.58h-.85v-.9h.85v-1.66h1.09v1.66h1.71v.9h-1.71v3.87c0,.65,.24,.88,.91,.88h.8v.92h-.98c-1.16,0-1.82-.48-1.82-1.8v-3.87Z"/><path d="M149.31,100.87c0-.42,.32-.74,.74-.74,.4,0,.72,.32,.72,.74s-.32,.74-.72,.74c-.42,0-.74-.32-.74-.74Zm.18,1.81h1.09v6.57h-1.09v-6.57Z"/><path d="M155.23,102.58c1.63,0,2.7,.84,3.03,2.22h-1.17c-.23-.79-.89-1.3-1.86-1.3-1.2,0-2.09,.85-2.09,2.46s.89,2.48,2.09,2.48c.97,0,1.62-.47,1.86-1.3h1.17c-.34,1.31-1.4,2.22-3.03,2.22-1.87,0-3.2-1.32-3.2-3.41s1.33-3.38,3.2-3.38Z"/><path d="M162.43,102.58c1.22,0,2.06,.62,2.45,1.31v-1.2h1.1v6.57h-1.1v-1.22c-.4,.71-1.25,1.33-2.46,1.33-1.75,0-3.11-1.38-3.11-3.42s1.36-3.37,3.12-3.37Zm.22,.95c-1.2,0-2.22,.88-2.22,2.42s1.02,2.46,2.22,2.46,2.23-.9,2.23-2.45-1.03-2.43-2.23-2.43Z"/><path d="M170.16,109.37c-1.54,0-2.61-.84-2.69-2.04h1.13c.06,.64,.62,1.12,1.55,1.12,.86,0,1.34-.43,1.34-.97,0-1.46-3.89-.61-3.89-3.06,0-1.01,.95-1.83,2.41-1.83s2.41,.78,2.48,2.06h-1.09c-.05-.66-.55-1.14-1.43-1.14-.8,0-1.28,.38-1.28,.91,0,1.56,3.81,.71,3.86,3.06,0,1.08-.95,1.9-2.4,1.9Z"/><path d="M174.45,109.33c-.42,0-.74-.32-.74-.74s.32-.74,.74-.74c.4,0,.72,.32,.72,.74s-.32,.74-.72,.74Z"/></g><g><path class="e" d="M21.07,72.58h-1.38v3.28h-2.22v-9.13h3.6c2.24,0,3.35,1.26,3.35,2.94,0,1.51-1.03,2.91-3.35,2.91Zm-.17-1.77c.88,0,1.26-.44,1.26-1.14s-.38-1.14-1.26-1.14h-1.21v2.29h1.21Z"/><path class="e" d="M29.31,66.73c2.24,0,3.35,1.29,3.35,2.87,0,1.14-.62,2.22-2.03,2.64l2.11,3.61h-2.51l-1.9-3.45h-.53v3.45h-2.22v-9.13h3.73Zm-.13,1.85h-1.38v2.26h1.38c.83,0,1.22-.43,1.22-1.14,0-.68-.39-1.12-1.22-1.12Z"/><path class="e" d="M38.37,75.95c-2.59,0-4.69-1.94-4.69-4.68s2.11-4.67,4.69-4.67,4.67,1.92,4.67,4.67-2.08,4.68-4.67,4.68Zm0-2.03c1.46,0,2.41-1.05,2.41-2.65s-.95-2.65-2.41-2.65-2.42,1.03-2.42,2.65,.94,2.65,2.42,2.65Z"/><path class="e" d="M47.88,72.58h-1.38v3.28h-2.22v-9.13h3.6c2.24,0,3.35,1.26,3.35,2.94,0,1.51-1.03,2.91-3.35,2.91Zm-.17-1.77c.88,0,1.26-.44,1.26-1.14s-.38-1.14-1.26-1.14h-1.21v2.29h1.21Z"/><path class="e" d="M56.7,75.95c-2.59,0-4.69-1.94-4.69-4.68s2.11-4.67,4.69-4.67,4.67,1.92,4.67,4.67-2.08,4.68-4.67,4.68Zm0-2.03c1.46,0,2.41-1.05,2.41-2.65s-.95-2.65-2.41-2.65-2.42,1.03-2.42,2.65,.94,2.65,2.42,2.65Zm1.51-10.75v1.73l-3.13,1.31v-1.53l3.13-1.51Z"/><path class="e" d="M65.91,75.95c-1.96,0-3.5-.97-3.56-2.82h2.37c.07,.7,.51,1.04,1.13,1.04s1.07-.33,1.07-.86c0-1.69-4.56-.78-4.54-4.02,0-1.73,1.42-2.69,3.33-2.69s3.33,.99,3.42,2.73h-2.41c-.04-.58-.46-.94-1.05-.95-.53-.01-.94,.26-.94,.83,0,1.59,4.51,.87,4.51,3.93,0,1.53-1.2,2.81-3.33,2.81Z"/><path class="e" d="M70.6,66.73h2.22v9.13h-2.22v-9.13Z"/><path class="e" d="M73.94,66.73h7.06v1.78h-2.42v7.35h-2.22v-7.35h-2.42v-1.78Z"/><path class="e" d="M86.43,75.95c-2.59,0-4.69-1.94-4.69-4.68s2.11-4.67,4.69-4.67,4.67,1.92,4.67,4.67-2.08,4.68-4.67,4.68Zm0-2.03c1.46,0,2.41-1.05,2.41-2.65s-.95-2.65-2.41-2.65-2.42,1.03-2.42,2.65,.94,2.65,2.42,2.65Z"/><path class="e" d="M103.29,71.29c0,2.7-1.87,4.56-4.78,4.56h-3.42v-9.13h3.42c2.91,0,4.78,1.85,4.78,4.56Zm-4.93,2.64c1.68,0,2.67-.96,2.67-2.64s-.99-2.67-2.67-2.67h-1.05v5.3h1.05Z"/><path class="e" d="M108.86,75.95c-2.59,0-4.69-1.94-4.69-4.68s2.11-4.67,4.69-4.67,4.67,1.92,4.67,4.67-2.08,4.68-4.67,4.68Zm0-2.03c1.46,0,2.41-1.05,2.41-2.65s-.95-2.65-2.41-2.65-2.42,1.03-2.42,2.65,.94,2.65,2.42,2.65Z"/><path class="e" d="M126.03,69.62h-2.46c-.34-.61-.96-.94-1.79-.94-1.43,0-2.38,1.01-2.38,2.6,0,1.69,.96,2.68,2.56,2.68,1.11,0,1.87-.58,2.21-1.61h-2.82v-1.64h4.84v2.07c-.47,1.57-1.99,3.15-4.39,3.15-2.73,0-4.65-1.91-4.65-4.64s1.91-4.65,4.64-4.65c2.18,0,3.77,1.12,4.25,2.99Z"/><path class="e" d="M131.74,75.95c-2.59,0-4.69-1.94-4.69-4.68s2.11-4.67,4.69-4.67,4.67,1.92,4.67,4.67-2.08,4.68-4.67,4.68Zm0-2.03c1.46,0,2.41-1.05,2.41-2.65s-.95-2.65-2.41-2.65-2.42,1.03-2.42,2.65,.94,2.65,2.42,2.65Z"/><path class="e" d="M143.85,66.73h2.35l-3.24,9.13h-2.78l-3.24-9.13h2.37l2.26,6.89,2.28-6.89Z"/><path class="e" d="M152.72,68.51h-3.37v1.85h2.98v1.72h-2.98v2h3.37v1.78h-5.59v-9.13h5.59v1.78Z"/><path class="e" d="M157.89,66.73c2.24,0,3.35,1.29,3.35,2.87,0,1.14-.62,2.22-2.03,2.64l2.11,3.61h-2.51l-1.9-3.45h-.53v3.45h-2.22v-9.13h3.73Zm-.13,1.85h-1.38v2.26h1.38c.83,0,1.22-.43,1.22-1.14,0-.68-.39-1.12-1.22-1.12Z"/><path class="e" d="M170.8,66.73v9.13h-2.22l-3.72-5.63v5.63h-2.22v-9.13h2.22l3.72,5.66v-5.66h2.22Z"/><path class="e" d="M176.73,75.95c-2.59,0-4.69-1.94-4.69-4.68s2.11-4.67,4.69-4.67,4.67,1.92,4.67,4.67-2.08,4.68-4.67,4.68Zm0-2.03c1.46,0,2.41-1.05,2.41-2.65s-.95-2.65-2.41-2.65-2.42,1.03-2.42,2.65,.94,2.65,2.42,2.65Z"/></g><g><path class="f" d="M429.47,66.73h2.63l2.56,6.32,2.54-6.32h2.61v9.13h-2.22v-5.47l-2.04,5.47h-1.79l-2.05-5.49v5.49h-2.22v-9.13Z"/><path class="f" d="M446.99,68.51h-3.37v1.85h2.98v1.72h-2.98v2h3.37v1.78h-5.59v-9.13h5.59v1.78Zm-1.34-5.34v1.73l-3.13,1.31v-1.53l3.13-1.51Z"/><path class="f" d="M447.94,66.73h7.06v1.78h-2.42v7.35h-2.22v-7.35h-2.42v-1.78Z"/><path class="f" d="M460.43,75.95c-2.59,0-4.69-1.94-4.69-4.68s2.11-4.67,4.69-4.67,4.67,1.92,4.67,4.67-2.08,4.68-4.67,4.68Zm0-2.03c1.46,0,2.41-1.05,2.41-2.65s-.95-2.65-2.41-2.65-2.42,1.03-2.42,2.65,.94,2.65,2.42,2.65Z"/><path class="f" d="M474.54,71.29c0,2.7-1.87,4.56-4.78,4.56h-3.42v-9.13h3.42c2.91,0,4.78,1.85,4.78,4.56Zm-4.93,2.64c1.68,0,2.67-.96,2.67-2.64s-.99-2.67-2.67-2.67h-1.05v5.3h1.05Z"/><path class="f" d="M480.1,75.95c-2.59,0-4.69-1.94-4.69-4.68s2.11-4.67,4.69-4.67,4.67,1.92,4.67,4.67-2.08,4.68-4.67,4.68Zm0-2.03c1.46,0,2.41-1.05,2.41-2.65s-.95-2.65-2.41-2.65-2.42,1.03-2.42,2.65,.94,2.65,2.42,2.65Z"/></g><g><path class="c" d="M197.8,228.8c-2.59,0-4.69-1.94-4.69-4.68s2.11-4.67,4.69-4.67,4.67,1.92,4.67,4.67-2.08,4.68-4.67,4.68Zm0-2.03c1.46,0,2.41-1.05,2.41-2.65s-.95-2.65-2.41-2.65-2.42,1.03-2.42,2.65,.94,2.65,2.42,2.65Z"/><path class="c" d="M207.43,219.59c2.24,0,3.35,1.29,3.35,2.87,0,1.14-.62,2.22-2.03,2.64l2.11,3.61h-2.51l-1.9-3.45h-.53v3.45h-2.22v-9.13h3.73Zm-.13,1.85h-1.38v2.26h1.38c.83,0,1.22-.43,1.22-1.14,0-.68-.39-1.12-1.22-1.12Z"/><path class="c" d="M220.69,222.47h-2.46c-.34-.61-.96-.94-1.79-.94-1.43,0-2.38,1.01-2.38,2.6,0,1.69,.96,2.68,2.56,2.68,1.11,0,1.87-.58,2.21-1.61h-2.82v-1.64h4.84v2.07c-.47,1.57-1.99,3.15-4.39,3.15-2.73,0-4.65-1.91-4.65-4.64s1.91-4.65,4.64-4.65c2.18,0,3.77,1.12,4.25,2.99Z"/><path class="c" d="M227.77,227.1h-3.41l-.55,1.61h-2.33l3.3-9.13h2.57l3.3,9.13h-2.35l-.55-1.61Zm-1.7-5.06l-1.12,3.34h2.25l-1.13-3.34Z"/><path class="c" d="M239.83,219.59v9.13h-2.22l-3.72-5.63v5.63h-2.22v-9.13h2.22l3.72,5.66v-5.66h2.22Z"/><path class="c" d="M241.44,219.59h2.22v9.13h-2.22v-9.13Z"/><path class="c" d="M251.57,221.28l-3.93,5.62h3.93v1.82h-6.45v-1.69l3.9-5.62h-3.9v-1.82h6.45v1.69Z"/><path class="c" d="M258.71,227.1h-3.41l-.55,1.61h-2.33l3.3-9.13h2.57l3.3,9.13h-2.35l-.55-1.61Zm-1.7-5.06l-1.12,3.34h2.25l-1.13-3.34Z"/><path class="c" d="M266.82,219.48c2.17,0,3.81,1.22,4.33,3.2h-2.44c-.38-.78-1.07-1.17-1.91-1.17-1.37,0-2.3,1.01-2.3,2.63s.94,2.63,2.3,2.63c.85,0,1.53-.39,1.91-1.17h2.44c-.47,1.75-1.81,2.91-3.63,3.15v.51c.78,0,1.69,.4,1.69,1.48s-.91,1.51-1.81,1.51h-2v-1.22h1.7c.33,0,.52-.08,.52-.34s-.19-.33-.52-.33h-.92v-1.61c-2.35-.27-3.95-2.09-3.95-4.6,0-2.73,1.9-4.65,4.59-4.65Z"/><path class="c" d="M278.19,227.1h-3.41l-.55,1.61h-2.33l3.3-9.13h2.57l3.3,9.13h-2.35l-.55-1.61Zm-2.5-10.08c.78,0,1.18,.58,1.7,.58,.3,0,.51-.18,.56-.58h1.14c-.22,1.37-.88,1.92-1.79,1.92-.78,0-1.18-.58-1.7-.58-.3,0-.51,.18-.57,.58h-1.13c.22-1.37,.87-1.92,1.79-1.92Zm.79,5.02l-1.12,3.34h2.25l-1.13-3.34Z"/><path class="c" d="M286.41,228.8c-2.59,0-4.69-1.94-4.69-4.68s2.11-4.67,4.69-4.67,4.67,1.92,4.67,4.67-2.08,4.68-4.67,4.68Zm0-2.03c1.46,0,2.41-1.05,2.41-2.65s-.95-2.65-2.41-2.65-2.42,1.03-2.42,2.65,.94,2.65,2.42,2.65Z"/><path class="c" d="M303.27,224.15c0,2.7-1.87,4.56-4.78,4.56h-3.42v-9.13h3.42c2.91,0,4.78,1.85,4.78,4.56Zm-4.93,2.64c1.68,0,2.67-.96,2.67-2.64s-.99-2.67-2.67-2.67h-1.05v5.3h1.05Z"/><path class="c" d="M308.83,228.8c-2.59,0-4.69-1.94-4.69-4.68s2.11-4.67,4.69-4.67,4.67,1.92,4.67,4.67-2.08,4.68-4.67,4.68Zm0-2.03c1.46,0,2.41-1.05,2.41-2.65s-.95-2.65-2.41-2.65-2.42,1.03-2.42,2.65,.94,2.65,2.42,2.65Z"/><path class="c" d="M318.04,228.8c-1.96,0-3.5-.97-3.56-2.82h2.37c.06,.7,.51,1.04,1.13,1.04s1.07-.32,1.07-.86c0-1.69-4.56-.78-4.54-4.02,0-1.73,1.42-2.69,3.33-2.69s3.33,.99,3.42,2.73h-2.41c-.04-.58-.46-.94-1.05-.95-.53-.01-.94,.26-.94,.83,0,1.59,4.51,.87,4.51,3.93,0,1.53-1.2,2.81-3.33,2.81Z"/><path class="c" d="M328.79,228.8c-1.96,0-3.5-.97-3.56-2.82h2.37c.06,.7,.51,1.04,1.13,1.04s1.07-.32,1.07-.86c0-1.69-4.56-.78-4.54-4.02,0-1.73,1.42-2.69,3.33-2.69s3.33,.99,3.42,2.73h-2.4c-.04-.58-.46-.94-1.05-.95-.53-.01-.94,.26-.94,.83,0,1.59,4.51,.87,4.51,3.93,0,1.53-1.2,2.81-3.33,2.81Z"/><path class="c" d="M339.07,221.37h-3.37v1.85h2.98v1.72h-2.98v2h3.37v1.78h-5.59v-9.13h5.59v1.78Z"/><path class="c" d="M344.25,219.59c2.24,0,3.35,1.29,3.35,2.87,0,1.14-.62,2.22-2.03,2.64l2.11,3.61h-2.51l-1.9-3.45h-.53v3.45h-2.22v-9.13h3.73Zm-.13,1.85h-1.38v2.26h1.38c.83,0,1.22-.43,1.22-1.14,0-.68-.39-1.12-1.22-1.12Z"/><path class="c" d="M355.2,219.59h2.35l-3.24,9.13h-2.78l-3.24-9.13h2.37l2.26,6.89,2.28-6.89Z"/><path class="c" d="M358.48,219.59h2.22v9.13h-2.22v-9.13Z"/><path class="c" d="M366.53,219.48c2.17,0,3.81,1.22,4.33,3.2h-2.44c-.38-.78-1.07-1.17-1.91-1.17-1.37,0-2.3,1.01-2.3,2.63s.94,2.63,2.3,2.63c.84,0,1.53-.39,1.91-1.17h2.44c-.47,1.75-1.81,2.91-3.63,3.15v.51c.78,0,1.69,.4,1.69,1.48s-.91,1.51-1.81,1.51h-2v-1.22h1.7c.32,0,.52-.08,.52-.34s-.2-.33-.52-.33h-.92v-1.61c-2.35-.27-3.95-2.09-3.95-4.6,0-2.73,1.9-4.65,4.59-4.65Z"/><path class="c" d="M376.54,228.8c-2.59,0-4.69-1.94-4.69-4.68s2.11-4.67,4.69-4.67,4.67,1.92,4.67,4.67-2.08,4.68-4.67,4.68Zm0-2.03c1.46,0,2.41-1.05,2.41-2.65s-.95-2.65-2.41-2.65-2.42,1.03-2.42,2.65,.94,2.65,2.42,2.65Z"/><path class="c" d="M385.74,228.8c-1.96,0-3.5-.97-3.56-2.82h2.37c.07,.7,.51,1.04,1.13,1.04s1.07-.32,1.07-.86c0-1.69-4.56-.78-4.54-4.02,0-1.73,1.42-2.69,3.33-2.69s3.33,.99,3.42,2.73h-2.41c-.04-.58-.46-.94-1.05-.95-.53-.01-.94,.26-.94,.83,0,1.59,4.51,.87,4.51,3.93,0,1.53-1.2,2.81-3.33,2.81Z"/></g></svg>