<?xml version="1.0" encoding="UTF-8"?><svg xmlns="http://www.w3.org/2000/svg" viewBox="0 0 500 181"><defs><style>.c{fill:#fff;}.d{fill:#3f6b71;}</style></defs><g id="a"><g><path class="d" d="M62.5,181.5H-.5V-.5H62.5V181.5Zm-62-1H61.5V.5H.5V180.5Z"/><rect class="d" width="500" height="23"/><g><path class="c" d="M219.4,12.67h-1.36v3.33h-2.75V6.12h4.1c2.45,0,3.7,1.39,3.7,3.29,0,1.72-1.19,3.25-3.7,3.25Zm-.27-2.18c.83,0,1.16-.42,1.16-1.07s-.34-1.08-1.16-1.08h-1.09v2.14h1.09Z"/><path class="c" d="M226.94,16h-2.75v-7.86h2.75v1.39c.59-.85,1.48-1.46,2.54-1.46v2.93h-.77c-1.13,0-1.76,.36-1.76,1.57v3.43Z"/><path class="c" d="M234.11,16.1c-2.34,0-4.1-1.53-4.1-4.03s1.78-4.02,4.12-4.02,4.12,1.53,4.12,4.02-1.79,4.03-4.13,4.03Zm0-2.38c.7,0,1.34-.52,1.34-1.65s-.63-1.64-1.33-1.64-1.32,.52-1.32,1.64,.59,1.65,1.3,1.65Z"/><path class="c" d="M244.4,8.04c1.88,0,3.35,1.51,3.35,4.02s-1.47,4.03-3.35,4.03c-1.11,0-1.88-.48-2.3-1.19v1.09h-2.75V5.63h2.75v3.6c.42-.71,1.21-1.19,2.3-1.19Zm-.87,2.4c-.77,0-1.43,.57-1.43,1.62s.66,1.64,1.43,1.64,1.43-.59,1.43-1.64-.66-1.62-1.43-1.62Z"/><path class="c" d="M248.88,5.63h2.75v10.37h-2.75V5.63Z"/><path class="c" d="M256.74,16.1c-2.33,0-3.99-1.53-3.99-4.03s1.64-4.02,3.99-4.02,3.96,1.5,3.96,3.94c0,.21-.01,.43-.04,.64h-5.2c.06,.91,.55,1.27,1.16,1.27,.53,0,.83-.29,.98-.62h2.93c-.36,1.61-1.83,2.82-3.8,2.82Zm-1.26-4.8h2.42c0-.7-.55-1.08-1.18-1.08s-1.12,.36-1.25,1.08Z"/><path class="c" d="M272.52,11.78c0-.85-.52-1.33-1.3-1.33s-1.3,.48-1.3,1.33v4.22h-2.75v-4.22c0-.85-.5-1.33-1.29-1.33s-1.32,.48-1.32,1.33v4.22h-2.75v-7.86h2.75v1.04c.45-.63,1.22-1.11,2.28-1.11,1.18,0,2.1,.53,2.62,1.44,.53-.8,1.46-1.44,2.62-1.44,1.99,0,3.18,1.29,3.18,3.35v4.58h-2.75v-4.22Z"/><path class="c" d="M279.65,8.04c1.12,0,1.91,.49,2.31,1.19v-1.09h2.75v7.86h-2.75v-1.09c-.41,.7-1.21,1.19-2.31,1.19-1.86,0-3.35-1.53-3.35-4.03s1.48-4.02,3.35-4.02Zm.88,2.4c-.78,0-1.43,.56-1.43,1.62s.64,1.64,1.43,1.64,1.43-.57,1.43-1.64-.66-1.62-1.43-1.62Z"/></g><g><path class="d" d="M14.05,43.06c-1.77,0-3.22-1.33-3.22-3.22s1.45-3.21,3.22-3.21,3.21,1.33,3.21,3.21-1.43,3.22-3.21,3.22Zm0-1.13c1.13,0,1.92-.82,1.92-2.1s-.78-2.08-1.92-2.08-1.93,.8-1.93,2.08,.78,2.1,1.93,2.1Z"/><path class="d" d="M21.1,37.93c1.28,0,2.28,1,2.28,2.56s-1,2.59-2.28,2.59c-.78,0-1.34-.36-1.65-.79v.71h-1.26v-6.66h1.26v2.4c.31-.46,.89-.81,1.65-.81Zm-.33,1.11c-.67,0-1.31,.52-1.31,1.47s.64,1.47,1.31,1.47,1.32-.54,1.32-1.49-.64-1.45-1.32-1.45Z"/><path class="d" d="M25.56,38.01v5.81c0,1.15-.62,1.56-1.58,1.56h-.56v-1.07h.36c.39,0,.52-.14,.52-.48v-5.82h1.26Zm-1.4-1.33c0-.41,.32-.74,.78-.74s.77,.32,.77,.74-.32,.74-.77,.74-.78-.32-.78-.74Z"/><path class="d" d="M28.98,43.08c-1.45,0-2.5-1.01-2.5-2.58s1.03-2.57,2.5-2.57,2.46,.98,2.46,2.47c0,.16,0,.32-.04,.49h-3.65c.06,.74,.57,1.15,1.2,1.15,.54,0,.84-.27,1-.6h1.36c-.27,.92-1.1,1.65-2.33,1.65Zm-1.22-3.04h2.37c-.02-.66-.54-1.07-1.19-1.07-.6,0-1.08,.39-1.18,1.07Z"/><path class="d" d="M32.55,39.05h-.59v-1.04h.59v-1.23h1.27v1.23h1.12v1.04h-1.12v2.41c0,.33,.13,.48,.53,.48h.59v1.06h-.79c-.95,0-1.59-.41-1.59-1.55v-2.4Z"/><path class="d" d="M35.71,36.68c0-.41,.32-.74,.77-.74s.77,.32,.77,.74-.33,.74-.77,.74-.77-.32-.77-.74Zm.13,1.33h1.26v4.99h-1.26v-4.99Z"/><path class="d" d="M39.17,38.01l1.26,3.83,1.26-3.83h1.34l-1.85,4.99h-1.53l-1.84-4.99h1.35Z"/><path class="d" d="M45.95,43.08c-1.44,0-2.53-1.01-2.53-2.58s1.13-2.57,2.57-2.57,2.57,1,2.57,2.57-1.15,2.58-2.6,2.58Zm0-1.1c.67,0,1.3-.49,1.3-1.48s-.62-1.48-1.29-1.48-1.27,.48-1.27,1.48,.58,1.48,1.25,1.48Z"/></g><g><path class="d" d="M11.13,100.72h1.43l2,4.67,2-4.67h1.42v6.28h-1.26v-4.09l-1.68,4.09h-.95l-1.69-4.09v4.09h-1.26v-6.28Z"/><path class="d" d="M21.4,107.08c-1.45,0-2.5-1.01-2.5-2.58s1.03-2.57,2.5-2.57,2.46,.98,2.46,2.47c0,.16,0,.32-.04,.49h-3.65c.06,.74,.57,1.15,1.2,1.15,.54,0,.84-.27,1-.6h1.36c-.27,.92-1.1,1.65-2.33,1.65Zm-1.22-3.04h2.37c-.02-.66-.54-1.07-1.19-1.07-.6,0-1.08,.39-1.18,1.07Z"/><path class="d" d="M24.97,103.05h-.59v-1.04h.59v-1.23h1.27v1.23h1.12v1.04h-1.12v2.41c0,.33,.13,.48,.53,.48h.59v1.06h-.79c-.95,0-1.59-.41-1.59-1.55v-2.4Z"/><path class="d" d="M30.22,101.93c.8,0,1.35,.38,1.65,.79v-.71h1.27v4.99h-1.27v-.73c-.3,.43-.86,.81-1.66,.81-1.26,0-2.27-1.04-2.27-2.59s1.01-2.56,2.28-2.56Zm.32,1.11c-.67,0-1.31,.5-1.31,1.45s.64,1.49,1.31,1.49,1.32-.52,1.32-1.47-.63-1.47-1.32-1.47Z"/></g><g><path class="d" d="M14.98,131.37h-2.5l-.41,1.2h-1.32l2.26-6.29h1.47l2.26,6.29h-1.33l-.42-1.2Zm-1.25-3.64l-.91,2.63h1.82l-.91-2.63Z"/><path class="d" d="M19.72,127.5c1.24,0,2.08,.65,2.35,1.76h-1.36c-.14-.42-.48-.69-1-.69-.7,0-1.17,.53-1.17,1.5s.47,1.5,1.17,1.5c.52,0,.85-.23,1-.68h1.36c-.24,.95-.94,1.61-1.97,1.74v.35c.6,0,1.17,.31,1.17,.98s-.57,1.01-1.2,1.01h-1.28v-.74h1.07c.27,0,.44-.06,.44-.29s-.17-.28-.44-.28h-.56v-1.04c-1.21-.18-2.05-1.13-2.05-2.55,0-1.57,1.03-2.57,2.47-2.57Z"/><path class="d" d="M24.95,127.5c.8,0,1.35,.38,1.65,.79v-.71h1.27v4.99h-1.27v-.73c-.3,.43-.86,.81-1.66,.81-1.26,0-2.27-1.04-2.27-2.59s1.01-2.56,2.28-2.56Zm0-1.58c.51,0,.75,.4,1.11,.4,.21,0,.35-.12,.39-.39h.67c-.12,.82-.54,1.18-1.12,1.18-.51,0-.75-.4-1.11-.4-.21,0-.35,.13-.4,.4h-.67c.12-.82,.54-1.18,1.12-1.18Zm.33,2.68c-.68,0-1.31,.5-1.31,1.45s.64,1.49,1.31,1.49,1.32-.52,1.32-1.47-.63-1.47-1.32-1.47Z"/><path class="d" d="M31.31,132.65c-1.44,0-2.53-1.01-2.53-2.58s1.13-2.57,2.57-2.57,2.57,1,2.57,2.57-1.15,2.58-2.6,2.58Zm0-1.1c.67,0,1.3-.49,1.3-1.48s-.62-1.48-1.29-1.48-1.27,.48-1.27,1.48,.58,1.48,1.25,1.48Z"/></g><g><path class="d" d="M72.98,131.37h-2.5l-.41,1.2h-1.32l2.26-6.29h1.47l2.26,6.29h-1.33l-.42-1.2Zm-1.25-3.64l-.91,2.63h1.82l-.91-2.63Z"/><path class="d" d="M75.77,128.61h-.59v-1.04h.59v-1.23h1.27v1.23h1.12v1.04h-1.12v2.41c0,.33,.13,.48,.53,.48h.58v1.06h-.79c-.95,0-1.59-.41-1.59-1.55v-2.4Z"/><path class="d" d="M78.93,126.25c0-.41,.32-.74,.77-.74s.77,.32,.77,.74-.33,.74-.77,.74-.77-.32-.77-.74Zm.13,1.33h1.26v4.99h-1.26v-4.99Z"/><path class="d" d="M82.39,127.58l1.26,3.83,1.26-3.83h1.34l-1.85,4.99h-1.53l-1.84-4.99h1.35Z"/><path class="d" d="M86.83,126.25c0-.41,.32-.74,.77-.74s.77,.32,.77,.74-.33,.74-.77,.74-.77-.32-.77-.74Zm.13,1.33h1.26v4.99h-1.26v-4.99Z"/><path class="d" d="M91.42,127.5c.66,0,1.29,.31,1.63,.77v-2.37h1.28v6.66h-1.28v-.74c-.3,.46-.86,.82-1.64,.82-1.27,0-2.28-1.04-2.28-2.59s1.01-2.56,2.29-2.56Zm.32,1.11c-.68,0-1.31,.5-1.31,1.45s.64,1.49,1.31,1.49,1.32-.52,1.32-1.47-.63-1.47-1.32-1.47Z"/><path class="d" d="M97.52,127.5c.8,0,1.35,.38,1.65,.79v-.71h1.27v4.99h-1.27v-.73c-.3,.43-.86,.81-1.66,.81-1.26,0-2.27-1.04-2.27-2.59s1.01-2.56,2.28-2.56Zm.32,1.11c-.67,0-1.31,.5-1.31,1.45s.64,1.49,1.31,1.49,1.32-.52,1.32-1.47-.63-1.47-1.32-1.47Z"/><path class="d" d="M103.63,127.5c.66,0,1.29,.31,1.63,.77v-2.37h1.28v6.66h-1.28v-.74c-.3,.46-.86,.82-1.64,.82-1.27,0-2.28-1.04-2.28-2.59s1.01-2.56,2.29-2.56Zm.32,1.11c-.68,0-1.31,.5-1.31,1.45s.64,1.49,1.31,1.49,1.32-.52,1.32-1.47-.63-1.47-1.32-1.47Z"/><path class="d" d="M109.95,132.65c-1.45,0-2.5-1.01-2.5-2.58s1.03-2.57,2.5-2.57,2.46,.98,2.46,2.47c0,.16,0,.32-.04,.49h-3.65c.06,.74,.57,1.15,1.2,1.15,.54,0,.84-.27,1-.6h1.36c-.27,.92-1.1,1.65-2.33,1.65Zm-1.22-3.04h2.37c-.02-.66-.54-1.07-1.19-1.07-.6,0-1.08,.39-1.18,1.07Z"/></g><g><path class="d" d="M130.49,126.28c1.51,0,2.27,.87,2.27,1.93,0,.77-.42,1.54-1.43,1.81l1.5,2.55h-1.46l-1.39-2.45h-.59v2.45h-1.26v-6.28h2.36Zm-.04,1.04h-1.05v1.85h1.05c.7,0,1.02-.37,1.02-.94s-.32-.91-1.02-.91Z"/><path class="d" d="M136.08,132.65c-1.45,0-2.5-1.01-2.5-2.58s1.03-2.57,2.5-2.57,2.46,.98,2.46,2.47c0,.16,0,.32-.04,.49h-3.65c.06,.74,.57,1.15,1.2,1.15,.54,0,.84-.27,1-.6h1.36c-.27,.92-1.1,1.65-2.33,1.65Zm-1.21-3.04h2.37c-.02-.66-.54-1.07-1.19-1.07-.6,0-1.08,.39-1.18,1.07Z"/><path class="d" d="M141.36,132.65c-1.25,0-2.12-.73-2.18-1.66h1.27c.04,.38,.4,.67,.9,.67s.76-.23,.76-.51c0-.89-2.82-.32-2.82-2.15,0-.83,.74-1.49,1.97-1.49s1.94,.66,2.01,1.65h-1.21c-.04-.39-.34-.65-.84-.65-.47,0-.71,.19-.71,.48,0,.91,2.76,.34,2.8,2.17,0,.86-.75,1.5-1.96,1.5Z"/><path class="d" d="M147.27,127.5c1.28,0,2.28,1,2.28,2.56s-1,2.59-2.28,2.59c-.78,0-1.34-.39-1.65-.79v3.09h-1.26v-7.36h1.26v.72c.3-.42,.87-.8,1.65-.8Zm-.33,1.11c-.67,0-1.31,.52-1.31,1.47s.64,1.47,1.31,1.47,1.32-.54,1.32-1.49-.64-1.45-1.32-1.45Z"/><path class="d" d="M152.67,132.65c-1.44,0-2.53-1.01-2.53-2.58s1.12-2.57,2.57-2.57,2.57,1,2.57,2.57-1.15,2.58-2.6,2.58Zm0-1.1c.67,0,1.31-.49,1.31-1.48s-.62-1.48-1.29-1.48-1.27,.48-1.27,1.48,.58,1.48,1.25,1.48Z"/><path class="d" d="M159.7,129.81c0-.8-.44-1.23-1.11-1.23s-1.12,.43-1.12,1.23v2.75h-1.26v-4.99h1.26v.62c.32-.42,.86-.69,1.5-.69,1.16,0,1.99,.76,1.99,2.13v2.93h-1.26v-2.75Z"/><path class="d" d="M164.06,132.65c-1.25,0-2.12-.73-2.18-1.66h1.27c.04,.38,.4,.67,.9,.67s.77-.23,.77-.51c0-.89-2.82-.32-2.82-2.15,0-.83,.74-1.49,1.97-1.49s1.94,.66,2.01,1.65h-1.21c-.04-.39-.34-.65-.84-.65-.47,0-.71,.19-.71,.48,0,.91,2.76,.34,2.8,2.17,0,.86-.75,1.5-1.96,1.5Z"/><path class="d" d="M169.01,127.5c.8,0,1.35,.38,1.65,.79v-.71h1.27v4.99h-1.27v-.73c-.3,.43-.86,.81-1.66,.81-1.26,0-2.27-1.04-2.27-2.59s1.01-2.56,2.28-2.56Zm.32,1.11c-.67,0-1.31,.5-1.31,1.45s.64,1.49,1.31,1.49,1.32-.52,1.32-1.47-.63-1.47-1.32-1.47Zm1.15-3.35v1.03l-2.07,.95v-.9l2.07-1.07Z"/><path class="d" d="M173.98,127.58l1.26,3.83,1.26-3.83h1.34l-1.85,4.99h-1.53l-1.84-4.99h1.35Z"/><path class="d" d="M180.73,132.65c-1.45,0-2.5-1.01-2.5-2.58s1.03-2.57,2.5-2.57,2.46,.98,2.46,2.47c0,.16,0,.32-.04,.49h-3.65c.06,.74,.57,1.15,1.2,1.15,.54,0,.84-.27,1-.6h1.36c-.27,.92-1.1,1.65-2.33,1.65Zm-1.21-3.04h2.37c-.02-.66-.54-1.07-1.19-1.07-.6,0-1.08,.39-1.18,1.07Z"/><path class="d" d="M184.1,125.9h1.26v6.66h-1.26v-6.66Z"/></g><g><path class="d" d="M205.94,126.65l1.44,1.62h-1.57l-.96-1.14c-.25,.06-.53,.1-.81,.1-1.77,0-3.22-1.33-3.22-3.22s1.45-3.21,3.22-3.21,3.21,1.33,3.21,3.21c0,1.14-.52,2.08-1.32,2.65Zm-1.89-.55c1.13,0,1.92-.82,1.92-2.1s-.78-2.08-1.92-2.08-1.93,.8-1.93,2.08,.78,2.1,1.93,2.1Z"/><path class="d" d="M212.92,127.17h-1.27v-.63c-.31,.42-.86,.69-1.49,.69-1.16,0-2-.76-2-2.12v-2.93h1.26v2.75c0,.8,.44,1.23,1.11,1.23s1.12-.43,1.12-1.23v-2.75h1.27v4.99Z"/><path class="d" d="M216.12,122.1c.8,0,1.35,.38,1.65,.79v-.71h1.27v4.99h-1.27v-.73c-.3,.43-.86,.81-1.66,.81-1.26,0-2.27-1.04-2.27-2.59s1.01-2.56,2.28-2.56Zm.32,1.11c-.68,0-1.31,.5-1.31,1.45s.64,1.49,1.31,1.49,1.32-.52,1.32-1.47-.63-1.47-1.32-1.47Z"/><path class="d" d="M223.76,124.41c0-.8-.44-1.23-1.11-1.23s-1.13,.43-1.13,1.23v2.75h-1.26v-4.99h1.26v.62c.32-.42,.86-.69,1.5-.69,1.16,0,1.99,.76,1.99,2.13v2.93h-1.26v-2.75Z"/><path class="d" d="M226.41,123.21h-.59v-1.04h.59v-1.23h1.27v1.23h1.12v1.04h-1.12v2.41c0,.33,.13,.48,.53,.48h.58v1.06h-.79c-.95,0-1.59-.41-1.59-1.55v-2.4Z"/><path class="d" d="M229.57,120.85c0-.41,.32-.74,.77-.74s.77,.32,.77,.74-.33,.74-.77,.74-.77-.32-.77-.74Zm.13,1.33h1.26v4.99h-1.26v-4.99Z"/><path class="d" d="M232.41,123.21h-.59v-1.04h.59v-1.23h1.27v1.23h1.12v1.04h-1.12v2.41c0,.33,.13,.48,.53,.48h.58v1.06h-.79c-.95,0-1.59-.41-1.59-1.55v-2.4Z"/><path class="d" d="M237.65,122.1c.8,0,1.35,.38,1.65,.79v-.71h1.27v4.99h-1.27v-.73c-.3,.43-.86,.81-1.66,.81-1.26,0-2.27-1.04-2.27-2.59s1.01-2.56,2.28-2.56Zm.32,1.11c-.67,0-1.31,.5-1.31,1.45s.64,1.49,1.31,1.49,1.32-.52,1.32-1.47-.63-1.47-1.32-1.47Z"/><path class="d" d="M242,123.21h-.59v-1.04h.59v-1.23h1.27v1.23h1.12v1.04h-1.12v2.41c0,.33,.13,.48,.53,.48h.58v1.06h-.79c-.95,0-1.59-.41-1.59-1.55v-2.4Z"/><path class="d" d="M245.16,120.85c0-.41,.32-.74,.77-.74s.77,.32,.77,.74-.33,.74-.77,.74-.77-.32-.77-.74Zm.13,1.33h1.26v4.99h-1.26v-4.99Z"/><path class="d" d="M248.62,122.18l1.26,3.83,1.26-3.83h1.34l-1.85,4.99h-1.53l-1.84-4.99h1.35Z"/><path class="d" d="M255.4,127.25c-1.44,0-2.53-1.01-2.53-2.58s1.12-2.57,2.57-2.57,2.57,1,2.57,2.57-1.15,2.58-2.6,2.58Zm0-1.1c.67,0,1.31-.49,1.31-1.48s-.62-1.48-1.29-1.48-1.27,.48-1.27,1.48,.58,1.48,1.25,1.48Z"/><path class="d" d="M203.09,132.9c.66,0,1.29,.31,1.63,.77v-2.37h1.28v6.66h-1.28v-.74c-.3,.46-.86,.82-1.64,.82-1.27,0-2.28-1.04-2.28-2.59s1.01-2.56,2.29-2.56Zm.31,1.11c-.67,0-1.31,.5-1.31,1.45s.64,1.49,1.31,1.49,1.32-.52,1.32-1.47-.63-1.47-1.32-1.47Z"/><path class="d" d="M209.41,138.05c-1.45,0-2.5-1.01-2.5-2.58s1.03-2.57,2.5-2.57,2.46,.98,2.46,2.47c0,.16,0,.32-.04,.49h-3.65c.06,.74,.57,1.15,1.2,1.15,.54,0,.84-.27,1-.6h1.36c-.27,.92-1.1,1.65-2.33,1.65Zm-1.21-3.04h2.37c-.02-.66-.54-1.07-1.19-1.07-.6,0-1.08,.39-1.18,1.07Z"/><path class="d" d="M217.84,132.9c1.28,0,2.28,1,2.28,2.56s-1,2.59-2.28,2.59c-.78,0-1.34-.39-1.65-.79v3.09h-1.26v-7.36h1.26v.72c.3-.42,.87-.8,1.65-.8Zm-.33,1.11c-.67,0-1.31,.52-1.31,1.47s.64,1.47,1.31,1.47,1.32-.54,1.32-1.49-.64-1.45-1.32-1.45Z"/><path class="d" d="M223.21,138.05c-1.45,0-2.5-1.01-2.5-2.58s1.03-2.57,2.5-2.57,2.46,.98,2.46,2.47c0,.16,0,.32-.04,.49h-3.65c.06,.74,.57,1.15,1.2,1.15,.54,0,.84-.27,1-.6h1.36c-.27,.92-1.1,1.65-2.33,1.65Zm-1.21-3.04h2.37c-.02-.66-.54-1.07-1.19-1.07-.6,0-1.08,.39-1.18,1.07Z"/><path class="d" d="M228.49,138.05c-1.25,0-2.12-.73-2.18-1.66h1.27c.04,.38,.4,.67,.9,.67s.76-.23,.76-.51c0-.89-2.82-.32-2.82-2.15,0-.83,.74-1.49,1.97-1.49s1.94,.66,2.01,1.65h-1.21c-.04-.39-.34-.65-.84-.65-.47,0-.71,.19-.71,.48,0,.91,2.76,.34,2.8,2.17,0,.86-.75,1.5-1.96,1.5Z"/><path class="d" d="M233.4,138.05c-1.25,0-2.12-.73-2.18-1.66h1.27c.04,.38,.4,.67,.9,.67s.77-.23,.77-.51c0-.89-2.82-.32-2.82-2.15,0-.83,.74-1.49,1.97-1.49s1.94,.66,2.01,1.65h-1.21c-.04-.39-.34-.65-.84-.65-.47,0-.71,.19-.71,.48,0,.91,2.76,.34,2.8,2.17,0,.86-.75,1.5-1.96,1.5Z"/><path class="d" d="M238.61,138.05c-1.44,0-2.53-1.01-2.53-2.58s1.13-2.57,2.57-2.57,2.57,1,2.57,2.57-1.15,2.58-2.6,2.58Zm0-1.1c.67,0,1.3-.49,1.3-1.48s-.62-1.48-1.29-1.48-1.27,.48-1.27,1.48,.58,1.48,1.25,1.48Z"/><path class="d" d="M244.09,132.9c.8,0,1.35,.38,1.65,.79v-.71h1.27v4.99h-1.27v-.73c-.3,.43-.86,.81-1.66,.81-1.26,0-2.27-1.04-2.27-2.59s1.01-2.56,2.28-2.56Zm.32,1.11c-.68,0-1.31,.5-1.31,1.45s.64,1.49,1.31,1.49,1.32-.52,1.32-1.47-.63-1.47-1.32-1.47Z"/><path class="d" d="M248.24,131.3h1.26v6.66h-1.26v-6.66Z"/></g><g><path class="d" d="M272.49,126.28c1.51,0,2.27,.87,2.27,1.93,0,.77-.42,1.54-1.43,1.81l1.5,2.55h-1.46l-1.39-2.45h-.59v2.45h-1.26v-6.28h2.36Zm-.04,1.04h-1.05v1.85h1.05c.7,0,1.02-.37,1.02-.94s-.32-.91-1.02-.91Z"/><path class="d" d="M278.08,132.65c-1.45,0-2.5-1.01-2.5-2.58s1.03-2.57,2.5-2.57,2.46,.98,2.46,2.47c0,.16,0,.32-.04,.49h-3.65c.06,.74,.57,1.15,1.2,1.15,.54,0,.84-.27,1-.6h1.36c-.27,.92-1.1,1.65-2.33,1.65Zm-1.21-3.04h2.37c-.02-.66-.54-1.07-1.19-1.07-.6,0-1.08,.39-1.18,1.07Z"/><path class="d" d="M283.6,127.5c1.24,0,2.08,.65,2.35,1.76h-1.36c-.14-.42-.48-.69-1-.69-.7,0-1.17,.53-1.17,1.5s.47,1.5,1.17,1.5c.52,0,.85-.23,1-.68h1.36c-.27,1.06-1.11,1.76-2.35,1.76-1.44,0-2.47-1.01-2.47-2.58s1.03-2.57,2.47-2.57Z"/><path class="d" d="M291.58,132.57h-1.27v-.63c-.32,.42-.86,.69-1.49,.69-1.16,0-2-.76-2-2.12v-2.93h1.26v2.75c0,.8,.44,1.23,1.11,1.23s1.12-.43,1.12-1.23v-2.75h1.27v4.99Z"/><path class="d" d="M294.08,132.57h-1.26v-4.99h1.26v.77c.32-.51,.84-.85,1.53-.85v1.32h-.33c-.75,0-1.2,.29-1.2,1.25v2.48Z"/><path class="d" d="M298.37,132.65c-1.25,0-2.12-.73-2.18-1.66h1.27c.04,.38,.4,.67,.9,.67s.76-.23,.76-.51c0-.89-2.82-.32-2.82-2.15,0-.83,.74-1.49,1.97-1.49s1.94,.66,2.01,1.65h-1.21c-.04-.39-.34-.65-.84-.65-.47,0-.71,.19-.71,.48,0,.91,2.76,.34,2.8,2.17,0,.86-.75,1.5-1.96,1.5Z"/><path class="d" d="M303.58,132.65c-1.44,0-2.53-1.01-2.53-2.58s1.13-2.57,2.57-2.57,2.57,1,2.57,2.57-1.15,2.58-2.6,2.58Zm0-1.1c.67,0,1.3-.49,1.3-1.48s-.62-1.48-1.29-1.48-1.27,.48-1.27,1.48,.58,1.48,1.25,1.48Z"/><path class="d" d="M309.01,132.65c-1.25,0-2.12-.73-2.18-1.66h1.27c.04,.38,.4,.67,.9,.67s.77-.23,.77-.51c0-.89-2.82-.32-2.82-2.15,0-.83,.74-1.49,1.97-1.49s1.94,.66,2.01,1.65h-1.21c-.04-.39-.34-.65-.84-.65-.47,0-.71,.19-.71,.48,0,.91,2.76,.34,2.8,2.17,0,.86-.75,1.5-1.96,1.5Z"/><path class="d" d="M319.52,126.27v6.29h-1.26l-2.85-4.31v4.31h-1.26v-6.29h1.26l2.85,4.32v-4.32h1.26Z"/><path class="d" d="M322.94,132.65c-1.45,0-2.5-1.01-2.5-2.58s1.03-2.57,2.5-2.57,2.46,.98,2.46,2.47c0,.16,0,.32-.04,.49h-3.65c.06,.74,.57,1.15,1.2,1.15,.54,0,.84-.27,1-.6h1.36c-.27,.92-1.1,1.65-2.33,1.65Zm-1.21-3.04h2.37c-.02-.66-.54-1.07-1.19-1.07-.6,0-1.08,.39-1.18,1.07Z"/><path class="d" d="M328.46,127.5c1.24,0,2.08,.65,2.35,1.76h-1.36c-.14-.42-.48-.69-1-.69-.7,0-1.17,.53-1.17,1.5s.47,1.5,1.17,1.5c.52,0,.85-.23,1-.68h1.36c-.27,1.06-1.11,1.76-2.35,1.76-1.44,0-2.47-1.01-2.47-2.58s1.03-2.57,2.47-2.57Z"/><path class="d" d="M333.91,132.65c-1.45,0-2.5-1.01-2.5-2.58s1.03-2.57,2.5-2.57,2.46,.98,2.46,2.47c0,.16,0,.32-.04,.49h-3.65c.06,.74,.57,1.15,1.2,1.15,.54,0,.84-.27,1-.6h1.36c-.27,.92-1.1,1.65-2.33,1.65Zm-1.21-3.04h2.37c-.02-.66-.54-1.07-1.19-1.07-.6,0-1.08,.39-1.18,1.07Z"/><path class="d" d="M339.2,132.65c-1.25,0-2.12-.73-2.18-1.66h1.27c.04,.38,.4,.67,.9,.67s.76-.23,.76-.51c0-.89-2.82-.32-2.82-2.15,0-.83,.74-1.49,1.97-1.49s1.94,.66,2.01,1.65h-1.21c-.04-.39-.34-.65-.84-.65-.47,0-.71,.19-.71,.48,0,.91,2.76,.34,2.8,2.17,0,.86-.75,1.5-1.96,1.5Z"/><path class="d" d="M344.1,132.65c-1.25,0-2.12-.73-2.18-1.66h1.27c.04,.38,.4,.67,.9,.67s.76-.23,.76-.51c0-.89-2.82-.32-2.82-2.15,0-.83,.74-1.49,1.97-1.49s1.94,.66,2.01,1.65h-1.21c-.04-.39-.34-.65-.84-.65-.47,0-.71,.19-.71,.48,0,.91,2.76,.34,2.8,2.17,0,.86-.75,1.5-1.96,1.5Z"/><path class="d" d="M349.05,127.5c.8,0,1.35,.38,1.65,.79v-.71h1.27v4.99h-1.27v-.73c-.3,.43-.86,.81-1.66,.81-1.26,0-2.27-1.04-2.27-2.59s1.01-2.56,2.28-2.56Zm.32,1.11c-.67,0-1.31,.5-1.31,1.45s.64,1.49,1.31,1.49,1.32-.52,1.32-1.47-.63-1.47-1.32-1.47Zm1.15-3.35v1.03l-2.07,.95v-.9l2.07-1.07Z"/><path class="d" d="M354.46,132.57h-1.26v-4.99h1.26v.77c.32-.51,.84-.85,1.53-.85v1.32h-.33c-.75,0-1.2,.29-1.2,1.25v2.48Z"/><path class="d" d="M356.7,126.25c0-.41,.32-.74,.77-.74s.77,.32,.77,.74-.33,.74-.77,.74-.77-.32-.77-.74Zm.13,1.33h1.26v4.99h-1.26v-4.99Z"/><path class="d" d="M361.55,132.65c-1.44,0-2.53-1.01-2.53-2.58s1.13-2.57,2.57-2.57,2.57,1,2.57,2.57-1.15,2.58-2.6,2.58Zm0-1.1c.67,0,1.3-.49,1.3-1.48s-.62-1.48-1.29-1.48-1.27,.48-1.27,1.48,.58,1.48,1.25,1.48Z"/><path class="d" d="M366.99,132.65c-1.25,0-2.12-.73-2.18-1.66h1.27c.04,.38,.4,.67,.9,.67s.76-.23,.76-.51c0-.89-2.82-.32-2.82-2.15,0-.83,.74-1.49,1.97-1.49s1.94,.66,2.01,1.65h-1.21c-.04-.39-.34-.65-.84-.65-.47,0-.71,.19-.71,.48,0,.91,2.76,.34,2.8,2.17,0,.86-.75,1.5-1.96,1.5Z"/></g><g><path class="d" d="M269.13,153.72h1.43l2,4.67,2-4.67h1.42v6.28h-1.26v-4.09l-1.68,4.09h-.95l-1.69-4.09v4.09h-1.26v-6.28Z"/><path class="d" d="M279.18,154.93c.8,0,1.35,.38,1.65,.79v-.71h1.27v4.99h-1.27v-.73c-.3,.43-.86,.81-1.66,.81-1.26,0-2.27-1.04-2.27-2.59s1.01-2.56,2.28-2.56Zm.32,1.11c-.67,0-1.31,.5-1.31,1.45s.64,1.49,1.31,1.49,1.32-.52,1.32-1.47-.63-1.47-1.32-1.47Z"/><path class="d" d="M283.52,156.05h-.59v-1.04h.59v-1.23h1.27v1.23h1.12v1.04h-1.12v2.41c0,.33,.13,.48,.53,.48h.58v1.06h-.79c-.95,0-1.59-.41-1.59-1.55v-2.4Z"/><path class="d" d="M289,160.08c-1.45,0-2.5-1.01-2.5-2.58s1.03-2.57,2.5-2.57,2.46,.98,2.46,2.47c0,.16,0,.32-.04,.49h-3.65c.06,.74,.57,1.15,1.2,1.15,.54,0,.84-.27,1-.6h1.36c-.27,.92-1.1,1.65-2.33,1.65Zm-1.22-3.04h2.37c-.02-.66-.54-1.07-1.19-1.07-.6,0-1.08,.39-1.18,1.07Z"/><path class="d" d="M293.63,160h-1.26v-4.99h1.26v.77c.32-.51,.84-.85,1.53-.85v1.32h-.33c-.75,0-1.2,.29-1.2,1.25v2.48Z"/><path class="d" d="M295.87,153.68c0-.41,.32-.74,.77-.74s.77,.32,.77,.74-.33,.74-.77,.74-.77-.32-.77-.74Zm.13,1.33h1.26v4.99h-1.26v-4.99Z"/><path class="d" d="M300.46,154.93c.8,0,1.35,.38,1.65,.79v-.71h1.27v4.99h-1.27v-.73c-.3,.43-.86,.81-1.66,.81-1.26,0-2.27-1.04-2.27-2.59s1.01-2.56,2.28-2.56Zm.32,1.11c-.68,0-1.31,.5-1.31,1.45s.64,1.49,1.31,1.49,1.32-.52,1.32-1.47-.63-1.47-1.32-1.47Z"/><path class="d" d="M304.61,153.34h1.26v6.66h-1.26v-6.66Z"/></g><g><path class="d" d="M317.13,153.72h3.88v1.02h-2.62v1.61h2.01v1h-2.01v2.66h-1.26v-6.28Z"/><path class="d" d="M321.77,153.68c0-.41,.32-.74,.77-.74s.77,.32,.77,.74-.33,.74-.77,.74-.77-.32-.77-.74Zm.13,1.33h1.26v4.99h-1.26v-4.99Z"/><path class="d" d="M327.9,157.25c0-.8-.44-1.23-1.11-1.23s-1.12,.43-1.12,1.23v2.75h-1.26v-4.99h1.26v.62c.32-.42,.86-.69,1.5-.69,1.16,0,1.99,.76,1.99,2.13v2.93h-1.26v-2.75Z"/><path class="d" d="M332.31,154.93c.8,0,1.35,.38,1.65,.79v-.71h1.27v4.99h-1.27v-.73c-.3,.43-.86,.81-1.66,.81-1.26,0-2.27-1.04-2.27-2.59s1.01-2.56,2.28-2.56Zm.32,1.11c-.67,0-1.31,.5-1.31,1.45s.64,1.49,1.31,1.49,1.32-.52,1.32-1.47-.63-1.47-1.32-1.47Z"/><path class="d" d="M339.95,157.25c0-.8-.44-1.23-1.11-1.23s-1.12,.43-1.12,1.23v2.75h-1.26v-4.99h1.26v.62c.32-.42,.86-.69,1.5-.69,1.16,0,1.99,.76,1.99,2.13v2.93h-1.26v-2.75Z"/><path class="d" d="M344.55,154.93c1.24,0,2.08,.65,2.35,1.76h-1.36c-.14-.42-.48-.69-1-.69-.7,0-1.17,.53-1.17,1.5s.47,1.5,1.17,1.5c.52,0,.85-.23,1-.68h1.36c-.27,1.06-1.11,1.76-2.35,1.76-1.44,0-2.47-1.01-2.47-2.58s1.03-2.57,2.47-2.57Z"/><path class="d" d="M350,160.08c-1.45,0-2.5-1.01-2.5-2.58s1.03-2.57,2.5-2.57,2.46,.98,2.46,2.47c0,.16,0,.32-.04,.49h-3.65c.06,.74,.57,1.15,1.2,1.15,.54,0,.84-.27,1-.6h1.36c-.27,.92-1.1,1.65-2.33,1.65Zm-1.21-3.04h2.37c-.02-.66-.54-1.07-1.19-1.07-.6,0-1.08,.39-1.18,1.07Z"/><path class="d" d="M353.24,153.68c0-.41,.32-.74,.77-.74s.77,.32,.77,.74-.33,.74-.77,.74-.77-.32-.77-.74Zm.13,1.33h1.26v4.99h-1.26v-4.99Z"/><path class="d" d="M357.14,160h-1.26v-4.99h1.26v.77c.32-.51,.84-.85,1.53-.85v1.32h-.33c-.75,0-1.2,.29-1.2,1.25v2.48Z"/><path class="d" d="M361.73,160.08c-1.44,0-2.53-1.01-2.53-2.58s1.12-2.57,2.57-2.57,2.57,1,2.57,2.57-1.15,2.58-2.6,2.58Zm0-1.1c.67,0,1.31-.49,1.31-1.48s-.62-1.48-1.29-1.48-1.27,.48-1.27,1.48,.58,1.48,1.25,1.48Z"/><path class="d" d="M367.16,160.08c-1.25,0-2.12-.73-2.18-1.66h1.27c.04,.38,.4,.67,.9,.67s.76-.23,.76-.51c0-.89-2.82-.32-2.82-2.15,0-.83,.74-1.49,1.97-1.49s1.94,.66,2.01,1.65h-1.21c-.04-.39-.34-.65-.84-.65-.47,0-.71,.19-.71,.48,0,.91,2.76,.34,2.8,2.17,0,.86-.75,1.5-1.96,1.5Z"/></g><g><path class="d" d="M418.45,130.15h-1.05v2.41h-1.26v-6.28h2.31c1.51,0,2.27,.86,2.27,1.95,0,.95-.65,1.93-2.27,1.93Zm-.05-1.02c.71,0,1.03-.35,1.03-.91s-.32-.92-1.03-.92h-1v1.83h1Z"/><path class="d" d="M422.86,132.57h-1.26v-4.99h1.26v.77c.32-.51,.84-.85,1.53-.85v1.32h-.33c-.75,0-1.2,.29-1.2,1.25v2.48Z"/><path class="d" d="M427.19,127.5c.8,0,1.35,.38,1.65,.79v-.71h1.27v4.99h-1.27v-.73c-.3,.43-.86,.81-1.66,.81-1.26,0-2.27-1.04-2.27-2.59s1.01-2.56,2.28-2.56Zm.32,1.11c-.68,0-1.31,.5-1.31,1.45s.64,1.49,1.31,1.49,1.32-.52,1.32-1.47-.63-1.47-1.32-1.47Z"/><path class="d" d="M434.69,128.6l-2.2,2.93h2.22v1.04h-3.66v-1.02l2.18-2.93h-2.17v-1.04h3.62v1.02Z"/><path class="d" d="M437.9,132.65c-1.44,0-2.53-1.01-2.53-2.58s1.13-2.57,2.57-2.57,2.57,1,2.57,2.57-1.15,2.58-2.6,2.58Zm0-1.1c.67,0,1.3-.49,1.3-1.48s-.62-1.48-1.29-1.48-1.27,.48-1.27,1.48,.58,1.48,1.25,1.48Z"/></g><g><path class="d" d="M385.01,153.63c1.4,0,2.53,.75,2.95,2.04h-1.45c-.3-.6-.84-.9-1.51-.9-1.1,0-1.88,.8-1.88,2.08s.78,2.08,1.88,2.08c.67,0,1.21-.3,1.51-.91h1.45c-.42,1.3-1.56,2.03-2.95,2.03-1.81,0-3.19-1.32-3.19-3.21s1.38-3.21,3.19-3.21Z"/><path class="d" d="M393.75,160h-1.27v-.63c-.31,.42-.86,.69-1.49,.69-1.16,0-2-.76-2-2.12v-2.93h1.26v2.75c0,.8,.44,1.23,1.11,1.23s1.12-.43,1.12-1.23v-2.75h1.27v4.99Z"/><path class="d" d="M396.25,160h-1.26v-4.99h1.26v.77c.32-.51,.84-.85,1.53-.85v1.32h-.33c-.75,0-1.2,.29-1.2,1.25v2.48Z"/><path class="d" d="M398.83,156.05h-.59v-1.04h.59v-1.23h1.27v1.23h1.12v1.04h-1.12v2.41c0,.33,.13,.48,.53,.48h.58v1.06h-.79c-.95,0-1.59-.41-1.59-1.55v-2.4Z"/><path class="d" d="M404.33,160.08c-1.44,0-2.53-1.01-2.53-2.58s1.12-2.57,2.57-2.57,2.57,1,2.57,2.57-1.15,2.58-2.6,2.58Zm0-1.1c.67,0,1.31-.49,1.31-1.48s-.62-1.48-1.29-1.48-1.27,.48-1.27,1.48,.58,1.48,1.25,1.48Z"/></g><g><path class="d" d="M420.13,153.72h1.43l2,4.67,2-4.67h1.42v6.28h-1.26v-4.09l-1.68,4.09h-.95l-1.69-4.09v4.09h-1.26v-6.28Z"/><path class="d" d="M430.4,160.08c-1.45,0-2.5-1.01-2.5-2.58s1.03-2.57,2.5-2.57,2.46,.98,2.46,2.47c0,.16,0,.32-.04,.49h-3.65c.06,.74,.57,1.15,1.2,1.15,.54,0,.84-.27,1-.6h1.36c-.27,.92-1.1,1.65-2.33,1.65Zm-1.22-3.04h2.37c-.02-.66-.54-1.07-1.19-1.07-.6,0-1.08,.39-1.18,1.07Zm2.18-4.37v1.03l-2.07,.95v-.9l2.07-1.07Z"/><path class="d" d="M435.74,154.93c.66,0,1.29,.31,1.63,.77v-2.37h1.28v6.66h-1.28v-.74c-.3,.46-.86,.82-1.64,.82-1.27,0-2.28-1.04-2.28-2.59s1.01-2.56,2.29-2.56Zm.31,1.11c-.67,0-1.31,.5-1.31,1.45s.64,1.49,1.31,1.49,1.32-.52,1.32-1.47-.63-1.47-1.32-1.47Z"/><path class="d" d="M439.74,153.68c0-.41,.32-.74,.77-.74s.77,.32,.77,.74-.33,.74-.77,.74-.77-.32-.77-.74Zm.13,1.33h1.26v4.99h-1.26v-4.99Z"/><path class="d" d="M444.59,160.08c-1.44,0-2.53-1.01-2.53-2.58s1.12-2.57,2.57-2.57,2.57,1,2.57,2.57-1.15,2.58-2.6,2.58Zm0-1.1c.67,0,1.31-.49,1.31-1.48s-.62-1.48-1.29-1.48-1.27,.48-1.27,1.48,.58,1.48,1.25,1.48Z"/></g><g><path class="d" d="M461.39,153.72v5.29h2.07v1h-3.33v-6.28h1.26Z"/><path class="d" d="M466.48,160.08c-1.44,0-2.53-1.01-2.53-2.58s1.13-2.57,2.57-2.57,2.57,1,2.57,2.57-1.15,2.58-2.6,2.58Zm0-1.1c.67,0,1.3-.49,1.3-1.48s-.62-1.48-1.29-1.48-1.27,.48-1.27,1.48,.58,1.48,1.25,1.48Z"/><path class="d" d="M473.5,157.25c0-.8-.44-1.23-1.11-1.23s-1.13,.43-1.13,1.23v2.75h-1.26v-4.99h1.26v.62c.32-.42,.86-.69,1.5-.69,1.16,0,1.99,.76,1.99,2.13v2.93h-1.26v-2.75Z"/><path class="d" d="M477.91,154.93c.78,0,1.35,.36,1.65,.79v-.71h1.27v5.02c0,1.35-.83,2.42-2.47,2.42-1.4,0-2.39-.7-2.51-1.85h1.25c.13,.45,.59,.75,1.22,.75,.69,0,1.23-.4,1.23-1.32v-.77c-.3,.43-.86,.82-1.65,.82-1.27,0-2.28-1.04-2.28-2.59s1.01-2.56,2.28-2.56Zm.32,1.11c-.68,0-1.31,.5-1.31,1.45s.64,1.49,1.31,1.49,1.32-.52,1.32-1.47-.63-1.47-1.32-1.47Z"/><path class="d" d="M484.27,160.08c-1.44,0-2.53-1.01-2.53-2.58s1.13-2.57,2.57-2.57,2.57,1,2.57,2.57-1.15,2.58-2.6,2.58Zm0-1.1c.67,0,1.3-.49,1.3-1.48s-.62-1.48-1.29-1.48-1.27,.48-1.27,1.48,.58,1.48,1.25,1.48Z"/></g><g><path class="d" d="M14.05,68.06c-1.77,0-3.22-1.33-3.22-3.22s1.45-3.21,3.22-3.21,3.21,1.33,3.21,3.21-1.43,3.22-3.21,3.22Zm0-1.13c1.13,0,1.92-.82,1.92-2.1s-.78-2.08-1.92-2.08-1.93,.8-1.93,2.08,.78,2.1,1.93,2.1Z"/><path class="d" d="M21.1,62.93c1.28,0,2.28,1,2.28,2.56s-1,2.59-2.28,2.59c-.78,0-1.34-.36-1.65-.79v.71h-1.26v-6.66h1.26v2.4c.31-.46,.89-.81,1.65-.81Zm-.33,1.11c-.67,0-1.31,.52-1.31,1.47s.64,1.47,1.31,1.47,1.32-.54,1.32-1.49-.64-1.45-1.32-1.45Z"/><path class="d" d="M25.56,63.01v5.81c0,1.15-.62,1.56-1.58,1.56h-.56v-1.07h.36c.39,0,.52-.14,.52-.48v-5.82h1.26Zm-1.4-1.33c0-.41,.32-.74,.78-.74s.77,.32,.77,.74-.32,.74-.77,.74-.78-.32-.78-.74Z"/><path class="d" d="M28.98,68.08c-1.45,0-2.5-1.01-2.5-2.58s1.03-2.57,2.5-2.57,2.46,.98,2.46,2.47c0,.16,0,.32-.04,.49h-3.65c.06,.74,.57,1.15,1.2,1.15,.54,0,.84-.27,1-.6h1.36c-.27,.92-1.1,1.65-2.33,1.65Zm-1.22-3.04h2.37c-.02-.66-.54-1.07-1.19-1.07-.6,0-1.08,.39-1.18,1.07Z"/><path class="d" d="M32.55,64.05h-.59v-1.04h.59v-1.23h1.27v1.23h1.12v1.04h-1.12v2.41c0,.33,.13,.48,.53,.48h.59v1.06h-.79c-.95,0-1.59-.41-1.59-1.55v-2.4Z"/><path class="d" d="M35.71,61.68c0-.41,.32-.74,.77-.74s.77,.32,.77,.74-.33,.74-.77,.74-.77-.32-.77-.74Zm.13,1.33h1.26v4.99h-1.26v-4.99Z"/><path class="d" d="M39.17,63.01l1.26,3.83,1.26-3.83h1.34l-1.85,4.99h-1.53l-1.84-4.99h1.35Z"/><path class="d" d="M45.95,68.08c-1.44,0-2.53-1.01-2.53-2.58s1.13-2.57,2.57-2.57,2.57,1,2.57,2.57-1.15,2.58-2.6,2.58Zm0-1.1c.67,0,1.3-.49,1.3-1.48s-.62-1.48-1.29-1.48-1.27,.48-1.27,1.48,.58,1.48,1.25,1.48Z"/><path class="d" d="M13.31,78.88c-1.45,0-2.5-1.01-2.5-2.58s1.03-2.57,2.5-2.57,2.46,.98,2.46,2.47c0,.16,0,.32-.04,.49h-3.65c.06,.74,.57,1.15,1.2,1.15,.54,0,.84-.27,1-.6h1.36c-.27,.92-1.1,1.65-2.33,1.65Zm-1.22-3.04h2.37c-.02-.66-.54-1.07-1.19-1.07-.6,0-1.08,.39-1.18,1.07Z"/><path class="d" d="M18.59,78.88c-1.25,0-2.12-.73-2.18-1.66h1.27c.04,.38,.4,.67,.9,.67s.77-.23,.77-.51c0-.89-2.82-.32-2.82-2.15,0-.83,.74-1.49,1.97-1.49s1.94,.66,2.01,1.65h-1.21c-.04-.39-.34-.65-.84-.65-.47,0-.71,.19-.71,.48,0,.91,2.76,.34,2.8,2.17,0,.86-.75,1.5-1.96,1.5Z"/><path class="d" d="M24.5,73.73c1.28,0,2.28,1,2.28,2.56s-1,2.59-2.28,2.59c-.78,0-1.34-.39-1.65-.79v3.09h-1.26v-7.36h1.26v.72c.3-.42,.87-.8,1.65-.8Zm-.33,1.11c-.67,0-1.31,.52-1.31,1.47s.64,1.47,1.31,1.47,1.32-.54,1.32-1.49-.64-1.45-1.32-1.45Z"/><path class="d" d="M29.87,78.88c-1.45,0-2.5-1.01-2.5-2.58s1.03-2.57,2.5-2.57,2.46,.98,2.46,2.47c0,.16,0,.32-.04,.49h-3.65c.06,.74,.57,1.15,1.2,1.15,.54,0,.84-.27,1-.6h1.36c-.27,.92-1.1,1.65-2.33,1.65Zm-1.21-3.04h2.37c-.02-.66-.54-1.07-1.19-1.07-.6,0-1.08,.39-1.18,1.07Z"/><path class="d" d="M35.39,73.73c1.24,0,2.08,.65,2.35,1.76h-1.36c-.14-.42-.48-.69-1-.69-.7,0-1.17,.53-1.17,1.5s.47,1.5,1.17,1.5c.52,0,.85-.23,1-.68h1.36c-.27,1.06-1.11,1.76-2.35,1.76-1.44,0-2.47-1.01-2.47-2.58s1.03-2.57,2.47-2.57Z"/><path class="d" d="M40.33,71.49v1.03l-2.07,.95v-.9l2.07-1.07Zm-1.61,2.32h1.26v4.99h-1.26v-4.99Z"/><path class="d" d="M41.41,74.85h-.57v-1.04h.57v-.25c0-1.22,.69-1.79,2.1-1.76v1.06c-.61-.02-.82,.18-.82,.74v.21h.87v1.04h-.87v3.95h-1.28v-3.95Z"/><path class="d" d="M44.24,72.48c0-.41,.32-.74,.77-.74s.77,.32,.77,.74-.33,.74-.77,.74-.77-.32-.77-.74Zm.13,1.33h1.26v4.99h-1.26v-4.99Z"/><path class="d" d="M49.02,73.73c1.24,0,2.08,.65,2.35,1.76h-1.36c-.14-.42-.48-.69-1-.69-.7,0-1.17,.53-1.17,1.5s.47,1.5,1.17,1.5c.52,0,.85-.23,1-.68h1.36c-.27,1.06-1.11,1.76-2.35,1.76-1.44,0-2.47-1.01-2.47-2.58s1.03-2.57,2.47-2.57Z"/><path class="d" d="M54.51,78.88c-1.44,0-2.53-1.01-2.53-2.58s1.12-2.57,2.57-2.57,2.57,1,2.57,2.57-1.15,2.58-2.6,2.58Zm0-1.1c.67,0,1.31-.49,1.31-1.48s-.62-1.48-1.29-1.48-1.27,.48-1.27,1.48,.58,1.48,1.25,1.48Z"/></g><rect class="d" y="52.5" width="500" height="1"/><rect class="d" y="180.5" width="500" height="1"/><rect class="d" y="91" width="500" height="1"/><rect class="d" y="116" width="500" height="1"/><rect class="d" y="144" width="500" height="1"/><rect class="d" x="119.5" y="116.5" width="1" height="64.5"/><rect class="d" x="192.5" y="116.5" width="1" height="64.5"/><rect class="d" x="499.5" y="18.5" width="1" height="162.5"/><rect class="d" x="263.5" y="116.5" width="1" height="64.5"/><rect class="d" x="377.5" y="116.5" width="1" height="64.5"/><rect class="d" x="312.5" y="144.5" width="1" height="36.5"/><rect class="d" x="413.5" y="144.5" width="1" height="36.5"/><rect class="d" x="454.5" y="144.5" width="1" height="36.5"/></g></g><g id="b"/></svg>