<svg xmlns="http://www.w3.org/2000/svg" width="312" height="162.304" viewBox="0 0 312 162.304">
  <g id="img-slide-116" transform="translate(0 -10.31)">
    <path id="Caminho_4975" data-name="Caminho 4975" d="M67.084,108.169c-12.219,0-21.758-8.655-21.758-19.4V52.178h16.4V90.269c0,4.783,4.18,8.642,9.539,8.642,5.064,0,9.566-3.859,9.566-8.642V52.178h7.731v36.59c0,10.745-9.539,19.4-21.477,19.4M20.847,86.089,10.705,83.114A16.155,16.155,0,0,1,0,67.921,15.98,15.98,0,0,1,16.1,51.87h19.99v7.088H22.067a5.009,5.009,0,0,0-5.051,5.078A4.714,4.714,0,0,0,20.271,68.5l9.848,3.283c6.578,2.1,10.129,8.936,10.129,16.694a17.687,17.687,0,0,1-17.592,17.9H1.5V98.321H19.7c2.653,0,5.654-2.653,5.654-6.23a6.4,6.4,0,0,0-4.5-5.989m93.09,0-10.169-2.974a16.027,16.027,0,0,1,5.1-31.244h19.963v7.088H114.821a5,5,0,0,0-5.064,5.078,4.687,4.687,0,0,0,3.283,4.462l9.821,3.283c6.86,2.1,10.464,8.936,10.464,16.694a17.981,17.981,0,0,1-17.927,17.9H94.242V98.334h18.181c2.68,0,5.681-2.653,5.681-6.23a6.123,6.123,0,0,0-4.167-5.989" transform="translate(0 14.122)" fill="#085ca5" fill-rule="evenodd"/>
    <path id="Caminho_4976" data-name="Caminho 4976" d="M214.489,120.241h6.444v41.105c-.79-4.261-3.2-29.288-2.907-37.3-.8-.831-3.537-3.805-3.537-3.805M166.3,76.336h0l-6.887-7.007c-9.164.121-38.694-3-48.179-4.663v52.869c47.389,4.689,72.256,5.855,100.016,4.984h.456L166.3,76.335Zm.335-14.738h52.936V10.31H166.631V61.584Zm-41.052,3.082c3.51.295,34.487,3,36.563,3l49.037,49.867H274.2V64.666H125.579Zm89.137,60.733s-28.27,1.929-52.319-.255c.482,29.235,4.019,44.254,4.6,47.456h52.56c-2.505-15.368-4.488-40.194-4.823-47.215" transform="translate(37.796 0)" fill="#085ca5" fill-rule="evenodd"/>
  </g>
</svg>
