<svg id="im-slide-47" xmlns="http://www.w3.org/2000/svg" xmlns:xlink="http://www.w3.org/1999/xlink" width="257.845" height="194.802" viewBox="0 0 257.845 194.802">
  <defs>
    <clipPath id="clip-path">
      <rect id="Retângulo_1236" data-name="Retângulo 1236" width="257.845" height="194.802" fill="none"/>
    </clipPath>
  </defs>
  <g id="Grupo_1912" data-name="Grupo 1912" clip-path="url(#clip-path)">
    <path id="Caminho_2248" data-name="Caminho 2248" d="M28.032,142.906v-.018l-.005.009,0,.009" fill="#de8d3a"/>
    <path id="Caminho_2249" data-name="Caminho 2249" d="M67.491,106.774c-2.39-.2-3.642,1.378-3.7,3.695-.066,2.469.645,4.955-.169,7.41-.467,5.031-2.7,9.458-4.919,13.849-1.471,2.909-3.015,6.689-6.628,6.631-3.443-.055-3.255-4.448-4.94-6.737-2.411-1.254-.712-3.134-.352-4.806q.147,1.135.3,2.271h0c.667-5.065,3.922-9.247,4.859-14.219-1.239-.975-1.243-1.963-.03-2.962-2.831-4.135-7.143-2.583-10.978-2.858a8.247,8.247,0,0,1-7.895-.013c-3.562-.985,0-3.659-1.232-5.195-.749-1.641-2.018-3.315.307-4.757q1.373-8.1,2.744-16.207c-1.046-.807-.879-1.962-.842-3.06.012-.362-.092-1.07.587-.809.015,0,.023.027.037.036a.74.74,0,0,1,.4-.219,1.353,1.353,0,0,0-.31.3,5.315,5.315,0,0,1,.416,1.1h0c1.166-1.99.808-4.187.839-6.324.056-3.736-2.262-5.756-5.548-5.673-3.156.079-3.393,2.916-3.408,5.609-.062,11.313-2.323,22.443-2.9,33.711-.139,2.727-1.68,3.081-3.781,3.581-7.3,1.738-7.284,1.811-6.517-5.283-.9-1.326-1.8-2.651.356-3.681h0a4.084,4.084,0,0,0,.709-3.294c-1.427-1.456-.864-3.166-.7-4.952,1.281.46.586,1.561.927,2.25,1.25-5.778,2.983-11.475,2.9-17.476a4.9,4.9,0,0,0-3.944-5.06c-2.544-.632-3.454,1.216-3.866,3.356a4.389,4.389,0,0,1,.5,4.686c-.3.732-.548-.575-.819-.963h0a6.221,6.221,0,0,0-.741,4.25c1.348,1.306.8,2.966.759,4.493-.014.559-.327.539-.592.311l-.022.009c-.05.233-.083.459-.148.7,0,.373-.324-.486.148-.7a.185.185,0,0,0,.005-.025,1.14,1.14,0,0,1-.2-.24,3.35,3.35,0,0,1-.262-.907h0c-.959,1.326-.844,2.833-.733,4.339,1.064.8.9,1.96.864,3.062-.013.364.091,1.075-.591.811-.015-.006-.023-.028-.037-.036a.75.75,0,0,1-.394.213,1.374,1.374,0,0,0,.308-.3,5.46,5.46,0,0,1-.417-1.1h0c-1.286,4.019-1.245,8.216-1.664,12.352.895,1.325,1.793,2.651-.359,3.679h0c-.467,1.168-.6,2.75-1.46,3.431-3.263,2.6-2.283,5.163-.383,7.882,2.109,1.772.932,3.871.585,5.887-.121-.065-.308-.1-.349-.2a8.253,8.253,0,0,1-.285-.921h0c-1.06,1.609-.951,3.4-.814,5.2,1.307,1.48.9,3.089.429,4.715a.842.842,0,0,1-.167.945q.048-.327.09-.674c-.1.336-.193.673-.273,1.01q-.161-1.155-.323-2.312h0C1.668,141.617,1.5,146.767,1.174,151.9c.775,2.211,2.344,4.578-1.174,5.942v4c4.222,4,6.042,3.88,8.689-.565-.34-1.891-.283-3.836-.614-5.723L7.88,160.8c-1.9-2.853-.356-5.9-1.052-9.189,1.339.738,1.1,1.589,1.236,2.266a5.388,5.388,0,0,0,.54.156c1.886-1.208,1.539-3.048,1.347-4.841-.407-1.487-.6-3.019-.927-4.694l-.21,4.3c-1.544-2.464-.624-5.069-.729-7.8-.017-.049-.03-.1-.048-.145.018.032.03.062.046.093,0-.065,0-.129-.007-.194,1.167.6.82,1.475.978,2.158a.879.879,0,0,0,.734.062c2.416-2.443,1.45-5.411,1.26-8.263a11.869,11.869,0,0,0-1.011-2.86l-.159,1.984c-1.384-1.558-.976-3.276-.27-6.238.266,1.9.376,2.68.481,3.431a1.141,1.141,0,0,0,.125.085,1.716,1.716,0,0,0,1.606-1.582c.3-6.39,4.753-7.4,9.82-7.7a2.719,2.719,0,0,1,1.217,2.1q-.03-2.006-.061-4.012c2.393,2.743.672,5.9,1.22,9.277-.555-.6-.857-.779-.926-1.026a6.977,6.977,0,0,1-.172-1.274c-.378-.155-.973-.5-1.116.118-1.755,2.488-1.166,5.233-.826,7.946q.489,4.821.677,9.642c.055-3.231.191-6.461.473-9.691,1.835,4.773.587,9.731.8,14.6.2,4.407-.091,8.836-.183,13.255,0,.065-.252.181-.38.172a1.4,1.4,0,0,1-.445-.2c-.092-3.212-.189-6.423-.248-9.635-.1,3.075-.325,6.15-.713,9.226-1.357,2.509-1.436,4.738,1.358,6.362,1.738.764,3.425,2.056,5.332.306,1.945-1.784,1.873-3.921,1.2-6.193a8.025,8.025,0,0,1,.021-7.911c-1.254-3.924-.8-7.967-.838-11.976l-.012.006v-.033c-2.332-4.859-.268-9.931-1.274-15.156,1.627.67,1.073,1.664,1.329,2.359,1.6-2.332,1.585-5.17,1.248-7.6-.486-3.5,1-4.768,3.891-5.438,2.625-2.019,5.189-1.888,7.7.215h0c-2.544,9-2.768,17.559,3.715,25.346,4.075,4.894,8.841,5.728,13.709,1.552a21.735,21.735,0,0,0,4.28-4.811c5.426-8.652,7.667-18.418,9.307-28.315.484-2.923-2-4.051-4.434-4.259" fill="#de8d3a"/>
    <path id="Caminho_2250" data-name="Caminho 2250" d="M9.3,89.771l.022-.009L9.3,89.746l-.005.025" fill="#de8d3a"/>
    <path id="Caminho_2251" data-name="Caminho 2251" d="M3.366,138.557a.841.841,0,0,0,.167-.944c-.026.09-.051.18-.077.27-.028.231-.058.457-.09.674" fill="#de8d3a"/>
    <path id="Caminho_2252" data-name="Caminho 2252" d="M233.429,118.842a1.131,1.131,0,0,0,.078.28c-.016-.1-.031-.193-.046-.29-.011.007-.021,0-.032.01" fill="#de8d3a"/>
    <path id="Caminho_2253" data-name="Caminho 2253" d="M246.253,133.239c-8.915-.995-8.943-.74-11.335-8.465-1.856-1.156-1.218-2.482-.26-3.83a4.3,4.3,0,0,0-.7-3.272,2.87,2.87,0,0,1-.243.9.909.909,0,0,1-.257.263c.016.1.031.195.046.29a1.1,1.1,0,0,1-.077-.281c-.25.134-.479,0-.506-.435-.073-1.219-.365-2.528.8-3.477a9.558,9.558,0,0,0-.759-5.259q-.117.974-.235,1.946c-.124-.32-.245-.641-.359-.961l-.006.016c.031.355.068.7.11,1.024a1.045,1.045,0,0,1-.11-1.024l-.005-.046c-.554-1.556-.866-3.111.319-4.672-.256-1.208-.5-2.426-1.852-2.943a3.665,3.665,0,0,1-4.893.09c-1.631,1.014-2.279,2.736-3.185,4.3-4.265,7.356-6.773,15.506-10.506,23.1-.924,1.878-1.615,3.444-4.2,3.4-6.983-.108-13.692,2.19-21.03,2.77,2.832-3.971,6.478-6.575,9.566-9.724,4.934-5.029,11.711-7.576,16.524-12.7,2.6-2.768,3.73-6.077,2.215-9.6-1.6-3.71-5.293-3.735-8.6-3.437a92.985,92.985,0,0,0-11.274,1.942,10.126,10.126,0,0,0-5.97,3.366c-1.325,1.626-2.531,3.465-1.416,5.416,1.183,2.072,3.193.762,4.923.44,4.047-.753,7.944-2.519,13.049-2.441-4.442,4.747-9.2,7.531-13.388,11-7.194,5.973-14.3,12-17.332,21.343-.522,1.61-1.135,3.474.382,4.6,1.624,1.2,3.373,2.84,5.841,1.667,1.948-.925,3.955-1.727,5.955-2.538a56.643,56.643,0,0,1,17.782-3.916c-2.615,5.257-6.149,8.918-9.626,12.66-2.142,2.306-4.755,5.045-1.286,8.05,3.084,2.672,5.7.86,8.115-1.708,5.734-6.092,9.675-13.449,14.544-20.147,4.3-1.721,8.574-2.009,12.777.323h0c.634,2.537,1.3,5.067,1.893,7.614.808,3.472,3.788,3.6,6.162,3.208,3.022-.5,3.421-3.126,2.636-5.829-.5-1.716-1.049-3.417-1.577-5.125,1.315-2.029,3.191-1.269,4.964-.979.052.008.113.275.082.4a1.336,1.336,0,0,1-.256.389h0c1.266.891,2.443,1.976,4.158,1.87,2.3-1.88,4.948-.642,7.437-.852h0c1.6.193,1.4-1.767,2.546-2.117v-2c-2.287-5.421-7.473-4.161-11.592-4.62M223.67,133.1c-2.222-.023-2.5-.87-1.8-2.683,1-2.585,1.544-5.371,3.85-8.287.512,2.711.6,4.922,1.365,6.866,1.488,3.782-.406,4.135-3.418,4.1" fill="#de8d3a"/>
    <path id="Caminho_2254" data-name="Caminho 2254" d="M232.474,111.695c-.042-.323-.08-.669-.111-1.024a1.044,1.044,0,0,0,.111,1.024" fill="#de8d3a"/>
    <path id="Caminho_2255" data-name="Caminho 2255" d="M100.724,175.884c-1.068-4.96-4.789-7.31-9.083-8.886-3.394-1.244-6.931-2.1-10.4-3.148-1.55-.47-2.691-1.369-2.489-3.172.222-1.971,1.555-2.7,3.405-2.908,3.336-.377,5.208,1.426,6.524,4.156,1.762.107,3.662-.715,5.219.774,2-.062,4.673,1.149,5.736-.99.92-1.849-.561-4.081-1.622-5.907-2.234-3.846-5.776-5.546-10.109-5.812a8.152,8.152,0,0,1-7.917-.014c-5.875.416-10.4,2.649-11.931,8.887a6.138,6.138,0,0,1-.031,6.946c.63,4.125,3.668,6.2,7.03,7.707a76.594,76.594,0,0,0,9.4,3.215c2.537.758,4.871,1.814,5.076,4.729a3.986,3.986,0,0,1-3.482,4.243c-2.731.555-6.135.479-6.945-2.358-1.691-5.923-5.849-4.387-9.8-4.266-3.349.1-3.57,1.635-2.847,4.521,1.556,6.209,6.2,8.965,11.489,11.2h2c2.584-1.938,5.486-.667,8.247-.817q9.812-.771,12.518-10.229a8.8,8.8,0,0,1,.007-7.872" fill="#409171"/>
    <path id="Caminho_2256" data-name="Caminho 2256" d="M141.817,152.6c.05-1.365-.495-2.377-1.933-2.293-3.234.19-6.556-.915-9.7.616,1.484,9.266.659,18.57.411,27.861,0,.2-.243.388-.509.578a2.207,2.207,0,0,1-.513.384h0c-1.447,3.007-3.594,4.963-7.174,4.738-3.683-.233-5.2-2.853-6.4-5.822a1.284,1.284,0,0,1-.113.481,5.079,5.079,0,0,1-.578.577c-.843-1-.34-2.168-.349-3.239-.055-6.987-.188-13.98.032-20.96.124-3.91-2.206-3.64-4.832-3.72-2.763-.085-4.365.454-4.278,3.774.186,7.149.086,14.306.032,21.459-.012,1.6.536,3.362-.848,4.742,1.093,6.289,4.363,10.585,10.9,11.89,2.355-1.3,4.682-1.519,6.961.173q.017.481,0,.962h2c1.325-3.521,3.727-1.9,5.927-1.24,5.951-1.673,9.034-6,10.125-11.7,1.851-9.682.48-19.505.84-29.258" fill="#409171"/>
    <path id="Caminho_2257" data-name="Caminho 2257" d="M114.049,8.952c.933,4.125,4.323,2.16,6.361,2.052,2.559-.135.935-2.509.835-3.958-.191-2.771-1.966-4.812-3.316-7.046h-2c-.863,1.233-2.292,2.2-1.914,4.021a3.524,3.524,0,0,1,.033,4.931" fill="#449374"/>
    <path id="Caminho_2258" data-name="Caminho 2258" d="M156.737,193.954h0a7.184,7.184,0,0,1,.168.848H166.9a7.944,7.944,0,0,0,.167-.851l-10.329,0" fill="#7bb5a1"/>
    <path id="Caminho_2259" data-name="Caminho 2259" d="M124.925,194.8h3c.613-1.272,2.042-.616,2.929-1.24a6.464,6.464,0,0,0-5.927,1.24" fill="#3e8c6b"/>
    <path id="Caminho_2260" data-name="Caminho 2260" d="M124.925,194.8a6.464,6.464,0,0,1,5.927-1.24c-2.2-.656-4.6-2.281-5.927,1.24" fill="#3e8c6b"/>
    <path id="Caminho_2261" data-name="Caminho 2261" d="M1.174,151.9c-.528,1.274.358,2.968-1.174,3.943v2c1.741-1.714,1.859-3.748,1.174-5.941" fill="#dc8630"/>
    <path id="Caminho_2262" data-name="Caminho 2262" d="M1.174,151.9c.685,2.193.567,4.227-1.174,5.941,3.518-1.363,1.949-3.73,1.174-5.941" fill="#dc8630"/>
    <path id="Caminho_2263" data-name="Caminho 2263" d="M79.952,194.8h7.995a2.237,2.237,0,0,0,.253-.816c-2.686.908-5.6-.435-8.248.816" fill="#71b09a"/>
    <path id="Caminho_2264" data-name="Caminho 2264" d="M79.952,194.8c2.652-1.251,5.562.092,8.248-.816-2.762.15-5.664-1.122-8.248.816" fill="#71b09a"/>
    <path id="Caminho_2265" data-name="Caminho 2265" d="M120.728,193.9l-3,.089h0a4.029,4.029,0,0,0,.207.808h5a4,4,0,0,0-1.048-.8,6.17,6.17,0,0,1-1.15-.1" fill="#78b39f"/>
    <path id="Caminho_2266" data-name="Caminho 2266" d="M120.728,193.9a6.17,6.17,0,0,0,1.15.1,4,4,0,0,1,1.048.8c.009-.321.008-.641,0-.962l-2.2.065" fill="#78b39f"/>
    <path id="Caminho_2267" data-name="Caminho 2267" d="M105.212,116.1a7.393,7.393,0,0,1,.6.652c2.8.628,5.441-.32,8.13-.8a11.607,11.607,0,0,1,1.069-1.12c1.952-2.144,2.746-4.864,3.758-7.482,1.166-3.013,2.96-5.554,6.617-4.4,3.4,1.072,3.4,3.968,2.68,6.944a10.777,10.777,0,0,0-.071,2.389,2.733,2.733,0,0,0,.515.351,10.744,10.744,0,0,0,9.437-1.6c2.12-.4,4.233-.85,6.364-1.18,5.648-.874,6.049-1.488,5.064-7.115-1.518-8.663-2.833-17.363-4.458-26-.7-3.709-.32-5.46,4.2-5.973,9.722-1.1,19.343-3.088,29.021-4.609,2.632-.413,3.837-1.449,3.319-4.3-1.515-8.33-3.063-16.661-4.239-25.042-.52-3.7-2.4-4.272-5.484-3.765-8.687,1.43-17.427,2.582-26.051,4.315-4.713.948-8.566,1.661-8.161-5.741-14.263,14.274-30,16.946-47.6,9.441l-1.495,3.9a1.962,1.962,0,0,1-.367.958c-.57,1.083-1.65.915-2.6,1.07-10.147,1.647-20.288,3.327-30.442,4.921-2.058.323-3.986.6-4.567,3.033,1.5,8.812,3.087,17.61,4.447,26.443.512,3.326,1.753,4.493,5.3,3.85,9.941-1.8,19.969-3.118,29.912-4.91,2.859-.515,3.681.094,4.1,2.94,1.276,8.68,2.9,17.309,4.384,25.957,3.717.845,5.522,3.524,6.621,6.881" fill="#409071"/>
    <path id="Caminho_2268" data-name="Caminho 2268" d="M148.939,146.756c1.363-1.283,2.691-1.311,3.978.113,3.161-.751,4.246-3.487,5.52-5.943,4.17-8.044,3.547-17.077,4.979-25.672.426-2.561-1.749-4.317-4.674-4.832-3.251-.572-3.4,1.734-4.083,3.711-.72,2.094-.493,4.247-.508,6.4-.033,4.818-.216,9.631-3.31,14.878-2.247-5.965-4.345-10.98-6-16.136-.944-2.938-2.012-5.575-4.688-7.3-4.207.016-5.558,2.417-5.54,6.277.01,2.041.57,4.2-.5,6.206a7.33,7.33,0,0,1-4.9-3.1c-1.578-1.991-1-4.18-.585-6.352a2.913,2.913,0,0,0-.635-2.647c0-.027,0-.054,0-.081-.9-.773-.916-1.929-.955-3.077-.069-2.017-.01-4.265-2.615-4.681-2.676-.427-3.679,1.685-4.655,3.67-1.356,2.756-1.708,6.187-5.061,7.63-.256.035-.512.083-.767.128-2.794,3.315-3.639,7.832-6.151,10.436-.7-2.975.519-6.606-1.979-9.634-.022,0-.042,0-.064-.01-2.817-2.091-4.694-5.085-7.159-7.52v0c-2.555.959-3.024,3.3-3.718,5.526a19.276,19.276,0,0,1-4.126,7.994c-1.006-3.807-1.84-6.965-2.675-10.122-.1.778-.2,1.557-.432,3.345-.854-2.752-1.123-4.427.1-6.012h0l.069-1.028c-3.762-4.174-6.867-4.245-8.7.2-4.238,10.278-8.2,20.663-10.493,31.61-.743,3.552-.566,6.668,3.518,7.339,4.168.686,4.433-2.649,4.919-5.769a49,49,0,0,1,5.221-16.054c1.643,2.952,1.383,5.889,2.183,8.569.462,1.545.513,3.613,2.519,3.933,2.146.342,4.389-.032,5.744-2.025,1.732-2.549,3.263-5.234,5.013-8.076,1.131,3.859-.656,7.782,1.161,11.308V128.944c.157.892.344,1.786.519,2.679a7.719,7.719,0,0,1,.174-1.531,12.76,12.76,0,0,0-.148,1.668c.591,3.049,1.008,6.1-.42,9.068h0c.855,3.729,4.547,3.358,6.971,4.82.974-1.072,2.226-.72,3.421-.666h0c2.091-.684,2.213-2.676,2.757-4.315a6.308,6.308,0,0,1,5-4.693l-1.954-.243c.331-.127.661-.252.992-.369-.361.034-.712.075-1.041.124a.954.954,0,0,1,1.047-.127c1.552-.551,3.1-.867,4.66.331,3.885-.3,3.311,3.021,3.861,5.1.895,3.388,3.244,4.927,5.654,2.805,2.657-2.338,2.729-.669,4.01.947,2.593,3.268,5.548,2.579,6.969-1.344.778-2.145.293-4.659,1.934-6.546,2.467,3.043,2.328,7.534,5.64,10.1m-31.968-17.114,3.953-6.964c.294,3,3.517,8.073-3.953,6.964m10.772-14.705q.144,3.461.287,6.92c-1.847-2.234-1.471-4.56-.287-6.92m5.936,22.5c-1.607-2.015-3.211-4.014,1.407-5.4-.613,2.353-1.01,3.879-1.407,5.4" fill="#de8c3a"/>
    <path id="Caminho_2269" data-name="Caminho 2269" d="M99.589,130.092a7.87,7.87,0,0,0-.174,1.531l.027.137a12.759,12.759,0,0,1,.147-1.668" fill="#de8c3a"/>
    <path id="Caminho_2270" data-name="Caminho 2270" d="M115.164,135.487c.33-.049.68-.09,1.041-.124l.007,0a.954.954,0,0,0-1.048.126" fill="#de8c3a"/>
    <path id="Caminho_2271" data-name="Caminho 2271" d="M128.07,109.895c.717-2.976.718-5.872-2.681-6.944-3.657-1.153-5.451,1.388-6.616,4.4-1.013,2.618-1.806,5.338-3.758,7.481a11.378,11.378,0,0,0-1.069,1.121c.255-.046.51-.093.767-.129,3.353-1.443,3.705-4.873,5.061-7.629.976-1.985,1.979-4.1,4.655-3.67,2.6.416,2.546,2.664,2.615,4.681.039,1.148.057,2.3.955,3.076a10.65,10.65,0,0,1,.071-2.388" fill="#de8c3a"/>
    <path id="Caminho_2272" data-name="Caminho 2272" d="M105.752,116.746c.021,0,.042,0,.064.01a7.552,7.552,0,0,0-.6-.652c-1.1-3.357-2.9-6.036-6.62-6.881v0c2.466,2.435,4.343,5.429,7.16,7.52" fill="#de8c3a"/>
    <path id="Caminho_2273" data-name="Caminho 2273" d="M170.088,166.948c-2.94-1.067-6.05-1.66-9.028-2.634-1.971-.645-4.737-1.163-3.806-4.1.979-3.091,3.809-2.655,6.3-2.124,1.554.331,2.234,1.856,3.292,2.861l5.045,1.468a3.634,3.634,0,0,1,.968.282c6.08.145,6.594-.743,4.109-6.149-1.662-3.617-4.929-5.011-8.112-6.631l-4.292-.416h0a.832.832,0,0,0-.649.34c-1.621,1.5-3.282,1.431-4.973.122-7.155.454-11.919,4.147-12.989,10.068-1.139,6.3,1.712,11.1,8.594,13.919,3.207,1.315,6.631,2.088,9.889,3.291,2.368.874,4.076,2.536,3.4,5.314-.663,2.72-2.838,3.375-5.4,3.343-3.085-.039-4.851-1.668-6-4.373-.45-1.063-.175-2.98-2.213-2.711-3.214.425-7.72-1.22-9.311,1.606-1.488,2.645.918,6.307,3,8.975a9.993,9.993,0,0,0,7.044,4.207,28.9,28.9,0,0,1,3.937-.756,8.069,8.069,0,0,1,5.986-.014,23.874,23.874,0,0,1,3.976.815c6.959-2.02,10.834-6.72,11.035-13.384.191-6.337-3.042-10.86-9.8-13.314" fill="#409171"/>
    <path id="Caminho_2274" data-name="Caminho 2274" d="M164.878,192.831a8.074,8.074,0,0,0-5.986.014,24.769,24.769,0,0,1,5.986-.014" fill="#409171"/>
    <path id="Caminho_2275" data-name="Caminho 2275" d="M168.853,149.917c4.5-4.878,3.486-11.334,4.9-17.1-1.366-1.26-.749-2.9-.818-4.4-.026-.576.384-.726.775-.27a2.349,2.349,0,0,1,.26.883c1.025-6.01,2.225-12,3-18.04a4.945,4.945,0,0,0-4.677-5.922c-3.527-.255-4.771,2.174-4.542,5.592.3,4.509-1.022,8.853-1.693,13.261,1.334,1.286.743,2.929.776,4.436.014.635-.458.633-.792.18a2.742,2.742,0,0,1-.261-.89h0c-1.074,3.8-1.988,7.649-3.264,11.377-1.361,3.974-1.042,7.447,2.035,10.475h0a3.192,3.192,0,0,1,4.292.416" fill="#de8d3a"/>
    <path id="Caminho_2276" data-name="Caminho 2276" d="M168.853,149.917a3.192,3.192,0,0,0-4.292-.416h0l4.293.416" fill="#de8d3a"/>
    <path id="Caminho_2277" data-name="Caminho 2277" d="M105.971,35.836a4.846,4.846,0,0,1,5.918-.013c8.767-1.38,15.41-7.177,15.936-14.37-5.068,3.4-10.729,4.581-16.178,6.339-1.017,2.173-2.34,1.224-3.655.359-5.157-.026-10.317.18-16.81-1.012,4.711,5.326,8.961,8.355,14.789,8.7" fill="#419172"/>
    <path id="Caminho_2278" data-name="Caminho 2278" d="M96.307,14.967c1.814,0,6.019,0,5.6-3.993-.343-3.234-1.09-7.359-5-7.486-2.819-.092-2.645,3.581-2.919,6.191.709,1.781-.614,5.283,2.325,5.288" fill="#449273"/>
    <path id="Caminho_2279" data-name="Caminho 2279" d="M104.964,156.076c.037-4.525.646-5.015,4.979-5.247l-5.048-.027q-.024,14.636-.047,29.27v0l.216,1.7c-.16-8.567-.171-17.134-.1-25.7" fill="#3e8c6a"/>
    <path id="Caminho_2280" data-name="Caminho 2280" d="M104.894,150.782l-.025.02h0l.02,0,0-.015" fill="#3e8c6a"/>
    <path id="Caminho_2281" data-name="Caminho 2281" d="M115.512,156.1c.045,7.517-.837,15.068.486,22.559-.048-9.269.629-18.548-.362-27.8l-3.516-.018c2.744.317,3.373,2.069,3.392,5.264" fill="#3e8c6a"/>
    <path id="Caminho_2282" data-name="Caminho 2282" d="M105.912,177.035c.054-7.153.154-14.311-.032-21.459-.087-3.32,1.515-3.859,4.278-3.775,2.626.081,4.956-.189,4.832,3.721-.22,6.98-.087,13.973-.032,20.959.009,1.072-.494,2.244.349,3.24a5.079,5.079,0,0,0,.578-.577,1.288,1.288,0,0,0,.113-.481c-1.323-7.491-.441-15.042-.486-22.559-.018-3.2-.648-4.947-3.392-5.264l-2.177-.012c-4.333.233-4.942.723-4.979,5.248-.071,8.566-.061,17.134.1,25.7,1.384-1.379.836-3.137.848-4.741" fill="#3e8c6a"/>
    <path id="Caminho_2283" data-name="Caminho 2283" d="M130.085,179.362c.874-.884.318-2.144.309-3.164-.076-8.425.36-16.855-.211-25.275q-.306,14.412-.613,28.824h0a6.115,6.115,0,0,1,.513-.384" fill="#3d8a68"/>
    <path id="Caminho_2284" data-name="Caminho 2284" d="M129.572,179.745h0" fill="#3d8a68"/>
    <path id="Caminho_2285" data-name="Caminho 2285" d="M130.394,176.2c.009,1.019.565,2.28-.309,3.164.266-.19.5-.381.509-.578.248-9.292,1.073-18.6-.411-27.861.571,8.42.135,16.85.211,25.275" fill="#3d8a68"/>
    <path id="Caminho_2286" data-name="Caminho 2286" d="M104.894,150.8v0h0" fill="#409171"/>
    <path id="Caminho_2287" data-name="Caminho 2287" d="M104.893,150.8h0a105.557,105.557,0,0,0-.045,29.267,207.008,207.008,0,0,1,.046-29.267" fill="#409171"/>
    <path id="Caminho_2288" data-name="Caminho 2288" d="M104.893,150.8v-.015l0,.015h0" fill="#409171"/>
    <path id="Caminho_2289" data-name="Caminho 2289" d="M104.894,150.8h0a207.008,207.008,0,0,0-.046,29.267v0q.024-14.636.047-29.27" fill="#409171"/>
    <path id="Caminho_2290" data-name="Caminho 2290" d="M28.053,140.434q.026-1.962.052-3.925h0v0q-.015-3.213-.029-6.426c-1.411,3.446-.271,6.9-.023,10.352" fill="#dd8936"/>
    <path id="Caminho_2291" data-name="Caminho 2291" d="M26.748,127.723c1.006,5.225-1.058,10.3,1.273,15.157l.033-2.446c-.248-3.451-1.389-6.906.022-10.352-.256-.7.3-1.688-1.328-2.359" fill="#dd8936"/>
    <path id="Caminho_2292" data-name="Caminho 2292" d="M28.021,142.912l.011-.005,0-.009-.007.014" fill="#dd8936"/>
    <path id="Caminho_2293" data-name="Caminho 2293" d="M154.955,193.6l1.782.353c.337-.224.674-.408,1.01-.587-.93.062-1.861.138-2.792.234" fill="#3e8d6b"/>
    <path id="Caminho_2294" data-name="Caminho 2294" d="M167.066,193.951l1.788-.305c-.936-.127-1.871-.216-2.807-.286.34.181.679.366,1.019.591" fill="#3e8d6b"/>
    <path id="Caminho_2295" data-name="Caminho 2295" d="M157.747,193.367c-.336.18-.673.363-1.01.587l10.329,0c-.34-.225-.679-.41-1.019-.59a58.357,58.357,0,0,0-8.3.006" fill="#3e8d6b"/>
    <path id="Caminho_2296" data-name="Caminho 2296" d="M158.892,192.845a28.926,28.926,0,0,0-3.937.756c.931-.1,1.862-.172,2.792-.234a10.364,10.364,0,0,1,1.145-.522" fill="#3e8d6b"/>
    <path id="Caminho_2297" data-name="Caminho 2297" d="M166.047,193.36c.936.07,1.871.159,2.807.286a23.894,23.894,0,0,0-3.976-.815,10.3,10.3,0,0,1,1.169.529" fill="#3e8d6b"/>
    <path id="Caminho_2298" data-name="Caminho 2298" d="M166.047,193.36a10.3,10.3,0,0,0-1.169-.529,24.727,24.727,0,0,0-5.987.014,10.427,10.427,0,0,0-1.144.521,58.654,58.654,0,0,1,8.3-.006" fill="#3e8d6b"/>
    <path id="Caminho_2299" data-name="Caminho 2299" d="M217.022,140.953q6.387.162,12.774.322c-4.217-1.73-8.493-1.144-12.774-.322" fill="#dc8731"/>
    <path id="Caminho_2300" data-name="Caminho 2300" d="M217.022,140.953c4.281-.822,8.557-1.408,12.774.322h0c-4.2-2.331-8.472-2.043-12.777-.322" fill="#dc8731"/>
    <path id="Caminho_2301" data-name="Caminho 2301" d="M99.427,132.845c.009.657.034,1.315.054,1.972.013-.655-.028-1.314-.054-1.972" fill="#dd8934"/>
    <path id="Caminho_2302" data-name="Caminho 2302" d="M99.454,137.159a9.773,9.773,0,0,1-.558,2.8.94.94,0,0,0,.126.867h0a7.118,7.118,0,0,0,.432-3.67" fill="#dd8934"/>
    <path id="Caminho_2303" data-name="Caminho 2303" d="M99.449,135.482c.019-.221.029-.443.033-.665-.02-.658-.045-1.316-.054-1.972-.017-.408-.024-.815-.013-1.221-.174-.894-.361-1.787-.518-2.679v11.018a9.805,9.805,0,0,0,.557-2.8,12.517,12.517,0,0,1-.005-1.677" fill="#dd8934"/>
    <path id="Caminho_2304" data-name="Caminho 2304" d="M99.442,131.76c-.012.361-.02.722-.014,1.084.026.659.066,1.317.054,1.973.024.783.025,1.565-.028,2.342a7.1,7.1,0,0,1-.432,3.669c1.428-2.973,1.011-6.019.42-9.068" fill="#dd8934"/>
    <path id="Caminho_2305" data-name="Caminho 2305" d="M99.454,137.159c.053-.777.052-1.558.028-2.342,0,.222-.014.444-.033.665a12.353,12.353,0,0,0,.005,1.677" fill="#dd8934"/>
    <path id="Caminho_2306" data-name="Caminho 2306" d="M99.427,132.845c-.005-.362,0-.724.014-1.084-.008-.046-.017-.091-.026-.137-.011.406,0,.814.012,1.221" fill="#dd8934"/>
    <path id="Caminho_2307" data-name="Caminho 2307" d="M68.03,165.81c.06-2.315,0-4.631.031-6.946a7.287,7.287,0,0,0-.031,6.946" fill="#3e8c6b"/>
    <path id="Caminho_2308" data-name="Caminho 2308" d="M68.061,158.864c-.032,2.315.029,4.631-.031,6.946a6.138,6.138,0,0,0,.031-6.946" fill="#3e8c6b"/>
    <path id="Caminho_2309" data-name="Caminho 2309" d="M104.872,150.8h.02v0l-.02,0" fill="#409171"/>
    <path id="Caminho_2310" data-name="Caminho 2310" d="M115.636,150.858a20.151,20.151,0,0,0-10.742-.062h0a25.874,25.874,0,0,1,10.742.061" fill="#409171"/>
    <path id="Caminho_2311" data-name="Caminho 2311" d="M104.892,150.8l-.02,0,.02,0h0" fill="#409171"/>
    <path id="Caminho_2312" data-name="Caminho 2312" d="M104.894,150.8v0l5.048.027.633-.033a9.631,9.631,0,0,1,1.545.044l3.516.019a25.857,25.857,0,0,0-10.742-.061" fill="#409171"/>
    <path id="Caminho_2313" data-name="Caminho 2313" d="M110.576,150.8c-.223.01-.427.021-.633.032l2.178.012a9.516,9.516,0,0,0-1.545-.044" fill="#409171"/>
    <path id="Caminho_2314" data-name="Caminho 2314" d="M104.893,150.8h0v0h0Z" fill="#409171"/>
    <path id="Caminho_2315" data-name="Caminho 2315" d="M104.893,150.8h0v0h0" fill="#409171"/>
    <path id="Caminho_2316" data-name="Caminho 2316" d="M104.893,150.8v0h0v0h0" fill="#409171"/>
    <path id="Caminho_2317" data-name="Caminho 2317" d="M104.892,150.8h0" fill="#409171"/>
    <path id="Caminho_2318" data-name="Caminho 2318" d="M255.3,141.975a39.9,39.9,0,0,1-7.437.851,7.347,7.347,0,0,0,7.437-.851" fill="#dc8732"/>
    <path id="Caminho_2319" data-name="Caminho 2319" d="M247.86,142.826a39.9,39.9,0,0,0,7.437-.851h0c-2.488.21-5.141-1.028-7.437.852" fill="#dc8732"/>
    <path id="Caminho_2320" data-name="Caminho 2320" d="M33.215,117.045l7.7.215c-2.524-1.59-5.1-1.16-7.7-.215" fill="#dc8631"/>
    <path id="Caminho_2321" data-name="Caminho 2321" d="M33.215,117.045c2.594-.945,5.174-1.375,7.7.215h0c-2.51-2.1-5.074-2.234-7.7-.215" fill="#dc8631"/>
    <path id="Caminho_2322" data-name="Caminho 2322" d="M230.826,103.01a3.552,3.552,0,0,0-4.894.091c1.63-.117,3.265.084,4.894-.091" fill="#dc8733"/>
    <path id="Caminho_2323" data-name="Caminho 2323" d="M230.826,103.01c-1.629.175-3.264-.026-4.894.091a3.666,3.666,0,0,0,4.894-.091" fill="#dc8733"/>
    <path id="Caminho_2324" data-name="Caminho 2324" d="M87.909,149.992a23.46,23.46,0,0,0-7.917-.014,17.327,17.327,0,0,0,7.917.014" fill="#3d8a68"/>
    <path id="Caminho_2325" data-name="Caminho 2325" d="M87.909,149.992a17.327,17.327,0,0,1-7.917-.014,8.155,8.155,0,0,0,7.917.014" fill="#3d8a68"/>
    <path id="Caminho_2326" data-name="Caminho 2326" d="M28.849,162.793a25.472,25.472,0,0,0,.021-7.911,16.677,16.677,0,0,0-.021,7.911" fill="#dc8831"/>
    <path id="Caminho_2327" data-name="Caminho 2327" d="M28.849,162.793a16.677,16.677,0,0,1,.021-7.911,8.025,8.025,0,0,0-.021,7.911" fill="#dc8831"/>
    <path id="Caminho_2328" data-name="Caminho 2328" d="M166.843,160.947c.973,4.123,3.988,1.239,6.013,1.75l-.968-.281c-1.743-.281-3.749.343-5.045-1.469" fill="#3d8b69"/>
    <path id="Caminho_2329" data-name="Caminho 2329" d="M171.888,162.416l-5.045-1.469c1.3,1.812,3.3,1.188,5.045,1.469" fill="#3d8b69"/>
    <path id="Caminho_2330" data-name="Caminho 2330" d="M100.717,183.756a15.389,15.389,0,0,0,.007-7.872,21.719,21.719,0,0,0-.007,7.872" fill="#3e8b69"/>
    <path id="Caminho_2331" data-name="Caminho 2331" d="M100.724,175.884a8.8,8.8,0,0,0-.007,7.872,21.7,21.7,0,0,1,.007-7.872" fill="#3e8b69"/>
    <path id="Caminho_2332" data-name="Caminho 2332" d="M148.938,146.756c1.3.979,2.613,1.467,3.979.113-1.333.184-2.639-.542-3.979-.113" fill="#dc8833"/>
    <path id="Caminho_2333" data-name="Caminho 2333" d="M148.938,146.756c1.34-.429,2.646.3,3.979.113-1.287-1.424-2.615-1.4-3.979-.113" fill="#dc8833"/>
    <path id="Caminho_2334" data-name="Caminho 2334" d="M232.359,110.626l.01.03a2.639,2.639,0,0,1,.594-.985q-.143-1.858-.286-3.717a13.615,13.615,0,0,0-.318,4.672" fill="#dc8732"/>
    <path id="Caminho_2335" data-name="Caminho 2335" d="M232.729,111.617l.234-1.946a2.653,2.653,0,0,0-.594.985c.115.32.236.641.36.961" fill="#dc8732"/>
    <path id="Caminho_2336" data-name="Caminho 2336" d="M232.359,110.626a13.615,13.615,0,0,1,.318-4.672c-1.184,1.56-.872,3.115-.318,4.672" fill="#dc8732"/>
    <path id="Caminho_2337" data-name="Caminho 2337" d="M116.215,135.362a2.931,2.931,0,0,1,.952.614l3.7-.285a13.007,13.007,0,0,0-4.655-.329" fill="#dc8732"/>
    <path id="Caminho_2338" data-name="Caminho 2338" d="M116.211,135.361l-.007,0h.007" fill="#dc8732"/>
    <path id="Caminho_2339" data-name="Caminho 2339" d="M116.211,135.361h0a13.007,13.007,0,0,1,4.655.329c-1.556-1.2-3.107-.882-4.659-.33" fill="#dc8732"/>
    <path id="Caminho_2340" data-name="Caminho 2340" d="M116.2,135.363c-.33.118-.661.242-.991.369l1.953.243a2.93,2.93,0,0,0-.951-.613H116.2" fill="#dc8732"/>
    <path id="Caminho_2341" data-name="Caminho 2341" d="M115.962,193.667l1.76.328a4.768,4.768,0,0,1,1.007-.487,4.73,4.73,0,0,0-2.767.159" fill="#3e8c6b"/>
    <path id="Caminho_2342" data-name="Caminho 2342" d="M118.729,193.508a5.762,5.762,0,0,1,4.194.333c-2.279-1.693-4.607-1.469-6.961-.174a4.73,4.73,0,0,1,2.767-.159" fill="#3e8c6b"/>
    <path id="Caminho_2343" data-name="Caminho 2343" d="M118.729,193.508a4.768,4.768,0,0,0-1.007.487l3.006-.089c-.668-.108-1.332-.276-2-.4" fill="#3e8c6b"/>
    <path id="Caminho_2344" data-name="Caminho 2344" d="M118.729,193.508c.667.122,1.331.29,2,.4l2.195-.065a5.762,5.762,0,0,0-4.194-.333" fill="#3e8c6b"/>
    <path id="Caminho_2345" data-name="Caminho 2345" d="M28.036,142.862l0,.026a5.432,5.432,0,0,0,.072-6.378,11.062,11.062,0,0,1-.07,6.352" fill="#de8d3a"/>
    <path id="Caminho_2346" data-name="Caminho 2346" d="M28.021,142.879v.032a.139.139,0,0,1,.006-.019l-.006-.013" fill="#de8d3a"/>
    <path id="Caminho_2347" data-name="Caminho 2347" d="M28.026,142.892l0,.005.005-.009,0-.026-.009.03" fill="#de8d3a"/>
    <path id="Caminho_2348" data-name="Caminho 2348" d="M28.053,140.434a13.769,13.769,0,0,1-.018,2.428,11.071,11.071,0,0,0,.071-6.352h0q-.026,1.963-.052,3.925" fill="#de8d3a"/>
    <path id="Caminho_2349" data-name="Caminho 2349" d="M28.036,142.862a13.865,13.865,0,0,0,.018-2.428l-.033,2.445.006.013c0-.01,0-.02.009-.03" fill="#de8d3a"/>
    <path id="Caminho_2350" data-name="Caminho 2350" d="M28.026,142.892l-.006.019.008-.014,0-.005" fill="#de8d3a"/>
    <path id="Caminho_2351" data-name="Caminho 2351" d="M238.913,141.144l4.79-.188a3.885,3.885,0,0,0-4.79.188" fill="#dc8731"/>
    <path id="Caminho_2352" data-name="Caminho 2352" d="M243.959,140.567c.03-.126-.03-.393-.083-.4-1.772-.289-3.648-1.05-4.963.98a3.886,3.886,0,0,1,4.79-.189,1.349,1.349,0,0,0,.256-.389" fill="#dc8731"/>
    <path id="Caminho_2353" data-name="Caminho 2353" d="M89.922,41.065a.578.578,0,0,0-.644-.272,2.7,2.7,0,0,0-1.435,2.434h0v0q.108,1.345.217,2.691l.367-.958c.193-1.416-.56-3.194,1.495-3.9" fill="#3d8b69"/>
    <path id="Caminho_2354" data-name="Caminho 2354" d="M88.427,44.961l1.495-3.9c-2.055.7-1.3,2.48-1.495,3.9" fill="#3d8b69"/>
    <path id="Caminho_2355" data-name="Caminho 2355" d="M166.066,123.924q-.139,1.861-.277,3.724c1.173-1.161.6-2.452.277-3.724" fill="#dc8530"/>
    <path id="Caminho_2356" data-name="Caminho 2356" d="M166.051,128.54c.332.453.8.455.791-.18-.033-1.508.558-3.15-.776-4.436.321,1.272.9,2.564-.276,3.725a2.724,2.724,0,0,0,.261.891" fill="#dc8530"/>
    <path id="Caminho_2357" data-name="Caminho 2357" d="M173.756,132.822q.108-1.895.217-3.789c-1.083,1.205-.616,2.5-.217,3.789" fill="#dc8631"/>
    <path id="Caminho_2358" data-name="Caminho 2358" d="M173.713,128.15c-.391-.456-.8-.306-.774.269.068,1.5-.549,3.142.817,4.4-.4-1.29-.866-2.584.217-3.789h0c-.081-.3-.078-.67-.26-.882" fill="#dc8631"/>
    <path id="Caminho_2359" data-name="Caminho 2359" d="M105.971,35.836a14.238,14.238,0,0,0,5.918-.013,9.783,9.783,0,0,0-5.918.013" fill="#3d8a68"/>
    <path id="Caminho_2360" data-name="Caminho 2360" d="M105.971,35.836a9.783,9.783,0,0,1,5.918-.013,4.846,4.846,0,0,0-5.918.013" fill="#3d8a68"/>
    <path id="Caminho_2361" data-name="Caminho 2361" d="M233.423,118.587a1.243,1.243,0,0,1,.538-.914q-.12-1.372-.238-2.744h0a6.311,6.311,0,0,0-.3,3.658" fill="#dc8631"/>
    <path id="Caminho_2362" data-name="Caminho 2362" d="M233.461,118.832a.9.9,0,0,0,.256-.262,2.858,2.858,0,0,0,.244-.9,1.243,1.243,0,0,0-.538.914c.013.083.025.164.038.245" fill="#dc8631"/>
    <path id="Caminho_2363" data-name="Caminho 2363" d="M233.429,118.842c.011-.006.021,0,.032-.01-.013-.081-.026-.162-.038-.245a1.034,1.034,0,0,0,.006.255" fill="#dc8631"/>
    <path id="Caminho_2364" data-name="Caminho 2364" d="M232.924,118.406c.026.431.256.569.505.436a1.035,1.035,0,0,1-.006-.255,6.311,6.311,0,0,1,.3-3.658c-1.163.95-.871,2.258-.8,3.477" fill="#dc8631"/>
    <path id="Caminho_2365" data-name="Caminho 2365" d="M89.278,40.793c-.456-.747-1.58-1.544-1.9-1.118-.84,1.114-.436,2.455.465,3.551-.5-1.388-.62-2.551,1.436-2.433" fill="#409071"/>
    <path id="Caminho_2366" data-name="Caminho 2366" d="M89.278,40.793c-2.056-.118-1.938,1.045-1.436,2.433h0a2.7,2.7,0,0,1,1.435-2.434" fill="#409071"/>
    <path id="Caminho_2367" data-name="Caminho 2367" d="M109.413,144.984c-1.048.694-2.256.568-3.42.665,1.358.9,2.619,1.292,3.42-.665" fill="#dc8732"/>
    <path id="Caminho_2368" data-name="Caminho 2368" d="M105.993,145.649c1.165-.1,2.373.029,3.42-.665h0c-1.195-.054-2.447-.406-3.421.666" fill="#dc8732"/>
    <path id="Caminho_2369" data-name="Caminho 2369" d="M163.912,149.84l-4.973.122a5.929,5.929,0,0,0,4.973-.122" fill="#3d8968"/>
    <path id="Caminho_2370" data-name="Caminho 2370" d="M163.912,149.84a5.929,5.929,0,0,1-4.973.122c1.691,1.31,3.351,1.38,4.973-.122" fill="#3d8968"/>
    <path id="Caminho_2371" data-name="Caminho 2371" d="M88.685,161.927c1.479,2.018,3.447.738,5.219.774-1.646-.891-3.573.116-5.219-.774" fill="#3d8a68"/>
    <path id="Caminho_2372" data-name="Caminho 2372" d="M88.685,161.927c1.646.89,3.573-.117,5.219.774-1.557-1.489-3.457-.667-5.219-.774" fill="#3d8a68"/>
    <path id="Caminho_2373" data-name="Caminho 2373" d="M234.918,124.775q-.131-1.916-.26-3.83c-.281,1.3-.823,2.621.26,3.83" fill="#dc8530"/>
    <path id="Caminho_2374" data-name="Caminho 2374" d="M234.918,124.775c-1.083-1.209-.541-2.529-.26-3.83-.958,1.347-1.6,2.673.26,3.83" fill="#dc8530"/>
    <path id="Caminho_2375" data-name="Caminho 2375" d="M111.646,27.792l-3.655.359c1.241.106,2.575,1.173,3.655-.359" fill="#3d8a68"/>
    <path id="Caminho_2376" data-name="Caminho 2376" d="M111.646,27.792c-1.08,1.532-2.414.465-3.655.359,1.315.865,2.638,1.814,3.655-.359" fill="#3d8a68"/>
    <path id="Caminho_2377" data-name="Caminho 2377" d="M114.017,4.021l.033,4.931a6.433,6.433,0,0,0-.033-4.931" fill="#3e8c6a"/>
    <path id="Caminho_2378" data-name="Caminho 2378" d="M114.017,4.021a6.433,6.433,0,0,1,.033,4.931,3.524,3.524,0,0,0-.033-4.931" fill="#3e8c6a"/>
    <path id="Caminho_2379" data-name="Caminho 2379" d="M40.927,109.049l-7.895-.013a18.008,18.008,0,0,0,7.895.013" fill="#dc8330"/>
    <path id="Caminho_2380" data-name="Caminho 2380" d="M40.927,109.049a18.008,18.008,0,0,1-7.895-.013,8.247,8.247,0,0,0,7.895.013" fill="#dc8330"/>
    <path id="Caminho_2381" data-name="Caminho 2381" d="M3.967,122.933q-.024,2.384-.049,4.766c1.146-1.577.748-3.17.049-4.766" fill="#dc8833"/>
    <path id="Caminho_2382" data-name="Caminho 2382" d="M4.2,128.62c.042.1.229.136.349.2.348-2.017,1.525-4.115-.585-5.888.7,1.6,1.1,3.189-.049,4.766h0a8.45,8.45,0,0,0,.285.92" fill="#dc8833"/>
    <path id="Caminho_2383" data-name="Caminho 2383" d="M3.1,132.9q-.123,1.842-.244,3.684a3.058,3.058,0,0,1,.636.928A10.889,10.889,0,0,0,3.1,132.9" fill="#dc8833"/>
    <path id="Caminho_2384" data-name="Caminho 2384" d="M3.456,137.883l.078-.271c-.012-.033-.024-.068-.038-.1-.013.125-.025.251-.04.373" fill="#dc8833"/>
    <path id="Caminho_2385" data-name="Caminho 2385" d="M3.5,137.51c.014.034.027.069.038.1.468-1.626.878-3.235-.43-4.714A10.856,10.856,0,0,1,3.5,137.51" fill="#dc8833"/>
    <path id="Caminho_2386" data-name="Caminho 2386" d="M3.184,138.893c.08-.337.175-.674.272-1.01.015-.122.027-.248.04-.373a3.057,3.057,0,0,0-.635-.929q.162,1.157.323,2.312" fill="#dc8833"/>
    <path id="Caminho_2387" data-name="Caminho 2387" d="M46.772,128.815c-.442.928-.778,1.995.36,2.807q-.029-1.268-.056-2.535c-.237-.03-.3-.152-.3-.272" fill="#dc8833"/>
    <path id="Caminho_2388" data-name="Caminho 2388" d="M46.772,128.815c.01-.021.019-.044.03-.065.17-.353-.034-.149-.03.065" fill="#dc8833"/>
    <path id="Caminho_2389" data-name="Caminho 2389" d="M46.78,126.816c-.36,1.672-2.059,3.552.352,4.806-1.137-.812-.8-1.879-.36-2.807,0-.214.2-.418.03-.065l-.03.065c0,.119.068.242.3.272q-.148-1.137-.3-2.271" fill="#dc8833"/>
    <path id="Caminho_2390" data-name="Caminho 2390" d="M87.448,113.573a1.711,1.711,0,0,1,.625-.952q-.164-1.333-.328-2.667a8.643,8.643,0,0,0-.3,3.619" fill="#dc8833"/>
    <path id="Caminho_2391" data-name="Caminho 2391" d="M87.641,115.967c.231-1.789.332-2.567.432-3.345a1.7,1.7,0,0,0-.625.951c.019.208.039.409.058.594a.856.856,0,0,1-.058-.594,8.643,8.643,0,0,1,.3-3.619c-1.227,1.586-.958,3.26-.1,6.013" fill="#dc8833"/>
    <path id="Caminho_2392" data-name="Caminho 2392" d="M87.506,114.167c-.019-.185-.039-.386-.058-.594a.856.856,0,0,0,.058.594" fill="#dc8833"/>
    <path id="Caminho_2393" data-name="Caminho 2393" d="M14.886,98.868l.231-2.7a3.412,3.412,0,0,1-.6-.8,6.361,6.361,0,0,0,.374,3.5" fill="#dc8833"/>
    <path id="Caminho_2394" data-name="Caminho 2394" d="M14.189,93.916c-.167,1.785-.73,3.5.7,4.951a6.361,6.361,0,0,1-.374-3.5c-.187-.362-.211-.686.023-.9a7.133,7.133,0,0,1-.023.9,3.458,3.458,0,0,0,.6.8h0c-.341-.689.354-1.79-.927-2.249" fill="#dc8833"/>
    <path id="Caminho_2395" data-name="Caminho 2395" d="M14.535,94.466c-.234.217-.21.54-.023.9a7.124,7.124,0,0,0,.023-.9" fill="#dc8833"/>
    <path id="Caminho_2396" data-name="Caminho 2396" d="M31.8,103.841q.155-2.379.307-4.757c-1.294,1.509-.544,3.149-.307,4.757" fill="#dc8630"/>
    <path id="Caminho_2397" data-name="Caminho 2397" d="M31.8,103.841c-.237-1.608-.987-3.248.307-4.757-2.325,1.442-1.055,3.116-.307,4.757" fill="#dc8630"/>
    <path id="Caminho_2398" data-name="Caminho 2398" d="M9.375,89.4a8.838,8.838,0,0,0-.225-4.437L8.835,88.6a1.735,1.735,0,0,1,.54.8" fill="#dc8732"/>
    <path id="Caminho_2399" data-name="Caminho 2399" d="M9.375,89.4c.062.182.078.322.024.332a.382.382,0,0,0-.082.035c.265.228.578.248.592-.312.039-1.526.589-3.186-.759-4.492A8.838,8.838,0,0,1,9.375,89.4" fill="#dc8732"/>
    <path id="Caminho_2400" data-name="Caminho 2400" d="M9.375,89.4c-.021.116-.049.234-.074.351l.016.016a.382.382,0,0,1,.082-.035c.054-.01.038-.15-.024-.332" fill="#dc8732"/>
    <path id="Caminho_2401" data-name="Caminho 2401" d="M9.1,89.506a1.14,1.14,0,0,0,.2.24c.025-.117.053-.235.074-.35a1.725,1.725,0,0,0-.54-.8h0a3.36,3.36,0,0,0,.262.907" fill="#dc8732"/>
    <path id="Caminho_2402" data-name="Caminho 2402" d="M10.211,76.986q-.161,1.861-.32,3.722c1.155-1.15.562-2.451.32-3.722" fill="#dc8731"/>
    <path id="Caminho_2403" data-name="Caminho 2403" d="M10.71,81.672a4.389,4.389,0,0,0-.5-4.686c.242,1.27.835,2.571-.32,3.722h0c.27.387.516,1.694.819.963" fill="#dc8731"/>
    <path id="Caminho_2404" data-name="Caminho 2404" d="M6.17,107.942q-.18,1.839-.359,3.678c1.569-1.084.447-2.432.359-3.678" fill="#dc8731"/>
    <path id="Caminho_2405" data-name="Caminho 2405" d="M6.17,107.942c.088,1.246,1.21,2.594-.359,3.678h0c2.152-1.028,1.254-2.354.359-3.679" fill="#dc8731"/>
    <path id="Caminho_2406" data-name="Caminho 2406" d="M13.82,105.843l.357-3.681c-1.567,1.087-.45,2.434-.357,3.681" fill="#dc8731"/>
    <path id="Caminho_2407" data-name="Caminho 2407" d="M13.82,105.843c-.093-1.247-1.21-2.594.357-3.681-2.151,1.03-1.255,2.355-.357,3.681" fill="#dc8731"/>
    <path id="Caminho_2408" data-name="Caminho 2408" d="M8.251,96.69a.379.379,0,0,0,.086.084,1.287,1.287,0,0,0,.162-.952c-.045-.971.243-1.994-.4-2.885L7.834,95.59c.473.341.718.7.417,1.1" fill="#dc8832"/>
    <path id="Caminho_2409" data-name="Caminho 2409" d="M8.5,95.822a1.284,1.284,0,0,1-.162.951c.014.009.023.031.037.037.682.264.578-.448.591-.811.037-1.1.2-2.262-.864-3.062.641.89.353,1.914.4,2.885" fill="#dc8832"/>
    <path id="Caminho_2410" data-name="Caminho 2410" d="M8.251,96.69c.3-.4.056-.759-.417-1.1h0a5.46,5.46,0,0,0,.417,1.1" fill="#dc8832"/>
    <path id="Caminho_2411" data-name="Caminho 2411" d="M51.935,114.868c1.249-1,.6-1.98-.03-2.961-.65.994.251,1.972.03,2.961" fill="#dc8831"/>
    <path id="Caminho_2412" data-name="Caminho 2412" d="M51.935,114.868c.221-.989-.68-1.967-.03-2.961-1.213,1-1.208,1.987.03,2.961" fill="#dc8831"/>
    <path id="Caminho_2413" data-name="Caminho 2413" d="M34.718,79.126a.361.361,0,0,0-.084-.082,1.3,1.3,0,0,0-.159.945c.042.972-.231,1.99.377,2.889l.282-2.656c-.468-.34-.709-.7-.416-1.1" fill="#dc8732"/>
    <path id="Caminho_2414" data-name="Caminho 2414" d="M34.475,79.989a1.3,1.3,0,0,1,.159-.945c-.014-.009-.023-.031-.037-.037-.679-.26-.576.448-.588.81-.036,1.1-.2,2.253.843,3.06-.608-.9-.335-1.917-.377-2.888" fill="#dc8732"/>
    <path id="Caminho_2415" data-name="Caminho 2415" d="M34.718,79.126c-.293.4-.052.756.416,1.1a5.326,5.326,0,0,0-.416-1.1" fill="#dc8732"/>
    <path id="Caminho_2416" data-name="Caminho 2416" d="M21.653,144.6c-.048,2.831-.032,5.663.02,8.5q.142-4.25-.02-8.5" fill="#dc8731"/>
    <path id="Caminho_2417" data-name="Caminho 2417" d="M22.367,162.929c.127.009.378-.107.379-.172.093-4.419.379-8.848.183-13.255-.216-4.865,1.033-9.823-.8-14.6-.282,3.23-.418,6.46-.473,9.691q.159,4.246.02,8.495c.059,3.212.157,6.423.248,9.635a1.4,1.4,0,0,0,.446.2" fill="#dc8731"/>
    <path id="Caminho_2418" data-name="Caminho 2418" d="M7.887,152.845c-.685-.057-.481.373-.354.7a10.431,10.431,0,0,1,.542,2.007q.027-.72.053-1.44a1.3,1.3,0,0,1-.064-.232c-.384-.146-.606-.39-.177-1.032" fill="#dc8631"/>
    <path id="Caminho_2419" data-name="Caminho 2419" d="M6.828,151.611c.7,3.293-.852,6.336,1.052,9.189l.195-5.252a10.494,10.494,0,0,0-.542-2.006c-.127-.324-.331-.755.354-.7-.43.642-.207.886.177,1.032-.139-.677.1-1.528-1.236-2.266" fill="#dc8631"/>
    <path id="Caminho_2420" data-name="Caminho 2420" d="M23.19,126.623a14.563,14.563,0,0,1-.332-2.7l.042,2.758c.008.068.012.138.018.206.249.1.405.124.272-.268" fill="#dc8531"/>
    <path id="Caminho_2421" data-name="Caminho 2421" d="M24.016,129.191c-.548-3.377,1.173-6.534-1.22-9.277q.031,2.005.061,4.012a14.563,14.563,0,0,0,.333,2.7c.133.392-.023.371-.272.269a6.967,6.967,0,0,0,.172,1.273c.069.247.371.43.926,1.027" fill="#dc8531"/>
    <path id="Caminho_2422" data-name="Caminho 2422" d="M8.083,140.943l0,.052a24.55,24.55,0,0,1,.938,3.5q.036-.717.07-1.435a1.186,1.186,0,0,1-.039-.156c-.419-.275-.49-1.06-.971-1.964" fill="#dc8631"/>
    <path id="Caminho_2423" data-name="Caminho 2423" d="M8.076,140.749c0,.065.005.13.007.194.481.9.552,1.69.972,1.964-.159-.682.188-1.554-.979-2.158" fill="#dc8631"/>
    <path id="Caminho_2424" data-name="Caminho 2424" d="M8.815,148.795q.105-2.148.209-4.3a24.515,24.515,0,0,0-.938-3.5c.1,2.73-.815,5.335.729,7.8" fill="#dc8631"/>
    <path id="Caminho_2425" data-name="Caminho 2425" d="M9.625,129.96c-.522.179-.092.458-.04.651a9.919,9.919,0,0,0,.452,1.235l.06-.76c0-.021-.005-.042-.008-.063a.994.994,0,0,1-.464-1.063" fill="#dc8833"/>
    <path id="Caminho_2426" data-name="Caminho 2426" d="M9.878,133.83l.159-1.983a9.776,9.776,0,0,1-.452-1.236c-.053-.192-.482-.472.039-.651a1,1,0,0,0,.465,1.063c-.1-.75-.215-1.531-.481-3.431-.706,2.962-1.114,4.68.27,6.238" fill="#dc8833"/>
    <path id="Caminho_2427" data-name="Caminho 2427" d="M128.029,121.857q-.144-3.46-.287-6.92c-1.183,2.36-1.56,4.686.287,6.92" fill="#dc8631"/>
  </g>
</svg>
