<?xml version="1.0" encoding="UTF-8"?><svg id="a" xmlns="http://www.w3.org/2000/svg" viewBox="0 0 311 294.3"><defs><style>.f{fill:#fff;}.g{opacity:.2;}.h{fill:#f6a513;}.i{fill:#333;}.j{fill:#3f6b71;}.k{fill:#606060;}.l{fill:#506d8f;}.m{fill:#869fb2;}</style></defs><rect class="l" x="44.5" y="259.3" width="223" height="25" rx="5" ry="5"/><rect class="j" x="71.5" y="10" width="169" height="25" rx="12.5" ry="12.5"/><g><path class="f" d="M105.51,23.01h-1.48v3.53h-2.4v-9.83h3.88c2.41,0,3.61,1.36,3.61,3.17,0,1.62-1.11,3.14-3.61,3.14Zm-.18-1.91c.95,0,1.36-.48,1.36-1.23s-.41-1.23-1.36-1.23h-1.3v2.47h1.3Z"/><path class="f" d="M110.37,16.17h2.4v10.37h-2.4v-10.37Z"/><path class="f" d="M117.47,18.61c1.16,0,1.99,.53,2.41,1.22v-1.11h2.39v7.82h-2.39v-1.11c-.43,.69-1.26,1.22-2.42,1.22-1.9,0-3.43-1.57-3.43-4.03s1.53-4.01,3.45-4.01Zm.7,2.09c-.9,0-1.71,.67-1.71,1.92s.81,1.95,1.71,1.95,1.71-.69,1.71-1.93-.8-1.93-1.71-1.93Z"/><path class="f" d="M129.4,22.29c0-1.06-.59-1.65-1.5-1.65s-1.5,.59-1.5,1.65v4.24h-2.39v-7.82h2.39v1.04c.48-.66,1.32-1.12,2.37-1.12,1.81,0,3.01,1.23,3.01,3.33v4.57h-2.38v-4.24Z"/><path class="f" d="M137,26.65c-2.3,0-4.03-1.54-4.03-4.02s1.78-4.02,4.06-4.02,4.06,1.54,4.06,4.02-1.79,4.02-4.09,4.02Zm0-2.07c.85,0,1.65-.63,1.65-1.95s-.78-1.95-1.62-1.95-1.62,.62-1.62,1.95,.73,1.95,1.6,1.95Z"/><path class="f" d="M148.29,18.61c1.04,0,1.93,.48,2.41,1.19v-3.63h2.4v10.37h-2.4v-1.12c-.43,.71-1.26,1.23-2.41,1.23-1.92,0-3.45-1.57-3.45-4.03s1.53-4.01,3.45-4.01Zm.7,2.09c-.9,0-1.71,.67-1.71,1.92s.81,1.95,1.71,1.95,1.71-.69,1.71-1.93-.8-1.93-1.71-1.93Z"/><path class="f" d="M158.31,26.65c-2.3,0-3.95-1.54-3.95-4.02s1.62-4.02,3.95-4.02,3.89,1.51,3.89,3.89c0,.22-.01,.46-.04,.7h-5.42c.08,1.02,.71,1.5,1.48,1.5,.67,0,1.05-.34,1.25-.76h2.55c-.38,1.53-1.77,2.7-3.71,2.7Zm-1.56-4.78h3c0-.85-.67-1.34-1.47-1.34s-1.39,.48-1.53,1.34Z"/><path class="f" d="M169.98,26.64c-2.12,0-3.77-1.05-3.84-3.04h2.55c.07,.76,.55,1.12,1.22,1.12s1.15-.35,1.15-.92c0-1.82-4.92-.84-4.89-4.33,0-1.86,1.53-2.9,3.59-2.9s3.59,1.06,3.68,2.94h-2.59c-.04-.63-.49-1.01-1.13-1.02-.57-.01-1.01,.28-1.01,.9,0,1.71,4.86,.94,4.86,4.23,0,1.65-1.29,3.03-3.59,3.03Z"/><path class="f" d="M178,18.61c1.16,0,1.99,.53,2.41,1.22v-1.11h2.4v7.82h-2.4v-1.11c-.43,.69-1.26,1.22-2.42,1.22-1.91,0-3.43-1.57-3.43-4.03s1.53-4.01,3.45-4.01Zm.7,2.09c-.9,0-1.71,.67-1.71,1.92s.81,1.95,1.71,1.95,1.71-.69,1.71-1.93-.8-1.93-1.71-1.93Z"/><path class="f" d="M192.26,26.54h-2.4v-1.06c-.48,.67-1.32,1.15-2.37,1.15-1.81,0-3.03-1.25-3.03-3.33v-4.57h2.38v4.24c0,1.06,.6,1.65,1.5,1.65s1.51-.59,1.51-1.65v-4.24h2.4v7.82Zm-2.23-11.63v1.86l-3.38,1.41v-1.65l3.38-1.62Z"/><path class="f" d="M196.94,18.61c1.04,0,1.93,.48,2.41,1.19v-3.63h2.4v10.37h-2.4v-1.12c-.43,.71-1.26,1.23-2.41,1.23-1.92,0-3.45-1.57-3.45-4.03s1.53-4.01,3.45-4.01Zm.7,2.09c-.9,0-1.71,.67-1.71,1.92s.81,1.95,1.71,1.95,1.71-.69,1.71-1.93-.8-1.93-1.71-1.93Z"/><path class="f" d="M206.96,26.65c-2.3,0-3.95-1.54-3.95-4.02s1.62-4.02,3.95-4.02,3.89,1.51,3.89,3.89c0,.22-.01,.46-.04,.7h-5.42c.08,1.02,.71,1.5,1.49,1.5,.67,0,1.05-.34,1.25-.76h2.55c-.38,1.53-1.77,2.7-3.71,2.7Zm-1.56-4.78h3c0-.85-.67-1.34-1.47-1.34s-1.39,.48-1.53,1.34Z"/></g><g><path class="f" d="M71.06,266.86h2.42l2.36,5.83,2.34-5.83h2.41v8.42h-2.05v-5.05l-1.88,5.05h-1.66l-1.9-5.06v5.06h-2.05v-8.42Z"/><path class="f" d="M85.13,275.37c-1.97,0-3.45-1.32-3.45-3.44s1.52-3.44,3.48-3.44,3.48,1.32,3.48,3.44-1.54,3.44-3.5,3.44Zm0-1.78c.73,0,1.42-.54,1.42-1.67s-.67-1.67-1.39-1.67-1.39,.53-1.39,1.67,.62,1.67,1.37,1.67Z"/><path class="f" d="M94.34,271.64c0-.91-.5-1.42-1.28-1.42s-1.28,.5-1.28,1.42v3.63h-2.05v-6.69h2.05v.89c.41-.56,1.13-.96,2.03-.96,1.55,0,2.58,1.06,2.58,2.85v3.91h-2.04v-3.63Z"/><path class="f" d="M97.62,266.79c0-.62,.49-1.12,1.22-1.12s1.21,.49,1.21,1.12-.49,1.1-1.21,1.1-1.22-.49-1.22-1.1Zm.19,1.8h2.05v6.69h-2.05v-6.69Z"/><path class="f" d="M101.68,270.29h-.82v-1.7h.82v-1.63h2.05v1.63h1.34v1.7h-1.34v2.69c0,.4,.17,.56,.62,.56h.73v1.74h-1.04c-1.39,0-2.36-.59-2.36-2.33v-2.66Z"/><path class="f" d="M109.27,275.37c-1.97,0-3.45-1.32-3.45-3.44s1.52-3.44,3.48-3.44,3.48,1.32,3.48,3.44-1.54,3.44-3.5,3.44Zm0-1.78c.73,0,1.42-.54,1.42-1.67s-.67-1.67-1.39-1.67-1.39,.53-1.39,1.67,.62,1.67,1.37,1.67Z"/><path class="f" d="M115.92,275.28h-2.05v-6.69h2.05v1.12c.47-.71,1.2-1.19,2.1-1.19v2.17h-.56c-.97,0-1.54,.34-1.54,1.49v3.11Z"/><path class="f" d="M121.55,268.49c1,0,1.7,.46,2.06,1.04v-.95h2.05v6.69h-2.05v-.95c-.37,.59-1.08,1.04-2.07,1.04-1.63,0-2.94-1.34-2.94-3.46s1.31-3.43,2.95-3.43Zm.6,1.79c-.77,0-1.46,.58-1.46,1.64s.7,1.67,1.46,1.67,1.46-.59,1.46-1.66-.68-1.66-1.46-1.66Z"/><path class="f" d="M136.38,271.64c0-.88-.5-1.36-1.28-1.36s-1.28,.48-1.28,1.36v3.63h-2.04v-3.63c0-.88-.5-1.36-1.28-1.36s-1.28,.48-1.28,1.36v3.63h-2.05v-6.69h2.05v.84c.4-.54,1.08-.91,1.95-.91,1.01,0,1.82,.44,2.28,1.25,.44-.71,1.28-1.25,2.25-1.25,1.65,0,2.72,1.06,2.72,2.85v3.91h-2.04v-3.63Z"/><path class="f" d="M142.83,275.37c-1.97,0-3.38-1.32-3.38-3.44s1.39-3.44,3.38-3.44,3.33,1.29,3.33,3.33c0,.19-.01,.4-.04,.6h-4.64c.07,.88,.61,1.28,1.27,1.28,.58,0,.9-.29,1.07-.65h2.18c-.32,1.31-1.51,2.31-3.18,2.31Zm-1.33-4.09h2.57c0-.73-.58-1.15-1.26-1.15s-1.19,.41-1.31,1.15Z"/><path class="f" d="M151.87,271.64c0-.91-.5-1.42-1.28-1.42s-1.28,.5-1.28,1.42v3.63h-2.05v-6.69h2.05v.89c.41-.56,1.13-.96,2.03-.96,1.55,0,2.58,1.06,2.58,2.85v3.91h-2.04v-3.63Z"/><path class="f" d="M155.66,270.29h-.82v-1.7h.82v-1.63h2.05v1.63h1.34v1.7h-1.34v2.69c0,.4,.17,.56,.62,.56h.73v1.74h-1.04c-1.39,0-2.36-.59-2.36-2.33v-2.66Z"/><path class="f" d="M163.26,275.37c-1.97,0-3.45-1.32-3.45-3.44s1.52-3.44,3.48-3.44,3.48,1.32,3.48,3.44-1.54,3.44-3.5,3.44Zm0-1.78c.73,0,1.42-.54,1.42-1.67s-.67-1.67-1.39-1.67-1.39,.53-1.39,1.67,.62,1.67,1.37,1.67Z"/><path class="f" d="M173.37,275.37c-1.97,0-3.38-1.32-3.38-3.44s1.39-3.44,3.38-3.44,3.33,1.29,3.33,3.33c0,.19-.01,.4-.04,.6h-4.64c.07,.88,.61,1.28,1.27,1.28,.58,0,.9-.29,1.07-.65h2.18c-.32,1.31-1.51,2.31-3.18,2.31Zm-1.33-4.09h2.57c0-.73-.58-1.15-1.26-1.15s-1.19,.41-1.31,1.15Z"/><path class="f" d="M182.88,268.49c1,0,1.7,.46,2.06,1.04v-.95h2.05v6.69h-2.05v-.95c-.37,.59-1.08,1.04-2.07,1.04-1.63,0-2.94-1.34-2.94-3.46s1.31-3.43,2.95-3.43Zm.6,1.79c-.77,0-1.46,.58-1.46,1.64s.7,1.67,1.46,1.67,1.46-.59,1.46-1.66-.68-1.66-1.46-1.66Z"/><path class="f" d="M190.04,268.58l1.45,4.77,1.45-4.77h2.18l-2.37,6.69h-2.53l-2.37-6.69h2.19Z"/><path class="f" d="M198.54,268.49c1,0,1.7,.46,2.06,1.04v-.95h2.05v6.69h-2.05v-.95c-.37,.59-1.08,1.04-2.07,1.04-1.63,0-2.94-1.34-2.94-3.46s1.31-3.43,2.95-3.43Zm.6,1.79c-.77,0-1.46,.58-1.46,1.64s.7,1.67,1.46,1.67,1.46-.59,1.46-1.66-.68-1.66-1.46-1.66Z"/><path class="f" d="M204.14,266.4h2.05v8.88h-2.05v-8.88Z"/><path class="f" d="M207.49,266.79c0-.62,.49-1.12,1.22-1.12s1.21,.49,1.21,1.12-.49,1.1-1.21,1.1-1.22-.49-1.22-1.1Zm.19,1.8h2.05v6.69h-2.05v-6.69Z"/><path class="f" d="M213.77,268.49c1,0,1.7,.46,2.06,1.04v-.95h2.05v6.69h-2.05v-.95c-.37,.59-1.08,1.04-2.07,1.04-1.63,0-2.94-1.34-2.94-3.46s1.31-3.43,2.95-3.43Zm.6,1.79c-.77,0-1.46,.58-1.46,1.64s.7,1.67,1.46,1.67,1.46-.59,1.46-1.66-.68-1.66-1.46-1.66Z"/><path class="f" d="M222.32,268.49c1.68,0,2.87,.92,3.21,2.52h-2.18c-.17-.47-.5-.77-1.07-.77-.73,0-1.24,.58-1.24,1.69s.5,1.69,1.24,1.69c.56,0,.89-.28,1.07-.77h2.18c-.3,1.36-1.26,2.27-2.61,2.47v.44c.72,0,1.56,.37,1.56,1.37s-.84,1.39-1.67,1.39h-1.85v-1.13h1.57c.3,0,.48-.07,.48-.31s-.18-.3-.48-.3h-.85v-1.46c-1.62-.25-2.72-1.51-2.72-3.39,0-2.11,1.39-3.44,3.36-3.44Z"/><path class="f" d="M229.17,268.49c1,0,1.7,.46,2.06,1.04v-.95h2.05v6.69h-2.05v-.95c-.37,.59-1.08,1.04-2.07,1.04-1.63,0-2.94-1.34-2.94-3.46s1.31-3.43,2.95-3.43Zm.08-2.24c.72,0,1.09,.54,1.57,.54,.28,0,.47-.17,.52-.54h1.06c-.2,1.26-.82,1.78-1.66,1.78-.72,0-1.09-.54-1.57-.54-.28,0-.47,.17-.53,.54h-1.04c.2-1.26,.8-1.78,1.66-1.78Zm.52,4.03c-.77,0-1.46,.58-1.46,1.64s.7,1.67,1.46,1.67,1.46-.59,1.46-1.66-.68-1.66-1.46-1.66Z"/><path class="f" d="M237.83,275.37c-1.97,0-3.45-1.32-3.45-3.44s1.52-3.44,3.48-3.44,3.48,1.32,3.48,3.44-1.54,3.44-3.5,3.44Zm0-1.78c.73,0,1.42-.54,1.42-1.67s-.67-1.67-1.39-1.67-1.39,.53-1.39,1.67,.62,1.67,1.37,1.67Z"/></g><g><g class="g"><rect class="k" x="12" y="99.98" width="133" height="118"/></g><rect class="f" x="10" y="103.98" width="133" height="112"/><rect class="j" x="1" y="70.21" width="149" height="34" rx="9" ry="9"/><g><rect class="f" x="1" y="70.21" width="47" height="34" rx="9" ry="9"/><path class="j" d="M39,105.21H10C4.49,105.21,0,100.72,0,95.21v-16C0,73.69,4.49,69.21,10,69.21h29c5.51,0,10,4.49,10,10v16c0,5.51-4.49,10-10,10ZM10,71.21c-4.41,0-8,3.59-8,8v16c0,4.41,3.59,8,8,8h29c4.41,0,8-3.59,8-8v-16c0-4.41-3.59-8-8-8H10Z"/></g><g><path class="f" d="M60.14,79.96h-3.33l-.55,1.6h-1.76l3.01-8.38h1.96l3.01,8.38h-1.78l-.55-1.6Zm-1.67-4.85l-1.21,3.5h2.42l-1.21-3.5Z"/><path class="f" d="M68.25,77.88c0-1.07-.59-1.64-1.48-1.64s-1.5,.58-1.5,1.64v3.67h-1.68v-6.64h1.68v.83c.43-.56,1.15-.92,2-.92,1.55,0,2.65,1.01,2.65,2.84v3.9h-1.68v-3.67Z"/><path class="f" d="M74.14,74.8c1.07,0,1.8,.5,2.19,1.06v-.95h1.69v6.64h-1.69v-.97c-.4,.58-1.15,1.08-2.21,1.08-1.68,0-3.02-1.38-3.02-3.45s1.34-3.41,3.03-3.41Zm.43,1.48c-.9,0-1.75,.67-1.75,1.93s.85,1.98,1.75,1.98,1.76-.7,1.76-1.96-.84-1.96-1.76-1.96Zm1.54-4.46v1.37l-2.76,1.26v-1.2l2.76-1.43Z"/><path class="f" d="M79.67,72.68h1.68v8.88h-1.68v-8.88Z"/><path class="f" d="M82.83,73.13c0-.55,.43-.98,1.03-.98s1.03,.43,1.03,.98-.44,.98-1.03,.98-1.03-.43-1.03-.98Zm.18,1.77h1.68v6.64h-1.68v-6.64Z"/><path class="f" d="M88.88,81.66c-1.67,0-2.83-.97-2.9-2.21h1.69c.06,.5,.53,.89,1.2,.89s1.02-.3,1.02-.68c0-1.19-3.75-.43-3.75-2.87,0-1.1,.98-1.99,2.63-1.99s2.58,.88,2.67,2.19h-1.61c-.05-.52-.46-.86-1.12-.86-.62,0-.95,.25-.95,.64,0,1.21,3.68,.46,3.73,2.89,0,1.14-1,2-2.61,2Z"/><path class="f" d="M95.78,81.66c-1.93,0-3.33-1.34-3.33-3.43s1.37-3.43,3.33-3.43,3.27,1.31,3.27,3.29c0,.22-.01,.43-.05,.65h-4.86c.08,.98,.76,1.54,1.6,1.54,.72,0,1.12-.36,1.33-.8h1.81c-.36,1.22-1.46,2.19-3.11,2.19Zm-1.62-4.05h3.15c-.02-.88-.72-1.43-1.58-1.43-.8,0-1.44,.52-1.57,1.43Z"/><path class="f" d="M57.62,89.2c.88,0,1.72,.41,2.17,1.03v-3.15h1.7v8.88h-1.7v-.98c-.4,.61-1.14,1.09-2.18,1.09-1.69,0-3.03-1.38-3.03-3.45s1.34-3.41,3.05-3.41Zm.42,1.48c-.9,0-1.75,.67-1.75,1.93s.85,1.98,1.75,1.98,1.76-.7,1.76-1.96-.84-1.95-1.76-1.95Z"/><path class="f" d="M65.75,89.2c1.07,0,1.8,.5,2.19,1.06v-.95h1.69v6.64h-1.69v-.97c-.4,.58-1.15,1.08-2.21,1.08-1.68,0-3.02-1.38-3.02-3.45s1.34-3.41,3.03-3.41Zm.43,1.48c-.9,0-1.75,.67-1.75,1.93s.85,1.98,1.75,1.98,1.76-.7,1.76-1.96-.84-1.95-1.76-1.95Z"/><path class="f" d="M76.68,96.06c-1.67,0-2.83-.97-2.9-2.21h1.69c.06,.5,.53,.89,1.2,.89s1.02-.3,1.02-.68c0-1.19-3.75-.43-3.75-2.87,0-1.1,.98-1.99,2.63-1.99s2.58,.88,2.67,2.19h-1.61c-.05-.52-.46-.86-1.12-.86-.62,0-.95,.25-.95,.64,0,1.21,3.68,.46,3.73,2.89,0,1.14-1,2-2.61,2Z"/><path class="f" d="M80.5,87.53c0-.55,.43-.98,1.03-.98s1.03,.43,1.03,.98-.44,.98-1.03,.98-1.03-.43-1.03-.98Zm.18,1.77h1.68v6.64h-1.68v-6.64Z"/><path class="f" d="M84.28,90.69h-.79v-1.38h.79v-1.64h1.69v1.64h1.49v1.38h-1.49v3.21c0,.44,.18,.64,.71,.64h.78v1.42h-1.06c-1.27,0-2.12-.54-2.12-2.06v-3.2Z"/><path class="f" d="M94.94,95.95h-1.69v-.84c-.42,.56-1.15,.92-1.98,.92-1.55,0-2.66-1.01-2.66-2.83v-3.9h1.68v3.66c0,1.07,.59,1.64,1.48,1.64s1.49-.58,1.49-1.64v-3.66h1.69v6.64Z"/><path class="f" d="M99.2,89.2c1.07,0,1.8,.5,2.2,1.06v-.95h1.69v6.64h-1.69v-.97c-.4,.58-1.15,1.08-2.21,1.08-1.68,0-3.02-1.38-3.02-3.45s1.34-3.41,3.03-3.41Zm.43,1.48c-.9,0-1.75,.67-1.75,1.93s.85,1.98,1.75,1.98,1.76-.7,1.76-1.96-.84-1.95-1.76-1.95Z"/><path class="f" d="M107.59,89.2c1.66,0,2.77,.86,3.13,2.35h-1.81c-.19-.56-.64-.92-1.33-.92-.94,0-1.56,.71-1.56,2s.62,1.99,1.56,1.99c.7,0,1.13-.31,1.33-.91h1.81c-.32,1.27-1.25,2.15-2.63,2.31v.47c.8,0,1.56,.41,1.56,1.31s-.76,1.34-1.6,1.34h-1.7v-.98h1.43c.36,0,.59-.08,.59-.38s-.23-.37-.59-.37h-.74v-1.38c-1.62-.24-2.73-1.51-2.73-3.39,0-2.09,1.37-3.43,3.29-3.43Z"/><path class="f" d="M114.56,89.2c1.07,0,1.8,.5,2.2,1.06v-.95h1.69v6.64h-1.69v-.97c-.4,.58-1.15,1.08-2.21,1.08-1.68,0-3.02-1.38-3.02-3.45s1.34-3.41,3.03-3.41Zm-.01-2.1c.68,0,1,.53,1.48,.53,.28,0,.47-.16,.52-.52h.9c-.16,1.09-.72,1.57-1.49,1.57-.68,0-1-.54-1.48-.54-.28,0-.47,.17-.53,.53h-.89c.16-1.09,.72-1.57,1.49-1.57Zm.44,3.57c-.9,0-1.75,.67-1.75,1.93s.85,1.98,1.75,1.98,1.76-.7,1.76-1.96-.84-1.95-1.76-1.95Z"/><path class="f" d="M123.05,96.06c-1.92,0-3.37-1.34-3.37-3.43s1.5-3.43,3.42-3.43,3.42,1.33,3.42,3.43-1.54,3.43-3.47,3.43Zm0-1.46c.89,0,1.74-.65,1.74-1.97s-.83-1.97-1.71-1.97-1.69,.64-1.69,1.97,.77,1.97,1.67,1.97Z"/></g><g><path class="h" d="M37,86.77c-.83-.65-1.68-.98-2.63-1.06-.42-.03-.26-.37-.26-.58-.01-2.11-.02-4.21,0-6.32,0-.5-.13-.62-.62-.62-6.63,.02-13.26,.02-19.89,0-.55,0-.64,.19-.64,.68,.02,2.06,0,4.13,.02,6.19,0,.41,0,.66-.55,.7-.83,.06-1.59,.41-2.25,.97-.16-.29-.1-.52-.1-.74,0-2.73,0-5.46,0-8.19,0-1.64,.95-2.58,2.61-2.58,7.26,0,14.51,0,21.77,0,1.66,0,2.56,.9,2.56,2.54,0,2.81,0,5.63,0,8.44v.58Z"/><path class="h" d="M13.03,99.2c-1.1,0-2.21,0-3.31,0-.86,0-1.25-.45-1.16-1.31,.21-1.87,1.62-3.14,3.49-3.14,.67,0,1.33,0,2,0,1.89,0,3.38,1.45,3.45,3.32,.03,.7-.37,1.12-1.1,1.13-1.12,.01-2.25,0-3.37,0Z"/><path class="h" d="M34.01,99.2c-1.08,0-2.16,0-3.25,0-.85,0-1.21-.39-1.17-1.24,.09-1.77,1.57-3.2,3.35-3.22,.75,0,1.5,0,2.25,0,1.82,.02,3.32,1.55,3.32,3.37,0,.71-.34,1.07-1.07,1.08-1.14,.01-2.29,0-3.43,0Z"/><path class="h" d="M23.56,99.2c-1.1,0-2.21,0-3.31,0-.84,0-1.21-.4-1.17-1.24,.08-1.74,1.56-3.19,3.29-3.22,.79-.01,1.58-.02,2.37,0,1.8,.04,3.31,1.63,3.26,3.43-.02,.67-.36,1.01-1.07,1.02-1.12,.01-2.25,0-3.37,0Z"/><path class="h" d="M15.99,90.23c0,1.63-1.37,3-2.99,2.99-1.59-.01-2.96-1.43-2.94-3.04,.02-1.59,1.4-2.97,2.96-2.96,1.63,.01,2.97,1.38,2.97,3.01Z"/><path class="h" d="M26.51,90.29c-.05,1.62-1.5,3.01-3.05,2.93-1.63-.08-2.94-1.49-2.89-3.09,.05-1.58,1.5-2.96,3.02-2.9,1.63,.07,2.97,1.47,2.92,3.06Z"/><path class="h" d="M37,90.2c0,1.66-1.3,3-2.93,3.02-1.59,.02-2.97-1.38-2.97-3,0-1.59,1.33-3,2.92-2.98,1.77,.02,3.02,1.42,2.98,2.96Z"/></g><g><path class="i" d="M32.07,110.99h.82v6.27h-.82v-6.27Z"/><path class="i" d="M36.33,112.25c.77,0,1.49,.4,1.83,.96v-2.61h.83v6.66h-.83v-.93c-.3,.55-.94,1.01-1.84,1.01-1.32,0-2.34-1.04-2.34-2.57s1.02-2.53,2.35-2.53Zm.15,.71c-.9,0-1.67,.66-1.67,1.82s.77,1.84,1.67,1.84,1.67-.67,1.67-1.84-.77-1.83-1.67-1.83Z"/><path class="i" d="M42.5,117.35c-1.4,0-2.44-.99-2.44-2.56s1-2.54,2.44-2.54,2.37,1.01,2.37,2.36c0,.18,0,.32-.03,.5h-3.94c.06,1,.77,1.55,1.6,1.55,.74,0,1.21-.38,1.39-.91h.88c-.25,.9-1.04,1.6-2.27,1.6Zm-1.59-2.91h3.11c0-.96-.71-1.49-1.56-1.49-.8,0-1.47,.53-1.56,1.49Z"/><path class="i" d="M49.56,114.48c0-1.01-.55-1.52-1.38-1.52s-1.41,.52-1.41,1.58v2.73h-.82v-4.93h.82v.7c.32-.51,.92-.79,1.58-.79,1.14,0,2.02,.7,2.02,2.12v2.91h-.81v-2.79Z"/><path class="i" d="M51.89,113.01h-.64v-.68h.64v-1.24h.82v1.24h1.29v.68h-1.29v2.91c0,.49,.18,.66,.68,.66h.6v.69h-.74c-.87,0-1.37-.36-1.37-1.35v-2.91Z"/><path class="i" d="M54.85,110.98c0-.32,.24-.56,.56-.56,.3,0,.54,.24,.54,.56s-.24,.56-.54,.56c-.31,0-.56-.24-.56-.56Zm.14,1.36h.82v4.93h-.82v-4.93Z"/><path class="i" d="M57.35,113.01h-.64v-.68h.64v-.35c0-1.1,.54-1.59,1.8-1.59v.68c-.74,0-.98,.27-.98,.91v.35h1.04v.68h-1.04v4.26h-.82v-4.26Z"/><path class="i" d="M60.02,110.98c0-.32,.24-.56,.56-.56,.3,0,.54,.24,.54,.56s-.24,.56-.54,.56c-.31,0-.56-.24-.56-.56Zm.14,1.36h.82v4.93h-.82v-4.93Z"/><path class="i" d="M64.47,112.25c1.22,0,2.03,.63,2.28,1.67h-.88c-.17-.59-.67-.97-1.4-.97-.9,0-1.57,.64-1.57,1.85s.67,1.86,1.57,1.86c.73,0,1.22-.35,1.4-.97h.88c-.25,.98-1.05,1.67-2.28,1.67-1.4,0-2.4-.99-2.4-2.56s1-2.54,2.4-2.54Z"/><path class="i" d="M69.87,112.25c.92,0,1.55,.47,1.84,.98v-.9h.83v4.93h-.83v-.92c-.3,.53-.94,1-1.85,1-1.31,0-2.33-1.04-2.33-2.57s1.02-2.53,2.34-2.53Zm.16,.71c-.9,0-1.67,.66-1.67,1.82s.77,1.84,1.67,1.84,1.67-.67,1.67-1.84-.77-1.83-1.67-1.83Z"/><path class="i" d="M76.02,112.25c1.22,0,2.03,.63,2.28,1.67h-.88c-.17-.59-.67-.97-1.4-.97-.9,0-1.57,.64-1.57,1.85s.67,1.86,1.57,1.86c.73,0,1.22-.35,1.4-.97h.88c-.23,.91-.95,1.57-2.03,1.66v.45c.69,0,1.16,.3,1.16,.89s-.46,.93-1.1,.93h-1.04v-.53h.87c.39,0,.58-.11,.58-.4s-.19-.39-.58-.39h-.45v-.96c-1.24-.13-2.11-1.09-2.11-2.54,0-1.55,1-2.54,2.4-2.54Z"/><path class="i" d="M81.42,112.25c.92,0,1.55,.47,1.84,.98v-.9h.83v4.93h-.83v-.92c-.3,.53-.94,1-1.85,1-1.31,0-2.33-1.04-2.33-2.57s1.02-2.53,2.34-2.53Zm.16,.71c-.9,0-1.67,.66-1.67,1.82s.77,1.84,1.67,1.84,1.67-.67,1.67-1.84-.77-1.83-1.67-1.83Zm-.26-2.11c.48,0,.66,.41,1.03,.41,.2,0,.36-.13,.4-.39h.47c-.07,.61-.43,.94-.9,.94s-.67-.41-1.03-.41c-.2,0-.35,.13-.39,.4h-.48c.09-.62,.43-.95,.9-.95Z"/><path class="i" d="M87.62,117.35c-1.4,0-2.46-.99-2.46-2.56s1.1-2.54,2.49-2.54,2.49,.98,2.49,2.54-1.12,2.56-2.53,2.56Zm0-.72c.86,0,1.69-.58,1.69-1.84s-.82-1.83-1.67-1.83-1.65,.59-1.65,1.83,.77,1.84,1.62,1.84Z"/><path class="i" d="M91.17,116.13h.9l-1.01,2.42h-.55l.66-2.42Z"/><path class="i" d="M32.22,123.81h-.64v-.68h.64v-.35c0-1.1,.54-1.59,1.8-1.59v.68c-.74,0-.98,.27-.98,.91v.35h1.04v.68h-1.04v4.26h-.82v-4.26Z"/><path class="i" d="M37.18,128.15c-1.4,0-2.46-.99-2.46-2.56s1.1-2.54,2.49-2.54,2.49,.98,2.49,2.54-1.13,2.56-2.53,2.56Zm0-.72c.86,0,1.69-.58,1.69-1.84s-.82-1.83-1.67-1.83-1.65,.59-1.65,1.83,.77,1.84,1.62,1.84Z"/><path class="i" d="M41.61,128.07h-.82v-4.93h.82v.8c.28-.55,.81-.89,1.59-.89v.85h-.22c-.78,0-1.38,.35-1.38,1.49v2.68Z"/><path class="i" d="M51.27,125.28c0-1.01-.54-1.52-1.35-1.52s-1.4,.53-1.4,1.59v2.72h-.81v-2.79c0-1.01-.54-1.52-1.35-1.52s-1.4,.53-1.4,1.59v2.72h-.82v-4.93h.82v.71c.32-.52,.91-.8,1.56-.8,.81,0,1.49,.36,1.81,1.1,.29-.71,.99-1.1,1.75-1.1,1.13,0,2,.7,2,2.12v2.91h-.81v-2.79Z"/><path class="i" d="M57.79,128.07h-.82v-.73c-.31,.51-.92,.8-1.58,.8-1.13,0-2.03-.7-2.03-2.12v-2.89h.81v2.78c0,1,.55,1.51,1.38,1.51s1.41-.52,1.41-1.58v-2.71h.82v4.93Z"/><path class="i" d="M59.18,121.41h.82v6.66h-.82v-6.66Z"/><path class="i" d="M63.42,123.05c.92,0,1.55,.47,1.84,.98v-.9h.83v4.93h-.83v-.92c-.3,.53-.94,1-1.85,1-1.31,0-2.33-1.04-2.33-2.57s1.02-2.53,2.34-2.53Zm.16,.71c-.9,0-1.67,.66-1.67,1.82s.77,1.84,1.67,1.84,1.67-.67,1.67-1.84-.77-1.83-1.67-1.83Z"/><path class="i" d="M69.57,123.05c1.22,0,2.03,.63,2.28,1.67h-.88c-.17-.59-.67-.97-1.4-.97-.9,0-1.57,.64-1.57,1.85s.67,1.86,1.57,1.86c.73,0,1.22-.35,1.4-.97h.88c-.23,.91-.95,1.57-2.03,1.66v.45c.69,0,1.16,.3,1.16,.89s-.46,.93-1.1,.93h-1.04v-.53h.87c.39,0,.58-.11,.58-.4s-.19-.39-.58-.39h-.45v-.96c-1.24-.13-2.11-1.09-2.11-2.54,0-1.55,1-2.54,2.4-2.54Z"/><path class="i" d="M74.97,123.05c.92,0,1.55,.47,1.84,.98v-.9h.83v4.93h-.83v-.92c-.3,.53-.94,1-1.85,1-1.31,0-2.33-1.04-2.33-2.57s1.02-2.53,2.34-2.53Zm.16,.71c-.9,0-1.67,.66-1.67,1.82s.77,1.84,1.67,1.84,1.67-.67,1.67-1.84-.77-1.83-1.67-1.83Zm-.26-2.11c.48,0,.66,.41,1.03,.41,.2,0,.36-.13,.4-.39h.47c-.07,.61-.43,.94-.9,.94s-.67-.41-1.03-.41c-.2,0-.35,.13-.39,.4h-.48c.09-.62,.43-.95,.9-.95Z"/><path class="i" d="M81.17,128.15c-1.4,0-2.46-.99-2.46-2.56s1.1-2.54,2.49-2.54,2.49,.98,2.49,2.54-1.13,2.56-2.53,2.56Zm0-.72c.86,0,1.69-.58,1.69-1.84s-.82-1.83-1.67-1.83-1.65,.59-1.65,1.83,.77,1.84,1.62,1.84Z"/><path class="i" d="M89.32,128.15c-1.4,0-2.44-.99-2.44-2.56s1-2.54,2.44-2.54,2.37,1.01,2.37,2.36c0,.18,0,.32-.03,.5h-3.94c.06,1,.77,1.55,1.6,1.55,.74,0,1.21-.38,1.39-.91h.88c-.25,.9-1.04,1.6-2.27,1.6Zm-1.59-2.91h3.11c0-.96-.71-1.49-1.56-1.49-.8,0-1.47,.53-1.56,1.49Z"/><path class="i" d="M34.73,133.85c1.32,0,2.34,.99,2.34,2.53s-1.02,2.57-2.34,2.57c-.9,0-1.54-.49-1.85-.99v3.25h-.82v-7.27h.82v.91c.3-.52,.94-.99,1.85-.99Zm-.17,.71c-.89,0-1.67,.68-1.67,1.83s.78,1.84,1.67,1.84,1.67-.68,1.67-1.84-.77-1.82-1.67-1.82Z"/><path class="i" d="M38.97,138.87h-.82v-4.93h.82v.8c.28-.55,.81-.89,1.59-.89v.85h-.22c-.78,0-1.38,.35-1.38,1.5v2.68Z"/><path class="i" d="M41.37,132.58c0-.32,.24-.56,.56-.56,.3,0,.54,.24,.54,.56s-.24,.56-.54,.56c-.31,0-.56-.24-.56-.56Zm.14,1.36h.82v4.93h-.82v-4.93Z"/><path class="i" d="M45.87,138.95c-1.4,0-2.46-.99-2.46-2.56s1.1-2.54,2.49-2.54,2.49,.98,2.49,2.54-1.12,2.56-2.53,2.56Zm0-.72c.86,0,1.69-.58,1.69-1.84s-.82-1.83-1.67-1.83-1.65,.59-1.65,1.83,.77,1.84,1.62,1.84Z"/><path class="i" d="M50.3,138.87h-.82v-4.93h.82v.8c.28-.55,.81-.89,1.59-.89v.85h-.22c-.78,0-1.38,.35-1.38,1.5v2.68Z"/><path class="i" d="M52.7,132.58c0-.32,.24-.56,.56-.56,.3,0,.54,.24,.54,.56s-.24,.56-.54,.56c-.31,0-.56-.24-.56-.56Zm.14,1.36h.82v4.93h-.82v-4.93Z"/><path class="i" d="M58.07,134.6l-2.4,3.59h2.42v.67h-3.36v-.67l2.39-3.59h-2.38v-.67h3.32v.67Z"/><path class="i" d="M61.18,133.85c.92,0,1.55,.47,1.84,.98v-.9h.83v4.93h-.83v-.92c-.3,.53-.94,1-1.85,1-1.31,0-2.33-1.04-2.33-2.57s1.02-2.53,2.34-2.53Zm.16,.71c-.9,0-1.67,.66-1.67,1.82s.77,1.84,1.67,1.84,1.67-.67,1.67-1.84-.77-1.83-1.67-1.83Z"/><path class="i" d="M67.33,133.85c1.22,0,2.03,.63,2.28,1.67h-.88c-.17-.59-.67-.97-1.4-.97-.9,0-1.57,.64-1.57,1.85s.67,1.86,1.57,1.86c.73,0,1.22-.35,1.4-.97h.88c-.23,.91-.95,1.57-2.03,1.66v.45c.69,0,1.16,.3,1.16,.89s-.46,.93-1.1,.93h-1.04v-.53h.87c.39,0,.58-.11,.58-.4s-.19-.39-.58-.39h-.45v-.96c-1.24-.13-2.11-1.09-2.11-2.54,0-1.55,1-2.54,2.4-2.54Z"/><path class="i" d="M72.73,133.85c.92,0,1.55,.47,1.84,.98v-.9h.83v4.93h-.83v-.92c-.3,.53-.94,1-1.85,1-1.31,0-2.33-1.04-2.33-2.57s1.02-2.53,2.34-2.53Zm.16,.71c-.9,0-1.67,.66-1.67,1.82s.77,1.84,1.67,1.84,1.67-.67,1.67-1.84-.77-1.83-1.67-1.83Zm-.26-2.11c.48,0,.66,.41,1.03,.41,.2,0,.36-.13,.4-.39h.47c-.07,.61-.43,.94-.9,.94s-.67-.41-1.03-.41c-.2,0-.35,.13-.39,.4h-.48c.09-.62,.43-.95,.9-.95Z"/><path class="i" d="M78.93,138.95c-1.4,0-2.46-.99-2.46-2.56s1.1-2.54,2.49-2.54,2.49,.98,2.49,2.54-1.13,2.56-2.53,2.56Zm0-.72c.86,0,1.69-.58,1.69-1.84s-.82-1.83-1.67-1.83-1.65,.59-1.65,1.83,.77,1.84,1.62,1.84Z"/><path class="i" d="M86.99,133.85c.77,0,1.49,.4,1.83,.96v-2.61h.83v6.66h-.83v-.93c-.3,.55-.94,1.01-1.84,1.01-1.32,0-2.34-1.04-2.34-2.57s1.02-2.53,2.35-2.53Zm.15,.71c-.9,0-1.67,.66-1.67,1.82s.77,1.84,1.67,1.84,1.67-.67,1.67-1.84-.77-1.83-1.67-1.83Z"/><path class="i" d="M93.16,138.95c-1.4,0-2.44-.99-2.44-2.56s1-2.54,2.44-2.54,2.37,1.01,2.37,2.36c0,.18,0,.32-.03,.5h-3.94c.06,1,.77,1.55,1.6,1.55,.74,0,1.21-.38,1.39-.91h.88c-.25,.9-1.04,1.6-2.27,1.6Zm-1.59-2.91h3.11c0-.96-.71-1.49-1.56-1.49-.8,0-1.47,.53-1.56,1.49Z"/><path class="i" d="M34.73,144.65c1.32,0,2.34,.99,2.34,2.53s-1.02,2.57-2.34,2.57c-.9,0-1.54-.49-1.85-.99v3.25h-.82v-7.27h.82v.91c.3-.52,.94-.99,1.85-.99Zm-.17,.71c-.89,0-1.67,.68-1.67,1.83s.78,1.84,1.67,1.84,1.67-.68,1.67-1.84-.77-1.82-1.67-1.82Z"/><path class="i" d="M38.97,149.67h-.82v-4.93h.82v.8c.28-.55,.81-.89,1.59-.89v.85h-.22c-.78,0-1.38,.35-1.38,1.49v2.68Z"/><path class="i" d="M43.66,149.75c-1.4,0-2.46-.99-2.46-2.56s1.1-2.54,2.49-2.54,2.49,.98,2.49,2.54-1.12,2.56-2.53,2.56Zm0-.72c.86,0,1.69-.58,1.69-1.84s-.82-1.83-1.67-1.83-1.65,.59-1.65,1.83,.77,1.84,1.62,1.84Z"/><path class="i" d="M49.93,144.65c1.33,0,2.34,.99,2.34,2.53s-1.02,2.57-2.34,2.57c-.9,0-1.54-.45-1.85-.99v.91h-.82v-6.66h.82v2.65c.32-.55,.97-1,1.85-1Zm-.17,.71c-.89,0-1.67,.68-1.67,1.83s.78,1.84,1.67,1.84,1.67-.68,1.67-1.84-.77-1.82-1.67-1.82Z"/><path class="i" d="M53.35,143.01h.82v6.66h-.82v-6.66Z"/><path class="i" d="M57.7,149.75c-1.4,0-2.44-.99-2.44-2.56s1-2.54,2.44-2.54,2.37,1.01,2.37,2.36c0,.18,0,.32-.03,.5h-3.94c.06,1,.77,1.55,1.6,1.55,.74,0,1.21-.38,1.39-.91h.88c-.25,.9-1.04,1.6-2.27,1.6Zm-1.59-2.91h3.11c0-.96-.71-1.49-1.56-1.49-.8,0-1.47,.53-1.56,1.49Z"/><path class="i" d="M68.27,146.88c0-1.01-.54-1.52-1.35-1.52s-1.4,.53-1.4,1.59v2.72h-.81v-2.79c0-1.01-.54-1.52-1.35-1.52s-1.4,.53-1.4,1.59v2.72h-.82v-4.93h.82v.71c.32-.52,.91-.8,1.56-.8,.81,0,1.49,.36,1.81,1.1,.29-.71,.99-1.1,1.75-1.1,1.13,0,2,.7,2,2.12v2.91h-.81v-2.79Z"/><path class="i" d="M72.45,144.65c.92,0,1.55,.47,1.84,.98v-.9h.83v4.93h-.83v-.92c-.3,.53-.94,1-1.85,1-1.31,0-2.33-1.04-2.33-2.57s1.02-2.53,2.34-2.53Zm.16,.71c-.9,0-1.67,.66-1.67,1.82s.77,1.84,1.67,1.84,1.67-.67,1.67-1.84-.77-1.83-1.67-1.83Z"/><path class="i" d="M78.25,149.75c-1.15,0-1.96-.63-2.02-1.53h.85c.04,.48,.47,.84,1.16,.84,.65,0,1.01-.32,1.01-.73,0-1.1-2.92-.46-2.92-2.29,0-.76,.71-1.38,1.81-1.38s1.81,.58,1.86,1.55h-.82c-.04-.5-.41-.86-1.07-.86-.6,0-.96,.29-.96,.68,0,1.17,2.86,.53,2.9,2.29,0,.81-.71,1.42-1.8,1.42Z"/><path class="i" d="M85.73,149.75c-1.4,0-2.44-.99-2.44-2.56s1-2.54,2.44-2.54,2.37,1.01,2.37,2.36c0,.18,0,.32-.03,.5h-3.94c.06,1,.77,1.55,1.6,1.55,.74,0,1.21-.38,1.39-.91h.88c-.25,.9-1.04,1.6-2.27,1.6Zm-1.59-2.91h3.11c0-.96-.71-1.49-1.56-1.49-.8,0-1.47,.53-1.56,1.49Z"/><path class="i" d="M96.3,146.88c0-1.01-.54-1.52-1.35-1.52s-1.4,.53-1.4,1.59v2.72h-.81v-2.79c0-1.01-.54-1.52-1.35-1.52s-1.4,.53-1.4,1.59v2.72h-.82v-4.93h.82v.71c.32-.52,.91-.8,1.56-.8,.81,0,1.49,.36,1.81,1.1,.29-.71,.99-1.1,1.75-1.1,1.13,0,2,.7,2,2.12v2.91h-.81v-2.79Z"/><path class="i" d="M105.23,149.67h-.82v-.73c-.31,.51-.92,.8-1.58,.8-1.13,0-2.03-.7-2.03-2.12v-2.89h.81v2.78c0,1,.55,1.51,1.38,1.51s1.41-.52,1.41-1.58v-2.71h.82v4.93Z"/><path class="i" d="M113.74,146.88c0-1.01-.54-1.52-1.35-1.52s-1.4,.53-1.4,1.59v2.72h-.81v-2.79c0-1.01-.54-1.52-1.35-1.52s-1.4,.53-1.4,1.59v2.72h-.82v-4.93h.82v.71c.32-.52,.91-.8,1.56-.8,.81,0,1.49,.36,1.81,1.1,.29-.71,.99-1.1,1.75-1.1,1.12,0,2,.7,2,2.12v2.91h-.81v-2.79Z"/><path class="i" d="M117.92,144.65c.92,0,1.55,.47,1.84,.98v-.9h.83v4.93h-.83v-.92c-.3,.53-.94,1-1.85,1-1.31,0-2.33-1.04-2.33-2.57s1.02-2.53,2.34-2.53Zm.16,.71c-.9,0-1.67,.66-1.67,1.82s.77,1.84,1.67,1.84,1.68-.67,1.68-1.84-.78-1.83-1.68-1.83Z"/><path class="i" d="M34.11,155.45c.77,0,1.49,.4,1.83,.96v-2.61h.83v6.66h-.83v-.93c-.3,.55-.94,1.01-1.84,1.01-1.32,0-2.34-1.04-2.34-2.57s1.02-2.53,2.35-2.53Zm.15,.71c-.9,0-1.67,.66-1.67,1.82s.77,1.84,1.67,1.84,1.67-.67,1.67-1.84-.77-1.83-1.67-1.83Z"/><path class="i" d="M40.29,160.55c-1.4,0-2.44-.99-2.44-2.56s1-2.54,2.44-2.54,2.37,1.01,2.37,2.36c0,.18,0,.32-.03,.5h-3.94c.06,1,.77,1.55,1.6,1.55,.74,0,1.21-.38,1.39-.91h.88c-.25,.9-1.04,1.6-2.27,1.6Zm-1.59-2.91h3.11c0-.96-.71-1.49-1.56-1.49-.8,0-1.47,.53-1.56,1.49Z"/><path class="i" d="M43.91,156.21h-.64v-.68h.64v-1.24h.82v1.24h1.29v.68h-1.29v2.91c0,.49,.18,.66,.68,.66h.6v.69h-.74c-.87,0-1.37-.36-1.37-1.35v-2.91Z"/><path class="i" d="M49.14,160.55c-1.4,0-2.44-.99-2.44-2.56s1-2.54,2.44-2.54,2.37,1.01,2.37,2.36c0,.18,0,.32-.03,.5h-3.94c.06,1,.77,1.55,1.6,1.55,.74,0,1.21-.38,1.39-.91h.88c-.25,.9-1.04,1.6-2.27,1.6Zm-1.59-2.91h3.11c0-.96-.71-1.49-1.56-1.49-.8,0-1.47,.53-1.56,1.49Z"/><path class="i" d="M53.41,160.47h-.82v-4.93h.82v.8c.28-.55,.81-.89,1.59-.89v.85h-.22c-.78,0-1.38,.35-1.38,1.49v2.68Z"/><path class="i" d="M63.07,157.68c0-1.01-.54-1.52-1.35-1.52s-1.4,.53-1.4,1.59v2.72h-.81v-2.79c0-1.01-.54-1.52-1.35-1.52s-1.4,.53-1.4,1.59v2.72h-.82v-4.93h.82v.71c.32-.52,.91-.8,1.56-.8,.81,0,1.49,.36,1.81,1.1,.29-.71,.99-1.1,1.75-1.1,1.13,0,2,.7,2,2.12v2.91h-.81v-2.79Z"/><path class="i" d="M65.08,154.18c0-.32,.24-.56,.56-.56,.3,0,.54,.24,.54,.56s-.24,.56-.54,.56c-.31,0-.56-.24-.56-.56Zm.14,1.36h.82v4.93h-.82v-4.93Z"/><path class="i" d="M71.04,157.68c0-1.01-.55-1.52-1.38-1.52s-1.41,.52-1.41,1.58v2.73h-.82v-4.93h.82v.7c.32-.51,.92-.79,1.58-.79,1.14,0,2.02,.7,2.02,2.12v2.91h-.81v-2.79Z"/><path class="i" d="M75.22,155.45c.92,0,1.55,.47,1.84,.98v-.9h.83v4.93h-.83v-.92c-.3,.53-.94,1-1.85,1-1.31,0-2.33-1.04-2.33-2.57s1.02-2.53,2.34-2.53Zm.16,.71c-.9,0-1.67,.66-1.67,1.82s.77,1.84,1.67,1.84,1.67-.67,1.67-1.84-.77-1.83-1.67-1.83Z"/><path class="i" d="M81.32,155.45c.77,0,1.49,.4,1.83,.96v-2.61h.83v6.66h-.83v-.93c-.3,.55-.94,1.01-1.84,1.01-1.32,0-2.34-1.04-2.34-2.57s1.02-2.53,2.35-2.53Zm.15,.71c-.9,0-1.67,.66-1.67,1.82s.77,1.84,1.67,1.84,1.67-.67,1.67-1.84-.77-1.83-1.67-1.83Z"/><path class="i" d="M87.39,155.45c.92,0,1.55,.47,1.84,.98v-.9h.83v4.93h-.83v-.92c-.3,.53-.94,1-1.85,1-1.31,0-2.33-1.04-2.33-2.57s1.02-2.53,2.34-2.53Zm.16,.71c-.9,0-1.67,.66-1.67,1.82s.77,1.84,1.67,1.84,1.67-.67,1.67-1.84-.77-1.83-1.67-1.83Z"/><path class="i" d="M94.66,160.47h-.82v-4.93h.82v.8c.28-.55,.81-.89,1.59-.89v.85h-.22c-.78,0-1.38,.35-1.38,1.49v2.68Z"/><path class="i" d="M99.33,160.55c-1.4,0-2.44-.99-2.44-2.56s1-2.54,2.44-2.54,2.37,1.01,2.37,2.36c0,.18,0,.32-.03,.5h-3.94c.06,1,.77,1.55,1.6,1.55,.74,0,1.21-.38,1.39-.91h.88c-.25,.9-1.04,1.6-2.27,1.6Zm-1.59-2.91h3.11c0-.96-.71-1.49-1.56-1.49-.8,0-1.47,.53-1.56,1.49Z"/><path class="i" d="M104.82,155.45c.92,0,1.55,.47,1.84,.98v-.9h.83v4.93h-.83v-.92c-.3,.53-.94,1-1.85,1-1.31,0-2.33-1.04-2.33-2.57s1.02-2.53,2.34-2.53Zm.16,.71c-.9,0-1.67,.66-1.67,1.82s.77,1.84,1.67,1.84,1.67-.67,1.67-1.84-.77-1.83-1.67-1.83Z"/><path class="i" d="M108.86,153.81h.82v6.66h-.82v-6.66Z"/><path class="i" d="M110.94,154.18c0-.32,.24-.56,.56-.56,.3,0,.54,.24,.54,.56s-.24,.56-.54,.56c-.31,0-.56-.24-.56-.56Zm.14,1.36h.82v4.93h-.82v-4.93Z"/><path class="i" d="M115.34,155.45c.77,0,1.49,.4,1.83,.96v-2.61h.83v6.66h-.83v-.93c-.3,.55-.94,1.01-1.84,1.01-1.32,0-2.34-1.04-2.34-2.57s1.02-2.53,2.35-2.53Zm.15,.71c-.9,0-1.67,.66-1.67,1.82s.77,1.84,1.67,1.84,1.68-.67,1.68-1.84-.78-1.83-1.68-1.83Z"/><path class="i" d="M121.41,155.45c.92,0,1.55,.47,1.84,.98v-.9h.83v4.93h-.83v-.92c-.3,.53-.94,1-1.85,1-1.31,0-2.33-1.04-2.33-2.57s1.02-2.53,2.34-2.53Zm.16,.71c-.9,0-1.67,.66-1.67,1.82s.77,1.84,1.67,1.84,1.68-.67,1.68-1.84-.78-1.83-1.68-1.83Z"/><path class="i" d="M127.5,155.45c.77,0,1.49,.4,1.83,.96v-2.61h.83v6.66h-.83v-.93c-.3,.55-.94,1.01-1.84,1.01-1.32,0-2.34-1.04-2.34-2.57s1.02-2.53,2.35-2.53Zm.15,.71c-.9,0-1.67,.66-1.67,1.82s.77,1.84,1.67,1.84,1.67-.67,1.67-1.84-.77-1.83-1.67-1.83Z"/><path class="i" d="M133.68,160.55c-1.4,0-2.44-.99-2.44-2.56s1-2.54,2.44-2.54,2.37,1.01,2.37,2.36c0,.18,0,.32-.03,.5h-3.94c.06,1,.76,1.55,1.6,1.55,.74,0,1.21-.38,1.39-.91h.88c-.25,.9-1.04,1.6-2.27,1.6Zm-1.59-2.91h3.12c0-.96-.71-1.49-1.56-1.49-.8,0-1.47,.53-1.56,1.49Z"/><path class="i" d="M34.17,172.94c-1.14-1.13-1.83-2.94-1.83-4.97s.68-3.93,1.96-5.11h.85v.08c-1.39,1.3-2.03,3.2-2.03,5.03s.64,3.6,1.89,4.89v.08h-.86Z"/><path class="i" d="M38.82,166.25c1.32,0,2.34,.99,2.34,2.53s-1.02,2.57-2.34,2.57c-.9,0-1.54-.49-1.85-.99v3.25h-.82v-7.27h.82v.91c.3-.52,.94-.99,1.85-.99Zm-.17,.71c-.89,0-1.67,.68-1.67,1.83s.78,1.84,1.67,1.84,1.67-.68,1.67-1.84-.77-1.82-1.67-1.82Z"/><path class="i" d="M44.37,171.35c-1.4,0-2.44-.99-2.44-2.56s1-2.54,2.44-2.54,2.37,1.01,2.37,2.36c0,.18,0,.32-.03,.5h-3.94c.06,1,.77,1.55,1.6,1.55,.74,0,1.21-.38,1.39-.91h.88c-.25,.9-1.04,1.6-2.27,1.6Zm-1.59-2.91h3.11c0-.96-.71-1.49-1.56-1.49-.8,0-1.47,.53-1.56,1.49Z"/><path class="i" d="M48.64,171.27h-.82v-4.93h.82v.8c.28-.55,.81-.89,1.59-.89v.85h-.22c-.78,0-1.38,.35-1.38,1.5v2.68Z"/><path class="i" d="M51.33,167.01h-.64v-.68h.64v-.35c0-1.1,.54-1.59,1.8-1.59v.68c-.74,0-.98,.27-.98,.91v.35h1.04v.68h-1.04v4.26h-.82v-4.26Z"/><path class="i" d="M54,164.98c0-.32,.24-.56,.56-.56,.3,0,.54,.24,.54,.56s-.24,.56-.54,.56c-.31,0-.56-.24-.56-.56Zm.14,1.36h.82v4.93h-.82v-4.93Z"/><path class="i" d="M56.35,164.61h.82v6.66h-.82v-6.66Z"/><path class="i" d="M63.01,166.25c.77,0,1.49,.4,1.83,.96v-2.61h.83v6.66h-.83v-.93c-.3,.55-.94,1.01-1.84,1.01-1.32,0-2.34-1.04-2.34-2.57s1.02-2.53,2.35-2.53Zm.15,.71c-.9,0-1.67,.66-1.67,1.82s.77,1.84,1.67,1.84,1.67-.67,1.67-1.84-.77-1.83-1.67-1.83Z"/><path class="i" d="M69.18,171.35c-1.4,0-2.44-.99-2.44-2.56s1-2.54,2.44-2.54,2.37,1.01,2.37,2.36c0,.18,0,.32-.03,.5h-3.94c.06,1,.77,1.55,1.6,1.55,.74,0,1.21-.38,1.39-.91h.88c-.25,.9-1.04,1.6-2.27,1.6Zm-1.59-2.91h3.11c0-.96-.71-1.49-1.56-1.49-.8,0-1.47,.53-1.56,1.49Z"/><path class="i" d="M79.75,168.48c0-1.01-.54-1.52-1.35-1.52s-1.4,.53-1.4,1.59v2.72h-.81v-2.79c0-1.01-.54-1.52-1.35-1.52s-1.4,.53-1.4,1.59v2.72h-.82v-4.93h.82v.71c.32-.52,.91-.8,1.56-.8,.81,0,1.49,.36,1.81,1.1,.29-.71,.99-1.1,1.75-1.1,1.13,0,2,.7,2,2.12v2.91h-.81v-2.79Z"/><path class="i" d="M84.05,171.35c-1.4,0-2.46-.99-2.46-2.56s1.1-2.54,2.49-2.54,2.49,.98,2.49,2.54-1.12,2.56-2.53,2.56Zm0-.72c.86,0,1.69-.58,1.69-1.84s-.82-1.83-1.67-1.83-1.65,.59-1.65,1.83,.77,1.84,1.62,1.84Z"/><path class="i" d="M89.7,166.25c.9,0,1.55,.45,1.84,.98v-.9h.83v5.04c0,1.36-.91,2.32-2.36,2.32-1.3,0-2.22-.66-2.39-1.71h.81c.18,.59,.77,1,1.58,1,.87,0,1.53-.56,1.53-1.61v-1.04c-.3,.53-.94,1.01-1.84,1.01-1.32,0-2.34-1.04-2.34-2.57s1.02-2.53,2.34-2.53Zm.16,.71c-.9,0-1.67,.66-1.67,1.82s.77,1.84,1.67,1.84,1.67-.67,1.67-1.84-.77-1.83-1.67-1.83Z"/><path class="i" d="M94.56,171.27h-.82v-4.93h.82v.8c.28-.55,.81-.89,1.59-.89v.85h-.22c-.78,0-1.38,.35-1.38,1.5v2.68Z"/><path class="i" d="M99.14,166.25c.92,0,1.55,.47,1.84,.98v-.9h.83v4.93h-.83v-.92c-.3,.53-.94,1-1.85,1-1.31,0-2.33-1.04-2.33-2.57s1.02-2.53,2.34-2.53Zm.16,.71c-.9,0-1.67,.66-1.67,1.82s.77,1.84,1.67,1.84,1.67-.67,1.67-1.84-.77-1.83-1.67-1.83Zm1.04-2.74v.71l-1.92,1.03v-.61l1.92-1.12Z"/><path class="i" d="M103.34,167.01h-.64v-.68h.64v-.35c0-1.1,.54-1.59,1.8-1.59v.68c-.74,0-.98,.27-.98,.91v.35h1.04v.68h-1.04v4.26h-.82v-4.26Z"/><path class="i" d="M106.01,164.98c0-.32,.24-.56,.56-.56,.3,0,.54,.24,.54,.56s-.24,.56-.54,.56c-.31,0-.56-.24-.56-.56Zm.14,1.36h.82v4.93h-.82v-4.93Z"/><path class="i" d="M110.46,166.25c1.22,0,2.03,.63,2.28,1.67h-.88c-.17-.59-.67-.97-1.4-.97-.9,0-1.57,.64-1.57,1.85s.67,1.86,1.57,1.86c.73,0,1.22-.35,1.4-.97h.88c-.25,.98-1.05,1.67-2.28,1.67-1.4,0-2.4-.99-2.4-2.56s1-2.54,2.4-2.54Z"/><path class="i" d="M115.97,171.35c-1.4,0-2.46-.99-2.46-2.56s1.1-2.54,2.49-2.54,2.49,.98,2.49,2.54-1.12,2.56-2.53,2.56Zm0-.72c.86,0,1.69-.58,1.69-1.84s-.82-1.83-1.67-1.83-1.65,.59-1.65,1.83,.76,1.84,1.62,1.84Z"/><path class="i" d="M119.53,170.13h.9l-1.01,2.42h-.55l.66-2.42Z"/><path class="i" d="M33.81,182.15c-1.15,0-1.96-.63-2.02-1.53h.85c.04,.48,.47,.84,1.16,.84,.65,0,1.01-.32,1.01-.73,0-1.1-2.92-.46-2.92-2.29,0-.76,.71-1.38,1.81-1.38s1.81,.58,1.86,1.55h-.82c-.04-.5-.41-.86-1.07-.86-.6,0-.96,.29-.96,.68,0,1.17,2.86,.53,2.9,2.29,0,.81-.71,1.42-1.8,1.42Z"/><path class="i" d="M38.92,182.15c-1.4,0-2.46-.99-2.46-2.56s1.1-2.54,2.49-2.54,2.49,.98,2.49,2.54-1.12,2.56-2.53,2.56Zm0-.72c.86,0,1.69-.58,1.69-1.84s-.82-1.83-1.67-1.83-1.65,.59-1.65,1.83,.77,1.84,1.62,1.84Z"/><path class="i" d="M44.62,177.05c1.22,0,2.03,.63,2.28,1.67h-.88c-.17-.59-.67-.97-1.4-.97-.9,0-1.57,.64-1.57,1.85s.67,1.86,1.57,1.86c.73,0,1.22-.35,1.4-.97h.88c-.25,.98-1.05,1.67-2.28,1.67-1.4,0-2.4-.99-2.4-2.56s1-2.54,2.4-2.54Z"/><path class="i" d="M47.85,175.78c0-.32,.24-.56,.56-.56,.3,0,.54,.24,.54,.56s-.24,.56-.54,.56c-.31,0-.56-.24-.56-.56Zm.14,1.36h.82v4.93h-.82v-4.93Z"/><path class="i" d="M52.35,182.15c-1.4,0-2.46-.99-2.46-2.56s1.1-2.54,2.49-2.54,2.49,.98,2.49,2.54-1.12,2.56-2.53,2.56Zm0-.72c.86,0,1.69-.58,1.69-1.84s-.82-1.83-1.67-1.83-1.65,.59-1.65,1.83,.77,1.84,1.62,1.84Z"/><path class="i" d="M58.1,182.15c-1.4,0-2.44-.99-2.44-2.56s1-2.54,2.44-2.54,2.37,1.01,2.37,2.36c0,.18,0,.32-.03,.5h-3.94c.06,1,.77,1.55,1.6,1.55,.74,0,1.21-.38,1.39-.91h.88c-.25,.9-1.04,1.6-2.27,1.6Zm-1.59-2.91h3.11c0-.96-.71-1.49-1.56-1.49-.8,0-1.47,.53-1.56,1.49Z"/><path class="i" d="M63.64,177.05c1.22,0,2.03,.63,2.28,1.67h-.88c-.17-.59-.67-.97-1.4-.97-.9,0-1.57,.64-1.57,1.85s.67,1.86,1.57,1.86c.73,0,1.22-.35,1.4-.97h.88c-.25,.98-1.05,1.67-2.28,1.67-1.4,0-2.4-.99-2.4-2.56s1-2.54,2.4-2.54Z"/><path class="i" d="M69.16,182.15c-1.4,0-2.46-.99-2.46-2.56s1.1-2.54,2.49-2.54,2.49,.98,2.49,2.54-1.12,2.56-2.53,2.56Zm0-.72c.86,0,1.69-.58,1.69-1.84s-.82-1.83-1.67-1.83-1.65,.59-1.65,1.83,.77,1.84,1.62,1.84Z"/><path class="i" d="M76.37,179.28c0-1.01-.55-1.52-1.38-1.52s-1.41,.52-1.41,1.58v2.73h-.82v-4.93h.82v.7c.32-.51,.92-.79,1.58-.79,1.14,0,2.02,.7,2.02,2.12v2.91h-.81v-2.79Z"/><path class="i" d="M80.68,182.15c-1.4,0-2.46-.99-2.46-2.56s1.1-2.54,2.49-2.54,2.49,.98,2.49,2.54-1.12,2.56-2.53,2.56Zm0-.72c.86,0,1.69-.58,1.69-1.84s-.82-1.83-1.67-1.83-1.65,.59-1.65,1.83,.77,1.84,1.62,1.84Zm1.29-4.8l-1.24-.77-1.25,.77v-.65l1.25-.75,1.24,.75v.65Z"/><path class="i" d="M91.41,179.28c0-1.01-.54-1.52-1.35-1.52s-1.4,.53-1.4,1.59v2.72h-.81v-2.79c0-1.01-.54-1.52-1.35-1.52s-1.4,.53-1.4,1.59v2.72h-.82v-4.93h.82v.71c.32-.52,.91-.8,1.56-.8,.81,0,1.49,.36,1.81,1.1,.29-.71,.99-1.1,1.75-1.1,1.13,0,2,.7,2,2.12v2.91h-.81v-2.79Z"/><path class="i" d="M93.42,175.78c0-.32,.24-.56,.56-.56,.3,0,.54,.24,.54,.56s-.24,.56-.54,.56c-.31,0-.56-.24-.56-.56Zm.14,1.36h.82v4.93h-.82v-4.93Z"/><path class="i" d="M97.87,177.05c1.22,0,2.03,.63,2.28,1.67h-.88c-.17-.59-.67-.97-1.4-.97-.9,0-1.57,.64-1.57,1.85s.67,1.86,1.57,1.86c.73,0,1.22-.35,1.4-.97h.88c-.25,.98-1.05,1.67-2.28,1.67-1.4,0-2.4-.99-2.4-2.56s1-2.54,2.4-2.54Z"/><path class="i" d="M103.38,182.15c-1.4,0-2.46-.99-2.46-2.56s1.1-2.54,2.49-2.54,2.49,.98,2.49,2.54-1.13,2.56-2.53,2.56Zm0-.72c.86,0,1.69-.58,1.69-1.84s-.82-1.83-1.67-1.83-1.65,.59-1.65,1.83,.77,1.84,1.62,1.84Z"/><path class="i" d="M111.53,182.15c-1.4,0-2.44-.99-2.44-2.56s1-2.54,2.44-2.54,2.37,1.01,2.37,2.36c0,.18,0,.32-.03,.5h-3.94c.06,1,.77,1.55,1.6,1.55,.74,0,1.21-.38,1.39-.91h.88c-.25,.9-1.04,1.6-2.27,1.6Zm-1.59-2.91h3.11c0-.96-.71-1.49-1.56-1.49-.8,0-1.47,.53-1.56,1.49Z"/><path class="i" d="M34.2,192.95c-1.4,0-2.44-.99-2.44-2.56s1-2.54,2.44-2.54,2.37,1.01,2.37,2.36c0,.18,0,.32-.03,.5h-3.94c.06,1,.77,1.55,1.6,1.55,.74,0,1.21-.38,1.39-.91h.88c-.25,.9-1.04,1.6-2.27,1.6Zm-1.59-2.91h3.11c0-.96-.71-1.49-1.56-1.49-.8,0-1.47,.53-1.56,1.49Z"/><path class="i" d="M40.31,187.85c1.32,0,2.34,.99,2.34,2.53s-1.02,2.57-2.34,2.57c-.9,0-1.54-.49-1.85-.99v3.25h-.82v-7.27h.82v.91c.3-.52,.94-.99,1.85-.99Zm-.17,.71c-.89,0-1.67,.68-1.67,1.83s.78,1.84,1.67,1.84,1.67-.68,1.67-1.84-.77-1.82-1.67-1.82Z"/><path class="i" d="M43.6,186.58c0-.32,.24-.56,.56-.56,.3,0,.54,.24,.54,.56s-.24,.56-.54,.56c-.31,0-.56-.24-.56-.56Zm.14,1.36h.82v4.93h-.82v-4.93Z"/><path class="i" d="M47.99,187.85c.77,0,1.49,.4,1.83,.96v-2.61h.83v6.66h-.83v-.93c-.3,.55-.94,1.01-1.84,1.01-1.32,0-2.34-1.04-2.34-2.57s1.02-2.53,2.35-2.53Zm.15,.71c-.9,0-1.67,.66-1.67,1.82s.77,1.84,1.67,1.84,1.67-.67,1.67-1.84-.77-1.83-1.67-1.83Z"/><path class="i" d="M54.16,192.95c-1.4,0-2.44-.99-2.44-2.56s1-2.54,2.44-2.54,2.37,1.01,2.37,2.36c0,.18,0,.32-.03,.5h-3.94c.06,1,.77,1.55,1.6,1.55,.74,0,1.21-.38,1.39-.91h.88c-.25,.9-1.04,1.6-2.27,1.6Zm-1.59-2.91h3.11c0-.96-.71-1.49-1.56-1.49-.8,0-1.47,.53-1.56,1.49Z"/><path class="i" d="M64.73,190.08c0-1.01-.54-1.52-1.35-1.52s-1.4,.53-1.4,1.59v2.72h-.81v-2.79c0-1.01-.54-1.52-1.35-1.52s-1.4,.53-1.4,1.59v2.72h-.82v-4.93h.82v.71c.32-.52,.91-.8,1.56-.8,.81,0,1.49,.36,1.81,1.1,.29-.71,.99-1.1,1.75-1.1,1.13,0,2,.7,2,2.12v2.91h-.81v-2.79Z"/><path class="i" d="M66.75,186.58c0-.32,.24-.56,.56-.56,.3,0,.54,.24,.54,.56s-.24,.56-.54,.56c-.31,0-.56-.24-.56-.56Zm.14,1.36h.82v4.93h-.82v-4.93Z"/><path class="i" d="M71.25,192.95c-1.4,0-2.46-.99-2.46-2.56s1.1-2.54,2.49-2.54,2.49,.98,2.49,2.54-1.12,2.56-2.53,2.56Zm0-.72c.86,0,1.69-.58,1.69-1.84s-.82-1.83-1.67-1.83-1.65,.59-1.65,1.83,.77,1.84,1.62,1.84Z"/><path class="i" d="M74.85,186.21h.82v6.66h-.82v-6.66Z"/><path class="i" d="M79.22,192.95c-1.4,0-2.46-.99-2.46-2.56s1.1-2.54,2.49-2.54,2.49,.98,2.49,2.54-1.12,2.56-2.53,2.56Zm0-.72c.86,0,1.69-.58,1.69-1.84s-.82-1.83-1.67-1.83-1.65,.59-1.65,1.83,.77,1.84,1.62,1.84Zm.92-6.46v.71l-1.92,1.03v-.61l1.92-1.13Z"/><path class="i" d="M84.86,187.85c.9,0,1.55,.45,1.84,.98v-.9h.83v5.04c0,1.36-.91,2.32-2.36,2.32-1.3,0-2.22-.66-2.39-1.71h.81c.18,.59,.77,1,1.58,1,.87,0,1.53-.56,1.53-1.61v-1.04c-.3,.53-.94,1.01-1.84,1.01-1.32,0-2.34-1.04-2.34-2.57s1.02-2.53,2.34-2.53Zm.16,.71c-.9,0-1.67,.66-1.67,1.82s.77,1.84,1.67,1.84,1.67-.67,1.67-1.84-.77-1.83-1.67-1.83Z"/><path class="i" d="M88.78,186.58c0-.32,.24-.56,.56-.56,.3,0,.54,.24,.54,.56s-.24,.56-.54,.56c-.31,0-.56-.24-.56-.56Zm.14,1.36h.82v4.93h-.82v-4.93Z"/><path class="i" d="M93.22,187.85c1.22,0,2.03,.63,2.28,1.67h-.88c-.17-.59-.67-.97-1.4-.97-.9,0-1.57,.64-1.57,1.85s.67,1.86,1.57,1.86c.73,0,1.22-.35,1.4-.97h.88c-.25,.98-1.05,1.67-2.28,1.67-1.4,0-2.4-.99-2.4-2.56s1-2.54,2.4-2.54Z"/><path class="i" d="M98.74,192.95c-1.4,0-2.46-.99-2.46-2.56s1.1-2.54,2.49-2.54,2.49,.98,2.49,2.54-1.12,2.56-2.53,2.56Zm0-.72c.86,0,1.69-.58,1.69-1.84s-.82-1.83-1.67-1.83-1.65,.59-1.65,1.83,.77,1.84,1.62,1.84Z"/><path class="i" d="M106.79,187.85c.77,0,1.49,.4,1.83,.96v-2.61h.83v6.66h-.83v-.93c-.3,.55-.94,1.01-1.84,1.01-1.32,0-2.34-1.04-2.34-2.57s1.02-2.53,2.35-2.53Zm.15,.71c-.9,0-1.67,.66-1.67,1.82s.77,1.84,1.67,1.84,1.67-.67,1.67-1.84-.77-1.83-1.67-1.83Z"/><path class="i" d="M112.87,187.85c.92,0,1.55,.47,1.84,.98v-.9h.83v4.93h-.83v-.92c-.3,.53-.94,1-1.85,1-1.31,0-2.33-1.04-2.33-2.57s1.02-2.53,2.34-2.53Zm.16,.71c-.9,0-1.67,.66-1.67,1.82s.77,1.84,1.67,1.84,1.67-.67,1.67-1.84-.77-1.83-1.67-1.83Z"/><path class="i" d="M34.73,198.65c1.32,0,2.34,.99,2.34,2.53s-1.02,2.57-2.34,2.57c-.9,0-1.54-.49-1.85-.99v3.25h-.82v-7.27h.82v.91c.3-.52,.94-.99,1.85-.99Zm-.17,.71c-.89,0-1.67,.68-1.67,1.83s.78,1.84,1.67,1.84,1.67-.68,1.67-1.84-.77-1.82-1.67-1.82Z"/><path class="i" d="M40.3,203.75c-1.4,0-2.46-.99-2.46-2.56s1.1-2.54,2.49-2.54,2.49,.98,2.49,2.54-1.13,2.56-2.53,2.56Zm0-.72c.86,0,1.69-.58,1.69-1.84s-.82-1.83-1.67-1.83-1.65,.59-1.65,1.83,.77,1.84,1.62,1.84Z"/><path class="i" d="M46.58,198.65c1.32,0,2.34,.99,2.34,2.53s-1.02,2.57-2.34,2.57c-.9,0-1.54-.49-1.85-.99v3.25h-.82v-7.27h.82v.91c.3-.52,.94-.99,1.85-.99Zm-.17,.71c-.89,0-1.67,.68-1.67,1.83s.78,1.84,1.67,1.84,1.67-.68,1.67-1.84-.77-1.82-1.67-1.82Z"/><path class="i" d="M54.37,203.67h-.82v-.73c-.31,.51-.92,.8-1.58,.8-1.13,0-2.03-.7-2.03-2.12v-2.89h.81v2.78c0,1,.55,1.51,1.38,1.51s1.41-.52,1.41-1.58v-2.71h.82v4.93Z"/><path class="i" d="M55.76,197.01h.82v6.66h-.82v-6.66Z"/><path class="i" d="M60,198.65c.92,0,1.55,.47,1.84,.98v-.9h.83v4.93h-.83v-.92c-.3,.53-.94,1-1.85,1-1.31,0-2.33-1.04-2.33-2.57s1.02-2.53,2.34-2.53Zm.16,.71c-.9,0-1.67,.66-1.67,1.82s.77,1.84,1.67,1.84,1.67-.67,1.67-1.84-.77-1.83-1.67-1.83Z"/><path class="i" d="M66.15,198.65c1.22,0,2.03,.63,2.28,1.67h-.88c-.17-.59-.67-.97-1.4-.97-.9,0-1.57,.64-1.57,1.85s.67,1.86,1.57,1.86c.73,0,1.22-.35,1.4-.97h.88c-.23,.91-.95,1.57-2.03,1.66v.45c.69,0,1.16,.3,1.16,.89s-.46,.93-1.1,.93h-1.04v-.53h.87c.39,0,.58-.11,.58-.4s-.19-.39-.58-.39h-.45v-.96c-1.24-.13-2.11-1.09-2.11-2.54,0-1.55,1-2.54,2.4-2.54Z"/><path class="i" d="M71.55,198.65c.92,0,1.55,.47,1.84,.98v-.9h.83v4.93h-.83v-.92c-.3,.53-.94,1-1.85,1-1.31,0-2.33-1.04-2.33-2.57s1.02-2.53,2.34-2.53Zm.16,.71c-.9,0-1.67,.66-1.67,1.82s.77,1.84,1.67,1.84,1.67-.67,1.67-1.84-.77-1.83-1.67-1.83Zm-.26-2.11c.48,0,.66,.41,1.03,.41,.2,0,.36-.13,.4-.39h.47c-.07,.61-.43,.94-.9,.94s-.67-.41-1.03-.41c-.2,0-.35,.13-.39,.4h-.48c.09-.62,.43-.95,.9-.95Z"/><path class="i" d="M77.75,203.75c-1.4,0-2.46-.99-2.46-2.56s1.1-2.54,2.49-2.54,2.49,.98,2.49,2.54-1.13,2.56-2.53,2.56Zm0-.72c.86,0,1.69-.58,1.69-1.84s-.82-1.83-1.67-1.83-1.65,.59-1.65,1.83,.77,1.84,1.62,1.84Z"/><path class="i" d="M81.1,205.34v-.08c1.25-1.29,1.89-3.06,1.89-4.89s-.64-3.73-2.03-5.03v-.08h.86c1.28,1.18,1.96,3.08,1.96,5.11s-.68,3.84-1.83,4.97h-.86Z"/><path class="i" d="M85.71,203.72c-.31,0-.56-.24-.56-.56s.24-.56,.56-.56c.3,0,.54,.24,.54,.56s-.24,.56-.54,.56Z"/></g><g class="g"><rect class="k" x="173" y="98.98" width="133" height="41"/></g><rect class="f" x="171" y="101.31" width="133" height="37.02"/><g><path class="i" d="M195.09,114.65h-1.21v2.62h-.82v-6.27h2.03c1.48,0,2.17,.81,2.17,1.84,0,.95-.61,1.82-2.17,1.82Zm0-.67c.94,0,1.33-.44,1.33-1.14s-.4-1.16-1.33-1.16h-1.21v2.3h1.21Z"/><path class="i" d="M199.1,117.27h-.82v-4.93h.82v.8c.28-.55,.81-.89,1.59-.89v.85h-.22c-.78,0-1.38,.35-1.38,1.5v2.68Z"/><path class="i" d="M201.5,110.98c0-.32,.24-.56,.56-.56,.3,0,.54,.24,.54,.56s-.24,.56-.54,.56c-.31,0-.56-.24-.56-.56Zm.14,1.36h.82v4.93h-.82v-4.93Z"/><path class="i" d="M206,117.35c-1.4,0-2.46-.99-2.46-2.56s1.1-2.54,2.49-2.54,2.49,.98,2.49,2.54-1.12,2.56-2.53,2.56Zm0-.72c.86,0,1.69-.58,1.69-1.84s-.82-1.83-1.67-1.83-1.65,.59-1.65,1.83,.77,1.84,1.62,1.84Z"/><path class="i" d="M210.43,117.27h-.82v-4.93h.82v.8c.28-.55,.81-.89,1.59-.89v.85h-.22c-.78,0-1.38,.35-1.38,1.5v2.68Z"/><path class="i" d="M212.83,110.98c0-.32,.24-.56,.56-.56,.3,0,.54,.24,.54,.56s-.24,.56-.54,.56c-.32,0-.56-.24-.56-.56Zm.13,1.36h.82v4.93h-.82v-4.93Z"/><path class="i" d="M218.2,113l-2.4,3.59h2.42v.67h-3.36v-.67l2.39-3.59h-2.38v-.67h3.32v.67Z"/><path class="i" d="M221.31,112.25c.92,0,1.55,.47,1.84,.98v-.9h.83v4.93h-.83v-.92c-.3,.53-.94,1-1.85,1-1.31,0-2.33-1.04-2.33-2.57s1.02-2.53,2.34-2.53Zm.16,.71c-.9,0-1.67,.66-1.67,1.82s.77,1.84,1.67,1.84,1.67-.67,1.67-1.84-.77-1.83-1.67-1.83Z"/><path class="i" d="M227.46,112.25c1.22,0,2.03,.63,2.28,1.67h-.88c-.17-.59-.67-.97-1.39-.97-.9,0-1.57,.64-1.57,1.85s.67,1.86,1.57,1.86c.73,0,1.21-.35,1.39-.97h.88c-.23,.91-.95,1.57-2.03,1.66v.45c.69,0,1.16,.3,1.16,.89s-.46,.93-1.1,.93h-1.04v-.53h.87c.39,0,.58-.11,.58-.4s-.19-.39-.58-.39h-.45v-.96c-1.24-.13-2.11-1.09-2.11-2.54,0-1.55,1-2.54,2.4-2.54Z"/><path class="i" d="M232.86,112.25c.92,0,1.55,.47,1.84,.98v-.9h.83v4.93h-.83v-.92c-.3,.53-.94,1-1.85,1-1.31,0-2.33-1.04-2.33-2.57s1.02-2.53,2.34-2.53Zm.16,.71c-.9,0-1.67,.66-1.67,1.82s.77,1.84,1.67,1.84,1.67-.67,1.67-1.84-.77-1.83-1.67-1.83Zm-.26-2.11c.48,0,.66,.41,1.03,.41,.2,0,.36-.13,.4-.39h.47c-.07,.61-.43,.94-.9,.94s-.67-.41-1.03-.41c-.2,0-.35,.13-.39,.4h-.48c.09-.62,.43-.95,.9-.95Z"/><path class="i" d="M239.06,117.35c-1.4,0-2.46-.99-2.46-2.56s1.1-2.54,2.49-2.54,2.49,.98,2.49,2.54-1.13,2.56-2.53,2.56Zm0-.72c.86,0,1.69-.58,1.69-1.84s-.82-1.83-1.67-1.83-1.65,.59-1.65,1.83,.77,1.84,1.62,1.84Z"/><path class="i" d="M247.11,112.25c.77,0,1.49,.4,1.83,.96v-2.61h.83v6.66h-.83v-.93c-.3,.55-.94,1.01-1.84,1.01-1.32,0-2.34-1.04-2.34-2.57s1.02-2.53,2.35-2.53Zm.15,.71c-.9,0-1.67,.66-1.67,1.82s.77,1.84,1.67,1.84,1.67-.67,1.67-1.84-.77-1.83-1.67-1.83Z"/><path class="i" d="M253.29,117.35c-1.4,0-2.44-.99-2.44-2.56s1-2.54,2.44-2.54,2.37,1.01,2.37,2.36c0,.18,0,.32-.03,.5h-3.94c.06,1,.77,1.55,1.6,1.55,.74,0,1.21-.38,1.39-.91h.88c-.25,.9-1.04,1.6-2.27,1.6Zm-1.59-2.91h3.11c0-.96-.71-1.49-1.56-1.49-.8,0-1.47,.53-1.56,1.49Z"/><path class="i" d="M261.29,117.35c-1.4,0-2.46-.99-2.46-2.56s1.1-2.54,2.49-2.54,2.49,.98,2.49,2.54-1.12,2.56-2.53,2.56Zm0-.72c.86,0,1.69-.58,1.69-1.84s-.82-1.83-1.67-1.83-1.65,.59-1.65,1.83,.76,1.84,1.62,1.84Z"/><path class="i" d="M267.56,112.25c1.33,0,2.34,.99,2.34,2.53s-1.02,2.57-2.34,2.57c-.9,0-1.54-.45-1.85-.99v.91h-.82v-6.66h.82v2.65c.31-.55,.97-1,1.85-1Zm-.17,.71c-.89,0-1.67,.68-1.67,1.83s.78,1.84,1.67,1.84,1.67-.68,1.67-1.84-.76-1.82-1.67-1.82Z"/><path class="i" d="M271.83,112.34v6c0,.89-.47,1.27-1.31,1.27h-.48v-.69h.34c.45,0,.62-.16,.62-.59v-5.99h.82Zm-.96-1.36c0-.32,.24-.56,.55-.56s.55,.24,.55,.56-.24,.56-.55,.56-.55-.24-.55-.56Z"/><path class="i" d="M275.34,117.35c-1.4,0-2.44-.99-2.44-2.56s1-2.54,2.44-2.54,2.37,1.01,2.37,2.36c0,.18,0,.32-.03,.5h-3.94c.06,1,.77,1.55,1.6,1.55,.74,0,1.21-.38,1.39-.91h.88c-.25,.9-1.04,1.6-2.27,1.6Zm-1.59-2.91h3.11c0-.96-.71-1.49-1.56-1.49-.8,0-1.47,.53-1.56,1.49Z"/><path class="i" d="M278.97,113.01h-.64v-.68h.64v-1.24h.82v1.24h1.29v.68h-1.29v2.91c0,.49,.18,.66,.68,.66h.6v.69h-.74c-.87,0-1.37-.36-1.37-1.35v-2.91Z"/><path class="i" d="M281.93,110.98c0-.32,.24-.56,.56-.56,.3,0,.54,.24,.54,.56s-.24,.56-.54,.56c-.31,0-.56-.24-.56-.56Zm.14,1.36h.82v4.93h-.82v-4.93Z"/><path class="i" d="M284.58,112.34l1.54,4.18,1.53-4.18h.87l-1.94,4.93h-.96l-1.94-4.93h.88Z"/><path class="i" d="M291.48,117.35c-1.4,0-2.46-.99-2.46-2.56s1.1-2.54,2.49-2.54,2.49,.98,2.49,2.54-1.13,2.56-2.53,2.56Zm0-.72c.86,0,1.69-.58,1.69-1.84s-.82-1.83-1.67-1.83-1.65,.59-1.65,1.83,.76,1.84,1.62,1.84Z"/><path class="i" d="M296.84,117.35c-1.15,0-1.96-.63-2.02-1.53h.85c.04,.48,.47,.84,1.16,.84,.65,0,1.01-.32,1.01-.73,0-1.1-2.92-.46-2.92-2.29,0-.76,.71-1.38,1.81-1.38s1.81,.58,1.86,1.55h-.82c-.04-.5-.41-.86-1.07-.86-.6,0-.96,.29-.96,.68,0,1.17,2.86,.53,2.9,2.29,0,.81-.71,1.42-1.8,1.42Z"/><path class="i" d="M195.2,128.15c-1.4,0-2.44-.99-2.44-2.56s1-2.54,2.44-2.54,2.37,1.01,2.37,2.36c0,.18,0,.32-.03,.5h-3.94c.06,1,.77,1.55,1.6,1.55,.74,0,1.21-.38,1.39-.91h.88c-.25,.9-1.04,1.6-2.27,1.6Zm-1.59-2.91h3.11c0-.96-.71-1.49-1.56-1.49-.8,0-1.47,.53-1.56,1.49Z"/><path class="i" d="M208.17,125.28c0-1.01-.54-1.52-1.35-1.52s-1.4,.53-1.4,1.59v2.72h-.81v-2.79c0-1.01-.54-1.52-1.35-1.52s-1.4,.53-1.4,1.59v2.72h-.82v-4.93h.82v.71c.32-.52,.91-.8,1.56-.8,.81,0,1.49,.36,1.81,1.1,.29-.71,.99-1.1,1.75-1.1,1.12,0,2,.7,2,2.12v2.91h-.81v-2.79Z"/><path class="i" d="M212.46,128.15c-1.4,0-2.44-.99-2.44-2.56s1-2.54,2.44-2.54,2.37,1.01,2.37,2.36c0,.18,0,.32-.03,.5h-3.94c.06,1,.76,1.55,1.6,1.55,.74,0,1.21-.38,1.39-.91h.88c-.25,.9-1.04,1.6-2.27,1.6Zm-1.59-2.91h3.12c0-.96-.71-1.49-1.56-1.49-.8,0-1.47,.53-1.56,1.49Z"/><path class="i" d="M216.08,123.81h-.64v-.68h.64v-1.24h.82v1.24h1.29v.68h-1.29v2.91c0,.49,.18,.66,.68,.66h.6v.69h-.74c-.87,0-1.37-.36-1.37-1.35v-2.91Z"/><path class="i" d="M221.21,123.05c.92,0,1.55,.47,1.84,.98v-.9h.83v4.93h-.83v-.92c-.3,.53-.94,1-1.85,1-1.31,0-2.33-1.04-2.33-2.57s1.02-2.53,2.34-2.53Zm.16,.71c-.9,0-1.67,.66-1.67,1.82s.77,1.84,1.67,1.84,1.68-.67,1.68-1.84-.78-1.83-1.68-1.83Z"/><path class="i" d="M227.01,128.15c-1.15,0-1.96-.63-2.02-1.53h.85c.04,.48,.47,.84,1.16,.84,.65,0,1.01-.32,1.01-.73,0-1.1-2.92-.46-2.92-2.29,0-.76,.71-1.38,1.81-1.38s1.81,.58,1.86,1.55h-.82c-.04-.5-.41-.86-1.07-.86-.6,0-.96,.29-.96,.68,0,1.17,2.86,.53,2.9,2.29,0,.81-.71,1.42-1.8,1.42Z"/><path class="i" d="M230.22,128.12c-.32,0-.56-.24-.56-.56s.24-.56,.56-.56c.3,0,.54,.24,.54,.56s-.24,.56-.54,.56Z"/></g><rect class="j" x="166" y="70.09" width="145" height="34" rx="9" ry="9"/><g><rect class="f" x="166" y="70.09" width="47" height="34" rx="9" ry="9"/><path class="j" d="M204,105.09h-29c-5.51,0-10-4.49-10-10v-16c0-5.51,4.49-10,10-10h29c5.51,0,10,4.49,10,10v16c0,5.51-4.49,10-10,10Zm-29-34c-4.41,0-8,3.59-8,8v16c0,4.41,3.59,8,8,8h29c4.41,0,8-3.59,8-8v-16c0-4.41-3.59-8-8-8h-29Z"/></g><g><path class="f" d="M222.65,78.9c0,2.11-1.45,3.48-3.68,3.48h-2.44v-6.98h2.44c2.23,0,3.68,1.38,3.68,3.5Zm-3.73,2.29c1.47,0,2.3-.84,2.3-2.29s-.83-2.32-2.3-2.32h-.99v4.61h.99Z"/><path class="f" d="M223.55,75.36c0-.46,.36-.82,.86-.82s.86,.36,.86,.82-.37,.82-.86,.82-.86-.36-.86-.82Zm.15,1.48h1.4v5.54h-1.4v-5.54Z"/><path class="f" d="M227.88,82.38h-1.4v-5.54h1.4v.86c.35-.57,.93-.94,1.7-.94v1.47h-.37c-.83,0-1.33,.32-1.33,1.39v2.76Z"/><path class="f" d="M232.94,82.47c-1.61,0-2.78-1.12-2.78-2.86s1.14-2.86,2.78-2.86,2.73,1.09,2.73,2.74c0,.18,0,.36-.04,.54h-4.05c.07,.82,.63,1.28,1.33,1.28,.6,0,.93-.3,1.11-.67h1.51c-.3,1.02-1.22,1.83-2.59,1.83Zm-1.35-3.38h2.63c-.02-.73-.6-1.19-1.32-1.19-.67,0-1.2,.43-1.31,1.19Z"/><path class="f" d="M236.91,77.99h-.66v-1.15h.66v-1.37h1.41v1.37h1.24v1.15h-1.24v2.68c0,.37,.15,.53,.59,.53h.65v1.18h-.88c-1.06,0-1.77-.45-1.77-1.72v-2.67Z"/><path class="f" d="M241.97,82.38h-1.4v-5.54h1.4v.86c.35-.57,.93-.94,1.7-.94v1.47h-.37c-.83,0-1.33,.32-1.33,1.39v2.76Z"/><path class="f" d="M244.46,75.36c0-.46,.36-.82,.86-.82s.86,.36,.86,.82-.37,.82-.86,.82-.86-.36-.86-.82Zm.15,1.48h1.4v5.54h-1.4v-5.54Z"/><path class="f" d="M251.11,77.97l-2.44,3.26h2.47v1.15h-4.06v-1.13l2.42-3.26h-2.41v-1.15h4.02v1.13Z"/><path class="f" d="M254.64,82.47c-1.61,0-2.78-1.12-2.78-2.86s1.14-2.86,2.78-2.86,2.73,1.09,2.73,2.74c0,.18,0,.36-.04,.54h-4.05c.07,.82,.63,1.28,1.33,1.28,.6,0,.93-.3,1.11-.67h1.51c-.3,1.02-1.22,1.83-2.59,1.83Zm-1.35-3.38h2.63c-.02-.73-.6-1.19-1.32-1.19-.67,0-1.2,.43-1.31,1.19Z"/><path class="f" d="M260.51,82.47c-1.39,0-2.36-.81-2.42-1.84h1.41c.05,.42,.44,.74,1,.74s.85-.25,.85-.57c0-.99-3.13-.36-3.13-2.39,0-.92,.82-1.66,2.19-1.66s2.15,.73,2.23,1.83h-1.34c-.04-.43-.38-.72-.93-.72-.52,0-.79,.21-.79,.53,0,1.01,3.07,.38,3.11,2.41,0,.95-.83,1.67-2.18,1.67Z"/><path class="f" d="M263.94,80.84h1.48l-1.24,2.98h-.91l.67-2.98Z"/><path class="f" d="M218.99,94.47c-1.6,0-2.81-1.12-2.81-2.86s1.25-2.86,2.85-2.86,2.85,1.11,2.85,2.86-1.28,2.86-2.89,2.86Zm0-1.22c.74,0,1.45-.54,1.45-1.64s-.69-1.64-1.43-1.64-1.41,.53-1.41,1.64,.64,1.64,1.39,1.64Z"/><path class="f" d="M226.14,88.75c1.42,0,2.53,1.11,2.53,2.84s-1.11,2.88-2.53,2.88c-.87,0-1.49-.4-1.83-.88v.79h-1.4v-7.4h1.4v2.67c.34-.51,.99-.9,1.83-.9Zm-.37,1.23c-.75,0-1.46,.58-1.46,1.63s.71,1.63,1.46,1.63,1.47-.6,1.47-1.65-.71-1.61-1.47-1.61Z"/><path class="f" d="M231.09,88.84v6.45c0,1.28-.69,1.73-1.76,1.73h-.62v-1.19h.4c.43,0,.58-.16,.58-.53v-6.46h1.4Zm-1.56-1.48c0-.46,.36-.82,.87-.82s.85,.36,.85,.82-.36,.82-.85,.82-.87-.36-.87-.82Z"/><path class="f" d="M234.89,94.47c-1.61,0-2.78-1.12-2.78-2.86s1.14-2.86,2.78-2.86,2.73,1.09,2.73,2.74c0,.18,0,.36-.04,.54h-4.05c.07,.82,.63,1.28,1.33,1.28,.6,0,.93-.3,1.11-.67h1.51c-.3,1.02-1.22,1.83-2.59,1.83Zm-1.35-3.38h2.63c-.02-.73-.6-1.19-1.32-1.19-.67,0-1.2,.43-1.31,1.19Z"/><path class="f" d="M238.86,89.99h-.66v-1.15h.66v-1.37h1.41v1.37h1.24v1.15h-1.24v2.68c0,.37,.15,.53,.59,.53h.65v1.18h-.88c-1.06,0-1.77-.45-1.77-1.72v-2.67Z"/><path class="f" d="M242.37,87.36c0-.46,.36-.82,.86-.82s.86,.36,.86,.82-.37,.82-.86,.82-.86-.36-.86-.82Zm.15,1.48h1.4v5.54h-1.4v-5.54Z"/><path class="f" d="M246.21,88.84l1.4,4.25,1.4-4.25h1.49l-2.05,5.54h-1.7l-2.04-5.54h1.5Z"/><path class="f" d="M253.75,94.47c-1.6,0-2.81-1.12-2.81-2.86s1.25-2.86,2.85-2.86,2.85,1.11,2.85,2.86-1.28,2.86-2.89,2.86Zm0-1.22c.74,0,1.45-.54,1.45-1.64s-.69-1.64-1.43-1.64-1.41,.53-1.41,1.64,.64,1.64,1.39,1.64Z"/><path class="f" d="M259.79,94.47c-1.39,0-2.36-.81-2.42-1.84h1.41c.05,.42,.44,.74,1,.74s.85-.25,.85-.57c0-.99-3.13-.36-3.13-2.39,0-.92,.82-1.66,2.19-1.66s2.15,.73,2.23,1.83h-1.34c-.04-.43-.38-.72-.93-.72-.52,0-.79,.21-.79,.53,0,1.01,3.07,.38,3.11,2.41,0,.95-.83,1.67-2.18,1.67Z"/><path class="f" d="M267.92,94.47c-1.61,0-2.78-1.12-2.78-2.86s1.14-2.86,2.78-2.86,2.73,1.09,2.73,2.74c0,.18,0,.36-.04,.54h-4.05c.07,.82,.63,1.28,1.33,1.28,.6,0,.93-.3,1.11-.67h1.51c-.3,1.02-1.22,1.83-2.59,1.83Zm-1.35-3.38h2.63c-.02-.73-.6-1.19-1.32-1.19-.67,0-1.2,.43-1.31,1.19Z"/><path class="f" d="M281.79,91.32c0-.88-.49-1.34-1.23-1.34s-1.24,.46-1.24,1.34v3.06h-1.4v-3.06c0-.88-.49-1.34-1.23-1.34s-1.25,.46-1.25,1.34v3.06h-1.4v-5.54h1.4v.67c.35-.46,.94-.75,1.63-.75,.86,0,1.57,.37,1.95,1.06,.36-.63,1.09-1.06,1.9-1.06,1.33,0,2.27,.84,2.27,2.37v3.25h-1.4v-3.06Z"/><path class="f" d="M286.95,94.47c-1.61,0-2.78-1.12-2.78-2.86s1.14-2.86,2.78-2.86,2.73,1.09,2.73,2.74c0,.18,0,.36-.04,.54h-4.05c.07,.82,.63,1.28,1.33,1.28,.6,0,.93-.3,1.11-.67h1.51c-.3,1.02-1.22,1.83-2.59,1.83Zm-1.35-3.38h2.63c-.02-.73-.6-1.19-1.32-1.19-.67,0-1.2,.43-1.31,1.19Z"/><path class="f" d="M290.92,89.99h-.66v-1.15h.66v-1.37h1.41v1.37h1.24v1.15h-1.24v2.68c0,.37,.15,.53,.59,.53h.65v1.18h-.88c-1.06,0-1.77-.45-1.77-1.72v-2.67Z"/><path class="f" d="M296.75,88.75c.89,0,1.5,.42,1.83,.88v-.79h1.41v5.54h-1.41v-.81c-.33,.48-.96,.9-1.84,.9-1.4,0-2.52-1.15-2.52-2.88s1.12-2.84,2.53-2.84Zm.36,1.23c-.75,0-1.46,.56-1.46,1.61s.71,1.65,1.46,1.65,1.47-.58,1.47-1.63-.7-1.63-1.47-1.63Z"/><path class="f" d="M303.48,94.47c-1.39,0-2.36-.81-2.42-1.84h1.41c.05,.42,.44,.74,1,.74s.85-.25,.85-.57c0-.99-3.13-.36-3.13-2.39,0-.92,.82-1.66,2.19-1.66s2.15,.73,2.23,1.83h-1.34c-.04-.43-.38-.72-.93-.72-.52,0-.79,.21-.79,.53,0,1.01,3.07,.38,3.11,2.41,0,.95-.83,1.67-2.18,1.67Z"/></g><path class="h" d="M176.06,76.88c0-.58,.47-1.06,1.06-1.06h26.06c.59,0,1.06,.47,1.06,1.06s-.47,1.06-1.06,1.06h-26.06c-.58,0-1.06-.47-1.06-1.06Zm0,20.43c0-.59,.47-1.06,1.06-1.06h26.06c.59,0,1.06,.47,1.06,1.06s-.47,1.06-1.06,1.06h-26.06c-.58,0-1.06-.47-1.06-1.06Zm9.3-14.44c0,1.55-1.26,2.82-2.82,2.82s-2.82-1.26-2.82-2.82,1.26-2.82,2.82-2.82,2.82,1.26,2.82,2.82Zm-7.89,7.04c0-1.55,1.26-2.82,2.82-2.82h4.23c.54,0,1.04,.15,1.47,.41-1.64,.66-2.89,2.08-3.34,3.81h-3.77c-.78,0-1.41-.63-1.41-1.41h0Zm16.9-2.44c.41-.24,.9-.38,1.41-.38h4.23c1.55,0,2.82,1.26,2.82,2.82,0,.78-.63,1.41-1.41,1.41h-3.63c-.46-1.77-1.78-3.2-3.42-3.85Zm-1.09,1.14c1.41,.33,2.56,1.36,3.03,2.71,.16,.44,.24,.92,.24,1.41,0,.78-.63,1.41-1.41,1.41h-9.86c-.78,0-1.41-.63-1.41-1.41,0-.49,.08-.97,.24-1.41,.46-1.31,1.55-2.32,2.91-2.68,.31-.09,.7-.14,1.08-.14h4.23c.33,0,.65,.04,.95,.11Zm7.57-5.74c0,1.55-1.26,2.82-2.82,2.82s-2.82-1.26-2.82-2.82,1.26-2.82,2.82-2.82,2.82,1.26,2.82,2.82Zm-14.16,.7c0-1.95,1.58-3.52,3.52-3.52s3.52,1.58,3.52,3.52-1.58,3.52-3.52,3.52-3.52-1.58-3.52-3.52Z"/></g><g id="b"><path class="m" d="M244.43,181.09l7.03-7.04c.52-.52,1.35-.52,1.87,0h0c.52,.53,.52,1.37,0,1.89l-7.96,7.97c-.5,.5-1.31,.52-1.83,.04l-8.03-8.01c-.52-.52-.52-1.36,0-1.88,.52-.52,1.36-.52,1.88,0l7.04,7.03Z"/></g><g id="c"><path class="m" d="M244.43,55.09l7.03-7.04c.52-.52,1.35-.52,1.87,0h0c.52,.53,.52,1.37,0,1.89l-7.96,7.97c-.5,.5-1.31,.52-1.83,.04l-8.03-8.01c-.52-.52-.52-1.36,0-1.88,.52-.52,1.36-.52,1.88,0l7.04,7.03Z"/></g><g id="d"><path class="m" d="M74.43,55.09l7.03-7.04c.52-.52,1.35-.52,1.87,0h0c.52,.53,.52,1.37,0,1.89l-7.96,7.97c-.5,.5-1.31,.52-1.83,.04l-8.03-8.01c-.52-.52-.52-1.36,0-1.88,.52-.52,1.36-.52,1.88,0l7.04,7.03Z"/></g><g id="e"><path class="m" d="M74.08,240.46l7.03-7.04c.52-.52,1.35-.52,1.87,0h0c.52,.53,.52,1.37,0,1.89l-7.96,7.97c-.5,.5-1.31,.52-1.83,.04l-8.03-8.01c-.52-.52-.52-1.36,0-1.88,.52-.52,1.36-.52,1.88,0l7.04,7.03Z"/></g></svg>