<?xml version="1.0" encoding="UTF-8"?><svg id="a" xmlns="http://www.w3.org/2000/svg" viewBox="0 0 232.88 141.75"><defs><style>.b{fill:#085ca5;fill-rule:evenodd;}</style></defs><path class="b" d="M50.07,93.89c-9.12,0-16.24-6.46-16.24-14.48v-27.31h12.24v28.43c0,3.57,3.12,6.45,7.12,6.45,3.78,0,7.14-2.88,7.14-6.45v-28.43h5.77v27.31c0,8.02-7.12,14.48-16.03,14.48M15.56,77.41l-7.57-2.22c-4.65-1.56-7.99-6.22-7.99-11.34,0-6.69,5.34-11.98,12.02-11.98h14.92v5.29h-10.47c-2,0-3.77,1.55-3.77,3.79,0,1.33,.88,2.89,2.43,3.33l7.35,2.45c4.91,1.57,7.56,6.67,7.56,12.46,0,7.34-5.77,13.36-13.13,13.36H1.12v-6.01H14.7c1.98,0,4.22-1.98,4.22-4.65,0-2.02-1.35-3.79-3.36-4.47m69.48,0l-7.59-2.22c-4.91-1.56-8.21-6.22-8.21-11.34,0-6.69,5.31-11.98,12.02-11.98h14.9v5.29h-10.46c-2.02,0-3.78,1.55-3.78,3.79,0,1.33,.87,2.89,2.45,3.33l7.33,2.45c5.12,1.57,7.81,6.67,7.81,12.46,0,7.34-6.03,13.36-13.38,13.36h-15.79v-6.01h13.57c2,0,4.24-1.98,4.24-4.65,0-2.02-1.12-3.79-3.11-4.47"/><path class="b" d="M188.3,92.36h4.81v30.68c-.59-3.18-2.39-21.86-2.17-27.84-.6-.62-2.64-2.84-2.64-2.84m-35.97-32.77h0l-5.14-5.23c-6.84,.09-28.88-2.24-35.96-3.48v39.46c35.37,3.5,53.93,4.37,74.65,3.72h.34l-33.89-34.47Zm.25-11h39.51V10.31h-39.51V48.58Zm-30.64,2.3c2.62,.22,25.74,2.24,27.29,2.24l36.6,37.22h47.04V50.88H121.94Zm66.53,45.33s-21.1,1.44-39.05-.19c.36,21.82,3,33.03,3.43,35.42h39.23c-1.87-11.47-3.35-30-3.6-35.24"/></svg>